/* XPM */
static char *result[] = {
/* columns rows colors chars-per-pixel */
"64 64 8 1 ",
"  c #8A8A9E",
". c #9090A2",
"X c #9494A7",
"o c #9494AA",
"O c #9F9FB9",
"+ c #A4A4C0",
"@ c #ADADCD",
"# c #C1C1DF",
/* pixels */
"OOOO@@@@@@@@@@@@@@@@@@@@@@@@@@@@@@@@@@@@@@@@@@@@@@@@@@@@@@@@++++",
"OOOO@@@@@@@@@@@@@@@@@@@@@@@@@@@@@@@@@@@@@@@@@@@@@@@@@@@@@@@@++++",
"OOOO@@@@@@@@@@@@@@@@@@@@@@@@@@@@@@@@@@@@@@@@@@@@@@@@@@@@@@@@++++",
"OOOO@@@@@@@@@@@@@@@@@@@@@@@@@@@@@@@@@@@@@@@@@@@@@@@@@@@@@@@@++++",
"XXXX########################################################OOOO",
"XXXX########################################################OOOO",
"XXXX########################################################OOOO",
"XXXX########################################################OOOO",
"XXXX########################################################OOOO",
"XXXX########################################################OOOO",
"XXXX########################################################OOOO",
"XXXX########################################################OOOO",
"XXXX########################################################OOOO",
"XXXX########################################################OOOO",
"XXXX########################################################OOOO",
"XXXX########################################################OOOO",
"XXXX########################################################OOOO",
"XXXX########################################################OOOO",
"XXXX########################################################OOOO",
"XXXX########################################################OOOO",
"XXXX########################################################OOOO",
"XXXX########################################################OOOO",
"XXXX########################################################OOOO",
"XXXX########################################################OOOO",
"XXXX########################################################OOOO",
"XXXX########################################################OOOO",
"XXXX########################################################OOOO",
"XXXX########################################################OOOO",
"XXXX########################################################OOOO",
"XXXX########################################################OOOO",
"XXXX########################################################OOOO",
"XXXX########################################################OOOO",
"XXXX########################################################OOOO",
"XXXX########################################################OOOO",
"XXXX########################################################OOOO",
"XXXX########################################################OOOO",
"XXXX########################################################OOOO",
"XXXX########################################################OOOO",
"XXXX########################################################OOOO",
"XXXX########################################################OOOO",
"XXXX########################################################OOOO",
"XXXX########################################################OOOO",
"XXXX########################################################OOOO",
"XXXX########################################################OOOO",
"XXXX########################################################OOOO",
"XXXX########################################################OOOO",
"XXXX########################################################OOOO",
"XXXX########################################################OOOO",
"XXXX########################################################OOOO",
"XXXX########################################################OOOO",
"XXXX########################################################OOOO",
"XXXX########################################################OOOO",
"XXXX########################################################OOOO",
"XXXX########################################################OOOO",
"XXXX########################################################OOOO",
"XXXX########################################################OOOO",
"XXXX########################################################OOOO",
"XXXX########################################################OOOO",
"XXXX########################################################OOOO",
"XXXX########################################################OOOO",
"....                                                        oooo",
"....                                                        oooo",
"....                                                        oooo",
"....                                                        oooo"
};
