/* XPM */
static char *d9fa8f8266264b5ce74584d7aaf48d23e5wLwAwygyVaIIZm[] = {
/* columns rows colors chars-per-pixel */
"64 64 141 2 ",
"   c None",
".  c #020101",
"X  c #0A0202",
"o  c #050803",
"O  c #05040B",
"+  c gray3",
"@  c #110702",
"#  c #19170B",
"$  c #1F1D0D",
"%  c #000511",
"&  c #000A13",
"*  c #171717",
"=  c #1A1515",
"-  c #141B16",
";  c #1A1B16",
":  c #14161D",
">  c #19151A",
",  c #151B1B",
"<  c #1A1A1A",
"1  c #22190D",
"2  c #211D14",
"3  c #22171C",
"4  c #23191C",
"5  c #192118",
"6  c #2D2F2D",
"7  c #343621",
"8  c #3E3425",
"9  c #363827",
"0  c #32352E",
"q  c #393628",
"w  c #2A2F31",
"e  c #273131",
"r  c #2D3234",
"t  c #333333",
"y  c #3B3334",
"u  c #353833",
"i  c #35333B",
"p  c #39343C",
"a  c #5F2E87",
"s  c #5D2E8A",
"d  c #593287",
"f  c #5C328C",
"g  c #543191",
"h  c #5D3192",
"j  c #652F8A",
"k  c #61308D",
"l  c #6A318E",
"z  c #643393",
"x  c #6A3290",
"c  c #633498",
"v  c #6C349D",
"b  c #6D39A3",
"n  c #6D3EAB",
"m  c #743BA5",
"M  c #7A3EA6",
"N  c #753DAA",
"B  c #7B3DAC",
"V  c #6F3EB4",
"C  c #773DB6",
"Z  c #7A3EB5",
"A  c #7541AB",
"S  c #7840AC",
"D  c #6D42B3",
"F  c #7541B2",
"G  c #7D42B3",
"H  c #803BAA",
"J  c #9D48AF",
"K  c #934CB3",
"L  c #9D4AB6",
"P  c #9E4BBB",
"I  c #A146B4",
"U  c #A847B7",
"Y  c #A04AB6",
"T  c #A24BBB",
"R  c #A94BBF",
"E  c #9C4DC4",
"W  c #A44CC3",
"Q  c #A94CC1",
"!  c #BE4FC5",
"~  c #A950CB",
"^  c #BF51D9",
"/  c #C14EC3",
"(  c #CB4CC5",
")  c #C64DCA",
"_  c #CB4ECB",
"`  c #D24FCF",
"'  c #CB50C7",
"]  c #C553CE",
"[  c #C950CE",
"{  c #D050CE",
"}  c #C64BD0",
"|  c #CC4ED0",
" . c #D34ED3",
".. c #C452D2",
"X. c #C951D1",
"o. c #CA52D0",
"O. c #CB52D0",
"+. c #CC50D1",
"@. c #CC53D1",
"#. c #C854D7",
"$. c #CC55D7",
"%. c #CB52D2",
"&. c #C253DB",
"*. c #CF52DA",
"=. c #D052D1",
"-. c #D050D0",
";. c #C954E2",
":. c #DF6EE7",
">. c #DF6EE7",
",. c #DC6FEC",
"<. c #DC71E2",
"1. c #DD73E4",
"2. c #DD71EA",
"3. c #DC72EA",
"4. c #DF73EA",
"5. c #DD73ED",
"6. c #DF74EF",
"7. c #DE73EC",
"8. c #DF78E9",
"9. c #DC73F7",
"0. c #DC77F4",
"q. c #DD75F4",
"w. c #DA71FB",
"e. c #DA74FC",
"r. c #DA71FB",
"t. c #D778FC",
"y. c #D778FC",
"u. c #E06EED",
"i. c #E572E4",
"p. c #E075E6",
"a. c #E075E6",
"s. c #E272EA",
"d. c #E172EC",
"f. c #E172ED",
"g. c #E273EC",
"h. c #E173EE",
"j. c #E072EF",
"k. c #E076EE",
"l. c #E274ED",
"z. c #E077F2",
"x. c #E074F0",
/* pixels */
"                                                              t                                                                 ",
"                                                            t t t                                                               ",
"                                                          y y T y t                                                             ",
"                                                        t u W O L t t                                                           ",
"                                                      u 0 U . . X E p t                                                         ",
"                                                    t y N . X d.@ . m t t                                                       ",
"                                                  u 0 b o O 9.) d.. X N y t                                                     ",
"                                                t y N . + 0.#._ O.d.@ . Z t t                                                   ",
"                                              u 0 b o . z.O.O.O.O._ d.X . N y t                                                 ",
"                                            t y N . + ) D P P P P L B -.. . Z t t                                               ",
"                                          u 0 b o . ..m P m P L L B P b _ X . N y t                                             ",
"                                        t y N . + _ G I B m z L x N m K A -.. . Z t t                                           ",
"                                      u 0 b o O ;.F E B B B B k N B B N T m  .X . N y t                                         ",
"                                    t y N . + [ $.@.[ T T T T Y P T T L [ ) [ -.. . Z t t                                       ",
"                                  0 u b o . ..< < < < < < < < < < < < < < < < 5 &.X . n i t                                     ",
"                                t y c . + ( < < < < < < < < < < < < < < < < < ; : -.. . v t t                                   ",
"                              0 u z o . ..< < < . . . . < = 4 T $ < < . . . . * < 5 &.X . g p t                                 ",
"                            t y c O o ( < < < . . . . < < = ~ f I < < < . . . . < ; : -.. . v t t                               ",
"                          0 u z o . ..< < < . . . . < = 4 T l k k T $ < < . . . . * < 5 &.X . g p t                             ",
"                        t y c O o ( < < < . . . . < < = ~ k k k k f I < < < . . . . < ; : -.. . v t t                           ",
"                      0 u z o . ..< < < . . . . < = 4 T l k k s k k k T $ < < . . . . * < 5 &.X . g p t                         ",
"                    t y c O o ( < < < . . . . < < = ~ k k k k I x k k f I < < < . . . . < ; : -.. . v t t                       ",
"                  u 0 b o . ..< < < . . . . < * 3 T l k k z Q m P s k k k T $ < < . . . . * < 5 &.X . N y t                     ",
"                t y N . + ( < < < . . . . < < - *.k k k k T M I B I x k k f I < < < . . . . < ; : -.. . Z t t                   ",
"              u 0 b o . ..[ < < . . . . < * 3 O.d k k s J N P P P F Y s k k k [ 4 < < . . . . < < _ | X . N y t                 ",
"            t y N . + _ G [ < < . . . < < - *.l k k k T o W T P P E + I x k k l ( < < < . . . < < | N -.. . Z t t               ",
"          u 0 b o . ..N P [ < < . . < * 3 O.d k k s J . . [ [ [ [ O.. o P s k k k [ 4 < < . . < < [ P b _ X . N p t             ",
"        t y N . + _ G W T [ < < . < < - *.l k k k T o < . [ [ [ [ O.. ; & I x k k l ( < < < . < < [ P K A @.. . C t t           ",
"      y y b o O 9.z Q P P _ > < < * 3 O.d k k h / . < < . [ [ [ [ O.. < < o ..j z k k [ 4 < < < < ) L P T z ,.. X V i t         ",
"    t u W . + 0.#.T M P P 5.- < < - *.l k k k ... < < < . [ [ [ [ O.. < < < % [ f k k l ( < < < < 3.L T M T O.d.@ . P t t       ",
"  y y U . O 9.[ [ P P m P d.< = p 3.d k k h / . < < < ; o L L L L T X ; ; < * o ^ j z k k k.u < < d.L N P P @.) d.. X T y t     ",
"t u W . X 0.#.[ [ P P I B d.< 6 e.j z k k ... . t d.d.....[ [ [ [ { ` [ d.s.9 o . [ f k k z i.t < d.m W T P @._ O.d.@ O L t t   ",
"  t t T . o t._ _ P T N P d.< < t 3.z k k s  .O < u w._ _ [ [ [ [ [ [ ] <.t < . ..k k s k :.8 < < 6.L m P P @...p.. + T 8 t     ",
"    t i L . O 3.] T M W T d.< < < u q.k k s l [ 2 < r 3.] [ [ [ [ [ [ q.0 < < ] z k k k 0.w 4 < < 6.L L B P @.0.o . W i y       ",
"      t t N . o t.x I P P [ < < < < < [ z k k s  ., > u w.[ [ [ [ ] <.t < , ..k k k f ) 1 < < < < [ P P T f 8.. . S q t         ",
"        t t C . O ] M P P [ < < . < < ; } k k s l [ # < r k.k.k.k.q.0 < < ..c k k f #., 3 < . < < [ P T M ... . G i t           ",
"          t t N . o ^ H Q [ < < . . < < < [ z k k l  ., > u w.q.u.t < , ..k k k f ) 1 < < . . < < O.T N ' . . S q t             ",
"            t t C o . ) A [ < < . . . < < ; } k k n z [ # < r 5.0 < < ..c B z f #., 3 < . . . < < [ M ..O . G i t               ",
"              t t N . o ^ [ < * . . . . < < < [ z N N l  ., > t < , ..k N A f ) 1 < < . . . . < < o.[ . . S q t                 ",
"                t t C o . [ < * < . . . . < < ; } N N n z [ # < < ..c B B N .., 3 < . . . . < < < @.o . G i t                   ",
"                  t t n . o ^ , > * . . . . < < < _ Z N N l  ., ..k N N N ) 1 < < . . . . < < < ... . S q t                     ",
"                    t r v o . [ # * < . . . . < < < _ N N n z ..c B B N | , 3 < . . . . < < < _ X . z i t                       ",
"                      t t g O o ^ , > * . . . . < < < _ Z N N l N b Z ) 1 < < . . . . < < < ... . a 7 t                         ",
"                        t e v o . [ # * < . . . . < < ; u.N N B B b z., 3 < . . . . < < < _ X . z y t                           ",
"                          t t g O o ^ , > * . . . . < < t 1.Z b Z :.8 < < . . . . < < < ... . a 7 t                             ",
"                            t e v o . [ # * < . . . . < < r q.b k.w 4 < . . . . < < < _ X . z y t                               ",
"                              t t g O o ^ , > * . . . . < < t :.8 < < . . . . < < < ... . a 7 t                                 ",
"                                t e v o . [ # * < < < < < < < w 4 < < < < < < < < _ X . z y t                                   ",
"                                  t t N . o ^ ; ; ; ; ; ; < < < < < < ; ; ; ; < ... . S q t                                     ",
"                                    t t C o . ........] d.d.d.d.d.d.d........._ X . G i t                                       ",
"                                      t t N . o ^ R P L L R P R P L L R P T | . . S q t                                         ",
"                                        t t C o . -.T [ [ -.T -.T [ [ -.T @.o . G i t                                           ",
"                                          t t N . o ^ L ` m  .[ [ A ) T | . . S q t                                             ",
"                                            t t C o . ! M ) [ [ [ ] N @.o X G i t                                               ",
"                                              t t N . o t._ _ [ [ ..p.. . S q t                                                 ",
"                                                t t C . O 3.] [ [ 0.o . G i t                                                   ",
"                                                  t t N . o t...p.. . S q t                                                     ",
"                                                    t t C . O 0.o . G i t                                                       ",
"                                                      t t N . . . S q t                                                         ",
"                                                        t t C . G i t                                                           ",
"                                                          t t S q t                                                             ",
"                                                            t i t                                                               ",
"                                                              t                                                                 ",
"                                                                                                                                "
};
