/* XPM */
static char *b1f34f6b559d4b478684007d7ad20d76W9ecpOnxhh5v9HE0[] = {
/* columns rows colors chars-per-pixel */
"64 64 11 1 ",
"  c black",
". c #020204",
"X c #05040A",
"o c #07060E",
"O c #090812",
"+ c #0D0B17",
"@ c #100E1B",
"# c #13101F",
"$ c #151323",
"% c #262242",
"& c #2A2648",
/* pixels */
"                        ........XXXXooooOOOO++++@@@@#$##%%%%&&&&",
"                                         ........XXXXooo%%%%&&&&",
"                                         ........XXXXooo%%%%&&&&",
"                                         ........XXXXooo%%%%&&&&",
"                                         ........XXXXooo$$$$&&&&",
"                                         ........XXXXooo$$$$&&&&",
"                                         ........XXXXooo$$$$&&&&",
"                                         ........XXXXooo$$$$&&&&",
"                                         ........XXXXooo.XXXXooo",
"                                         ........XXXXooo.XXXXooo",
"                                         ........XXXXooo.XXXXooo",
"                                         ........XXXXooo.XXXXooo",
"                                         ........XXXXooo.XXXXooo",
"                                         ........XXXXooo.XXXXooo",
"                                         ........XXXXooo.XXXXooo",
"                                         ........XXXXooo.XXXXooo",
"                                         ........XXXXooo.XXXXooo",
"                                         ........XXXXooo.XXXXooo",
"                                         ........XXXXooo.XXXXooo",
"                                         ........XXXXooo.XXXXooo",
"                                         ........XXXXooo.XXXXooo",
"                                         ........XXXXooo.XXXXooo",
"                                         ........XXXXooo.XXXXooo",
"                                         ........XXXXooo.XXXXooo",
"                                         ........XXXXooo.XXXXooo",
"                                         ........XXXXooo.XXXXooo",
"                                         ........XXXXooo.XXXXooo",
"                                         ........XXXXooo.XXXXooo",
"                                         ........XXXXooo.XXXXooo",
"                                         ........XXXXooo.XXXXooo",
"                                         ........XXXXooo.XXXXooo",
"                                         ........XXXXooo.XXXXooo",
"                                         ........XXXXooo.XXXXooo",
"                                         ........XXXXooo.XXXXooo",
"                                         ........XXXXooo.XXXXooo",
"                                         ........XXXXooo.XXXXooo",
"                                         ........XXXXooo.XXXXooo",
"                                         ........XXXXooo.XXXXooo",
"                                         ........XXXXooo.XXXXooo",
"                                         ........XXXXooo.XXXXooo",
"                                         ........XXXXooo.XXXXooo",
"                                         ........XXXXooo.XXXXooo",
"                                         ........XXXXooo.XXXXooo",
"                                         ........XXXXooo.XXXXooo",
"                                         ........XXXXooo.XXXXooo",
"                                         ........XXXXooo.XXXXooo",
"                                         ........XXXXooo.XXXXooo",
"                                         ........XXXXooo.XXXXooo",
"                                         ........XXXXooo.XXXXooo",
"                                         ........XXXXooo.XXXXooo",
"                                         ........XXXXooo.XXXXooo",
"                                         ........XXXXooo.XXXXooo",
"                                         ........XXXXooo.XXXXooo",
"                                         ........XXXXooo.XXXXooo",
"                                         ........XXXXooo.XXXXooo",
"                                         ........XXXXooo.XXXXooo",
"                                         ........XXXXooo.XXXXooo",
"                        .                        ........XXXXooo",
"                        .                        ........XXXXooo",
"                        .                        ........XXXXooo",
"                        .                        ........XXXXooo",
"                        .                        ........XXXXooo",
"                        .                        ........XXXXooo",
"                        .                        ........XXXXooo"
};
