/* XPM */
static char *a0dfd3985ca94bfc924d51c3acc2db107UVcxjKzyKNBAuYs[] = {
/* columns rows colors chars-per-pixel */
"64 64 11 1 ",
"  c #010102",
". c #030306",
"X c #05040A",
"o c #07060E",
"O c #090812",
"+ c #0D0B17",
"@ c #100E1B",
"# c #13101F",
"$ c #151323",
"% c #262242",
"& c #2A2648",
/* pixels */
"&&&&&&&&oooooooooooooooooooooooooooooooooooooooooooooooooooooooo",
"&&&&&&&&oooooooooooooooooooooooooooooooooooooooooooooooooooooooo",
"&&&&&&&&oooooooooooooooooooooooooooooooooooooooooooooooooooooooo",
"&&&&&&&&XXXXXXXXXXXXXXXXXXXXXXXXXXXXXXXXXXXXXXXXXXXXXXXXXXXXXXXX",
"%%%%$$$$XXXXXXXXXXXXXXXXXXXXXXXXXXXXXXXXXXXXXXXXXXXXXXXXXXXXXXXX",
"%%%%$$$$XXXXXXXXXXXXXXXXXXXXXXXXXXXXXXXXXXXXXXXXXXXXXXXXXXXXXXXX",
"%%%%$$$$XXXXXXXXXXXXXXXXXXXXXXXXXXXXXXXXXXXXXXXXXXXXXXXXXXXXXXXX",
"%%%%$$$$........................................................",
"#oooooooooooooooooooooooooooooooooooooooooooooooooooooooo.......",
"#oooooooooooooooooooooooooooooooooooooooooooooooooooooooo.......",
"#oooooooooooooooooooooooooooooooooooooooooooooooooooooooo.......",
"#XXXXXXXXXXXXXXXXXXXXXXXXXXXXXXXXXXXXXXXXXXXXXXXXXXXXXXXX.......",
"@XXXXXXXXXXXXXXXXXXXXXXXXXXXXXXXXXXXXXXXXXXXXXXXXXXXXXXXX.....  ",
"@XXXXXXXXXXXXXXXXXXXXXXXXXXXXXXXXXXXXXXXXXXXXXXXXXXXXXXXX.....  ",
"@XXXXXXXXXXXXXXXXXXXXXXXXXXXXXXXXXXXXXXXXXXXXXXXXXXXXXXXX....   ",
"@........................................................       ",
"+........................................................       ",
"+........................................................       ",
"+........................................................       ",
"+.... ........ ....... ....................... .......  .       ",
"O.................    ....................    ...........       ",
"O.......................... ..... .......................       ",
"O.....    ......... ......   ..     ....... ....  ......        ",
"O                                                               ",
"o                                                               ",
"o                                                               ",
"o                                                               ",
"o                                                               ",
"X                                                               ",
"X                                                               ",
"X                                                               ",
"X                                                               ",
".                                                               ",
".                                                               ",
".                                                               ",
".                                                               ",
"                                                                ",
"                                                                ",
"                                                                ",
"                                                            ....",
"                                                                ",
"                                                                ",
"                                                                ",
"                                                                ",
"                                                                ",
"                                                                ",
"                                                                ",
"                                                                ",
"                                                                ",
"                                                                ",
"                                                                ",
"                                                                ",
"                                                                ",
"                                                                ",
"                                                                ",
"                                                                ",
"                                                                ",
"                                                                ",
"                                                                ",
"                                                                ",
"                                                                ",
"                                                                ",
"                                                                ",
"                                                                "
};
