/* XPM */
static char *result[] = {
/* columns rows colors chars-per-pixel */
"64 64 228 2 ",
"   c #747373",
".  c #7B7B7B",
"X  c #7A7776",
"o  c #807E7E",
"O  c #897D78",
"+  c #937E79",
"@  c #8A837E",
"#  c #9C847C",
"$  c #98857B",
"%  c #9D987B",
"&  c #A28B7D",
"*  c #A6977C",
"=  c #9AA17D",
"-  c #A6A17F",
";  c #848484",
":  c #8C8B8B",
">  c #898888",
",  c #9D8A85",
"<  c #928E8D",
"1  c #9D8D8B",
"2  c #978783",
"3  c #979789",
"4  c #868F9D",
"5  c #8A959A",
"6  c #949393",
"7  c #9A9696",
"8  c #95969A",
"9  c #989798",
"0  c #9C9B9C",
"q  c #979A97",
"w  c #8A9D89",
"e  c #A68D87",
"r  c #AC9283",
"t  c #A4918E",
"y  c #AD9886",
"u  c #B3948B",
"i  c #BA968E",
"p  c #BC9D8D",
"a  c #B39888",
"s  c #AA9592",
"d  c #A39A96",
"f  c #AB9B95",
"g  c #A29E9D",
"h  c #AB9D9A",
"j  c #A39594",
"k  c #BD9B93",
"l  c #BB9F9C",
"z  c #B69995",
"x  c #8DA289",
"c  c #96A987",
"v  c #8EA29B",
"b  c #98A896",
"n  c #9CBB9B",
"m  c #9AB597",
"M  c #99B18E",
"N  c #A8AA87",
"B  c #BCAB8C",
"V  c #B5A588",
"C  c #A9B58C",
"Z  c #B8B78E",
"A  c #ABA29B",
"S  c #A6A999",
"D  c #B8A69E",
"F  c #A6BA94",
"G  c #BABE90",
"H  c #8A93A6",
"J  c #8D97A9",
"K  c #969AA6",
"L  c #949BB3",
"P  c #959BB5",
"I  c #A09FA0",
"U  c #92A3AC",
"Y  c #99A5A8",
"T  c #9EBCA3",
"R  c #9AB4A7",
"E  c #9BA1B6",
"W  c #9BA2BD",
"Q  c #9AAAB7",
"!  c #9EB1BA",
"~  c #8FA3A4",
"^  c #A4A3A3",
"/  c #ACA5A4",
"(  c #AAA9A7",
")  c #A3A5AC",
"_  c #ABABAB",
"`  c #A3AAA7",
"'  c #B3A4A2",
"]  c #BBA4A3",
"[  c #B3ACA2",
"{  c #B8ABAB",
"}  c #A7B5A9",
"|  c #B6B5A6",
" . c #ACADB2",
".. c #ACADBC",
"X. c #A4A6B5",
"o. c #B0AFB0",
"O. c #B8AFB0",
"+. c #A6B7B6",
"@. c #B4B3B4",
"#. c #B8B7B8",
"$. c #BCBBBC",
"%. c #B5B3B9",
"&. c #C39E94",
"*. c #C09F9B",
"=. c #C4A593",
"-. c #C5A19B",
";. c #CAA39D",
":. c #CCAD9B",
">. c #C7AE95",
",. c #CCBC9A",
"<. c #C5B794",
"1. c #D1B89F",
"2. c #CDA5A1",
"3. c #C7A9A6",
"4. c #D3ABA5",
"5. c #D5AEA9",
"6. c #D5B1AA",
"7. c #DABBAB",
"8. c #D5B9A5",
"9. c #C7B7B6",
"0. c #CBB2AE",
"q. c #ACC194",
"w. c #A7C79C",
"e. c #B7C896",
"r. c #BAD19E",
"t. c #A6CCA4",
"y. c #A5C9A7",
"u. c #ACD3A7",
"i. c #B3D3A3",
"p. c #B4DCAD",
"a. c #BBDCAB",
"s. c #BAD7A3",
"d. c #A8C9B9",
"f. c #ADD4B4",
"g. c #ADD1BC",
"h. c #B5DEB4",
"j. c #B6D6BB",
"k. c #BBE3B4",
"l. c #BCE5BA",
"z. c #BEE8BF",
"x. c #BBE0AF",
"c. c #C5C296",
"v. c #CCC49B",
"b. c #C8CC9C",
"n. c #C7D19F",
"m. c #D1C19F",
"M. c #CCCAA8",
"N. c #D8C8AA",
"B. c #C8D8A5",
"V. c #D3D4A4",
"C. c #DBD5AB",
"Z. c #DBDBAE",
"A. c #D5D8A9",
"S. c #C1C6BC",
"D. c #DCC8B2",
"F. c #C9D5BC",
"G. c #DCD8B3",
"H. c #E2D7B8",
"J. c #E0CBB4",
"K. c #D0E0AF",
"L. c #C6E7B8",
"P. c #DDE3B5",
"I. c #DDE9BB",
"U. c #D7E5BA",
"Y. c #C7E0AE",
"T. c #E2E5BC",
"R. c #9CA3C4",
"E. c #9FABC4",
"W. c #A6ABCC",
"Q. c #A6AAC7",
"!. c #A7B5C7",
"~. c #BEBEC2",
"^. c #BBBBCE",
"/. c #B3B4C8",
"(. c #A6AAD3",
"). c #AAAED4",
"_. c #ABAED9",
"`. c #AEB1DC",
"'. c #ADB8D5",
"]. c #B4BBDD",
"[. c #B7B9D8",
"{. c #B2B6E0",
"}. c #B5B9E3",
"|. c #BABCE4",
" X c #BCBDEB",
".X c #C0BFC0",
"XX c #ADC6C8",
"oX c #B7CAC7",
"OX c #B9D8C5",
"+X c #B7C7D8",
"@X c #BCD4D5",
"#X c #BCE3C2",
"$X c #BFC1EC",
"%X c #BCC4E5",
"&X c #C3C3C4",
"*X c #C5C5CA",
"=X c #CBCBCC",
"-X c #C6C9C3",
";X c #C5D8C7",
":X c #D2D6C8",
">X c #CECED2",
",X c #C4C4DB",
"<X c #C7C8D7",
"1X c #C4D9DB",
"2X c #D3D3D3",
"3X c #D5D5DA",
"4X c #DBDBDC",
"5X c #D0CFD2",
"6X c #C4EAC3",
"7X c #C8E8C6",
"8X c #D8EEC3",
"9X c #C5E1D4",
"0X c #E3EDC2",
"qX c #E4F0C6",
"wX c #C3C4EC",
"eX c #CBCCED",
"rX c #C7CBE5",
"tX c #C6D3E2",
"yX c #DDDDE3",
"uX c #D3D3EB",
"iX c #DBDBEB",
"pX c #D4D4E3",
"aX c #E2E2E4",
"sX c #E5E5EB",
"dX c #EAEAED",
"fX c #EEEEF0",
"gX c #F0F0F1",
"hX c None",
/* pixels */
"hXhXhXhXhXhXhXhXhXhXhXhXhXhXhXhXhXhXhXhXhXhXhXhXhXhXhXhXhXhXhXhXhXhXhXhXhXhXhXhXhXhXhXhXhXhXhXhXhXhXhXhXhXhXhXhXhXhXhXhXhXhXhXhX",
"hXhXhXhXhXhXhXhXhXhXhXhXhXhXhXhXhXhXhXhXhXhXhXhXhXhXhXhXhXhXhXhXhXhXhXhXhXhXhXhXhXhXhXhXhXhXhXhXhXhXhXhXhXhXhXhXhXhXhXhXhXhXhXhX",
"hXhXhXhXhXhXhXhXhXhXhXhXhXhXhXhXhXhXhXhXhXhX2X&X| ] 0.0.9..X9.~.9.#.%.o._ _ ^ ^ @.hXhXhXhXhXhXhXhXhXhXhXhXhXhXhXhXhXhXhXhXhXhXhX",
"hXhXhXhXhXhXhXhXhXhXhXhXhXhXhXhXhXhXhXhXS.0.N.D.7.6.6.0.0.9.9.9.$.#.@.o._ ^ ^ g 0 9 < ^ hXhXhXhXhXhXhXhXhXhXhXhXhXhXhXhXhXhXhXhX",
"hXhXhXhXhXhXhXhXhXhXhXhXhXhXhXhXhXhXF.G.H.H.J.7.6.6.4.4.4.0.9.O.%.@.o._ ( ^ K 0 8 6 < : ; : hXhXhXhXhXhXhXhXhXhXhXhXhXhXhXhXhXhX",
"hXhXhXhXhXhXhXhXhXhXhXhXhXhXhXhX:XI.0XT.H.C.J.7.6.5.4.4.2.0.9.O.@.o._ _ ^ ^ g 0 9 6 < : ; ; ; 8 hXhXhXhXhXhXhXhXhXhXhXhXhXhXhXhX",
"hXhXhXhXhXhXhXhXhXhXhXhXhXhX5XF.qXT.T.T.H.C.J.7.5.4.4.4.2.3.O.O.o.o._ ^ I S 0 7 6 : : : ; ; . . ; hXhXhXhXhXhXhXhXhXhXhXhXhXhXhX",
"hXhXhXhXhXhXhXhXhXhXhXhXhX:X0XqXI.T.T.P.H.C.N.7.6.4.4.2.2.3.{ { _ _ ( ) I 0 q 6 6 : : ; ; . .     X 0 hXhXhXhXhXhXhXhXhXhXhXhXhX",
"hXhXhXhXhXhXhXhXhXhXhXhX;X8X8X8XI.I.I.P.Z.C.N.7.5.4.2.2.3.3.] { { _ ^ ^ 0 0 7 6 : : : ; o . .         0 hXhXhXhXhXhXhXhXhXhXhXhX",
"hXhXhXhXhXhXhXhXhXhXhX;XL.8X6XI.I.I.P.K.Z.C.N.7.8.4.;.;.*.] ] ' / ^ ^ g 0 9 9 : : : ; o . .         . . 9 hXhXhXhXhXhXhXhXhXhXhX",
"hXhXhXhXhXhXhXhXhX5XOX7X6X6X6XL.L.U.P.A.A.C.V.m.1.:.;.*.l l ' ' / ^ ^ 0 9 9 6 : : ; ; . .           . . @ 8 hXhXhXhXhXhXhXhXhXhX",
"hXhXhXhXhXhXhXhXhXOX7X7X6X#XL.6XL.Y.K.K.V.V.V.1.1.:.;.-.*.l l ' ^ ^ 0 0 8 6 < : > ; ; .             . o ; ; 0 hXhXhXhXhXhXhXhXhX",
"hXhXhXhXhXhXhXhX@X9X#X7X6X6Xz.l.k.x.Y.B.V.V.V.v.1.:.&.&.*.l ' I ^ g 0 9 6 6 : : ; ; . .           . . ; ; : : 0 hXhXhXhXhXhXhXhX",
"hXhXhXhXhXhXhX/.%XtX1X@X6X#Xl.k.k.x.x.Y.n.V.b.v.<.>.;.&.k z h h d g 0 6 6 : : ; ; o . .         . . ; ; : : 6 9 ^ hXhXhXhXhXhXhX",
"hXhXhXhXhXhX!.$XeX@X1X1X@X#Xl.k.x.p.a.a.n.n.b.v.<.>.=.&.k z h j d 7 9 6 6 : > ; o . .           . o ; ; : : 6 9 0 ^ hXhXhXhXhXhX",
"hXhXhXhXhX@.}.$X$XeX%X+X@XOXOXh.p.p.p.p.r.r.n.c.<.>.=.&.z z z h g 7 7 6 : > > ; o .             . ; ; : : < 6 0 0 ^ @.hXhXhXhXhX",
"hXhXhXhXhXQ.wX$X$X$X$X|.+X+XOXg.g.f.f.i.i.r.e.e.<.<.B p z u s j 7 9 6 5 : > ; o .             . o ; : : : 6 9 0 g ^ ^ hXhXhXhXhX",
"hXhXhXhX^ wX$X$X$X$X X|.].+XXXXXd.f.y.u.i.r.e.e.G Z B i z u t t 7 6 < : > ; ; .           . . o ; ; : : 6 7 0 0 ^ ^ ( I hXhXhXhX",
"hXhXhXhX[.eXwXwX$X$X X|.].].'.!.+.d.f.y.u.w.e.q.G Z B p a u t t 1 < : : > ; . . .         . . ; ; > : 5 6 9 0 I ^ ` _ ( hXhXhXhX",
"hXhXhXhXuXuXeXeXwX X X}.{.`.'.!.!.! d.T t.w.q.C G C V V a y t t 1 < : > ; o . .           . ; ; > : : 6 7 0 K I ^ _ _ @.0 hXhXhX",
"hXhXhX^.iXiXuXuXeX$X X|.].`.).).!.!.+.! T n F F C C N V y r e 1 < < > ; ; . . X         . o ; ; : : 6 6 9 0 S ^ ( ( o.%.( hXhXhX",
"hXhXhXyXsXsXiXiXuXeXwX|.[.`.`.).W.E.! ! R R T n F N N y y f h h g 7 < > o . .           o o ; ; : < 6 8 0 0 ^ ^ ( o.@.#.#.8 hXhX",
"hXhXX.dXfXdXdXiXiXuXrXwX[.{.`.).(.E.Q Q Q R R m m M N F | D [ / / ^ ^ S 5 o           . o ; > : : 6 6 0 g Y ^ _  .@.%.#.$.0 hXhX",
"hXhX<XfXfXfXfXsXiXpX3X<X,X[.'.).(.W.E.W Q U Y v M } | | D ( ' h g ^ g K 0 8 ;       . o o ; > : 6 6 q 0 ^ ^ / _  .@.#.#.&X@.@.hX",
"hX^ sXgXgXgXdXaXaXyX3X<X<X,X^.).!.Q.Q.W E U U ~ } } } | S d S [ { g 6 6 0 0 9 ;   . X o ; ; : < 6 7 0 K ^ ^ _ _ o.#.~.~..X.X6 hX",
"hX7 fXgXgXdXdXaXaX4XpX5X<X<X^.^./.Q.Q.W P L U ) }  .} q ( hXhXhXhXhXhXhX; 6 9 7 : X o ; ; : : < 6 0 0 S ^ ( _ @.@.#.9..X.X*X6 hX",
"hXo.gXgXgXdXdXaXyX4X3X2X>X*X&X^./.Q...X.E Y E  .+.` 3 hXhXhXhXhXhXhXhXhXhX; < 0 0 ; ; ; > : 5 6 7 0 0 ^ _ _ _ @.#.$.j..X&X=X^ hX",
"hX&XgXgXdXdXaXaX4X3X2X2X>X*X&X~.$.%...X.E E  . ._ 8 hXhXhXhXhXhXhXhXhXhXhXhX; q 0 9 ; ; : : 6 9 0 0 ^ ^ _ _ @.%.#.$..X.X=X=X@.~.",
"$.5XgXfXdXsXaXaX4X4X2X=X=X=X&X.X$.%. . .X.X.o...Y 8 hXhXhXhXhXhXhXhXhXhXhXhX: : g g : > : : 6 0 0 ^ ^ ^ _ o.@.#.$..X&X*X=X=XS.#.",
"o.4XgXdXdXaX4X4X4X2X2X>X=X&X&X$.#.%.@._ )  ... .8 hXhXhXhXhXhXhXhXhXhXhXhXhXhX: Y ^ 9 : 6 6 9 0 0 ^ ^ _ _ @.#.#.$..X&X=X=X5X&X_ ",
"_ yXdXdXaXaX4X4X2X2X=X=X-X&X~.$.#.@.o._ ` o.@. .8 hXhXhXhXhXhXhXhXhXhXhXhXhXhX; 0 ^ I : 6 6 0 0 ^ ^ _ _ o.@.#.$..X&X-X=X5X2X=X^ ",
"S yXdXdXaXaX4X4X2X2X=X=X&X&X$.#.%.@._ ( ^ @.o._ 6 hXhXhXhXhXhXhXhXhXhXhXhXhXhX: 0 ^ ^ : 6 9 0 0 ^ ( _ o.@.#.$..X&X&X=X=X2X2X3X^ ",
"g 4XdXaXaX4X4X2X5X5X=X*X.Xj.$.#.@._ _ _ ^ @. .( 9 hXhXhXhXhXhXhXhXhXhXhXhXhXhX; I ( ^ 6 8 9 I I ^ _ o.o.%.#.$.S.&X*X=X5X2X4X2X( ",
"( 4XaXaX4X4X3X2X5X=X-X&X.X$.#.@.@._ _ ^ Y _ o._ 6 hXhXhXhXhXhXhXhXhXhXhXhXhXhX: K ) I 8 9 0 I ^ ( _ ..O.#.#.&X&X&X=X5X2X2X4X2XS ",
"@.2XsXaX4X4X2X2X=X=X*X.X9.%.%.@._ _ ^ ^ g / _ _ 6 hXhXhXhXhXhXhXhXhXhXhXhXhXhX: I X.K 5 8 K g ( _ _ @.@.#.&X&X&X=X=X2X2X4X4X>X_ ",
"#.-XaXaX3X2X2X2X=X-X.X.X~.$.@.@._ _ ^ ^ 0 0 _ _ 0 9 hXhXhXhXhXhXhXhXhXhXhXhX< 5 X.I 8 8 K K I ) _ o.@.#.$.$.&X=X=X5X2X3X4XyX=X$.",
"hX$.aX4X3X2X2X=X*X*X.X9.#.@.@._ _ ^ ^ 0 0 9 ^ ( ^ : hXhXhXhXhXhXhXhXhXhXhXhX: Y ^ Y 4 H J K E E  . .%.#.~.~.&X=X5X2X2X4X4XaXS..X",
"hX_ 4X3X2X2X=X=X-X.X~.~.%.@._ _ ^ ^ ^ 0 q 6 8 ( ^ 0 : hXhXhXhXhXhXhXhXhXhX: b ^ E 4 4 H J K L P X...%.$.~.&X*X=X5X2X2X4XaXaX@.hX",
"hX6 4X3X2X=X=X-X&X~.$.#.%.@._ _ ^ Y 0 0 9 < : 0 ^ 0 0 ; hXhXhXhXhXhXhXhX< b ^ ` 8 4 4 H J P L P X.....%.~.&X*X>X2X2X4XaXaXsX0 hX",
"hX^ 2X2X2X=X=X&X&X~.#.@.@._ _ ) ^ 0 0 9 9 : : > 0 ^ 0 0 : o < d 0 3 2 7 S S ` b 4 4 H H H L L R.W Q.Q./.^.^.*X<X5X2X3X4XaXaX0 hX",
"hX&X$.2X5X=X-X&XS.#.#.@.o._ ( ^ g g 9 6 6 : : ; o 6 0 0 q 8 7 7 t f A A S S b w w w H H J L L P R.R.Q.Q./.^.,X<X5XpXyXaXaX=X#.hX",
"hXhX^ 5X=X-X&X&X$.#.%.@._ _ ^ A 0 7 9 6 : : ; ; . . . : 6 9 7 7 d h f S N = x x x x v J ~ U L P W R.Q.(.).[.[.wX<XpXpXyXsX_ hXhX",
"hXhX^ *X=X&X~.$.$.#.@.o._ / ^ 0 0 7 6 : : : ; ; . .       o > 1 1 e e % % % = c x x x v ~ U L W W R.R.(.)._.]..XrXpXpXiXaX6 hXhX",
"hXhXhX@.&X&X&X$.%.@.@._ _ ^ Y g 0 9 6 : > ; ; o           X X O O + # $ % - = = M M M m ~ U U W R.R.(.(.(._.`.}.|.rXpXiX^..XhXhX",
"hXhXhX^ &X.X$.$.%.@._ _ _ I 0 0 9 6 < : ; ; o .         X X X o $ + # & * * - - M M M m m n R Q R.E.W.(.(._.`.{.|.wXuXuX9 hXhXhX",
"hXhXhXhX%.S.$.#.@.o._ ( I b 0 7 6 5 : : ; ; . .         X X o O O $ & $ * * - N C M n M n n T R Q E.W.(.(._.`.{.}.wXeX^.#.hXhXhX",
"hXhXhXhX_ $.#.@.@._ ( ) I I 0 9 6 : : ; ; o . X       X X . o @ $ # # & * * V N C C q.F n n T T ! ! !.W.`.`.{.}. XwXeX8 hXhXhXhX",
"hXhXhXhXhXo.#.@. ._ / I I I 8 6 < : ; ; ; o   X       X . o @ @ + # # & * r - V C C C q.n n t.t.y.d.XX!.'.`.}.}. XwX/.=XhXhXhXhX",
"hXhXhXhXhX#.%. ._ ( ^ g g 0 6 6 : > ; ; . .             o o @ @ e + + & * a B - Z Z q.q.w.w.w.t.t.d.d.XXXX+X%X$XwXrX_ hXhXhXhXhX",
"hXhXhXhXhXhX%.o.( ( ^ g 0 9 6 : : > ; ; . .         . . ; ; > 2 # r & & a * V B Z G e.e.e.u.t.t.u.u.f.g.XX+X+XtXeX) hXhXhXhXhXhX",
"hXhXhXhXhXhXhX%.( ^ I K 7 9 : : > ; ; . .           . . ; ; > 2 , e & i r i p B G <.e.e.e.r.i.u.u.u.f.f.OX@X1XpX..2XhXhXhXhXhXhX",
"hXhXhXhXhXhXhXhX@.b I 7 9 6 : : ; ; o .           . . ; ; > : < , , & & r i p B Z c.c.e.r.r.r.i.u.u.f.k.#X;X1XoX&XhXhXhXhXhXhXhX",
"hXhXhXhXhXhXhXhXhX_ 0 7 6 6 : ; ; o . .         . . ; ; ; : : 6 t e e e + &.&.p <.c.c.b.n.n.s.p.p.x.h.k.#X9X;X#.hXhXhXhXhXhXhXhX",
"hXhXhXhXhXhXhXhXhXhX( 9 < : : ; ; o .           . ; ; ; > : 6 1 t t e u &.* &.&.<.<.v.b.n.B.B.a.p.k.k.L.6XOX$.hXhXhXhXhXhXhXhXhX",
"hXhXhXhXhXhXhXhXhXhXhX^ : : > ; o .           . . ; ; > : : 6 7 t s u i &.&.&.=.<.,.v.V.B.B.B.B.L.L.L.7XF.=XhXhXhXhXhXhXhXhXhXhX",
"hXhXhXhXhXhXhXhXhXhXhXhXY : ; o .             . . ; ; : 5 6 6 9 j s s i * &.&.=.>.,.v.V.A.A.A.K.L.L.6Xj.5XhXhXhXhXhXhXhXhXhXhXhX",
"hXhXhXhXhXhXhXhXhXhXhXhXhX^ : . X .         . o ; ; > : 6 6 7 7 j s z z &.&.&.&.:.,.v.V.V.C.G.P.U.7X-XhXhXhXhXhXhXhXhXhXhXhXhXhX",
"hXhXhXhXhXhXhXhXhXhXhXhXhXhXhX: .           . o ; > : < 6 9 0 d h h z z i &.&.-.:.M.m.C.C.Z.P.P.F.3XhXhXhXhXhXhXhXhXhXhXhXhXhXhX",
"hXhXhXhXhXhXhXhXhXhXhXhXhXhXhXhX9 X   X   . . ; ; : : 6 6 9 g g I ' z z &.&.&.;.:.8.N.G.H.G.F.-XhXhXhXhXhXhXhXhXhXhXhXhXhXhXhXhX",
"hXhXhXhXhXhXhXhXhXhXhXhXhXhXhXhXhXhX; X . . ; ; > : 6 6 9 0 g I I ] ' l *.-.;.2.4.0.D.D.M.$.hXhXhXhXhXhXhXhXhXhXhXhXhXhXhXhXhXhX",
"hXhXhXhXhXhXhXhXhXhXhXhXhXhXhXhXhXhXhXhXhX: > : : < 6 9 0 g S ) I ' ] ] *.;.2.2.6.3.[ &XhXhXhXhXhXhXhXhXhXhXhXhXhXhXhXhXhXhXhXhX",
"hXhXhXhXhXhXhXhXhXhXhXhXhXhXhXhXhXhXhXhXhXhXhXhX) I ^ 0 K ) I ( { ' { 3.l z z I #.hXhXhXhXhXhXhXhXhXhXhXhXhXhXhXhXhXhXhXhXhXhXhX",
"hXhXhXhXhXhXhXhXhXhXhXhXhXhXhXhXhXhXhXhXhXhXhXhXhXhXhXhXhXhXhXhXhXhXhXhXhXhXhXhXhXhXhXhXhXhXhXhXhXhXhXhXhXhXhXhXhXhXhXhXhXhXhXhX",
"hXhXhXhXhXhXhXhXhXhXhXhXhXhXhXhXhXhXhXhXhXhXhXhXhXhXhXhXhXhXhXhXhXhXhXhXhXhXhXhXhXhXhXhXhXhXhXhXhXhXhXhXhXhXhXhXhXhXhXhXhXhXhXhX"
};
