/* XPM */
static char *result[] = {
/* columns rows colors chars-per-pixel */
"64 64 229 2 ",
"   c #747474",
".  c #787776",
"X  c #7C7B7B",
"o  c #817E7E",
"O  c #887E7B",
"+  c #907E79",
"@  c #85817E",
"#  c #94817B",
"$  c #9B857C",
"%  c #9C887B",
"&  c #9C9D7D",
"*  c #9F927A",
"=  c #A38B7E",
"-  c #A5977C",
";  c #A8A07F",
":  c #848383",
">  c #8A8685",
",  c #8C8B8B",
"<  c #8A8886",
"1  c #928E8E",
"2  c #9C8D8B",
"3  c #998784",
"4  c #98938C",
"5  c #8D8F92",
"6  c #908F90",
"7  c #8B9699",
"8  c #949394",
"9  c #9A9695",
"0  c #989798",
"q  c #9C9B9C",
"w  c #96979C",
"e  c #8A9C8D",
"r  c #AA8E83",
"t  c #A48D87",
"y  c #A4918D",
"u  c #AD938A",
"i  c #AC9786",
"p  c #B3948C",
"a  c #BA968E",
"s  c #BA9C8D",
"d  c #B39A88",
"f  c #A39593",
"g  c #AC9591",
"h  c #A59A96",
"j  c #AB9B95",
"k  c #A29D9C",
"l  c #AB9C99",
"z  c #BC9A93",
"x  c #BB9E9B",
"c  c #B49A96",
"v  c #8EA188",
"b  c #96A688",
"n  c #98A899",
"m  c #9BB699",
"M  c #93AA90",
"N  c #ABA585",
"B  c #B9A88B",
"V  c #A9B58C",
"C  c #B9B48D",
"Z  c #ACA39E",
"A  c #A5A899",
"S  c #B6A69E",
"D  c #A6BA95",
"F  c #B8BD90",
"G  c #8A92A2",
"H  c #8D95AB",
"J  c #8D9BA6",
"K  c #9C9DA3",
"L  c #969BA8",
"P  c #949BB3",
"I  c #979DB7",
"U  c #A09FA0",
"Y  c #9EA3A5",
"T  c #93A3AC",
"R  c #99A7A9",
"E  c #9BB6A5",
"W  c #9CA1B3",
"Q  c #9BA3BA",
"!  c #9AA9B7",
"~  c #9EB2B7",
"^  c #8FA4A1",
"/  c #A4A3A3",
"(  c #ABA5A4",
")  c #A5A5A9",
"_  c #A8A7A8",
"`  c #ABABAC",
"'  c #A4ABAA",
"]  c #B3A4A2",
"[  c #BBA3A2",
"{  c #B7ABAB",
"}  c #A5B5A8",
"|  c #B1B2A1",
" . c #A6A9B3",
".. c #ACADB3",
"X. c #A7A9B8",
"o. c #B0AFB0",
"O. c #A2B9BA",
"+. c #B4B3B4",
"@. c #B3B3BB",
"#. c #B8B7B8",
"$. c #BBBBBC",
"%. c #BCB3B3",
"&. c #C29D94",
"*. c #C49F99",
"=. c #C3A494",
"-. c #C5A19C",
";. c #CAA39D",
":. c #CCAA9C",
">. c #C7AC95",
",. c #C3B492",
"<. c #CCBC9A",
"1. c #C9B697",
"2. c #D0B79E",
"3. c #CDA6A2",
"4. c #C6A9A6",
"5. c #D3AAA5",
"6. c #D3AEA9",
"7. c #C8B2AC",
"8. c #D3B3A4",
"9. c #D5B1AA",
"0. c #D6BCA8",
"q. c #C3BBBB",
"w. c #C7B6B4",
"e. c #D0B3B0",
"r. c #A9C59A",
"t. c #B7C897",
"y. c #BAD19E",
"u. c #A6C9A6",
"i. c #ACD3AC",
"p. c #ACD1A5",
"a. c #B4DBAC",
"s. c #BBDBAA",
"d. c #B6D5A4",
"f. c #A8C6B8",
"g. c #AED3B9",
"h. c #B4DDB4",
"j. c #B5DCBB",
"k. c #BAE1B4",
"l. c #BBE4BC",
"z. c #BCE0AF",
"x. c #CCC49B",
"c. c #CBCC9D",
"v. c #C4C698",
"b. c #C8CE9F",
"n. c #D3CCA3",
"m. c #D9C7AA",
"M. c #C7D8A6",
"N. c #D3D5A5",
"B. c #DBD6AC",
"V. c #D4DBAB",
"C. c #DADBAE",
"Z. c #CAC7BA",
"A. c #D7C7B2",
"S. c #DCD4B3",
"D. c #D9DBB5",
"F. c #CFD2BB",
"G. c #E0DCB7",
"H. c #C3E6BB",
"J. c #C8E6B8",
"K. c #DAE6B9",
"L. c #D0E0AF",
"P. c #E1EABE",
"I. c #9CA3C3",
"U. c #9FA9C6",
"Y. c #A4ABC5",
"T. c #A5ABCC",
"R. c #A6A9C6",
"E. c #A9B5C8",
"W. c #B4B5C2",
"Q. c #BEBEC2",
"!. c #B8B9CA",
"~. c #AAAED4",
"^. c #A7ABD5",
"/. c #ABB1D4",
"(. c #ADB1DB",
"). c #AFBAD7",
"_. c #B3B5D4",
"`. c #B2B5DC",
"'. c #B4B9DD",
"]. c #BBBCD7",
"[. c #B5BAE3",
"{. c #BBBEE9",
"}. c #B8BAE2",
"|. c #C0BFC0",
" X c #AEC8C8",
".X c #BAC5C5",
"XX c #B8D9C8",
"oX c #B8C6D8",
"OX c #BED5D7",
"+X c #BDE4C4",
"@X c #BFC1EC",
"#X c #BEC2E4",
"$X c #C3C3C4",
"%X c #C6C6CA",
"&X c #CBCBCC",
"*X c #C1C9C7",
"=X c #C6D8C5",
"-X c #D2D9C6",
";X c #C4C4D4",
":X c #CECED2",
">X c #CCCCDB",
",X c #C4C8DB",
"<X c #C3D8D9",
"1X c #D3D3D4",
"2X c #D5D5DA",
"3X c #DBDBDC",
"4X c #D3D8D0",
"5X c #D0CCC7",
"6X c #C3E3C3",
"7X c #C4EAC2",
"8X c #C6E8C7",
"9X c #D8E9C3",
"0X c #C5E3D1",
"qX c #E2EDC2",
"wX c #C3C4E4",
"eX c #C3C4EC",
"rX c #CBCCED",
"tX c #C6CBE5",
"yX c #C9D0E6",
"uX c #D2D2E3",
"iX c #DDDDE3",
"pX c #D3D4EB",
"aX c #DCDCEC",
"sX c #E2E2E4",
"dX c #E4E4EC",
"fX c #EBEBED",
"gX c #EFEFF0",
"hX c #F0F0F1",
"jX c None",
/* pixels */
"jXjXjXjXjXjXjXjXjXjXjXjXjXjXjXjXjXjXjXjXjXjXjXjXjXjXjXjXjXjXjXjXjXjXjXjXjXjXjXjXjXjXjXjXjXjXjXjXjXjXjXjXjXjXjXjXjXjXjXjXjXjXjXjX",
"jXjXjXjXjXjXjXjXjXjXjXjXjXjXjXjXjXjXjXjXjXjXjXjXjXjXjXjXjXjXjXjXjXjXjXjXjXjXjXjXjXjXjXjXjXjXjXjXjXjXjXjXjXjXjXjXjXjXjXjXjXjXjXjX",
"jXjXjXjXjXjXjXjXjXjXjXjXjXjXjXjXjXjXjXjXjXjXjX5X$X7.4.7.w.|.w.W.q.#.o.o._ / / _ jXjXjXjXjXjXjXjXjXjXjXjXjXjXjXjXjXjXjXjXjXjXjXjX",
"jXjXjXjXjXjXjXjXjXjXjXjXjXjXjXjXjXjXjXjXjXZ.Z.A.A.0.9.9.e.e.w.w.q.+.o.o._ / / q 0 0 0 jXjXjXjXjXjXjXjXjXjXjXjXjXjXjXjXjXjXjXjXjX",
"jXjXjXjXjXjXjXjXjXjXjXjXjXjXjXjXjXjXjXjXA.G.S.S.0.0.6.5.6.e.w.@.+.+...` / k q w 8 5 , , jXjXjXjXjXjXjXjXjXjXjXjXjXjXjXjXjXjXjXjX",
"jXjXjXjXjXjXjXjXjXjXjXjXjXjXjXjXjXjX-X9XG.G.G.S.0.9.5.5.5.6.7.%.o.+.` _ / / 0 0 5 , , : : 5 jXjXjXjXjXjXjXjXjXjXjXjXjXjXjXjXjXjX",
"jXjXjXjXjXjXjXjXjXjXjXjXjXjXjXjX4XP.qXqXqXG.B.m.0.9.6.5.3.4.4.%.o.` _ / A q 0 8 5 , : : o o : jXjXjXjXjXjXjXjXjXjXjXjXjXjXjXjXjX",
"jXjXjXjXjXjXjXjXjXjXjXjXjXjXjX-X-XqXqXqXP.G.B.B.0.9.5.5.3.4.{ { o.` / / K 0 8 8 , , : o X .   : 0 jXjXjXjXjXjXjXjXjXjXjXjXjXjXjX",
"jXjXjXjXjXjXjXjXjXjXjXjXjXjX=X9X9X9XP.P.K.K.B.m.0.8.5.3.*.4.[ { ] _ / / q 0 8 1 , < o X         : 8 jXjXjXjXjXjXjXjXjXjXjXjXjXjX",
"jXjXjXjXjXjXjXjXjXjXjXjXjXjX7X7X9X9XK.K.K.L.B.B.0.8.5.;.-.[ [ ] ( _ / q 0 8 1 , < : o X         X , jXjXjXjXjXjXjXjXjXjXjXjXjXjX",
"jXjXjXjXjXjXjXjXjXjXjXjX=X6X7X7XJ.J.J.L.V.V.N.N.m.2.:.;.-.[ ] ] ( / A q w 8 5 , : : o .         X : , jXjXjXjXjXjXjXjXjXjXjXjXjX",
"jXjXjXjXjXjXjXjXjXjXjXjX=X8X8X7Xl.H.J.J.L.V.N.N.<.2.3.-.*.x x ( ( U q w 8 5 , < : X X         X X o , 8 jXjXjXjXjXjXjXjXjXjXjXjX",
"jXjXjXjXjXjXjXjXjXjXjXoX<X0X8X+Xl.l.k.J.M.M.N.N.x.2.>.=.*.x x ( k U q 0 6 , , : X X         . X o : < 5 0 jXjXjXjXjXjXjXjXjXjXjX",
"jXjXjXjXjXjXjXjXjXjX!.OXyX<X0X+Xl.k.k.k.M.M.M.c.x.2.:.*.z x l l k q 0 8 6 , < : X o         X X : < , 5 0 / jXjXjXjXjXjXjXjXjXjX",
"jXjXjXjXjXjXjXjXjXW.oXtXyXOXOX+Xj.h.a.z.s.s.M.v.x.<.>.=.z z c l h 0 0 8 1 , : o X .         X : : , , 8 0 q / jXjXjXjXjXjXjXjXjX",
"jXjXjXjXjXjXjXjX@.'.@X@X@X#XOXXXXXh.h.a.a.y.b.v.v.,.>.=.z c g h h 0 8 1 , < : X X .       . X : < , 5 8 0 / / ` jXjXjXjXjXjXjXjX",
"jXjXjXjXjXjXjXjX_.}.@X@X@XwXoXoX Xg.g.i.i.p.y.y.v.,.C s s a g f 9 9 5 5 < : o X         X X : : < , 8 0 q U / / jXjXjXjXjXjXjXjX",
"jXjXjXjXjXjXjXjX'.eXeX@X{.{.}.'. X Xf.i.i.p.p.t.t.F ,.B s p u f 9 8 5 , : : o .       . X X : : , 5 8 w q K ) / jXjXjXjXjXjXjXjX",
"jXjXjXjXjXjXjXjXeXrXrXeX{.{.}.[.oX XE.f.u.u.r.t.t.C B B d p u f 2 1 5 : : : X .       . X : : , , 8 0 q A / _ ` _ jXjXjXjXjXjXjX",
"jXjXjXjXjXjXjXuXrXrXrXeX{.{.}.(././.E.O.f.u.r.r.r.V C B d u y y 4 1 , , X o .         X X : , , 6 8 q q / _ _ ` ` jXjXjXjXjXjXjX",
"jXjXjXjXjXjXjX2XaXpXpXrX@X{.[.(.(./.E.~ ~ E E r.D D V N N i u 4 2 1 < : : X .         . o : , 5 8 9 q U / _ ` +.+.jXjXjXjXjXjXjX",
"jXjXjXjXjXjXjXaXdXdXaXrXrX@X}.[.(./.T.E.~ E E E m V V N d j l h k 0 8 : X X         X X : < , 5 8 q q U _ ` o.+.#._ jXjXjXjXjXjX",
"jXjXjXjXjXjX&XfXfXdXaXaXpXwX|.{.(.^.T.U.U.! R E n m V A S S Z ] Z / q 0 , X     . . X : : , , 8 0 q U / _ ` +.#.#.` jXjXjXjXjXjX",
"jXjXjXjXjXjX2XgXgXfXdXaXuX>X,X].)./.T.U.U.! T T E n | | | D ] Z Z / q q 7 , .   . . o : < , 8 8 0 n / _ ` +.+.#.$.#.+.jXjXjXjXjX",
"jXjXjXjXjX$.dXhXhXfXsXsXiX>X>X;X]._.R.R.R.I P T ^ } } | ( A A ] / q 0 0 0 0 < X X X : : , 5 8 0 q / / ` ` +.#.$.$X$.' jXjXjXjXjX",
"jXjXjXjXjX$.fXhXhXfXsXiX2X2X>X;XoX!.W.R.R.Q W L R } } ' A jXjXjXjXjXjX, 6 8 8 < X o : < 5 5 0 q q / _ ` ` #.#.$.$X$X` jXjXjXjXjX",
"jXjXjXjXjX%XgXhXfXfXsXsX3X2X:X&X%X!.W.R.X.Q W P  . ./ n jXjXjXjXjXjXjXjX< 5 8 8 < : < , 6 8 0 q / / _ ` #.#.$.Q.$X%X+.jXjXjXjXjX",
"jXjXjXjXjX1XhXhXfXsXsX3X2X1X:X&X%XQ.$.@.X.X.)  ...' K jXjXjXjXjXjXjXjXjXjX< 8 q 8 : < , 6 0 0 n / ' ` ` #.#.$.$X$X&X$.$.jXjXjXjX",
"jXjXjXjX|.3XfXfXfXsXsX3X2X1X&X&X$XQ.$.@... . .....Y w jXjXjXjXjXjXjXjXjXjX5 6 q w , , 6 8 0 0 / / ` ` +.#.$.|.$X&X&X$X#.jXjXjXjX",
"jXjXjXjX$.3XfXfXsXsX3X3X1X&X&X$X$X$.#.+...)  .@...Y jXjXjXjXjXjXjXjXjXjXjXjX, q q 8 6 6 0 q U / _ ` o.+.#.$.$X%X&X:X$X+.jXjXjXjX",
"jXjXjXjX#.sXfXfXsXsX2X4X1X&X&X$X|.$.#.+...` ` o.' q jXjXjXjXjXjXjXjXjXjXjXjX, q / 0 , 8 0 q A ) _ o.+.#.$.Z.$X&X&X1X&X` jXjXjXjX",
"jXjXjXjX+.3XfXsXsX3X2X4X&X&X&X$X$.$.#.o.` _ ` +._ 0 jXjXjXjXjXjXjXjXjXjXjXjX, q / q 8 0 q k / _ ` o.#.$.$.$X$X&X:X1X1X+.jXjXjXjX",
"jXjXjXjX+.3XsXsX3X3X2X1X&X&X$X$X$.#.+.o.` / _ +._ 0 jXjXjXjXjXjXjXjXjXjXjXjX, K U U w 9 K U ) ` o.+.#.q.$X$X&X&X1X4X1X+.jXjXjXjX",
"jXjXjXjX#.3XsXsX3X2X1X:X&X$X$X$.#.+.+.` _ / _ .._ 0 jXjXjXjXjXjXjXjXjXjXjXjX, K U U w 0 U U _ ` o.+.#.Q.$X$X&X&X2X3X1Xo.jXjXjXjX",
"jXjXjXjX#.2XsXsX3X2X:X5X&X$X$X#.#.+.o._ / / / ` _ 0 jXjXjXjXjXjXjXjXjXjXjXjX5 Y U L w q U ) _ o.+.#.$.|.$X&X1X1X2X3X:X#.jXjXjXjX",
"jXjXjXjX$.5X3X3X3X1X:X&X5Xf.$.#.+.o.` _ / q k / _ q 0 jXjXjXjXjXjXjXjXjXjX, w W L G w L U  .` o.@.#.Q.$X$X%X1X1X3X3X:Xq.jXjXjXjX",
"jXjXjXjXjX$X3X3X1X1X&X%X$XQ.#.#.+.` ` / K q 0 / ' k 8 jXjXjXjXjXjXjXjXjXjX6 n W H 7 G L P  . .+.#.$.Q.$X&X&X1X4X3X3X&X$XjXjXjXjX",
"jXjXjXjXjXq.3X3X1X5X5X%X$X$.#.#.o.` ' / A 0 0 0 / / 0 , jXjXjXjXjXjXjXjX6 q Y Y G G H H P W  ...@.Q.Q.%X&X1X2X2X3XsX$XjXjXjXjXjX",
"jXjXjXjXjX+.2X4X1X&X%X$X|.$.#.+.` _ / A q 0 8 8 0 / Y 8 , jXjXjXjXjXjXjXn A Y w 7 G H H P W ! Y.R.W.|.&X&X1X2X3XsXsX#.jXjXjXjXjX",
"jXjXjXjXjX+.1X1X&X&X$X|.$.#.+.` ` ) U K 0 9 6 , , 0 q 0 8 < 1 9 9 4 4 A A n n 7 7 G H H P I I.I.W.W.].%X;X1X2X3XsX3X#.jXjXjXjXjX",
"jXjXjXjXjX$.%X:X&X%X$Xq.$.#.+.` ` / / 0 0 8 , , : , 5 0 0 8 8 9 f h A A m M b v 7 G J H P I.I.I.R./.].|.;X>X2XiXsX1X$.jXjXjXjXjX",
"jXjXjXjXjXjX$.5X&X$X|.$.#.+.+.` / / k 0 0 , , , : o : : , 8 9 9 f j j j b M v v v ^ J J H P I.I.R.^.`.].;X>X>XiXiX&XjXjXjXjXjXjX",
"jXjXjXjXjXjX+.%X%X$X|.q.#.+.` ` / U q 0 8 , , : @ X     . @ < 3 t 3 2 & & & & v M ^ ^ T T I.I.I.T.^.(.`.|.eXuXaXiX$.jXjXjXjXjXjX",
"jXjXjXjXjXjXjXf.$X|.$.#.+.` ` / / q 0 0 5 , < : o X       . X O # # % - & & & b M M E ^ T ! I.U.T.^.^.`.}.@XyXpX>X$.jXjXjXjXjXjX",
"jXjXjXjXjXjXjXq.$Xf.q.+.+.` _ / A 0 0 0 , , : @ X .       . O O + # % = - - ; V M m m m E E ~ U.I.^.^.(.`.}.eXuX!.jXjXjXjXjXjXjX",
"jXjXjXjXjXjXjX%.#.$.#.+.o._ / / K 0 8 , , , : X X         . . @ # # % - - ; ; N V m m m E E O.U.^.^.^.(.[.{.eXwXQ.jXjXjXjXjXjXjX",
"jXjXjXjXjXjXjXjX+.#.+.+.` _ / q w 0 7 , < : o X         . o @ @ # $ % = - ; N V D V m m E E O.U.E./.(.(.[.{.wX]. .jXjXjXjXjXjXjX",
"jXjXjXjXjXjXjXjX+.#.+.o.` / / q 0 8 5 , < : o X         . o @ @ # $ = = - B C V r.V r.r.u.u.u.f.E./.`.[.}.@X#X!.jXjXjXjXjXjXjXjX",
"jXjXjXjXjXjXjXjX#.#.+._ ' / k 0 0 5 6 < : : X           X : : # = + = = - B C C t.r.r.r.u.u.u.f.f. XoXoX#XeX]...jXjXjXjXjXjXjXjX",
"jXjXjXjXjXjXjXjXjX+.+._ / / q 0 8 5 , : : X X         X X @ > > r = = = d ; B C C t.t.r.p.u.i.i.g. X XoXtX,X@.jXjXjXjXjXjXjXjXjX",
"jXjXjXjXjXjXjXjXjXjX+.` / k q 0 5 , , : o X           o : : > 1 t $ = a d s B ,.t.t.t.y.p.p.p.i.i.XXOX<X>X!.jXjXjXjXjXjXjXjXjXjX",
"jXjXjXjXjXjXjXjXjXjXjX` / q 0 8 5 5 : : o X         X o : < < 4 t t = = d s B ,.C v.y.y.y.y.p.a.h.l.+X<X&X$XjXjXjXjXjXjXjXjXjXjX",
"jXjXjXjXjXjXjXjXjXjXjXjX/ q 0 , 5 < : X .         . X : : , , 1 2 t p p a a B ,.v.x.c.b.d.s.a.h.k.l.+X=Xf.jXjXjXjXjXjXjXjXjXjXjX",
"jXjXjXjXjXjXjXjXjXjXjXjXjX/ 0 6 , : X o .         X o : : 5 6 4 2 y t p a s =.>.,.x.c.b.M.s.s.k.l.+X=X*XjXjXjXjXjXjXjXjXjXjXjXjX",
"jXjXjXjXjXjXjXjXjXjXjXjXjXjX0 , , : o .         . X : : 5 5 8 9 f g p p a s =.,.x.c.N.M.M.M.J.H.H.=X=XjXjXjXjXjXjXjXjXjXjXjXjXjX",
"jXjXjXjXjXjXjXjXjXjXjXjXjXjXq 0 , X o .       . X o : , < 5 8 9 f g p a &.=.=.,.x.c.N.N.V.V.J.J.=X=XjXjXjXjXjXjXjXjXjXjXjXjXjXjX",
"jXjXjXjXjXjXjXjXjXjXjXjXjXjXjXq 8 : X         X X @ : , 1 8 0 q f g a a z &.*.:.<.n.N.V.C.L.J.9X=XjXjXjXjXjXjXjXjXjXjXjXjXjXjXjX",
"jXjXjXjXjXjXjXjXjXjXjXjXjXjXjXjXjX: X .     . X : : , , 1 0 9 k U l c z &.&.;.:.8.n.B.B.D.D.-X4XjXjXjXjXjXjXjXjXjXjXjXjXjXjXjXjX",
"jXjXjXjXjXjXjXjXjXjXjXjXjXjXjXjXjXjX, X   . . o : : , 6 8 0 q k U l x z &.*.;.5.m.n.B.S.F.5XjXjXjXjXjXjXjXjXjXjXjXjXjXjXjXjXjXjX",
"jXjXjXjXjXjXjXjXjXjXjXjXjXjXjXjXjXjXjXjXX X o o : , , 8 0 0 q k x ] x x *.-.:.8.7.A.A.Z.jXjXjXjXjXjXjXjXjXjXjXjXjXjXjXjXjXjXjXjX",
"jXjXjXjXjXjXjXjXjXjXjXjXjXjXjXjXjXjXjXjXjXjX, , , 8 8 8 q q / / ( ] [ x 4.-.4.7.7.w.Z.jXjXjXjXjXjXjXjXjXjXjXjXjXjXjXjXjXjXjXjXjX",
"jXjXjXjXjXjXjXjXjXjXjXjXjXjXjXjXjXjXjXjXjXjXjXjXjXq q q K U / ( ] ] [ 4.x c ] %.jXjXjXjXjXjXjXjXjXjXjXjXjXjXjXjXjXjXjXjXjXjXjXjX",
"jXjXjXjXjXjXjXjXjXjXjXjXjXjXjXjXjXjXjXjXjXjXjXjXjXjXjXjXjXjXjXjXjXjXjXjXjXjXjXjXjXjXjXjXjXjXjXjXjXjXjXjXjXjXjXjXjXjXjXjXjXjXjXjX",
"jXjXjXjXjXjXjXjXjXjXjXjXjXjXjXjXjXjXjXjXjXjXjXjXjXjXjXjXjXjXjXjXjXjXjXjXjXjXjXjXjXjXjXjXjXjXjXjXjXjXjXjXjXjXjXjXjXjXjXjXjXjXjXjX"
};
