/* XPM */
static char *result[] = {
/* columns rows colors chars-per-pixel */
"64 64 188 2 ",
"   c #777777",
".  c #787777",
"X  c #787877",
"o  c #7C7B7B",
"O  c #827E7C",
"+  c #84807F",
"@  c #9A897D",
"#  c #848383",
"$  c #8B8584",
"%  c #8C8B8B",
"&  c #9C8C81",
"*  c #928E8D",
"=  c #9B9F85",
"-  c #9F978E",
";  c #9C9287",
":  c #8E9C9F",
">  c #949393",
",  c #999494",
"<  c #9E9A95",
"1  c #989798",
"2  c #979B9E",
"3  c #9C9B9B",
"4  c #A18D85",
"5  c #A48E89",
"6  c #A7908B",
"7  c #AA948E",
"8  c #A9998E",
"9  c #A09992",
"0  c #AE9992",
"q  c #A29E9E",
"w  c #AD9691",
"e  c #B19B96",
"r  c #B39E9A",
"t  c #99A08C",
"y  c #8FA09B",
"u  c #99A195",
"i  c #96AA97",
"p  c #97AA97",
"a  c #A2A182",
"s  c #ACA285",
"d  c #B4A38A",
"f  c #B9A38D",
"g  c #A9A094",
"h  c #AAAF93",
"j  c #ABA69B",
"k  c #A6AE99",
"l  c #AAA89D",
"z  c #BEA391",
"x  c #B5A09D",
"c  c #B8A29E",
"v  c #A3B693",
"b  c #ADBC93",
"n  c #B2B190",
"m  c #BBB293",
"M  c #B4BF94",
"N  c #8E99A2",
"B  c #9399A4",
"V  c #999BA1",
"C  c #979EB5",
"Z  c #999FB4",
"A  c #9FA2AD",
"S  c #9DAFAC",
"D  c #9FB5AB",
"F  c #97A2B5",
"G  c #9EA4B2",
"H  c #9BABB1",
"J  c #A4A3A4",
"K  c #AAA6A6",
"L  c #A4ADA3",
"P  c #A2A5AA",
"I  c #A8A7A8",
"U  c #ACABAB",
"Y  c #A2A9A9",
"T  c #B4A2A1",
"R  c #BDA6A2",
"E  c #B1AEAF",
"W  c #A8BFA2",
"Q  c #A3BBA8",
"!  c #ABACB1",
"~  c #A4A8B4",
"^  c #B0AFB0",
"/  c #B4B3B4",
"(  c #B5B6BC",
")  c #B8B7B8",
"_  c #BCBCBC",
"`  c #C2A494",
"'  c #C4A69B",
"]  c #C2B296",
"[  c #C6B199",
"{  c #CAB19D",
"}  c #C2A6A0",
"|  c #C0A9A7",
" . c #C3ADAC",
".. c #CEB1A1",
"X. c #CFB6AE",
"o. c #CDBCAB",
"O. c #D2B2A5",
"+. c #D3B5AB",
"@. c #C5B3B2",
"#. c #BCC296",
"$. c #B3C89F",
"%. c #B8CB9F",
"&. c #A5C2A7",
"*. c #ABC6A3",
"=. c #ADCCA4",
"-. c #BECDA0",
";. c #B4D2A5",
":. c #BCD6A6",
">. c #ACC7BB",
",. c #B0CDBF",
"<. c #B3D4B5",
"1. c #BDDDB2",
"2. c #B7D9BA",
"3. c #B7D8BB",
"4. c #C5C49A",
"5. c #CCC59E",
"6. c #C3CFA1",
"7. c #C8CFA3",
"8. c #D1C4A4",
"9. c #D1C1A8",
"0. c #C2D8A9",
"q. c #CBDAAD",
"w. c #CCD0A4",
"e. c #D1D1A7",
"r. c #D9D2AD",
"t. c #D5D1A9",
"y. c #D5C7B4",
"u. c #DACDB4",
"i. c #C2DEBB",
"p. c #CADDBE",
"a. c #DCD1B1",
"s. c #D3D9B2",
"d. c #DCDFBF",
"f. c #D3D3B5",
"g. c #C7E2B4",
"h. c #D0E4B7",
"j. c #D6E5B9",
"k. c #DCE5BD",
"l. c #AAAFC7",
"z. c #A6ADCB",
"x. c #AAAEC9",
"c. c #A6B4C5",
"v. c #AFB1C5",
"b. c #AABEC3",
"n. c #A8B7C9",
"m. c #A6B1CB",
"M. c #B2B3C2",
"N. c #BCBED7",
"B. c #B5BBDD",
"V. c #BDBEDB",
"C. c #ADC6C3",
"Z. c #BED3C7",
"A. c #BEDCCB",
"S. c #BFD2CB",
"D. c #B7CBD5",
"F. c #BCCBD3",
"G. c #BCC2D9",
"H. c #BAC8DB",
"J. c #B9D2D1",
"K. c #BEC5E3",
"L. c #BEC2E8",
"P. c #C3C3C4",
"I. c #C7C7C9",
"U. c #CACACC",
"Y. c #C5C6D5",
"T. c #CCCCD1",
"R. c #C3C4DA",
"E. c #CBCBDB",
"W. c #C0D3D5",
"Q. c #D3D3D4",
"!. c #D4D4D9",
"~. c #DADADC",
"^. c #C3E4C4",
"/. c #C8E7C1",
"(. c #CEE8C1",
"). c #D1E7C2",
"_. c #C7C7E6",
"`. c #CCCEE6",
"'. c #C3C5E9",
"]. c #CACBEA",
"[. c #CFD0E9",
"{. c #D6D6E7",
"}. c #DCDCE3",
"|. c #D5D5E8",
" X c #DBDBE8",
".X c #E3E3E5",
"XX c #E5E5E8",
"oX c None",
/* pixels */
"oXoXoXoXoXoXoXoXoXoXoXoXoXoXoXoXoXoXoXoXoXoXoXoXoXoXoXoXoXoXoXoXoXoXoXoXoXoXoXoXoXoXoXoXoXoXoXoXoXoXoXoXoXoXoXoXoXoXoXoXoXoXoXoX",
"oXoXoXoXoXoXoXoXoXoXoXoXoXoXoXoXoXoXoXoXoXoXoXoXoXoXoXoXoXoXoXoXoXoXoXoXoXoXoXoXoXoXoXoXoXoXoXoXoXoXoXoXoXoXoXoXoXoXoXoXoXoXoXoX",
"oXoXoXoXoXoXoXoXoXoXoXoXoXoXoXoXoXoXoXoXoXoXoXoXoXoXoXoXoXI / @.X.oXoXoXoXoXoXoXoXoXoXoXoXoXoXoXoXoXoXoXoXoXoXoXoXoXoXoXoXoXoXoX",
"oXoXoXoXoXoXoXoXoXoXoXoXoXoXoXoXoXoXoXoXoXoXoXoXoXoXoXoX, J / @.+.y.oXoXoXoXoXoXoXoXoXoXoXoXoXoXoXoXoXoXoXoXoXoXoXoXoXoXoXoXoXoX",
"oXoXoXoXoXoXoXoXoXoXoXoXoXoXoXoXoXoXoXoXoXoXoXoXoXoXoXoX> J E  .+.u.oXoXoXoXoXoXoXoXoXoXoXoXoXoXoXoXoXoXoXoXoXoXoXoXoXoXoXoXoXoX",
"oXoXoXoXoXoXoXoXoXoXoXoXoXoXoXoXoXoXoXoXoXoXoXoXoXoXoX# > 3 E  .+.a.d.oXoXoXoXoXoXoXoXoXoXoXoXoXoXoXoXoXoXoXoXoXoXoXoXoXoXoXoXoX",
"oXoXoXoXoXoXoXoXoXoXoXoXoXoXoXoXoXoXoXoXoXoXoXoXoXoXoX# % 2 K  .+.a.).oXoXoXoXoXoXoXoXoXoXoXoXoXoXoXoXoXoXoXoXoXoXoXoXoXoXoXoXoX",
"oXoXoXoXoXoXoXoXoXoXoXoXoXoXoXoXoXoXoXoXoXoXoXoXoXoXoXo % 1 K  .O.a.k.oXoXoXoXoXoXoXoXoXoXoXoXoXoXoXoXoXoXoXoXoXoXoXoXoXoXoXoXoX",
"oXoXoXoXoXoXoXoXoXoXoXoXoXoXoXoXoXoXoXoXoXoXoXoXoXoXo o $ 1 K | O.a.k.j.oXoXoXoXoXoXoXoXoXoXoXoXoXoXoXoXoXoXoXoXoXoXoXoXoXoXoXoX",
"oXoXoXoXoXoXoXoXoXoXoXoXoXoXoXoXoXoXoXoXoXoXoXoXoXoXo o # , q R O.r.j.(.oXoXoXoXoXoXoXoXoXoXoXoXoXoXoXoXoXoXoXoXoXoXoXoXoXoXoXoX",
"oXoXoXoXoXoXoXoXoXoXoXoXoXoXoXoXoXoXoXoXoXoXoXoXoXoXo . # > q R ..t.h./.oXoXoXoXoXoXoXoXoXoXoXoXoXoXoXoXoXoXoXoXoXoXoXoXoXoXoXoX",
"oXoXoXoXoXoXoXoXoXoXoXoXoXoXoXoXoXoXoXoXoXoXoXoXoXoXo   # * q c { e.g.^.oXoXoXoXoXoXoXoXoXoXoXoXoXoXoXoXoXoXoXoXoXoXoXoXoXoXoXoX",
"oXoXoXoXoXoXoXoXoXoXoXoXoXoXoXoXoXoXoXoXoXoXoXoXoX> #   O % q r { w.g.^.J.oXoXoXoXoXoXoXoXoXoXoXoXoXoXoXoXoXoXoXoXoXoXoXoXoXoXoX",
"oXoXoXoXoXoXoXoXoXoXoXoXoXoXoXoXoXoXoXoXoXoXoXoXoX1 #   o % < r { 7.1.^.W.oXoXoXoXoXoXoXoXoXoXoXoXoXoXoXoXoXoXoXoXoXoXoXoXoXoXoX",
"oXoXoXoXoXoXoXoXoXoXoXoXoXoXoXoXoXoXoXoXoXoXoXoXoX1 # . o % , e ] 6.1.A._.oXoXoXoXoXoXoXoXoXoXoXoXoXoXoXoXoXoXoXoXoXoXoXoXoXoXoX",
"oXoXoXoXoXoXoXoXoXoXoXoXoXoXoXoXoXoXoXoXoXoXoXoXoX1 % o X $ , e ] %.<.J.H.oXoXoXoXoXoXoXoXoXoXoXoXoXoXoXoXoXoXoXoXoXoXoXoXoXoXoX",
"oXoXoXoXoXoXoXoXoXoXoXoXoXoXoXoXoXoXoXoXoXoXoXoXoX1 % o X # , w m %.<.D.L.oXoXoXoXoXoXoXoXoXoXoXoXoXoXoXoXoXoXoXoXoXoXoXoXoXoXoX",
"oXoXoXoXoXoXoXoXoXoXoXoXoXoXoXoXoXoXoXoXoXoXoXoXI 3 % o X # ; 8 m *.>.H.L.oXoXoXoXoXoXoXoXoXoXoXoXoXoXoXoXoXoXoXoXoXoXoXoXoXoXoX",
"oXoXoXoXoXoXoXoXoXoXoXoXoXoXoXoXoXoXoXoXoXoXoXoXK 3 > o . # * 8 n *.>.B.'._.oXoXoXoXoXoXoXoXoXoXoXoXoXoXoXoXoXoXoXoXoXoXoXoXoXoX",
"oXoXoXoXoXoXoXoXoXoXoXoXoXoXoXoXoXoXoXoXoXoXoXoXL A > # . o * 8 h b b.B.'.`.oXoXoXoXoXoXoXoXoXoXoXoXoXoXoXoXoXoXoXoXoXoXoXoXoXoX",
"oXoXoXoXoXoXoXoXoXoXoXoXoXoXoXoXoXoXoXoXoXoXoXoXU I > # X o * 8 h Q c.B.].|.oXoXoXoXoXoXoXoXoXoXoXoXoXoXoXoXoXoXoXoXoXoXoXoXoXoX",
"oXoXoXoXoXoXoXoXoXoXoXoXoXoXoXoXoXoXoXoXoXoXoXoX^ L 1 # X + , g h Q l.B.|.{.oXoXoXoXoXoXoXoXoXoXoXoXoXoXoXoXoXoXoXoXoXoXoXoXoXoX",
"oXoXoXoXoXoXoXoXoXoXoXoXoXoXoXoXoXoXoXoXoXoXoXoX/ I 1 % o # < j k S z.N.|..XoXoXoXoXoXoXoXoXoXoXoXoXoXoXoXoXoXoXoXoXoXoXoXoXoXoX",
"oXoXoXoXoXoXoXoXoXoXoXoXoXoXoXoXoXoXoXoXoXoXoXoX/ U 3 % o % 3 l L S z.G.{.XXoXoXoXoXoXoXoXoXoXoXoXoXoXoXoXoXoXoXoXoXoXoXoXoXoXoX",
"oXoXoXoXoXoXoXoXoXoXoXoXoXoXoXoXoXoXoXoXoXoXoXoX) E 3 % # % 3 K L G x.R.}.XXoXoXoXoXoXoXoXoXoXoXoXoXoXoXoXoXoXoXoXoXoXoXoXoXoXoX",
"oXoXoXoXoXoXoXoXoXoXoXoXoXoXoXoXoXoXoXoXoXoXoXoX_ ! j > # * oXoXL G v.Y.}.XXoXoXoXoXoXoXoXoXoXoXoXoXoXoXoXoXoXoXoXoXoXoXoXoXoXoX",
"oXoXoXoXoXoXoXoXoXoXoXoXoXoXoXoXoXoXoXoXoXoXoXoX,.^ A * % * oXoXY ~ M.T.~.XXoXoXoXoXoXoXoXoXoXoXoXoXoXoXoXoXoXoXoXoXoXoXoXoXoXoX",
"oXoXoXoXoXoXoXoXoXoXoXoXoXoXoXoXoXoXoXoXoXoXoXoXP./ J > % > oXoXY ~ M.U.}.XXoXoXoXoXoXoXoXoXoXoXoXoXoXoXoXoXoXoXoXoXoXoXoXoXoXoX",
"oXoXoXoXoXoXoXoXoXoXoXoXoXoXoXoXoXoXoXoXoXoXoXoXP.) I 1 > > oXoXY ~ ) I.~..XoXoXoXoXoXoXoXoXoXoXoXoXoXoXoXoXoXoXoXoXoXoXoXoXoXoX",
"oXoXoXoXoXoXoXoXoXoXoXoXoXoXoXoXoXoXoXoXoXoXoXoXI.) I 1 1 oXoXoXoX! ) I.~..XoXoXoXoXoXoXoXoXoXoXoXoXoXoXoXoXoXoXoXoXoXoXoXoXoXoX",
"oXoXoXoXoXoXoXoXoXoXoXoXoXoXoXoXoXoXoXoXoXoXoXP.I.M.E 2 1 oXoXoXoXU / I.Q..XoXoXoXoXoXoXoXoXoXoXoXoXoXoXoXoXoXoXoXoXoXoXoXoXoXoX",
"oXoXoXoXoXoXoXoXoXoXoXoXoXoXoXoXoXoXoXoXoXoXoXI.U.@.E j 1 oXoXoXoXU / P.Q..X!.oXoXoXoXoXoXoXoXoXoXoXoXoXoXoXoXoXoXoXoXoXoXoXoXoX",
"oXoXoXoXoXoXoXoXoXoXoXoXoXoXoXoXoXoXoXoXoXoXoXI.U.P.^ V 2 oXoXoXoXU / P.Q.~.Q.oXoXoXoXoXoXoXoXoXoXoXoXoXoXoXoXoXoXoXoXoXoXoXoXoX",
"oXoXoXoXoXoXoXoXoXoXoXoXoXoXoXoXoXoXoXoXoXoXoXU.T.P./ J V oXoXoXoXI ! P.U.~.oXoXoXoXoXoXoXoXoXoXoXoXoXoXoXoXoXoXoXoXoXoXoXoXoXoX",
"oXoXoXoXoXoXoXoXoXoXoXoXoXoXoXoXoXoXoXoXoXoXoXoXQ.I./ J V oXoXoXoXK U _ U.~.oXoXoXoXoXoXoXoXoXoXoXoXoXoXoXoXoXoXoXoXoXoXoXoXoXoX",
"oXoXoXoXoXoXoXoXoXoXoXoXoXoXoXoXoXoXoXoXoXoXoXoXQ.I.( P V 2 oXoXV J U ) I.~.oXoXoXoXoXoXoXoXoXoXoXoXoXoXoXoXoXoXoXoXoXoXoXoXoXoX",
"oXoXoXoXoXoXoXoXoXoXoXoXoXoXoXoXoXoXoXoXoXoXoXoXQ.I.) A B V oXoX3 q L ) I.Q.oXoXoXoXoXoXoXoXoXoXoXoXoXoXoXoXoXoXoXoXoXoXoXoXoXoX",
"oXoXoXoXoXoXoXoXoXoXoXoXoXoXoXoXoXoXoXoXoXoXoXoXQ.U.( Z B V oXoX2 3 J / I.Q.oXoXoXoXoXoXoXoXoXoXoXoXoXoXoXoXoXoXoXoXoXoXoXoXoXoX",
"oXoXoXoXoXoXoXoXoXoXoXoXoXoXoXoXoXoXoXoXoXoXoXoX!.U.M.Z N u oXoX1 1 J / I.U.oXoXoXoXoXoXoXoXoXoXoXoXoXoXoXoXoXoXoXoXoXoXoXoXoXoX",
"oXoXoXoXoXoXoXoXoXoXoXoXoXoXoXoXoXoXoXoXoXoXoXoX!.Y.M.Z B u 9 > > > A ~ y.U.oXoXoXoXoXoXoXoXoXoXoXoXoXoXoXoXoXoXoXoXoXoXoXoXoXoX",
"oXoXoXoXoXoXoXoXoXoXoXoXoXoXoXoXoXoXoXoXoXoXoXoX!.R.x.C N u < * % > 3 ^ P.I.oXoXoXoXoXoXoXoXoXoXoXoXoXoXoXoXoXoXoXoXoXoXoXoXoXoX",
"oXoXoXoXoXoXoXoXoXoXoXoXoXoXoXoXoXoXoXoXoXoXoXoX!.R.z.F y t - * $ % 3 U M.P.oXoXoXoXoXoXoXoXoXoXoXoXoXoXoXoXoXoXoXoXoXoXoXoXoXoX",
"oXoXoXoXoXoXoXoXoXoXoXoXoXoXoXoXoXoXoXoXoXoXoXoXE.V.z.F i = ; $ + % 2 I @.P.oXoXoXoXoXoXoXoXoXoXoXoXoXoXoXoXoXoXoXoXoXoXoXoXoXoX",
"oXoXoXoXoXoXoXoXoXoXoXoXoXoXoXoXoXoXoXoXoXoXoXoXE.B.z.H i = & O o $ 1 I ) ,.oXoXoXoXoXoXoXoXoXoXoXoXoXoXoXoXoXoXoXoXoXoXoXoXoXoX",
"oXoXoXoXoXoXoXoXoXoXoXoXoXoXoXoXoXoXoXoXoXoXoXoXR.B.z.H *.@ @ O X # > Y / _ oXoXoXoXoXoXoXoXoXoXoXoXoXoXoXoXoXoXoXoXoXoXoXoXoXoX",
"oXoXoXoXoXoXoXoXoXoXoXoXoXoXoXoXoXoXoXoXoXoXoXoXN.B.m.D b @ @ O   # * l ^ ( oXoXoXoXoXoXoXoXoXoXoXoXoXoXoXoXoXoXoXoXoXoXoXoXoXoX",
"oXoXoXoXoXoXoXoXoXoXoXoXoXoXoXoXoXoXoXoXoXoXoXoXG.B.c.&.v @ @ O   + > A ^ / oXoXoXoXoXoXoXoXoXoXoXoXoXoXoXoXoXoXoXoXoXoXoXoXoXoX",
"oXoXoXoXoXoXoXoXoXoXoXoXoXoXoXoXoXoXoXoXoXoXoXoXoXB.C.*.#.n @ O   o % V U oXoXoXoXoXoXoXoXoXoXoXoXoXoXoXoXoXoXoXoXoXoXoXoXoXoXoX",
"oXoXoXoXoXoXoXoXoXoXoXoXoXoXoXoXoXoXoXoXoXoXoXoXoXG.C.*.b s @ O X o % 3 E oXoXoXoXoXoXoXoXoXoXoXoXoXoXoXoXoXoXoXoXoXoXoXoXoXoXoX",
"oXoXoXoXoXoXoXoXoXoXoXoXoXoXoXoXoXoXoXoXoXoXoXoXoXF.C.=.M d 4 $ X X % 1 K oXoXoXoXoXoXoXoXoXoXoXoXoXoXoXoXoXoXoXoXoXoXoXoXoXoXoX",
"oXoXoXoXoXoXoXoXoXoXoXoXoXoXoXoXoXoXoXoXoXoXoXoXoXF.3.;.#.d 4 $ o X # 1 K oXoXoXoXoXoXoXoXoXoXoXoXoXoXoXoXoXoXoXoXoXoXoXoXoXoXoX",
"oXoXoXoXoXoXoXoXoXoXoXoXoXoXoXoXoXoXoXoXoXoXoXoXoXJ.3.;.4.f 5 $ o X # > I oXoXoXoXoXoXoXoXoXoXoXoXoXoXoXoXoXoXoXoXoXoXoXoXoXoXoX",
"oXoXoXoXoXoXoXoXoXoXoXoXoXoXoXoXoXoXoXoXoXoXoXoXoX^.2.:.4.f 6 * O   # > oXoXoXoXoXoXoXoXoXoXoXoXoXoXoXoXoXoXoXoXoXoXoXoXoXoXoXoX",
"oXoXoXoXoXoXoXoXoXoXoXoXoXoXoXoXoXoXoXoXoXoXoXoXoXoXi.0.4.z 7 * #   + % oXoXoXoXoXoXoXoXoXoXoXoXoXoXoXoXoXoXoXoXoXoXoXoXoXoXoXoX",
"oXoXoXoXoXoXoXoXoXoXoXoXoXoXoXoXoXoXoXoXoXoXoXoXoXoXi.q.5.` 8 * #   o > oXoXoXoXoXoXoXoXoXoXoXoXoXoXoXoXoXoXoXoXoXoXoXoXoXoXoXoX",
"oXoXoXoXoXoXoXoXoXoXoXoXoXoXoXoXoXoXoXoXoXoXoXoXoXoXp.q.5.` w * #   o % oXoXoXoXoXoXoXoXoXoXoXoXoXoXoXoXoXoXoXoXoXoXoXoXoXoXoXoX",
"oXoXoXoXoXoXoXoXoXoXoXoXoXoXoXoXoXoXoXoXoXoXoXoXoXoXp.s.8.` w , # o o oXoXoXoXoXoXoXoXoXoXoXoXoXoXoXoXoXoXoXoXoXoXoXoXoXoXoXoXoX",
"oXoXoXoXoXoXoXoXoXoXoXoXoXoXoXoXoXoXoXoXoXoXoXoXoXoXoXs.9.' e 1 # o o oXoXoXoXoXoXoXoXoXoXoXoXoXoXoXoXoXoXoXoXoXoXoXoXoXoXoXoXoX",
"oXoXoXoXoXoXoXoXoXoXoXoXoXoXoXoXoXoXoXoXoXoXoXoXoXoXoXf.9.' r < * o # oXoXoXoXoXoXoXoXoXoXoXoXoXoXoXoXoXoXoXoXoXoXoXoXoXoXoXoXoX",
"oXoXoXoXoXoXoXoXoXoXoXoXoXoXoXoXoXoXoXoXoXoXoXoXoXoXoXoXo.' r q * # oXoXoXoXoXoXoXoXoXoXoXoXoXoXoXoXoXoXoXoXoXoXoXoXoXoXoXoXoXoX",
"oXoXoXoXoXoXoXoXoXoXoXoXoXoXoXoXoXoXoXoXoXoXoXoXoXoXoXoXo.} T q > % oXoXoXoXoXoXoXoXoXoXoXoXoXoXoXoXoXoXoXoXoXoXoXoXoXoXoXoXoXoX",
"oXoXoXoXoXoXoXoXoXoXoXoXoXoXoXoXoXoXoXoXoXoXoXoXoXoXoXoXoXR T q 1 oXoXoXoXoXoXoXoXoXoXoXoXoXoXoXoXoXoXoXoXoXoXoXoXoXoXoXoXoXoXoX",
"oXoXoXoXoXoXoXoXoXoXoXoXoXoXoXoXoXoXoXoXoXoXoXoXoXoXoXoXoXoXoXoXoXoXoXoXoXoXoXoXoXoXoXoXoXoXoXoXoXoXoXoXoXoXoXoXoXoXoXoXoXoXoXoX",
"oXoXoXoXoXoXoXoXoXoXoXoXoXoXoXoXoXoXoXoXoXoXoXoXoXoXoXoXoXoXoXoXoXoXoXoXoXoXoXoXoXoXoXoXoXoXoXoXoXoXoXoXoXoXoXoXoXoXoXoXoXoXoXoX"
};
