/* XPM */
static char *result[] = {
/* columns rows colors chars-per-pixel */
"64 64 207 2 ",
"   c #767676",
".  c #787777",
"X  c #7C7B7B",
"o  c #7A7877",
"O  c #847E7C",
"+  c #89807E",
"@  c #96847B",
"#  c #98857E",
"$  c #9F937E",
"%  c #A2917D",
"&  c #848383",
"*  c #8A8686",
"=  c #8C8B8B",
"-  c #898887",
";  c #928E8D",
":  c #9B8A83",
">  c #9C938F",
",  c #9F9885",
"<  c #918F90",
"1  c #8F9C9A",
"2  c #949393",
"3  c #9A9493",
"4  c #9F9C96",
"5  c #979A9D",
"6  c #9B9B9B",
"7  c #97979A",
"8  c #A18D8A",
"9  c #AA9184",
"0  c #A6948E",
"q  c #A79587",
"w  c #B4958D",
"e  c #B59F8E",
"r  c #AA9692",
"t  c #A09892",
"y  c #AB9A96",
"u  c #A29D9D",
"i  c #AD9E9B",
"p  c #B99C93",
"a  c #B19E9C",
"s  c #BC9E99",
"d  c #9BA184",
"f  c #97A88D",
"g  c #8FA192",
"h  c #9AA194",
"j  c #97A69D",
"k  c #9CB49C",
"l  c #A9A385",
"z  c #B4A38A",
"x  c #B7A48B",
"c  c #A5B38D",
"v  c #ADB68D",
"b  c #B3B38F",
"n  c #B5B98F",
"m  c #ACA49E",
"M  c #A5AF9B",
"N  c #A9A699",
"B  c #BDA193",
"V  c #BDA19C",
"C  c #B4A19F",
"Z  c #A7B796",
"A  c #BDB792",
"S  c #8E9CA5",
"D  c #8E97A8",
"F  c #9297A6",
"G  c #949AA2",
"H  c #999AA2",
"J  c #959DB4",
"K  c #9A9EB2",
"L  c #A09FA0",
"P  c #9EA3AB",
"I  c #9BACAD",
"U  c #96A9A4",
"Y  c #9DB3A6",
"T  c #9EA6B9",
"R  c #99A8B4",
"E  c #9EB4B1",
"W  c #A4A3A4",
"Q  c #AAA5A5",
"!  c #A4ACA3",
"~  c #ABABAC",
"^  c #A3A7A9",
"/  c #B3A2A1",
"(  c #BBA5A3",
")  c #B1ADAE",
"_  c #BDABAA",
"`  c #A1BCAA",
"'  c #A2A7B4",
"]  c #A6A9B3",
"[  c #ABACB3",
"{  c #A5A9BD",
"}  c #B0AFB0",
"|  c #A5BBBC",
" . c #A1B2BE",
".. c #B4B3B4",
"X. c #B5B5BA",
"o. c #B8B7B8",
"O. c #BBBBBC",
"+. c #B8B5B5",
"@. c #C2A393",
"#. c #C4A49C",
"$. c #CBB19C",
"%. c #CBBA9A",
"&. c #C4B796",
"*. c #C5A6A0",
"=. c #CBA9A6",
"-. c #C7ABA9",
";. c #CFB9A2",
":. c #CCB3AD",
">. c #CEB6A7",
",. c #D3B1A4",
"<. c #D4B5AB",
"1. c #C5B5B4",
"2. c #ABC298",
"3. c #B3C498",
"4. c #BBC99A",
"5. c #BCC699",
"6. c #ACCBA3",
"7. c #A6C4A7",
"8. c #AED3AE",
"9. c #B4D1A3",
"0. c #B8D8AA",
"q. c #AACBB3",
"w. c #A8C3B8",
"e. c #BCDEB1",
"r. c #BBDDBE",
"t. c #B2D5B2",
"y. c #BCE1BD",
"u. c #CACB9E",
"i. c #C4C99C",
"p. c #CDCBA1",
"a. c #D3CCA4",
"s. c #DAC7AD",
"d. c #D5CBAA",
"f. c #C3D7A6",
"g. c #CCDAAA",
"h. c #C2D8A7",
"j. c #D6DAAC",
"k. c #D2C3B3",
"l. c #D6C9B4",
"z. c #C9DEBE",
"x. c #DDDCB4",
"c. c #D7D7B4",
"v. c #C3E6BD",
"b. c #C8E3B7",
"n. c #DEE7BD",
"m. c #D3E7BA",
"M. c #9DA5C3",
"N. c #9FACC1",
"B. c #AAAEC6",
"V. c #A5ABC8",
"C. c #ADB4CD",
"Z. c #ADBECE",
"A. c #A8B3C3",
"S. c #BDBDC0",
"D. c #BDBECC",
"F. c #B5B6C6",
"G. c #A7ADD1",
"H. c #A8ADD0",
"J. c #ACB3D4",
"K. c #ACB8D2",
"L. c #B3B6DC",
"P. c #B4BADE",
"I. c #BABEDB",
"U. c #B9BAD4",
"Y. c #B6BCE1",
"T. c #BCBEE0",
"R. c #C0BFC1",
"E. c #AFC6CA",
"W. c #B2CEC6",
"Q. c #B5D6C2",
"!. c #BFD3CC",
"~. c #BEC4D4",
"^. c #BCC2DC",
"/. c #B9C7DA",
"(. c #BDD1D4",
"). c #BDD8D2",
"_. c #BDC1E4",
"`. c #BFC2EA",
"'. c #C3C2C4",
"]. c #C6C6C9",
"[. c #CBCBCC",
"{. c #C1D4C5",
"}. c #C2DDCE",
"|. c #C7DBC2",
" X c #D1DCC0",
".X c #C1C2D3",
"XX c #CDCDD2",
"oX c #CBCCDB",
"OX c #C3C8DC",
"+X c #C1D6D5",
"@X c #D3D3D4",
"#X c #D5D5DA",
"$X c #DADADB",
"%X c #CBE7C3",
"&X c #C3E4C8",
"*X c #DCE2C3",
"=X c #D8E9C2",
"-X c #C4C5E2",
";X c #C3C4EA",
":X c #C9CCE7",
">X c #D4D4E6",
",X c #DCDCE2",
"<X c #D6D7EC",
"1X c #E3E3E5",
"2X c #E5E5EA",
"3X c #E8E8E9",
"4X c None",
/* pixels */
"4X4X4X4X4X4X4X4X4X4X4X4X4X4X4X4X4X4X4X4X4X4X4X4X4X4X4X4X4X4X4X4X4X4X4X4X4X4X4X4X4X4X4X4X4X4X4X4X4X4X4X4X4X4X4X4X4X4X4X4X4X4X4X4X",
"4X4X4X4X4X4X4X4X4X4X4X4X4X4X4X4X4X4X4X4X4X4X4X4X4X4X4X4X4X4X4X4X4X4X4X4X4X4X4X4X4X4X4X4X4X4X4X4X4X4X4X4X4X4X4X4X4X4X4X4X4X4X4X4X",
"4X4X4X4X4X4X4X4X4X4X4X4X4X4X4X4X4X4X4X4X4X4X4X4X4X4X4X4X4XW ) +.1.1.:.k.4X4X4X4X4X4X4X4X4X4X4X4X4X4X4X4X4X4X4X4X4X4X4X4X4X4X4X4X",
"4X4X4X4X4X4X4X4X4X4X4X4X4X4X4X4X4X4X4X4X4X4X4X4X4X4X4X4X6 W ~ +.1.:.<.l.l.4X4X4X4X4X4X4X4X4X4X4X4X4X4X4X4X4X4X4X4X4X4X4X4X4X4X4X",
"4X4X4X4X4X4X4X4X4X4X4X4X4X4X4X4X4X4X4X4X4X4X4X4X4X4X4X; 7 U ~ } 1.<.<.s.c.4X4X4X4X4X4X4X4X4X4X4X4X4X4X4X4X4X4X4X4X4X4X4X4X4X4X4X",
"4X4X4X4X4X4X4X4X4X4X4X4X4X4X4X4X4X4X4X4X4X4X4X4X4X4X& = 3 t Q ) -.=.<.s. X*X4X4X4X4X4X4X4X4X4X4X4X4X4X4X4X4X4X4X4X4X4X4X4X4X4X4X",
"4X4X4X4X4X4X4X4X4X4X4X4X4X4X4X4X4X4X4X4X4X4X4X4X4X4X& - < 5 W ) _ -.<.s.x.n.*X4X4X4X4X4X4X4X4X4X4X4X4X4X4X4X4X4X4X4X4X4X4X4X4X4X",
"4X4X4X4X4X4X4X4X4X4X4X4X4X4X4X4X4X4X4X4X4X4X4X4X4XO X & < 7 W ~ -.=.<.s.x.n.=X4X4X4X4X4X4X4X4X4X4X4X4X4X4X4X4X4X4X4X4X4X4X4X4X4X",
"4X4X4X4X4X4X4X4X4X4X4X4X4X4X4X4X4X4X4X4X4X4X4X4X& X . & - 7 W Q ( *.=.s.x.n.n.%X4X4X4X4X4X4X4X4X4X4X4X4X4X4X4X4X4X4X4X4X4X4X4X4X",
"4X4X4X4X4X4X4X4X4X4X4X4X4X4X4X4X4X4X4X4X4X4X4X4X& . . & - 3 6 / / =.,.s.j.m.m.%X4X4X4X4X4X4X4X4X4X4X4X4X4X4X4X4X4X4X4X4X4X4X4X4X",
"4X4X4X4X4X4X4X4X4X4X4X4X4X4X4X4X4X4X4X4X4X4X4X4X&     X - 2 6 L / #.=.a.j.m.%X%X4X4X4X4X4X4X4X4X4X4X4X4X4X4X4X4X4X4X4X4X4X4X4X4X",
"4X4X4X4X4X4X4X4X4X4X4X4X4X4X4X4X4X4X4X4X4X4X4X= & .   X & < 6 L C #.$.a.j.b.v.&X&X4X4X4X4X4X4X4X4X4X4X4X4X4X4X4X4X4X4X4X4X4X4X4X",
"4X4X4X4X4X4X4X4X4X4X4X4X4X4X4X4X4X4X4X4X4X4X4X; & X   X & < 7 u a #.$.u.g.g.y.&X+X4X4X4X4X4X4X4X4X4X4X4X4X4X4X4X4X4X4X4X4X4X4X4X",
"4X4X4X4X4X4X4X4X4X4X4X4X4X4X4X4X4X4X4X4X4X4X4X2 - X   . X = 3 6 a s $.u.f.e.y.}.+X4X4X4X4X4X4X4X4X4X4X4X4X4X4X4X4X4X4X4X4X4X4X4X",
"4X4X4X4X4X4X4X4X4X4X4X4X4X4X4X4X4X4X4X4X4X4X6 2 = X     X - 3 t y @.$.i.f.e.r.).:X^.4X4X4X4X4X4X4X4X4X4X4X4X4X4X4X4X4X4X4X4X4X4X",
"4X4X4X4X4X4X4X4X4X4X4X4X4X4X4X4X4X4X4X4X4X4XH 2 = & .   X * < 3 y p &.5.9.t.Q.(._./.4X4X4X4X4X4X4X4X4X4X4X4X4X4X4X4X4X4X4X4X4X4X",
"4X4X4X4X4X4X4X4X4X4X4X4X4X4X4X4X4X4X4X4X4X4XW 7 < & .   X & = 3 r p A 5.8.8.W./.`.T.4X4X4X4X4X4X4X4X4X4X4X4X4X4X4X4X4X4X4X4X4X4X",
"4X4X4X4X4X4X4X4X4X4X4X4X4X4X4X4X4X4X4X4X4X4XN 7 < & X     & - 3 0 p A 4.6.q.E._.`.;X4X4X4X4X4X4X4X4X4X4X4X4X4X4X4X4X4X4X4X4X4X4X",
"4X4X4X4X4X4X4X4X4X4X4X4X4X4X4X4X4X4X4X4X4XQ W 5 < - X     X = ; 0 e b 3.6.w.Z.Y.`.;X-X4X4X4X4X4X4X4X4X4X4X4X4X4X4X4X4X4X4X4X4X4X",
"4X4X4X4X4X4X4X4X4X4X4X4X4X4X4X4X4X4X4X4X4X~ Q H 2 = & .   X - 2 0 z v 2.7.A.K.Y.;X:X>X4X4X4X4X4X4X4X4X4X4X4X4X4X4X4X4X4X4X4X4X4X",
"4X4X4X4X4X4X4X4X4X4X4X4X4X4X4X4X4X4X4X4X4X..Q W 3 = & .   X - > t l b Z E A.K.Y.;X<X<X4X4X4X4X4X4X4X4X4X4X4X4X4X4X4X4X4X4X4X4X4X",
"4X4X4X4X4X4X4X4X4X4X4X4X4X4X4X4X4X4X4X4X4X..~ W 6 ; * X   X = 3 y N c Y E V.K._.:X<X,X4X4X4X4X4X4X4X4X4X4X4X4X4X4X4X4X4X4X4X4X4X",
"4X4X4X4X4X4X4X4X4X4X4X4X4X4X4X4X4X4X4X4X4X..} ^ 6 < - X o & < u m N M Y R V.Y.R.:X2X2X4X4X4X4X4X4X4X4X4X4X4X4X4X4X4X4X4X4X4X4X4X",
"4X4X4X4X4X4X4X4X4X4X4X4X4X4X4X4X4X4X4X4X..o...Q U 2 = X X * 7 u m m M U T V.L.OX<X2X2X4X4X4X4X4X4X4X4X4X4X4X4X4X4X4X4X4X4X4X4X4X",
"4X4X4X4X4X4X4X4X4X4X4X4X4X4X4X4X4X4X4X4X+.O...~ N 2 = & & - 1 u m M ! I T B.U.OX,X2X2X#X4X4X4X4X4X4X4X4X4X4X4X4X4X4X4X4X4X4X4X4X",
"4X4X4X4X4X4X4X4X4X4X4X4X4X4X4X4X4X4X4X4Xo.O.+.~ P 7 ; & - ; 2 4X4X! ^ I ' B.D.XX#X3X3X#X4X4X4X4X4X4X4X4X4X4X4X4X4X4X4X4X4X4X4X4X",
"4X4X4X4X4X4X4X4X4X4X4X4X4X4X4X4X4X4X4X4X1.~.O.} W 7 ; - = ; 4X4X4X4X~ ^ ' B.D.XX$X3X3X$X4X4X4X4X4X4X4X4X4X4X4X4X4X4X4X4X4X4X4X4X",
"4X4X4X4X4X4X4X4X4X4X4X4X4X4X4X4X4X4X4X4XR.W.O.[ Q j 2 < 2 2 4X4X4X4X^ ] ] F.'.XX$X3X3X$X4X4X4X4X4X4X4X4X4X4X4X4X4X4X4X4X4X4X4X4X",
"4X4X4X4X4X4X4X4X4X4X4X4X4X4X4X4X4X4X4X4X].].S...Q W 2 < 2 2 4X4X4X4XW ] [ X.R.[.$X1X1X$X4X4X4X4X4X4X4X4X4X4X4X4X4X4X4X4X4X4X4X4X",
"4X4X4X4X4X4X4X4X4X4X4X4X4X4X4X4X4X4X4X4X'.].k.o.~ W 7 2 7 2 4X4X4X4X4X[ [ X.S.[.@X1X3X$X4X4X4X4X4X4X4X4X4X4X4X4X4X4X4X4X4X4X4X4X",
"4X4X4X4X4X4X4X4X4X4X4X4X4X4X4X4X4X4X4X4X].[.'.o.~ W 7 3 7 4X4X4X4X4X4X~ [ ..S.].@X$X1X$X4X4X4X4X4X4X4X4X4X4X4X4X4X4X4X4X4X4X4X4X",
"4X4X4X4X4X4X4X4X4X4X4X4X4X4X4X4X4X4X4X4X].[.'.O...^ 6 6 7 4X4X4X4X4X4X~ ~ ..O.].XX$X1X$X4X4X4X4X4X4X4X4X4X4X4X4X4X4X4X4X4X4X4X4X",
"4X4X4X4X4X4X4X4X4X4X4X4X4X4X4X4X4X4X4X4X[.XX].S...^ u 6 6 4X4X4X4X4X4XQ ~ ..O.'.[.$X$X$X4X4X4X4X4X4X4X4X4X4X4X4X4X4X4X4X4X4X4X4X",
"4X4X4X4X4X4X4X4X4X4X4X4X4X4X4X4X4X4X4X4X[.@X].S.X.~ L 5 H 4X4X4X4X4X4XW Q } ..~.].$X$X$X4X4X4X4X4X4X4X4X4X4X4X4X4X4X4X4X4X4X4X4X",
"4X4X4X4X4X4X4X4X4X4X4X4X4X4X4X4X4X4X4X4XXX@X[.k.o.~ L H H 5 4X4X4X4X6 W Q ~ +.w.].$X$X@X4X4X4X4X4X4X4X4X4X4X4X4X4X4X4X4X4X4X4X4X",
"4X4X4X4X4X4X4X4X4X4X4X4X4X4X4X4X4X4X4X4XXX@XXX'.O.[ P H G 5 4X4X4X4XW W W ~ o.1.].[.$X@X4X4X4X4X4X4X4X4X4X4X4X4X4X4X4X4X4X4X4X4X",
"4X4X4X4X4X4X4X4X4X4X4X4X4X4X4X4X4X4X4X4XXX@X@X'.o.[ K F G G 4X4X4X4X6 u N ^ } O.'.[.@XXX4X4X4X4X4X4X4X4X4X4X4X4X4X4X4X4X4X4X4X4X",
"4X4X4X4X4X4X4X4X4X4X4X4X4X4X4X4X4X4X4X4X@X#X@X].S.[ K F G 6 4X4X4X4X6 6 5 W [ o.~.[.@X[.4X4X4X4X4X4X4X4X4X4X4X4X4X4X4X4X4X4X4X4X",
"4X4X4X4X4X4X4X4X4X4X4X4X4X4X4X4X4X4X4X4XXX$X@X].F.{ K D 1 j h 4X4X3 7 7 3 W ~ o.k.[.@X].4X4X4X4X4X4X4X4X4X4X4X4X4X4X4X4X4X4X4X4X",
"4X4X4X4X4X4X4X4X4X4X4X4X4X4X4X4X4X4X4X4X[.#X#X.XF.{ J D 7 1 N t 2 2 2 < 7 u ~ ..O.].[.'.4X4X4X4X4X4X4X4X4X4X4X4X4X4X4X4X4X4X4X4X",
"4X4X4X4X4X4X4X4X4X4X4X4X4X4X4X4X4X4X4X4X[.#X#X~.K.M.J S 1 g h t 2 ; = = 3 6 ^ ..O.'.].'.4X4X4X4X4X4X4X4X4X4X4X4X4X4X4X4X4X4X4X4X",
"4X4X4X4X4X4X4X4X4X4X4X4X4X4X4X4X4X4X4X4X4X#XoXI.G.M.J S g f l > ; - & - = 6 W [ O.'.'.4X4X4X4X4X4X4X4X4X4X4X4X4X4X4X4X4X4X4X4X4X",
"4X4X4X4X4X4X4X4X4X4X4X4X4X4X4X4X4X4X4X4X4XoX:XU.N.M.J j g f $ ; * & & * ; 6 W ~ o.'.'.4X4X4X4X4X4X4X4X4X4X4X4X4X4X4X4X4X4X4X4X4X",
"4X4X4X4X4X4X4X4X4X4X4X4X4X4X4X4X4X4X4X4X4XoX-XL.G.N.R j f $ $ $ O o . & = 3 U ~ ..O.R.4X4X4X4X4X4X4X4X4X4X4X4X4X4X4X4X4X4X4X4X4X",
"4X4X4X4X4X4X4X4X4X4X4X4X4X4X4X4X4X4X4X4X4XOX-XL.G.N.E k c l % # O o . X = 3 6 Q ..O.O.4X4X4X4X4X4X4X4X4X4X4X4X4X4X4X4X4X4X4X4X4X",
"4X4X4X4X4X4X4X4X4X4X4X4X4X4X4X4X4X4X4X4X4X.XT.L.K.N.E k c $ % # O o o X - < 6 W } ..O.4X4X4X4X4X4X4X4X4X4X4X4X4X4X4X4X4X4X4X4X4X",
"4X4X4X4X4X4X4X4X4X4X4X4X4X4X4X4X4X4X4X4X4XU.T.L.A.E 7.Z c l % # O o o o & < 7 W ~ ..4X4X4X4X4X4X4X4X4X4X4X4X4X4X4X4X4X4X4X4X4X4X",
"4X4X4X4X4X4X4X4X4X4X4X4X4X4X4X4X4X4X4X4X4X4XT.P.Z.w.2.2.2.l % # O o   o & < 2 P ~ ..4X4X4X4X4X4X4X4X4X4X4X4X4X4X4X4X4X4X4X4X4X4X",
"4X4X4X4X4X4X4X4X4X4X4X4X4X4X4X4X4X4X4X4X4X4XI.^.E.q.2.2.n z % # * X   . & - 7 u ^ ..4X4X4X4X4X4X4X4X4X4X4X4X4X4X4X4X4X4X4X4X4X4X",
"4X4X4X4X4X4X4X4X4X4X4X4X4X4X4X4X4X4X4X4X4X4X^.(.W.q.6.3.n z 9 : - X . . X - < 6 Q } 4X4X4X4X4X4X4X4X4X4X4X4X4X4X4X4X4X4X4X4X4X4X",
"4X4X4X4X4X4X4X4X4X4X4X4X4X4X4X4X4X4X4X4X4X4X.X(.Q.8.9.4.A x 9 : * + .   X * 2 7 ^ 4X4X4X4X4X4X4X4X4X4X4X4X4X4X4X4X4X4X4X4X4X4X4X",
"4X4X4X4X4X4X4X4X4X4X4X4X4X4X4X4X4X4X4X4X4X4X4X{.y.t.9.4.&.x 9 8 ; & .   o & = 7 W 4X4X4X4X4X4X4X4X4X4X4X4X4X4X4X4X4X4X4X4X4X4X4X",
"4X4X4X4X4X4X4X4X4X4X4X4X4X4X4X4X4X4X4X4X4X4X4X{.y.e.0.u.i.x w > ; & X   o & = 7 W 4X4X4X4X4X4X4X4X4X4X4X4X4X4X4X4X4X4X4X4X4X4X4X",
"4X4X4X4X4X4X4X4X4X4X4X4X4X4X4X4X4X4X4X4X4X4X4X{.r.e.0.u.&.@.w 0 ; * X o o X - 2 4X4X4X4X4X4X4X4X4X4X4X4X4X4X4X4X4X4X4X4X4X4X4X4X",
"4X4X4X4X4X4X4X4X4X4X4X4X4X4X4X4X4X4X4X4X4X4X4X4Xz.z.h.p.&.@.w q 2 = + .   X & 3 4X4X4X4X4X4X4X4X4X4X4X4X4X4X4X4X4X4X4X4X4X4X4X4X",
"4X4X4X4X4X4X4X4X4X4X4X4X4X4X4X4X4X4X4X4X4X4X4X4X|.b.g.a.%.@.w w 3 = & o   X - 2 4X4X4X4X4X4X4X4X4X4X4X4X4X4X4X4X4X4X4X4X4X4X4X4X",
"4X4X4X4X4X4X4X4X4X4X4X4X4X4X4X4X4X4X4X4X4X4X4X4X4Xz.j.a.$.@.p y 3 = & X . X * 4X4X4X4X4X4X4X4X4X4X4X4X4X4X4X4X4X4X4X4X4X4X4X4X4X",
"4X4X4X4X4X4X4X4X4X4X4X4X4X4X4X4X4X4X4X4X4X4X4X4X4X%Xc.d.;.#.p i 6 2 = X . X 4X4X4X4X4X4X4X4X4X4X4X4X4X4X4X4X4X4X4X4X4X4X4X4X4X4X",
"4X4X4X4X4X4X4X4X4X4X4X4X4X4X4X4X4X4X4X4X4X4X4X4X4X4Xc.d.;.#.s i t 3 = X X X 4X4X4X4X4X4X4X4X4X4X4X4X4X4X4X4X4X4X4X4X4X4X4X4X4X4X",
"4X4X4X4X4X4X4X4X4X4X4X4X4X4X4X4X4X4X4X4X4X4X4X4X4X4X4Xl.<.#.s a L 3 = * & 4X4X4X4X4X4X4X4X4X4X4X4X4X4X4X4X4X4X4X4X4X4X4X4X4X4X4X",
"4X4X4X4X4X4X4X4X4X4X4X4X4X4X4X4X4X4X4X4X4X4X4X4X4X4X4X4X>.*.( Q m 7 3 - 4X4X4X4X4X4X4X4X4X4X4X4X4X4X4X4X4X4X4X4X4X4X4X4X4X4X4X4X",
"4X4X4X4X4X4X4X4X4X4X4X4X4X4X4X4X4X4X4X4X4X4X4X4X4X4X4X4X4X( s / W 5 7 4X4X4X4X4X4X4X4X4X4X4X4X4X4X4X4X4X4X4X4X4X4X4X4X4X4X4X4X4X",
"4X4X4X4X4X4X4X4X4X4X4X4X4X4X4X4X4X4X4X4X4X4X4X4X4X4X4X4X4X4X4X4X4X4X4X4X4X4X4X4X4X4X4X4X4X4X4X4X4X4X4X4X4X4X4X4X4X4X4X4X4X4X4X4X",
"4X4X4X4X4X4X4X4X4X4X4X4X4X4X4X4X4X4X4X4X4X4X4X4X4X4X4X4X4X4X4X4X4X4X4X4X4X4X4X4X4X4X4X4X4X4X4X4X4X4X4X4X4X4X4X4X4X4X4X4X4X4X4X4X"
};
