/* XPM */
static char *result[] = {
/* columns rows colors chars-per-pixel */
"64 64 216 2 ",
"   c #757575",
".  c #787777",
"X  c #7C7B7B",
"o  c #827E7D",
"O  c #887F7C",
"+  c #8A817E",
"@  c #95837C",
"#  c #9E8B7C",
"$  c #9F997E",
"%  c #A18A7E",
"&  c #A5977D",
"*  c #848383",
"=  c #8A8685",
"-  c #8C8B8B",
";  c #918886",
":  c #928E8E",
">  c #9B8A85",
",  c #9A948B",
"<  c #908F90",
"1  c #8D9D99",
"2  c #949393",
"3  c #9A9594",
"4  c #9C9897",
"5  c #989798",
"6  c #93999E",
"7  c #9C9B9C",
"8  c #95969A",
"9  c #A58C83",
"0  c #A78E8A",
"q  c #AD9683",
"w  c #A4938E",
"e  c #A9978B",
"r  c #B3968C",
"t  c #B2988E",
"y  c #BA998F",
"u  c #B19687",
"i  c #A49591",
"p  c #A99995",
"a  c #A29D9C",
"s  c #AC9D9A",
"d  c #A49B93",
"f  c #B69A93",
"g  c #BC9B94",
"h  c #BA9E9B",
"j  c #B69A96",
"k  c #8FA18F",
"l  c #99A589",
"z  c #9EA397",
"x  c #96A597",
"c  c #9DB49E",
"v  c #9BB698",
"b  c #ADA785",
"n  c #A9A687",
"m  c #B5A78A",
"M  c #BBA68D",
"N  c #A8B38B",
"B  c #B3B68E",
"V  c #B8B88E",
"C  c #A6A39E",
"Z  c #ACA49D",
"A  c #ACAB9D",
"S  c #A8A593",
"D  c #BEA491",
"F  c #BEA29E",
"G  c #ABBF95",
"H  c #A5B697",
"J  c #BCB891",
"K  c #8C95A3",
"L  c #8E99A8",
"P  c #969AA4",
"I  c #9A9CA1",
"U  c #9197AC",
"Y  c #919AA7",
"T  c #969DB6",
"R  c #999EB4",
"E  c #A09FA0",
"W  c #9BAAAC",
"Q  c #98A7A7",
"!  c #9BB4A7",
"~  c #97A4B4",
"^  c #9CA3B3",
"/  c #99ACB1",
"(  c #9EABBE",
")  c #9FB2B9",
"_  c #A4A3A4",
"`  c #ADA4A4",
"'  c #A4ACA3",
"]  c #A3A5A9",
"[  c #ABABAC",
"{  c #A6ABA7",
"}  c #B4A3A2",
"|  c #BAA5A3",
" . c #B8ACAC",
".. c #A1BDA7",
"X. c #A5A9B1",
"o. c #ABABB3",
"O. c #A1A6BE",
"+. c #A6A9B8",
"@. c #B1AFB0",
"#. c #A1B7B8",
"$. c #B4B3B4",
"%. c #BBB3B4",
"&. c #B5B5BB",
"*. c #B8B7B8",
"=. c #BCBBBC",
"-. c #C19E98",
";. c #C3A495",
":. c #C4A39B",
">. c #C9A69D",
",. c #C4B695",
"<. c #C3B894",
"1. c #CCB49C",
"2. c #C8B797",
"3. c #C4A6A2",
"4. c #CBAAA6",
"5. c #D1ACA8",
"6. c #CBB3AD",
"7. c #CAB3A7",
"8. c #D4B2A5",
"9. c #D4B4AB",
"0. c #C7B7B4",
"q. c #ABC599",
"w. c #B4CD9E",
"e. c #B8C697",
"r. c #AACCAC",
"t. c #A8C8A5",
"y. c #BCD4A3",
"u. c #B3D6A9",
"i. c #B6D7A7",
"p. c #A8C6B7",
"a. c #AFD3B4",
"s. c #B5DBB3",
"d. c #BCDFB4",
"f. c #B2D6BC",
"g. c #B7DEBB",
"h. c #ADD3AB",
"j. c #BDE3BA",
"k. c #BCE0B1",
"l. c #C4C799",
"z. c #CCC69D",
"x. c #CCC99D",
"c. c #C0C597",
"v. c #C1D19F",
"b. c #D5C5A4",
"n. c #DAC3AC",
"m. c #D3C6A8",
"M. c #CCD4A4",
"N. c #CCDDAC",
"B. c #C3D6A5",
"V. c #D6D5AA",
"C. c #D6D7AB",
"Z. c #D4C7B4",
"A. c #CFDFBC",
"S. c #DED5B3",
"D. c #D5D9B7",
"F. c #C6E4B8",
"G. c #DFE3B9",
"H. c #DEE9BE",
"J. c #D6E5B8",
"K. c #9DA4C1",
"L. c #A4ABCB",
"P. c #AAADC7",
"I. c #A6B3C8",
"U. c #A9B9C6",
"Y. c #BEBEC2",
"T. c #BABBCC",
"R. c #B2B4C6",
"E. c #AAAED6",
"W. c #ACB2D4",
"Q. c #AFBBD4",
"!. c #B2B5D2",
"~. c #B3B6DD",
"^. c #BABCDB",
"/. c #B7BBD9",
"(. c #B6BAE0",
"). c #BBBEE3",
"_. c #ADC7C4",
"`. c #B7CAC9",
"'. c #BBD8C9",
"]. c #BCC1DC",
"[. c #BECCDD",
"{. c #B7C4D5",
"}. c #BEE1C7",
"|. c #BDC3E4",
" X c #BFC2EA",
".X c #C3C3C4",
"XX c #C7C7C9",
"oX c #CBCBCC",
"OX c #C4CCC9",
"+X c #C3DBC1",
"@X c #C0D1CB",
"#X c #C6DACA",
"$X c #C3C5D3",
"%X c #CECED1",
"&X c #CDCDDD",
"*X c #C3C8DA",
"=X c #C0D3DA",
"-X c #C2D9D5",
";X c #D3D3D4",
":X c #D6D6D8",
">X c #DADADC",
",X c #C6E5C5",
"<X c #DCE4C3",
"1X c #D5E7C4",
"2X c #C3C4E3",
"3X c #C2C3EC",
"4X c #CDCDEA",
"5X c #C7CBE3",
"6X c #D5D5E2",
"7X c #DBDBE1",
"8X c #D4D4EA",
"9X c #DCDDEC",
"0X c #E3E3E4",
"qX c #E5E5EA",
"wX c #EAEAEC",
"eX c None",
/* pixels */
"eXeXeXeXeXeXeXeXeXeXeXeXeXeXeXeXeXeXeXeXeXeXeXeXeXeXeXeXeXeXeXeXeXeXeXeXeXeXeXeXeXeXeXeXeXeXeXeXeXeXeXeXeXeXeXeXeXeXeXeXeXeXeXeX",
"eXeXeXeXeXeXeXeXeXeXeXeXeXeXeXeXeXeXeXeXeXeXeXeXeXeXeXeXeXeXeXeXeXeXeXeXeXeXeXeXeXeXeXeXeXeXeXeXeXeXeXeXeXeXeXeXeXeXeXeXeXeXeXeX",
"eXeXeXeXeXeXeXeXeXeXeXeXeXeXeXeXeXeXeXeXeXeXeXeXeXeXeXeX_ { @.*.0.0.6.6.Z.eXeXeXeXeXeXeXeXeXeXeXeXeXeXeXeXeXeXeXeXeXeXeXeXeXeXeX",
"eXeXeXeXeXeXeXeXeXeXeXeXeXeXeXeXeXeXeXeXeXeXeXeXeXeX2 7 _ ` @.%.0.0.9.9.Z.Z.eXeXeXeXeXeXeXeXeXeXeXeXeXeXeXeXeXeXeXeXeXeXeXeXeXeX",
"eXeXeXeXeXeXeXeXeXeXeXeXeXeXeXeXeXeXeXeXeXeXeXeXeX- 2 8 7 ] [ $.0.9.5.9.9.S.<XeXeXeXeXeXeXeXeXeXeXeXeXeXeXeXeXeXeXeXeXeXeXeXeXeX",
"eXeXeXeXeXeXeXeXeXeXeXeXeXeXeXeXeXeXeXeXeXeXeXeX* = - 2 7 _ [ @.%.5.5.8.Z.S.D.<XeXeXeXeXeXeXeXeXeXeXeXeXeXeXeXeXeXeXeXeXeXeXeXeX",
"eXeXeXeXeXeXeXeXeXeXeXeXeXeXeXeXeXeXeXeXeXeXeX* o * - 2 7 _ { @. .4.5.8.n.S.<X<X<XeXeXeXeXeXeXeXeXeXeXeXeXeXeXeXeXeXeXeXeXeXeXeX",
"eXeXeXeXeXeXeXeXeXeXeXeXeXeXeXeXeXeXeXeXeXeXeXX X * * 2 8 7 ` [  .3.5.8.n.S.G.H.1X1XeXeXeXeXeXeXeXeXeXeXeXeXeXeXeXeXeXeXeXeXeXeX",
"eXeXeXeXeXeXeXeXeXeXeXeXeXeXeXeXeXeXeXeXeXeX* . . X * < 2 7 _ ] | 3.4.5.n.C.G.H.H.1XeXeXeXeXeXeXeXeXeXeXeXeXeXeXeXeXeXeXeXeXeXeX",
"eXeXeXeXeXeXeXeXeXeXeXeXeXeXeXeXeXeXeXeXeX- o   . X * = 2 7 _ ` } 3.3.8.b.C.G.J.J.F.,XeXeXeXeXeXeXeXeXeXeXeXeXeXeXeXeXeXeXeXeXeX",
"eXeXeXeXeXeXeXeXeXeXeXeXeXeXeXeXeXeXeXeXeX- X     . * = < 5 a ` } -.>.8.b.C.C.F.,XF.,XeXeXeXeXeXeXeXeXeXeXeXeXeXeXeXeXeXeXeXeXeX",
"eXeXeXeXeXeXeXeXeXeXeXeXeXeXeXeXeXeXeXeX2 = o .   . o = - 5 a E } -.:.1.b.C.N.F.F.,X,X-XeXeXeXeXeXeXeXeXeXeXeXeXeXeXeXeXeXeXeXeX",
"eXeXeXeXeXeXeXeXeXeXeXeXeXeXeXeXeXeXeXeX2 - * X     X * - 2 7 a s h :.1.z.M.N.F.F.}.}.[.eXeXeXeXeXeXeXeXeXeXeXeXeXeXeXeXeXeXeXeX",
"eXeXeXeXeXeXeXeXeXeXeXeXeXeXeXeXeXeXeXeX2 * *       X * - < 5 a s h ;.1.z.M.B.d.j.}.}.[.|.eXeXeXeXeXeXeXeXeXeXeXeXeXeXeXeXeXeXeX",
"eXeXeXeXeXeXeXeXeXeXeXeXeXeXeXeXeXeXeXz 8 - * *       * = < 3 4 s j ;.,.z.v.y.d.j.'.'.[.|.eXeXeXeXeXeXeXeXeXeXeXeXeXeXeXeXeXeXeX",
"eXeXeXeXeXeXeXeXeXeXeXeXeXeXeXeXeXeXeX7 8 < * *       X * - < i p g ;.,.c.y.i.s.}.'.[. X|.eXeXeXeXeXeXeXeXeXeXeXeXeXeXeXeXeXeXeX",
"eXeXeXeXeXeXeXeXeXeXeXeXeXeXeXeXeXeX_ _ 5 2 = * X     . * - : 3 i f D ,.e.w.u.a._.{. X X|.^.eXeXeXeXeXeXeXeXeXeXeXeXeXeXeXeXeXeX",
"eXeXeXeXeXeXeXeXeXeXeXeXeXeXeXeXeXeX_ _ 7 2 = * X .   . * * : 3 i t M J e.w.r.p._.{.|.).3X).eXeXeXeXeXeXeXeXeXeXeXeXeXeXeXeXeXeX",
"eXeXeXeXeXeXeXeXeXeXeXeXeXeXeXeXeXeX{ ` 7 5 < * X .     X * < 2 w t M V q.t.t.p.{.Q.).3X3X5XeXeXeXeXeXeXeXeXeXeXeXeXeXeXeXeXeXeX",
"eXeXeXeXeXeXeXeXeXeXeXeXeXeXeXeXeXeX[ ] Q 5 < - * .     X * - < 0 t m V G ..p.#.W.(.).3X4X4XeXeXeXeXeXeXeXeXeXeXeXeXeXeXeXeXeXeX",
"eXeXeXeXeXeXeXeXeXeXeXeXeXeXeXeXeX[ @.[ C 7 2 = * X .   . * - , i e m N H ..#.U.W.(.). X8X8XeXeXeXeXeXeXeXeXeXeXeXeXeXeXeXeXeXeX",
"eXeXeXeXeXeXeXeXeXeXeXeXeXeXeXeXeX@.$.[ _ 7 8 < = X .   X = < 4 p S S H c ! ) I.W.Q. X4X9X9X7XeXeXeXeXeXeXeXeXeXeXeXeXeXeXeXeXeX",
"eXeXeXeXeXeXeXeXeXeXeXeXeXeXeXeXeX$.$.o.` a 5 : = * .   X - 5 a Z A S H c W O.L.W./.5X8X9XwX7XeXeXeXeXeXeXeXeXeXeXeXeXeXeXeXeXeX",
"eXeXeXeXeXeXeXeXeXeXeXeXeXeXeXeXeX*.*.@.{ Q 7 2 - * X X * 2 7 C Z A ` H ! / ( L.W.].&X8XqXwX0XeXeXeXeXeXeXeXeXeXeXeXeXeXeXeXeXeX",
"eXeXeXeXeXeXeXeXeXeXeXeXeXeXeXeXeX=.*.$.[ _ 7 2 < * o * - 2 7 C Z A ' ' W ~ L.P.T.$X5X7XqXwX0XeXeXeXeXeXeXeXeXeXeXeXeXeXeXeXeXeX",
"eXeXeXeXeXeXeXeXeXeXeXeXeXeXeXeX*.=.=.*.[ ` z 5 < = * * - 2 eXeXeXZ ' { W ^ +.P.T.$X:X7XqXwX0X%XeXeXeXeXeXeXeXeXeXeXeXeXeXeXeXeX",
"eXeXeXeXeXeXeXeXeXeXeXeXeXeXeXeX=..X.X*.@.[ Q 7 < - = < 2 - eXeXeXeX' { X.^ +.R.T.$X;X>XqXwXqX;XeXeXeXeXeXeXeXeXeXeXeXeXeXeXeXeX",
"eXeXeXeXeXeXeXeXeXeXeXeXeXeXeXeXp..X.X*.@.[ _ 7 2 < - 2 2 eXeXeXeXeXeX] X.X.+.&.Y.oX;X>X0XwXwX;XeXeXeXeXeXeXeXeXeXeXeXeXeXeXeXeX",
"eXeXeXeXeXeXeXeXeXeXeXeXeXeXeXeX.XoX.X0.&.o._ a 8 < < 5 2 eXeXeXeXeXeX] X.X.o.*.`.XX;X:X0XwXwX:XeXeXeXeXeXeXeXeXeXeXeXeXeXeXeXeX",
"eXeXeXeXeXeXeXeXeXeXeXeXeXeXeXeX.XoXXX0.$.$.` Q 5 < 2 5 2 eXeXeXeXeXeX] X.o.o.&.0.XX%X:X>XqX0X:XeXeXeXeXeXeXeXeXeXeXeXeXeXeXeXeX",
"eXeXeXeXeXeXeXeXeXeXeXeXeXeXeXeX.X%XXX.X*.$.[ _ 7 8 5 5 2 eXeXeXeXeXeXeX[ o.@.$.=.`.oX;X>X0XqX:XeXeXeXeXeXeXeXeXeXeXeXeXeXeXeXeX",
"eXeXeXeXeXeXeXeXeXeXeXeXeXeXeXeX.X%XoX.X=.$.[ ` z 8 7 7 eXeXeXeXeXeXeXeX[ [ [ $.=.Z.OX;X>X0XqX:XeXeXeXeXeXeXeXeXeXeXeXeXeXeXeXeX",
"eXeXeXeXeXeXeXeXeXeXeXeXeXeXeXeXoX%X%XXXZ.$.@.] E 5 7 7 eXeXeXeXeXeXeXeX{ [ { @.*.0.oX%X:X>X0X;XeXeXeXeXeXeXeXeXeXeXeXeXeXeXeXeX",
"eXeXeXeXeXeXeXeXeXeXeXeXeXeXeXeXoX;X%XXXT.*.$.{ _ 7 I 7 5 eXeXeXeXeXeX7 ] [ ] @.*.=.OX%X:X>X>X;XeXeXeXeXeXeXeXeXeXeXeXeXeXeXeXeX",
"eXeXeXeXeXeXeXeXeXeXeXeXeXeXeXeXoX;X;XoX`.&.$.[ _ P P P 6 eXeXeXeXeXeX_ _ _ ` [ $.=..XoX;X>X>X;XeXeXeXeXeXeXeXeXeXeXeXeXeXeXeXeX",
"eXeXeXeXeXeXeXeXeXeXeXeXeXeXeXeXoX:X;XoXXX=.&.[ ] P P I 6 eXeXeXeXeXeX7 _ _ _ [ $.*..XXX%X:X>XoXeXeXeXeXeXeXeXeXeXeXeXeXeXeXeXeX",
"eXeXeXeXeXeXeXeXeXeXeXeXeXeXeXeXoX:X:X%XXX0.&.o.R P P P I eXeXeXeXeXeX7 _ 7 a { o.*.0..XoX;X:XoXeXeXeXeXeXeXeXeXeXeXeXeXeXeXeXeX",
"eXeXeXeXeXeXeXeXeXeXeXeXeXeXeXeXoX>X>X%XXXY.R.o.R P K P I eXeXeXeXeX4 7 7 7 I _ [ $.`..XoX;X;X.XeXeXeXeXeXeXeXeXeXeXeXeXeXeXeXeX",
"eXeXeXeXeXeXeXeXeXeXeXeXeXeXeXeXZ.:X>X%XXXT.P.+.T U K P x z eXeXeXeX5 4 5 2 7 _ { $.=..XoX%X%X`.eXeXeXeXeXeXeXeXeXeXeXeXeXeXeXeX",
"eXeXeXeXeXeXeXeXeXeXeXeXeXeXeXeX.X>X>X;XXXT.P.( T U K 1 x S d , 3 2 2 8 : 2 5 _ { @.*.0.XX%X%X0.eXeXeXeXeXeXeXeXeXeXeXeXeXeXeXeX",
"eXeXeXeXeXeXeXeXeXeXeXeXeXeXeXeXeX:X:X&X$X!.P.L.~ L L 1 k x S 3 3 < < : - < 8 z ] [ *.=..XoXXXeXeXeXeXeXeXeXeXeXeXeXeXeXeXeXeXeX",
"eXeXeXeXeXeXeXeXeXeXeXeXeXeXeXeXeX;X6X&X^.!.L.T ~ L 1 k l l d i : - = * * - 2 7 _ [ $.=..XXX.XeXeXeXeXeXeXeXeXeXeXeXeXeXeXeXeXeX",
"eXeXeXeXeXeXeXeXeXeXeXeXeXeXeXeXeX%X6X&X^.E.L.K.~ L v k l $ , > ; * X o * - < 7 _ { $.$.=..X0.eXeXeXeXeXeXeXeXeXeXeXeXeXeXeXeXeX",
"eXeXeXeXeXeXeXeXeXeXeXeXeXeXeXeXeX$X5X2X~.E.L.K./ ! k l l $ # @ O X   X o = < 5 7 _ $.$.=.`.Y.eXeXeXeXeXeXeXeXeXeXeXeXeXeXeXeXeX",
"eXeXeXeXeXeXeXeXeXeXeXeXeXeXeXeXeXT.*X2X~.E.L.L./ ! v l & & % @ O .     X * - 8 7 _ [ $.=.Y.eXeXeXeXeXeXeXeXeXeXeXeXeXeXeXeXeXeX",
"eXeXeXeXeXeXeXeXeXeXeXeXeXeXeXeXeXeX2X|.~.E.L.) ..v v N & & % O O .     X * - < 7 _ { $.*.&.eXeXeXeXeXeXeXeXeXeXeXeXeXeXeXeXeXeX",
"eXeXeXeXeXeXeXeXeXeXeXeXeXeXeXeXeXeX^.].(.W.U.#.! v N N N & % @ O X .   X * = < 8 C _ @.$.*.eXeXeXeXeXeXeXeXeXeXeXeXeXeXeXeXeXeX",
"eXeXeXeXeXeXeXeXeXeXeXeXeXeXeXeXeXeX/.).).Q.#.p.t.q.q.V m & % O O o .     X = < 2 7 _ [ $.*.eXeXeXeXeXeXeXeXeXeXeXeXeXeXeXeXeXeX",
"eXeXeXeXeXeXeXeXeXeXeXeXeXeXeXeXeXeXT.].].{._.p.q.q.q.B m & % > * * .     X * - 2 7 _ [ $.eXeXeXeXeXeXeXeXeXeXeXeXeXeXeXeXeXeXeX",
"eXeXeXeXeXeXeXeXeXeXeXeXeXeXeXeXeXeXeX].[.`.f.h.t.q.e.V m u 9 9 = * X     . * = : 7 I { @.eXeXeXeXeXeXeXeXeXeXeXeXeXeXeXeXeXeXeX",
"eXeXeXeXeXeXeXeXeXeXeXeXeXeXeXeXeXeXeX$X[.'.a.h.w.e.e.V M u 0 > = = X     . o = - 8 C _ [ eXeXeXeXeXeXeXeXeXeXeXeXeXeXeXeXeXeXeX",
"eXeXeXeXeXeXeXeXeXeXeXeXeXeXeXeXeXeXeXeX'.'.s.u.i.y.c.J M u 0 > ; = * .     X * - 2 I ` eXeXeXeXeXeXeXeXeXeXeXeXeXeXeXeXeXeXeXeX",
"eXeXeXeXeXeXeXeXeXeXeXeXeXeXeXeXeXeXeXeX@X'.d.i.i.v.l.<.M r 0 0 : = * X     X * = 2 7 _ eXeXeXeXeXeXeXeXeXeXeXeXeXeXeXeXeXeXeXeX",
"eXeXeXeXeXeXeXeXeXeXeXeXeXeXeXeXeXeXeXeXOX+Xj.d.B.v.x.2.M y r w : : * X     . o = 2 7 eXeXeXeXeXeXeXeXeXeXeXeXeXeXeXeXeXeXeXeXeX",
"eXeXeXeXeXeXeXeXeXeXeXeXeXeXeXeXeXeXeXeXeX+Xg.F.N.M.x.2.;.y t w 4 - * *       * * - 7 eXeXeXeXeXeXeXeXeXeXeXeXeXeXeXeXeXeXeXeXeX",
"eXeXeXeXeXeXeXeXeXeXeXeXeXeXeXeXeXeXeXeXeXeXA.A.N.C.x.2.;.y t i 3 - = * X     X * 2 eXeXeXeXeXeXeXeXeXeXeXeXeXeXeXeXeXeXeXeXeXeX",
"eXeXeXeXeXeXeXeXeXeXeXeXeXeXeXeXeXeXeXeXeXeX+XA.J.C.b.1.;.g f p 4 2 - * X     X * eXeXeXeXeXeXeXeXeXeXeXeXeXeXeXeXeXeXeXeXeXeXeX",
"eXeXeXeXeXeXeXeXeXeXeXeXeXeXeXeXeXeXeXeXeXeXeX1XN.C.b.7.:.g j s 4 3 : * o . . X * eXeXeXeXeXeXeXeXeXeXeXeXeXeXeXeXeXeXeXeXeXeXeX",
"eXeXeXeXeXeXeXeXeXeXeXeXeXeXeXeXeXeXeXeXeXeXeXeXD.V.m.8.>.-.h s a 5 < - * . . o eXeXeXeXeXeXeXeXeXeXeXeXeXeXeXeXeXeXeXeXeXeXeXeX",
"eXeXeXeXeXeXeXeXeXeXeXeXeXeXeXeXeXeXeXeXeXeXeXeXeXZ.m.8.>.-.h E a 4 2 - * o * eXeXeXeXeXeXeXeXeXeXeXeXeXeXeXeXeXeXeXeXeXeXeXeXeX",
"eXeXeXeXeXeXeXeXeXeXeXeXeXeXeXeXeXeXeXeXeXeXeXeXeXeX0.6.3.:.| } _ 7 5 < - = eXeXeXeXeXeXeXeXeXeXeXeXeXeXeXeXeXeXeXeXeXeXeXeXeXeX",
"eXeXeXeXeXeXeXeXeXeXeXeXeXeXeXeXeXeXeXeXeXeXeXeXeXeXeX7.| :.| ` _ I 7 7 eXeXeXeXeXeXeXeXeXeXeXeXeXeXeXeXeXeXeXeXeXeXeXeXeXeXeXeX",
"eXeXeXeXeXeXeXeXeXeXeXeXeXeXeXeXeXeXeXeXeXeXeXeXeXeXeXeXeXeXeXeXeXeXeXeXeXeXeXeXeXeXeXeXeXeXeXeXeXeXeXeXeXeXeXeXeXeXeXeXeXeXeXeX",
"eXeXeXeXeXeXeXeXeXeXeXeXeXeXeXeXeXeXeXeXeXeXeXeXeXeXeXeXeXeXeXeXeXeXeXeXeXeXeXeXeXeXeXeXeXeXeXeXeXeXeXeXeXeXeXeXeXeXeXeXeXeXeXeX"
};
