/* XPM */
static char *result[] = {
/* columns rows colors chars-per-pixel */
"64 64 221 2 ",
"   c #757474",
".  c #787777",
"X  c #7C7B7B",
"o  c #817E7D",
"O  c #887E7A",
"+  c #8A817D",
"@  c #93827C",
"#  c #9B867C",
"$  c #9D8C7D",
"%  c #9F967D",
"&  c #A38E7D",
"*  c #A6997D",
"=  c #848484",
"-  c #8A8685",
";  c #8C8B8B",
":  c #918F8E",
">  c #9C8D8B",
",  c #978884",
"<  c #9A948A",
"1  c #918F90",
"2  c #8C9B99",
"3  c #949393",
"4  c #9A9595",
"5  c #989798",
"6  c #949D9C",
"7  c #9C9B9C",
"8  c #989998",
"9  c #A48B84",
"0  c #A98E86",
"q  c #A2928D",
"w  c #AC938C",
"e  c #AA9887",
"r  c #B4958B",
"t  c #B6998B",
"y  c #A39693",
"u  c #A59B94",
"i  c #A29D9C",
"p  c #AA9C9A",
"a  c #AC9993",
"s  c #BC9B93",
"d  c #B59E9A",
"f  c #B59A95",
"g  c #95A285",
"h  c #9BA788",
"j  c #97A798",
"k  c #9AB499",
"l  c #92A68E",
"z  c #AAA687",
"x  c #BBA38D",
"c  c #B5A68A",
"v  c #ACB18B",
"b  c #A7B78E",
"n  c #BCB38E",
"m  c #B4B48D",
"M  c #ADA49D",
"N  c #AEAA9D",
"B  c #A4A698",
"V  c #BCA19E",
"C  c #B9A397",
"Z  c #A4B294",
"A  c #A6B998",
"S  c #B8BC91",
"D  c #8C94A4",
"F  c #8E98A9",
"G  c #9297A3",
"H  c #9699A2",
"J  c #9B9EA4",
"K  c #969AAC",
"L  c #949AB3",
"P  c #999EBA",
"I  c #A09FA0",
"U  c #97A7A9",
"Y  c #9BB4A3",
"T  c #9CB6A7",
"R  c #9BA4B4",
"E  c #9BA5BC",
"W  c #99A8B6",
"Q  c #9EB4B4",
"!  c #A4A3A3",
"~  c #ACA4A2",
"^  c #A5A6AB",
"/  c #A8A7A8",
"(  c #A4AAAD",
")  c #ABABAB",
"_  c #A4AAA1",
"`  c #B3A4A3",
"'  c #BCA3A1",
"]  c #B1AEAE",
"[  c #BBACAB",
"{  c #B7A8A7",
"}  c #A4B5A7",
"|  c #A5A9B2",
" . c #ACACB2",
".. c #A2A6BC",
"X. c #A6A8B8",
"o. c #B0AFB0",
"O. c #A2B8BA",
"+. c #B4B3B4",
"@. c #BCB3B4",
"#. c #B4B4B9",
"$. c #B9B7B8",
"%. c #BBBBBC",
"&. c #C19E97",
"*. c #C3A294",
"=. c #C4A29C",
"-. c #C9A59D",
";. c #CDAE9C",
":. c #C7AF96",
">. c #C4B293",
",. c #CBB09A",
"<. c #CCBE9B",
"1. c #C3BF95",
"2. c #CCABA4",
"3. c #C8A9A6",
"4. c #D2ADA5",
"5. c #D3AEA9",
"6. c #CCB6AC",
"7. c #D3BDA4",
"8. c #D3B2AA",
"9. c #D9BBAB",
"0. c #CCB4B3",
"q. c #C7B8B6",
"w. c #D5BEB1",
"e. c #ABC49A",
"r. c #AAC297",
"t. c #B8C898",
"y. c #AACCA2",
"u. c #A6C8A7",
"i. c #AED3AA",
"p. c #B4D3A4",
"a. c #B3DAAD",
"s. c #BBDCAB",
"d. c #BDD4A2",
"f. c #A9C9B7",
"g. c #AFD4B7",
"h. c #B5DDB6",
"j. c #B0CEA0",
"k. c #BDE2B4",
"l. c #BCE3BB",
"z. c #C7C79A",
"x. c #C2D09E",
"c. c #D3CCA3",
"v. c #DBCBAC",
"b. c #D5C9AC",
"n. c #CBD4A3",
"m. c #C6DAA8",
"M. c #D6D6AA",
"N. c #D3DCAD",
"B. c #D7D7AA",
"V. c #CCC3B7",
"C. c #D5C8B3",
"Z. c #DDDAB2",
"A. c #D7D7B7",
"S. c #C9E4B8",
"D. c #DCE3B6",
"F. c #D9E6BA",
"G. c #E0E8BE",
"H. c #9DA4C3",
"J. c #9EABC1",
"K. c #A4ABC7",
"L. c #A5ACCB",
"P. c #A6ABC9",
"I. c #A9B6C8",
"U. c #BCBCC1",
"Y. c #B2B4C9",
"T. c #BCBCCC",
"R. c #B5B6C5",
"E. c #A9AED2",
"W. c #A9ACD5",
"Q. c #ACB2D4",
"!. c #ADB1DA",
"~. c #B1B5DC",
"^. c #B4BADB",
"/. c #BCBDDC",
"(. c #B8B9D3",
"). c #B6BAE3",
"_. c #BCBEE4",
"`. c #BCBFE9",
"'. c #B2B6E0",
"]. c #C0BFC0",
"[. c #ACC4C8",
"{. c #B1CFC5",
"}. c #B8D9C6",
"|. c #B8C6D7",
" X c #BDD4D5",
".X c #BDE2C4",
"XX c #BEC2E3",
"oX c #BEC1EA",
"OX c #B7C0E1",
"+X c #C3C3C4",
"@X c #C5C6C9",
"#X c #CBCBCC",
"$X c #C1CECB",
"%X c #C4DBC5",
"&X c #C4D8C7",
"*X c #D5DDC5",
"=X c #C3C4D4",
"-X c #CECED2",
";X c #C3C4DD",
":X c #CCCCDB",
">X c #C1CDDA",
",X c #C2D8D6",
"<X c #D3D3D4",
"1X c #D6D6DB",
"2X c #DBDBDC",
"3X c #C3E4C2",
"4X c #C7E8C3",
"5X c #D8E7C3",
"6X c #C2CAE4",
"7X c #C3C5EB",
"8X c #CBCCEC",
"9X c #C8C8E4",
"0X c #D3D3E3",
"qX c #DDDDE2",
"wX c #D4D5EB",
"eX c #DEDEEC",
"rX c #CFD0EB",
"tX c #E3E3E4",
"yX c #E5E5EA",
"uX c #EAEAEC",
"iX c None",
/* pixels */
"iXiXiXiXiXiXiXiXiXiXiXiXiXiXiXiXiXiXiXiXiXiXiXiXiXiXiXiXiXiXiXiXiXiXiXiXiXiXiXiXiXiXiXiXiXiXiXiXiXiXiXiXiXiXiXiXiXiXiXiXiXiXiXiX",
"iXiXiXiXiXiXiXiXiXiXiXiXiXiXiXiXiXiXiXiXiXiXiXiXiXiXiXiXiXiXiXiXiXiXiXiXiXiXiXiXiXiXiXiXiXiXiXiXiXiXiXiXiXiXiXiXiXiXiXiXiXiXiXiX",
"iXiXiXiXiXiXiXiXiXiXiXiXiXiXiXiXiXiXiXiXiXiXiXiXiXiX! ! / o.+.@.q.q.0.0.6.q.V.iXiXiXiXiXiXiXiXiXiXiXiXiXiXiXiXiXiXiXiXiXiXiXiXiX",
"iXiXiXiXiXiXiXiXiXiXiXiXiXiXiXiXiXiXiXiXiXiXiXiX3 5 7 ! / ) +.$.q.q.0.8.8.w.C.C.iXiXiXiXiXiXiXiXiXiXiXiXiXiXiXiXiXiXiXiXiXiXiXiX",
"iXiXiXiXiXiXiXiXiXiXiXiXiXiXiXiXiXiXiXiXiXiXiX; 1 3 7 7 / / +.+.q.0.5.5.8.C.v.C.A.iXiXiXiXiXiXiXiXiXiXiXiXiXiXiXiXiXiXiXiXiXiXiX",
"iXiXiXiXiXiXiXiXiXiXiXiXiXiXiXiXiXiXiXiXiXiX= = ; 3 5 7 ! / ) o.[ 3.3.5.8.9.v.Z.F.5X5XiXiXiXiXiXiXiXiXiXiXiXiXiXiXiXiXiXiXiXiXiX",
"iXiXiXiXiXiXiXiXiXiXiXiXiXiXiXiXiXiXiXiX= X X = ; 1 3 7 U ! ) ] [ [ 2.4.5.9.v.Z.G.G.5X5XiXiXiXiXiXiXiXiXiXiXiXiXiXiXiXiXiXiXiXiX",
"iXiXiXiXiXiXiXiXiXiXiXiXiXiXiXiXiXiXiX; X X X = = ; 3 8 i ! / { [ 3.4.5.5.9.v.Z.G.G.G.5X5XiXiXiXiXiXiXiXiXiXiXiXiXiXiXiXiXiXiXiX",
"iXiXiXiXiXiXiXiXiXiXiXiXiXiXiXiXiXiXiX= X . X X = ; 1 3 7 ! / ) { ' 3.3.4.c.v.Z.Z.G.F.F.5XiXiXiXiXiXiXiXiXiXiXiXiXiXiXiXiXiXiXiX",
"iXiXiXiXiXiXiXiXiXiXiXiXiXiXiXiXiXiX= X       X = ; ; 3 5 i ! ` ` ' =.-.4.7.v.B.Z.D.F.F.S.4XiXiXiXiXiXiXiXiXiXiXiXiXiXiXiXiXiXiX",
"iXiXiXiXiXiXiXiXiXiXiXiXiXiXiXiXiX1 = X       X X = ; 1 3 7 ! ! ` V =.-.;.7.c.B.N.F.S.4X4X4X,XiXiXiXiXiXiXiXiXiXiXiXiXiXiXiXiXiX",
"iXiXiXiXiXiXiXiXiXiXiXiXiXiXiXiXiX1 = X .     . o = ; : 3 7 i ! ` V =.-.,.7.c.B.N.S.S.4X4X4X,X,XiXiXiXiXiXiXiXiXiXiXiXiXiXiXiXiX",
"iXiXiXiXiXiXiXiXiXiXiXiXiXiXiXiX4 ; = X .       X o ; ; 3 5 7 p I V &.&.4.<.c.n.m.S.k.l..X.X,X,XiXiXiXiXiXiXiXiXiXiXiXiXiXiXiXiX",
"iXiXiXiXiXiXiXiXiXiXiXiXiXiXiX7 3 ; - = X       . o = ; : 5 5 i p f &.&.,.<.x.n.s.k.h.l..X.X,X X|.iXiXiXiXiXiXiXiXiXiXiXiXiXiXiX",
"iXiXiXiXiXiXiXiXiXiXiXiXiXiXiX7 2 1 ; = X X     . X o - ; 3 5 7 p f &.&.,.<.z.x.s.s.a.l..X X,X X/.iXiXiXiXiXiXiXiXiXiXiXiXiXiXiX",
"iXiXiXiXiXiXiXiXiXiXiXiXiXiX/ 7 5 2 ; = X X       X X - ; : 4 y p f f &.>.z.x.d.d.s.h.h. X XoXoX_./.iXiXiXiXiXiXiXiXiXiXiXiXiXiX",
"iXiXiXiXiXiXiXiXiXiXiXiXiXiX! j 7 3 : - = X .       X = ; ; 3 y a a C x >.t.t.p.i.a.g.{.|.|.oXoXoX/.iXiXiXiXiXiXiXiXiXiXiXiXiXiX",
"iXiXiXiXiXiXiXiXiXiXiXiXiX/ / ! 7 5 1 ; = o X       X o ; ; : 5 y r t x n t.t.t.i.f.f.[.|._.oXoX7X_.iXiXiXiXiXiXiXiXiXiXiXiXiXiX",
"iXiXiXiXiXiXiXiXiXiXiXiXiX/ / ! 7 5 3 ; = = X .     . X = ; ; > q w t c m S e.y.u.f.[.[.~.).`.oX7X9X9XiXiXiXiXiXiXiXiXiXiXiXiXiX",
"iXiXiXiXiXiXiXiXiXiXiXiXiX) ) / I 7 5 1 ; = X .     . X = = ; 3 q w c c m A e.u.u.O.I.Q.~.).oX7X8XrXrXiXiXiXiXiXiXiXiXiXiXiXiXiX",
"iXiXiXiXiXiXiXiXiXiXiXiXiXo.] ) / 7 5 3 ; = = X .     X o - ; 4 y w t z v A A } Q Q Q.Q.~.).oX8XrXwXwXiXiXiXiXiXiXiXiXiXiXiXiXiX",
"iXiXiXiXiXiXiXiXiXiXiXiXo.+.o.) / 7 7 3 1 ; = X .     . = ; 4 u u a M v Z k Y T Q L.L.Q.~._.7XrXeXeXyX0XiXiXiXiXiXiXiXiXiXiXiXiX",
"iXiXiXiXiXiXiXiXiXiXiXiX+.$.+.) / j 7 5 1 ; = o X     X ; 3 i i M M N v Z k Y Q E J.E.Q.).oX:XwXeXyXyX1XiXiXiXiXiXiXiXiXiXiXiXiX",
"iXiXiXiXiXiXiXiXiXiXiXo.$.$.#.o.) ! J 6 1 ; ; = X . X = 1 7 i ! ~ N N N B k U W E K.Q.Q.].;X0XwXyXuXuXqXiXiXiXiXiXiXiXiXiXiXiXiX",
"iXiXiXiXiXiXiXiXiXiXiX+.%.%.#.+.) / I 7 3 1 ; = o X o ; 3 5 7 ! ~ M N } _ ( U R P P.Y.(.].9X0XqXyXuXuXtX#XiXiXiXiXiXiXiXiXiXiXiX",
"iXiXiXiXiXiXiXiXiXiXiX+.U.V.%.#.o./ ! i 8 3 ; - = = ; 3 3 iXiXiXiXiXN _ } U R R X.K.Y.T.=X:X1XqXtXuXuXtX#XiXiXiXiXiXiXiXiXiXiXiX",
"iXiXiXiXiXiXiXiXiXiXiX%.+X+X%.$.o.) / J 7 3 ; ; = ; 1 3 ; iXiXiXiXiXiX_ ( | R R X.Y.T.].=X-X1XqXtXuXuXuX-XiXiXiXiXiXiXiXiXiXiXiX",
"iXiXiXiXiXiXiXiXiXiXiX%.+X+XU.%.+.) / ! 7 3 3 ; ; 1 2 1 iXiXiXiXiXiXiXiXU ( | | X.#.R.].#X-X<X2XtXtXuXuX<XiXiXiXiXiXiXiXiXiXiXiX",
"iXiXiXiXiXiXiXiXiXiXiX+X#X+X+Xq.$.o.) _ i 7 3 1 ; 5 3 3 iXiXiXiXiXiXiXiXU )  .|  .#.%.[.#X#X<X2XtXtXuXuX2XiXiXiXiXiXiXiXiXiXiXiX",
"iXiXiXiXiXiXiXiXiXiXiX+X#X#X+X[.$.+.) / i 7 3 3 3 7 7 ; iXiXiXiXiXiXiXiXiX/  .|  .+.%.U.@X#X-X2X2XtXuXtX1XiXiXiXiXiXiXiXiXiXiXiX",
"iXiXiXiXiXiXiXiXiXiXiX+X#X#X@XV.%.+.o.) ! 7 7 3 3 7 8 iXiXiXiXiXiXiXiXiXiX^  .) ) +.#.%.+X#X-X<X2XtXtXuX1XiXiXiXiXiXiXiXiXiXiXiX",
"iXiXiXiXiXiXiXiXiXiXiX@X<X#X@X+X%.$.o.) / 7 7 3 8 J 7 iXiXiXiXiXiXiXiXiXiX/ ) ) ) +.#.%.V.@X#X<X2X2XtXtX<XiXiXiXiXiXiXiXiXiXiXiX",
"iXiXiXiXiXiXiXiXiXiXiX#X<X<X#XV.].$.+.o.` I I 4 5 I 7 iXiXiXiXiXiXiXiXiXiX/ ) / / o.+.$.f.#X#X<X<X2XtXtX<XiXiXiXiXiXiXiXiXiXiXiX",
"iXiXiXiXiXiXiXiXiXiXiX#X<X<X#X#X+X%.$.o. .I H H 7 J 6 iXiXiXiXiXiXiXiXiXiX! / / / ) +.#.q.].@X-X<X2X2XqX<XiXiXiXiXiXiXiXiXiXiXiX",
"iXiXiXiXiXiXiXiXiXiXiX#X<X<X-X#X+X%.$.o. ./ I H H J J 3 iXiXiXiXiXiXiXiX7 ! / / ! / o.+.U.].@X#X<X2X2XqX-XiXiXiXiXiXiXiXiXiXiXiX",
"iXiXiXiXiXiXiXiXiXiXiX#X2X<X<X#X@X].%.o. .^ I H G J J 2 iXiXiXiXiXiXiXiX7 ! ! B ! / ) +.$.].+X#X#X<X2X2X-XiXiXiXiXiXiXiXiXiXiXiX",
"iXiXiXiXiXiXiXiXiXiXiX#X1X2X<X#X#X+X%.#. .| K G G H J 6 iXiXiXiXiXiXiXiX7 ! I 7 I ! ) ] $.%.+X@X#X<X2X1X@XiXiXiXiXiXiXiXiXiXiXiX",
"iXiXiXiXiXiXiXiXiXiXiX#X2X2X<X<X@X+XR.#. .| K K D D J J 8 iXiXiXiXiXiX3 J 7 7 7 7 ! /  .+.%.q.+X#X<X<X<X+XiXiXiXiXiXiXiXiXiXiXiX",
"iXiXiXiXiXiXiXiXiXiXiX+X2X2X1X-X=X@XU.Y...P L F D D 6 j B iXiXiXiXiXiX5 7 7 3 3 7 j / ) o.#.%.+X#X#X<X#Xq.iXiXiXiXiXiXiXiXiXiXiX",
"iXiXiXiXiXiXiXiXiXiXiX+X1XqX1X<X=X].R.K.H.P L F D 2 6 j j B y 4 4 : 3 5 3 3 ; 3 8 7 ! / o.#.%.].V.#X<X#X%.iXiXiXiXiXiXiXiXiXiXiX",
"iXiXiXiXiXiXiXiXiXiXiX+X<XqX1X:X=X].Y.P.H.P L F 2 2 l l l l u y 4 3 1 3 ; ; ; ; 2 7 I / ) +.$.%.+X#X-X@X%.iXiXiXiXiXiXiXiXiXiXiX",
"iXiXiXiXiXiXiXiXiXiXiXiX-XqX0X:X;X^.W.P.H.P L F 2 l l l g j u < > 3 ; = = = ; ; 3 7 7 ! ) o.$.%.].+X#X].iXiXiXiXiXiXiXiXiXiXiXiX",
"iXiXiXiXiXiXiXiXiXiXiXiX@X1X0X;X/.~.E.H.H.P L U k l l % < < e < , - o X X o = ; 1 5 7 ! / ) +.$.q.@X@Xq.iXiXiXiXiXiXiXiXiXiXiXiX",
"iXiXiXiXiXiXiXiXiXiXiXiXT.:X8X6X'.!.W.P.H.W U U k % k * % % # @ O o .   . X = ; ; 3 7 i _ ) o.$.q.[.f.%.iXiXiXiXiXiXiXiXiXiXiXiX",
"iXiXiXiXiXiXiXiXiXiXiXiXU.;X9XoX'.Q.W.L.J.W T k k l h * * & & O O .       X = = ; 3 5 7 ! / o.#.%.q.U.iXiXiXiXiXiXiXiXiXiXiXiXiX",
"iXiXiXiXiXiXiXiXiXiXiXiXiXT.6XOX'.!.W.J.J.Q T k b b b * * & & O O X .     . X = - 3 3 7 U / ) +.$.%.%.iXiXiXiXiXiXiXiXiXiXiXiXiX",
"iXiXiXiXiXiXiXiXiXiXiXiXiXT.OXoX'.!.Q.I.O.T T k b b c c * & O O O o .       X = = 1 3 8 i ! ^ o.+.$.#.iXiXiXiXiXiXiXiXiXiXiXiXiX",
"iXiXiXiXiXiXiXiXiXiXiXiXiXiX^.OXOXOXQ.f.f.u.u.e.r.b m * r & & # - O .       . = = ; 1 5 7 B / ) +.#.iXiXiXiXiXiXiXiXiXiXiXiXiXiX",
"iXiXiXiXiXiXiXiXiXiXiXiXiXiX(.;XXX|.[.[.f.u.e.e.r.m m * 0 0 & O - o X .     . X = - 1 3 7 j / ) o.+.iXiXiXiXiXiXiXiXiXiXiXiXiXiX",
"iXiXiXiXiXiXiXiXiXiXiXiXiXiXT.|.|. X{.g.i.y.j.j.t.t.n n r 9 9 , , = = .       X X = ; 1 5 7 ! / o.iXiXiXiXiXiXiXiXiXiXiXiXiXiXiX",
"iXiXiXiXiXiXiXiXiXiXiXiXiXiXiX=X>X X{.g.i.i.j.t.t.S n c r 0 9 , ; = = o       . X = ; 1 3 7 ! / o.iXiXiXiXiXiXiXiXiXiXiXiXiXiXiX",
"iXiXiXiXiXiXiXiXiXiXiXiXiXiXiX@X$X}.l.h.i.i.p.t.z.1.>.x r w 9 9 , ; = X .       X = - ; 3 5 ! / iXiXiXiXiXiXiXiXiXiXiXiXiXiXiXiX",
"iXiXiXiXiXiXiXiXiXiXiXiXiXiXiXiX$X}.h.k.a.s.d.x.z.z.>.t * &.0 q : ; = = X       X = = ; 3 3 ! iXiXiXiXiXiXiXiXiXiXiXiXiXiXiXiXiX",
"iXiXiXiXiXiXiXiXiXiXiXiXiXiXiXiXiX%X%XS.s.s.n.n.z.1.>.x &.& 0 q > 1 - = o .     . X = = ; 8 7 iXiXiXiXiXiXiXiXiXiXiXiXiXiXiXiXiX",
"iXiXiXiXiXiXiXiXiXiXiXiXiXiXiXiXiX&X%XS.S.m.m.n.z.<.:.*.&.r r q 4 1 ; = X X     . X = = ; 8 iXiXiXiXiXiXiXiXiXiXiXiXiXiXiXiXiXiX",
"iXiXiXiXiXiXiXiXiXiXiXiXiXiXiXiXiXiX&X4XS.S.N.n.c.z.:.*.r r r 0 4 3 ; ; = X       X X = 3 iXiXiXiXiXiXiXiXiXiXiXiXiXiXiXiXiXiXiX",
"iXiXiXiXiXiXiXiXiXiXiXiXiXiXiXiXiXiXiX4XA.S.N.M.c.<.;.-.&.r a p 5 4 ; ; = X .     . X ; 1 iXiXiXiXiXiXiXiXiXiXiXiXiXiXiXiXiXiXiX",
"iXiXiXiXiXiXiXiXiXiXiXiXiXiXiXiXiXiXiXiX*XA.A.M.c.7.;.&.&.f f p i 4 3 ; - = X .   . o iXiXiXiXiXiXiXiXiXiXiXiXiXiXiXiXiXiXiXiXiX",
"iXiXiXiXiXiXiXiXiXiXiXiXiXiXiXiXiXiXiXiXiX*XA.M.b.7.;.&.&.s d d i 5 4 : ; = o X . o = iXiXiXiXiXiXiXiXiXiXiXiXiXiXiXiXiXiXiXiXiX",
"iXiXiXiXiXiXiXiXiXiXiXiXiXiXiXiXiXiXiXiXiXiXiXC.C.8.4.2.&.d d I i 7 5 3 ; = = X X iXiXiXiXiXiXiXiXiXiXiXiXiXiXiXiXiXiXiXiXiXiXiX",
"iXiXiXiXiXiXiXiXiXiXiXiXiXiXiXiXiXiXiXiXiXiXiXiXq.6.3.-.=.' ` ~ ! 7 7 5 3 ; - = iXiXiXiXiXiXiXiXiXiXiXiXiXiXiXiXiXiXiXiXiXiXiXiX",
"iXiXiXiXiXiXiXiXiXiXiXiXiXiXiXiXiXiXiXiXiXiXiXiXiXiX[ ' =.' ' ~ ! ! 7 J 7 iXiXiXiXiXiXiXiXiXiXiXiXiXiXiXiXiXiXiXiXiXiXiXiXiXiXiX",
"iXiXiXiXiXiXiXiXiXiXiXiXiXiXiXiXiXiXiXiXiXiXiXiXiXiXiXiXiXiXiXiXiXiXiXiXiXiXiXiXiXiXiXiXiXiXiXiXiXiXiXiXiXiXiXiXiXiXiXiXiXiXiXiX",
"iXiXiXiXiXiXiXiXiXiXiXiXiXiXiXiXiXiXiXiXiXiXiXiXiXiXiXiXiXiXiXiXiXiXiXiXiXiXiXiXiXiXiXiXiXiXiXiXiXiXiXiXiXiXiXiXiXiXiXiXiXiXiXiX"
};
