/* XPM */
static char *result[] = {
/* columns rows colors chars-per-pixel */
"64 64 228 2 ",
"   c #747474",
".  c #787777",
"X  c #7C7B7B",
"o  c #817E7D",
"O  c #897F7C",
"+  c #907F7A",
"@  c #86817E",
"#  c #93827C",
"$  c #9A847C",
"%  c #9E8B7B",
"&  c #9D9B7D",
"*  c #A28A7D",
"=  c #A5987D",
"-  c #848383",
";  c #898786",
":  c #8C8B8B",
">  c #918E8E",
",  c #9C8E8A",
"<  c #978884",
"1  c #9B928F",
"2  c #9E9A81",
"3  c #918F90",
"4  c #8B999A",
"5  c #949393",
"6  c #999595",
"7  c #95979B",
"8  c #989798",
"9  c #9C9B9B",
"0  c #989A9B",
"q  c #8D9690",
"w  c #A48B84",
"e  c #AA8E87",
"r  c #AD9283",
"t  c #A1918E",
"y  c #AA938D",
"u  c #AB9B86",
"i  c #B3938B",
"p  c #B3998B",
"a  c #BA9A8C",
"s  c #B6998A",
"d  c #A39593",
"f  c #AE9692",
"g  c #A49A94",
"h  c #A29D9C",
"j  c #A99C98",
"k  c #B39994",
"l  c #BD9B93",
"z  c #BB9E9B",
"x  c #B49C98",
"c  c #97A688",
"v  c #98A797",
"b  c #9BB79A",
"n  c #91A78F",
"m  c #A9A788",
"M  c #BCA38E",
"N  c #BAAB8C",
"B  c #B4A789",
"V  c #A9B58C",
"C  c #B7B78E",
"Z  c #ACA49E",
"A  c #A6A799",
"S  c #B3A29E",
"D  c #B5A79C",
"F  c #A5B798",
"G  c #BBBD91",
"H  c #B2BD90",
"J  c #8B93A3",
"K  c #8E95AA",
"L  c #8D9AA5",
"P  c #9C9DA4",
"I  c #9398A7",
"U  c #949BB5",
"Y  c #959BB3",
"T  c #A09FA0",
"R  c #9DA2A4",
"E  c #96A6A9",
"W  c #9BB6A5",
"Q  c #9CA2B3",
"!  c #9CA3BD",
"~  c #99A8B5",
"^  c #9EB3B6",
"/  c #A4A3A3",
"(  c #ACA4A3",
")  c #A4AAA3",
"_  c #A4A5AA",
"`  c #A8A7A8",
"'  c #ABABAC",
"]  c #A8AEA7",
"[  c #B4A4A3",
"{  c #BCA3A2",
"}  c #B4ABAC",
"|  c #B9AEAF",
" . c #A4B5A8",
".. c #A5A9B3",
"X. c #ACADB2",
"o. c #ACADBB",
"O. c #A3A6B5",
"+. c #B0AFB0",
"@. c #A2B8B9",
"#. c #B4B3B4",
"$. c #B5B5BC",
"%. c #B8B7B8",
"&. c #BCBBBC",
"*. c #BCB4B5",
"=. c #BEB0AD",
"-. c #C29E94",
";. c #C09F9B",
":. c #C3A394",
">. c #C4AA94",
",. c #C4A19C",
"<. c #CAA59D",
"1. c #CDA89F",
"2. c #C4B493",
"3. c #CDB39B",
"4. c #CDBF9B",
"5. c #C5B895",
"6. c #D0B39F",
"7. c #CDA8A4",
"8. c #C6A9A6",
"9. c #D2AAA6",
"0. c #D4AEA9",
"q. c #CAB0AB",
"w. c #CBB3A7",
"e. c #D4B1A5",
"r. c #D3B3AB",
"t. c #DABDAB",
"y. c #D3BDA6",
"u. c #C8B7B5",
"i. c #ABC599",
"p. c #A8C59B",
"a. c #B4CB9B",
"s. c #B9C696",
"d. c #B6D19F",
"f. c #A7CAA7",
"g. c #ADD2AA",
"h. c #BBD5A2",
"j. c #B4DAAC",
"k. c #B8D9A9",
"l. c #A9C8B9",
"z. c #AED3B9",
"x. c #B5DDB3",
"c. c #B3DAB9",
"v. c #BAE1B4",
"b. c #BDE5BB",
"n. c #C3C396",
"m. c #CCC29B",
"M. c #CBCC9E",
"N. c #C5CA9B",
"B. c #D3CCA4",
"V. c #DCCCAC",
"C. c #D4C3A5",
"Z. c #CCD4A3",
"A. c #C5D9A7",
"S. c #D4DCAC",
"D. c #D7D7AA",
"F. c #CDC6B7",
"G. c #D5C7B4",
"H. c #DDD9B1",
"J. c #D6D8B8",
"K. c #E0D7B6",
"L. c #C6E5B8",
"P. c #D9E5B8",
"I. c #C6E0AE",
"U. c #E0E6BB",
"Y. c #9EA6C5",
"T. c #A4A9C3",
"R. c #A4ACCB",
"E. c #A6AAC9",
"W. c #A7B6C6",
"Q. c #B2B3C3",
"!. c #BDBDC2",
"~. c #B3B5CC",
"^. c #BDBDCE",
"/. c #A9AED2",
"(. c #AAADD7",
"). c #ABB2D3",
"_. c #AEB2D9",
"`. c #ADBBD2",
"'. c #B5B6D3",
"]. c #BCBDD5",
"[. c #B2B5DE",
"{. c #BBBCDA",
"}. c #B3BADB",
"|. c #B6BAE4",
" X c #BBBDE4",
".X c #B9BCE7",
"XX c #C0BFC0",
"oX c #AEC6C9",
"OX c #B6CCC6",
"+X c #B7DAC4",
"@X c #B8C7D8",
"#X c #BBD5D1",
"$X c #BEE3C3",
"%X c #BEC1EB",
"&X c #BCC3E3",
"*X c #C3C3C4",
"=X c #C4C5C9",
"-X c #CACACB",
";X c #C0CDC6",
":X c #C4DDC4",
">X c #C5D7C7",
",X c #D3DCC9",
"<X c #C4C5D3",
"1X c #CECED2",
"2X c #C3C4DE",
"3X c #C7CBDB",
"4X c #C2D5D7",
"5X c #D3D3D4",
"6X c #D5D5DA",
"7X c #DBDBDC",
"8X c #C3E5C2",
"9X c #C6E8C5",
"0X c #D8E8C3",
"qX c #C2E0D1",
"wX c #E1ECC0",
"eX c #C2C4E6",
"rX c #CCCCE3",
"tX c #C2C4EB",
"yX c #C7CCEA",
"uX c #CFD0EB",
"iX c #D3D3E4",
"pX c #DCDCE2",
"aX c #D8D8EC",
"sX c #E2E2E4",
"dX c #E4E4EA",
"fX c #EBEBED",
"gX c #EFEFF0",
"hX c None",
/* pixels */
"hXhXhXhXhXhXhXhXhXhXhXhXhXhXhXhXhXhXhXhXhXhXhXhXhXhXhXhXhXhXhXhXhXhXhXhXhXhXhXhXhXhXhXhXhXhXhXhXhXhXhXhXhXhXhXhXhXhXhXhXhXhXhXhX",
"hXhXhXhXhXhXhXhXhXhXhXhXhXhXhXhXhXhXhXhXhXhXhXhXhXhXhXhXhXhXhXhXhXhXhXhXhXhXhXhXhXhXhXhXhXhXhXhXhXhXhXhXhXhXhXhXhXhXhXhXhXhXhXhX",
"hXhXhXhXhXhXhXhXhXhXhXhXhXhXhXhXhXhXhXhXhXhXhXhXhX/ / ` ' X.%.&.u.u.u.u.q.q.F.-XhXhXhXhXhXhXhXhXhXhXhXhXhXhXhXhXhXhXhXhXhXhXhXhX",
"hXhXhXhXhXhXhXhXhXhXhXhXhXhXhXhXhXhXhXhXhXhXhX7 6 0 / / ' } #.*.&.u.u.r.r.r.t.G.F.hXhXhXhXhXhXhXhXhXhXhXhXhXhXhXhXhXhXhXhXhXhXhX",
"hXhXhXhXhXhXhXhXhXhXhXhXhXhXhXhXhXhXhXhXhX: : q 5 8 9 / ' ' +.#.| u.0.0.0.r.t.V.J.J.,XhXhXhXhXhXhXhXhXhXhXhXhXhXhXhXhXhXhXhXhXhX",
"hXhXhXhXhXhXhXhXhXhXhXhXhXhXhXhXhXhXhXhX- - - : 5 8 0 h / ' +.+.| u.8.9.0.e.t.K.K.H.K.0XhXhXhXhXhXhXhXhXhXhXhXhXhXhXhXhXhXhXhXhX",
"hXhXhXhXhXhXhXhXhXhXhXhXhXhXhXhXhXhXhXo o - - : : 5 8 P / _ ' +.| 8.7.7.9.0.t.V.K.U.wX0XwX0XhXhXhXhXhXhXhXhXhXhXhXhXhXhXhXhXhXhX",
"hXhXhXhXhXhXhXhXhXhXhXhXhXhXhXhXhX: -   X X - : : 5 6 0 A _ ` } X.8.<.9.9.0.t.V.H.U.wXwX0X0X0XhXhXhXhXhXhXhXhXhXhXhXhXhXhXhXhXhX",
"hXhXhXhXhXhXhXhXhXhXhXhXhXhXhXhXhX- X     X X - : : 5 7 9 / ` ( } 8.,.8.1.e.t.V.H.H.U.U.wX9X0XhXhXhXhXhXhXhXhXhXhXhXhXhXhXhXhXhX",
"hXhXhXhXhXhXhXhXhXhXhXhXhXhXhXhX: X .     X X - ; : 5 6 9 / ` ` [ { ,.,.1.6.C.V.D.H.P.P.0XP.9X9XhXhXhXhXhXhXhXhXhXhXhXhXhXhXhXhX",
"hXhXhXhXhXhXhXhXhXhXhXhXhXhXhX: - X         X X ; : > 5 9 9 / ( [ { ,.,.1.6.y.D.S.S.P.P.9X9X9X9X:XhXhXhXhXhXhXhXhXhXhXhXhXhXhXhX",
"hXhXhXhXhXhXhXhXhXhXhXhXhXhX8 : - X X       X X - ; : 5 8 9 T ( T { ;.,.<.6.m.B.D.S.I.I.L.$X9X9XqX>XhXhXhXhXhXhXhXhXhXhXhXhXhXhX",
"hXhXhXhXhXhXhXhXhXhXhXhXhXhX5 : - - X       . X o ; : 3 5 8 h h [ z z ;.<.6.m.B.Z.S.I.v.b.b.9XqX4X4XhXhXhXhXhXhXhXhXhXhXhXhXhXhX",
"hXhXhXhXhXhXhXhXhXhXhXhXhX9 5 : - - X X       . X - ; : 5 8 9 h T x l -.>.3.m.M.Z.A.k.v.b.b.$X#X4X4X@XhXhXhXhXhXhXhXhXhXhXhXhXhX",
"hXhXhXhXhXhXhXhXhXhXhXhX/ 9 6 3 : - X X       . X - - : 3 6 8 h f k z -.>.3.m.M.A.A.k.v.v.b.$X#X4XrX@X'.hXhXhXhXhXhXhXhXhXhXhXhX",
"hXhXhXhXhXhXhXhXhXhXhX` / 0 6 5 q - - X         X X - ; : 3 6 d j f k -.>.5.n.N.d.d.j.j.x.c.#X@X&XtX%X{.~.hXhXhXhXhXhXhXhXhXhXhX",
"hXhXhXhXhXhXhXhXhXhXhX` / 9 9 5 : : - o X .     . X o - q 3 6 d d f l M >.2.s.s.d.g.g.z.oXoX@X&X%X%X%X&X'.hXhXhXhXhXhXhXhXhXhXhX",
"hXhXhXhXhXhXhXhXhXhXhX` / R 0 6 5 : ; - X .       . o - : : > 6 d f p a N G s.s.d.g.f.l.l.oX@X.X%X%X%X%X{.hXhXhXhXhXhXhXhXhXhXhX",
"hXhXhXhXhXhXhXhXhXhX` ' ` / 9 8 5 > ; - X .       . X - ; : 3 6 t y s B N C s.i.p.f.l.l.oX`.|.|..XtXtXyXeXhXhXhXhXhXhXhXhXhXhXhX",
"hXhXhXhXhXhXhXhXhXhX' ' ' / h 9 5 > : ; - X         X o - : : > t y u B B H i.p.f.f.l.W.W._.[..X.XtXtXuXuXrXhXhXhXhXhXhXhXhXhXhX",
"hXhXhXhXhXhXhXhXhXhX#.+.' ` / 9 8 5 : : - X X .       X - ; > 1 t y u B B F F b W ^ ^ W./._.[..XtXtXuXaXaXiXhXhXhXhXhXhXhXhXhXhX",
"hXhXhXhXhXhXhXhXhX' #.#.+.` ` 9 9 5 5 : - - X .       X ; : 6 9 j f f m m V F W W ^ ^ W./._.[.XXtXuXaXaXdXaXhXhXhXhXhXhXhXhXhXhX",
"hXhXhXhXhXhXhXhXhX+.%.#.+.' ` R 9 8 3 : : - X X .   . - : 9 9 ( ( D D A V b b W ^ ~ Y.R.(._..XXXuXuXaXdXfXdX1XhXhXhXhXhXhXhXhXhX",
"hXhXhXhXhXhXhXhX' %.&.%.#.+.` / 9 9 4 q : - - X . . X : 9 9 h ( Z D [ F A b E E E Y.Y.R./.{. X3XuXaXdXfXgXfX6XhXhXhXhXhXhXhXhXhX",
"hXhXhXhXhXhXhXhX' &.!.&.%.+.' ` / 9 9 5 : : - X X X : 5 6 8 9 / ( A Z ]  . .R E Q T.T.R.'.'.<XrXiXpXsXfXgXfXsXl.hXhXhXhXhXhXhXhX",
"hXhXhXhXhXhXhXhX' &.*X&.%.#.' ' / 9 8 5 > : - - o : 5 5 3 hXhXhXhXhXA ) ] ] ^ E U O.T.Q.Q.@X<X3X6X7XsXfXfXgXsXu.hXhXhXhXhXhXhXhX",
"hXhXhXhXhXhXhXhX%.*X*X&.&.#.} ' / / 9 6 4 : ; - ; 5 5 : hXhXhXhXhXhXhXhXR  ...Q Y O.Q.Q.!.XX3X1X6X7XsXsXfXgXsX-XhXhXhXhXhXhXhXhX",
"hXhXhXhXhXhXhXhX&.*X*X*X&.%.#.X.` / 9 9 5 3 : ; 3 8 5 : hXhXhXhXhXhXhXhXv _ ' ..O.O.o.Q.XXXX1X1X6X7XsXsXfXgXdX-XhXhXhXhXhXhXhXhX",
"hXhXhXhXhXhXhXhXl.-X-XXXu.u.#.+.' ` T 9 8 5 : 3 7 7 5 hXhXhXhXhXhXhXhXhXhXR X.o._ X.o.%.!.*X-X1X5X7X7XsXdXfXfX5XhXhXhXhXhXhXhXhX",
"hXhXhXhXhXhXhXhXXX1X-X*X*X!.%.#.' ` T T 8 5 : 5 9 9 > hXhXhXhXhXhXhXhXhXhXP ..X...X.+.%.&.*X*X-X1X6X7XsXsXfXfX5XhXhXhXhXhXhXhXhX",
"hXhXhXhXhXhXhXhXXX1X-X-X=Xu.%.#.+.' / v 9 8 3 6 9 9 : hXhXhXhXhXhXhXhXhXhXP ` +.X.' +.#.&.u.-X-X1X5X7X7XsXfXfX5XhXhXhXhXhXhXhXhX",
"hXhXhXhXhXhXhXhX-X5X1X-X=XOX&.%.#.' ` / T 8 5 9 R 9 : hXhXhXhXhXhXhXhXhXhX9 ` +.' ` +.#.%.OXu.-X-X5X5X7XsXdXsX5XhXhXhXhXhXhXhXhX",
"hXhXhXhXhXhXhXhX-X5X5X-X-X*X&.&.+.+.' T T 8 6 9 P 0 3 hXhXhXhXhXhXhXhXhXhX9 ` ' ` ` ' #.#.&.XX-X-X1X5X7X7XsXsX1XhXhXhXhXhXhXhXhX",
"hXhXhXhXhXhXhXhX-X6X5X1X-X*X*X&.*.+.+.` T 9 7 8 / P 3 hXhXhXhXhXhXhXhXhXhX9 ` ' ` ` ' ' #.&.XX*X-X-X1X6X7XsXsX1XhXhXhXhXhXhXhXhX",
"hXhXhXhXhXhXhXhX-X5X5X5X-X-X*X&.%.$.+.` T T 7 I P P 5 hXhXhXhXhXhXhXhXhXhX9 ` ` / / ` ' +.%.&.XX*X-X1X5X7X7X7X-XhXhXhXhXhXhXhXhX",
"hXhXhXhXhXhXhXhX-X6X7X5X-X-X=XXX&.$.+...O.T 7 J P P 8 hXhXhXhXhXhXhXhXhXhX9 / ` h R / ' +.#.%.l.*X-X-X5X7X7X7X-XhXhXhXhXhXhXhXhX",
"hXhXhXhXhXhXhXhX-X6X7X6X5X-X-XXX&.$.+..._ Y I 7 I Q 0 5 hXhXhXhXhXhXhXhX6 9 ` v 0 9 / ` ' +.%.&.u.-X-X5X5X7X5X-XhXhXhXhXhXhXhXhX",
"hXhXhXhXhXhXhXhXF.6X7X7X5X-X-XXX&.$.o.O.Y Y K J L P v 0 hXhXhXhXhXhXhXhX5 R T 9 6 9 / / ' +.#.&.XX*X-X-X5X6X5X&.hXhXhXhXhXhXhXhX",
"hXhXhXhXhXhXhXhX&.6XsX6X6X1X<X=X!.Q.o.O.U U K J 4 I R v 9 hXhXhXhXhXhX5 8 P 9 3 5 9 9 / ` X.+.%.&.*X*X-X1X5X-X#.hXhXhXhXhXhXhXhX",
"hXhXhXhXhXhXhXhX%.5XsX7X6X1X<XXX~.Q.E.U U K K J 4 4 v A A c d 6 6 > > 8 8 6 3 3 5 8 9 T ( ' +.%.&.&.*X-X-X5X-X%.hXhXhXhXhXhXhXhX",
"hXhXhXhXhXhXhXhX&.5XpXpX6X3X<X'.~.E.Y.! U K K K 4 n n n v v g 1 6 6 3 6 3 : ; : q 7 7 9 / ` +.+.%.!.XX=X-X-X=X&.hXhXhXhXhXhXhXhX",
"hXhXhXhXhXhXhXhXhX=X7XpX6X2X{.'./.E.Y.! U U K J n n n & g m g g 6 > > ; - - - ; : 5 9 9 T ` ' +.#.u.XX=X-X-X&.hXhXhXhXhXhXhXhXhX",
"hXhXhXhXhXhXhXhXhX!.iXiXrX2X{.'./.Y.Y.! U U E 4 n & V & & w , , < ; o X . X @ - : > 5 9 T / ' X.#.%.&.XX*X*X#.hXhXhXhXhXhXhXhXhX",
"hXhXhXhXhXhXhXhXhX!.1XiXrX X[.(.(.E.Y.! ~ E v b b c & & & % $ # O o .     X X - ; : 5 8 9 v ` ' X.%.%.XXOXF.hXhXhXhXhXhXhXhXhXhX",
"hXhXhXhXhXhXhXhXhXhX=XrX%X|.[.[./.Y.Y.^ ^ W b n n V & & * * + + O . .       X - ; : 3 7 9 9 / _ ' #.&.&.F.$.hXhXhXhXhXhXhXhXhXhX",
"hXhXhXhXhXhXhXhXhXhX~.2X%X.X[.(.(.R.W.^ W W b b V m & & = * * + O o .       X X - ; : 5 9 9 A ` ' #.#.&.&.#.hXhXhXhXhXhXhXhXhXhX",
"hXhXhXhXhXhXhXhXhXhX$.}.%X%X[.(.).W.^ @.f.b b p.V V B = = * $ # O o . .       X o - q 3 5 9 9 ` ' ' #.&.%.hXhXhXhXhXhXhXhXhXhXhX",
"hXhXhXhXhXhXhXhXhXhXhX`.&X%X|.oX`.W.@.f.f.p.b p.H V B u r * $ # @ O X .       . o - : : 5 7 9 / ` ' +.#.%.hXhXhXhXhXhXhXhXhXhXhX",
"hXhXhXhXhXhXhXhXhXhXhXQ.@XeX&X@XoXoXf.f.f.f.i.i.H C = B e w * # ; - o X         X - ; : > 6 9 R ` ' ' #.#.hXhXhXhXhXhXhXhXhXhXhX",
"hXhXhXhXhXhXhXhXhXhXhXhX^.2X@X@XOXz.g.f.g.p.a.s.C C N B e w w $ < - - X         X o - ; : 5 8 9 A _ ' #.hXhXhXhXhXhXhXhXhXhXhXhX",
"hXhXhXhXhXhXhXhXhXhXhXhXXX@X4X4X+Xz.g.g.g.d.a.s.n.= >.= e e w < ; ; - X X       . X - ; : 5 6 9 A ` X.hXhXhXhXhXhXhXhXhXhXhXhXhX",
"hXhXhXhXhXhXhXhXhXhXhXhXhX=X4X>X+Xx.j.j.d.d.d.n.n.2.>.-.i e e , > : - - X         X X ; : : 5 8 P ' hXhXhXhXhXhXhXhXhXhXhXhXhXhX",
"hXhXhXhXhXhXhXhXhXhXhXhXhXhX;X:XL.v.x.j.h.d.N.N.n.5.M a = * e , , : : - X X       X X - ; : 4 8 P ' hXhXhXhXhXhXhXhXhXhXhXhXhXhX",
"hXhXhXhXhXhXhXhXhXhXhXhXhXhXOX>X+Xb.v.k.A.A.Z.m.m.2.M a -.-.y t 1 : : ; - X .       X o - : > 8 T hXhXhXhXhXhXhXhXhXhXhXhXhXhXhX",
"hXhXhXhXhXhXhXhXhXhXhXhXhXhXhX;X:XL.L.I.A.S.Z.M.m.2.:.-.i -.e t 5 5 : ; - X .       X X o ; : 9 hXhXhXhXhXhXhXhXhXhXhXhXhXhXhXhX",
"hXhXhXhXhXhXhXhXhXhXhXhXhXhXhXhX>X:XL.L.S.S.D.M.m.2.:.-.-.* i e 6 6 : : - o X         X - : 5 hXhXhXhXhXhXhXhXhXhXhXhXhXhXhXhXhX",
"hXhXhXhXhXhXhXhXhXhXhXhXhXhXhXhXhX,X:XP.J.S.D.C.4.3.-.-.l k f d 6 8 5 : ; - X .       . o : hXhXhXhXhXhXhXhXhXhXhXhXhXhXhXhXhXhX",
"hXhXhXhXhXhXhXhXhXhXhXhXhXhXhXhXhXhX,XJ.J.S.D.B.y.1.<.-.l k x j h 6 5 : : ; o X       X ; hXhXhXhXhXhXhXhXhXhXhXhXhXhXhXhXhXhXhX",
"hXhXhXhXhXhXhXhXhXhXhXhXhXhXhXhXhXhXhXhXJ.J.H.B.y.1.<.-.-.k j ( h 9 8 5 : ; - X X . X - hXhXhXhXhXhXhXhXhXhXhXhXhXhXhXhXhXhXhXhX",
"hXhXhXhXhXhXhXhXhXhXhXhXhXhXhXhXhXhXhXhXhXF.F.G.y.e.7.;.;.z x ( h h 9 5 3 : ; - - X - hXhXhXhXhXhXhXhXhXhXhXhXhXhXhXhXhXhXhXhXhX",
"hXhXhXhXhXhXhXhXhXhXhXhXhXhXhXhXhXhXhXhXhXhXhXu.w.q.8.,.,.{ [ ( ( T 0 9 5 5 : ; : hXhXhXhXhXhXhXhXhXhXhXhXhXhXhXhXhXhXhXhXhXhXhX",
"hXhXhXhXhXhXhXhXhXhXhXhXhXhXhXhXhXhXhXhXhXhXhXhXhX=.D S { { [ [ / / 9 9 0 9 hXhXhXhXhXhXhXhXhXhXhXhXhXhXhXhXhXhXhXhXhXhXhXhXhXhX",
"hXhXhXhXhXhXhXhXhXhXhXhXhXhXhXhXhXhXhXhXhXhXhXhXhXhXhXhXhXhXhXhXhXhXhXhXhXhXhXhXhXhXhXhXhXhXhXhXhXhXhXhXhXhXhXhXhXhXhXhXhXhXhXhX",
"hXhXhXhXhXhXhXhXhXhXhXhXhXhXhXhXhXhXhXhXhXhXhXhXhXhXhXhXhXhXhXhXhXhXhXhXhXhXhXhXhXhXhXhXhXhXhXhXhXhXhXhXhXhXhXhXhXhXhXhXhXhXhXhX"
};
