/* XPM */
static char *result[] = {
/* columns rows colors chars-per-pixel */
"64 64 230 2 ",
"   c #747474",
".  c #787776",
"X  c #7C7B7B",
"o  c #817E7E",
"O  c #887E7B",
"+  c #907E79",
"@  c #85817E",
"#  c #94817B",
"$  c #9B857C",
"%  c #9C887B",
"&  c #9C9D7D",
"*  c #9F927A",
"=  c #A38B7E",
"-  c #A5977C",
";  c #A8A07F",
":  c #848383",
">  c #8A8785",
",  c #8C8B8B",
"<  c #8A8886",
"1  c #928E8E",
"2  c #9C8D8B",
"3  c #998784",
"4  c #98938C",
"5  c #8D8F92",
"6  c #908F90",
"7  c #8B9699",
"8  c #949394",
"9  c #9A9695",
"0  c #94969C",
"q  c #989798",
"w  c #9C9B9C",
"e  c #99989B",
"r  c #8A9C8D",
"t  c #AA8E83",
"y  c #A48D87",
"u  c #A4918D",
"i  c #AD938A",
"p  c #AC9786",
"a  c #B3948C",
"s  c #BA968E",
"d  c #BA9C8D",
"f  c #B39A88",
"g  c #A39593",
"h  c #AC9591",
"j  c #A59A96",
"k  c #AB9B95",
"l  c #A29D9C",
"z  c #AB9C99",
"x  c #BC9A93",
"c  c #BB9E9B",
"v  c #B49A96",
"b  c #8EA188",
"n  c #96A688",
"m  c #98A899",
"M  c #9BB699",
"N  c #93AA90",
"B  c #ABA585",
"V  c #B9A88B",
"C  c #A9B58C",
"Z  c #B9B48D",
"A  c #ACA39E",
"S  c #A5A899",
"D  c #B6A69E",
"F  c #A6BA95",
"G  c #B8BD90",
"H  c #8A92A2",
"J  c #8D95AB",
"K  c #8D9BA6",
"L  c #9C9DA3",
"P  c #969BA8",
"I  c #949BB3",
"U  c #979DB7",
"Y  c #A09FA0",
"T  c #9EA3A5",
"R  c #93A3AC",
"E  c #99A7A9",
"W  c #9BB6A5",
"Q  c #9CA1B3",
"!  c #9BA3BA",
"~  c #9AA9B7",
"^  c #9EB2B7",
"/  c #8FA4A1",
"(  c #A4A3A3",
")  c #ABA5A4",
"_  c #A5A5A9",
"`  c #A8A7A8",
"'  c #ABABAC",
"]  c #A4ABAA",
"[  c #B3A4A2",
"{  c #BBA3A2",
"}  c #B7ABAB",
"|  c #A5B5A8",
" . c #B1B2A1",
".. c #A6A9B3",
"X. c #ACADB3",
"o. c #A7A9B8",
"O. c #B0AFB0",
"+. c #A2B9BA",
"@. c #B4B3B4",
"#. c #B4B4BA",
"$. c #B8B7B8",
"%. c #BCBBBC",
"&. c #BCB3B3",
"*. c #C29D94",
"=. c #C49F99",
"-. c #C3A494",
";. c #C5A19C",
":. c #CAA39D",
">. c #CCAA9C",
",. c #C7AC95",
"<. c #C3B492",
"1. c #CCBC9A",
"2. c #C9B697",
"3. c #D0B79E",
"4. c #CDA6A2",
"5. c #C6A9A6",
"6. c #D3AAA5",
"7. c #D3AEA9",
"8. c #C8B2AC",
"9. c #D3B3A4",
"0. c #D5B1AA",
"q. c #DABDAA",
"w. c #D4BBA8",
"e. c #C6B7B6",
"r. c #D0B3B0",
"t. c #A9C59A",
"y. c #B7C897",
"u. c #BAD19E",
"i. c #A6C9A6",
"p. c #ACD3AC",
"a. c #ACD1A5",
"s. c #B4DBAC",
"d. c #BBDBAA",
"f. c #B6D5A4",
"g. c #A8C6B8",
"h. c #AED3B9",
"j. c #B4DDB4",
"k. c #B5DCBB",
"l. c #BAE1B4",
"z. c #BBE4BC",
"x. c #BCE0AF",
"c. c #CCC49B",
"v. c #CBCC9D",
"b. c #C4C698",
"n. c #C8CE9F",
"m. c #D3CCA3",
"M. c #D9C7AA",
"N. c #C7D8A6",
"B. c #D3D5A5",
"V. c #DBD6AC",
"C. c #D4DBAB",
"Z. c #DADBAE",
"A. c #CAC6BA",
"S. c #D7C7B2",
"D. c #DCD4B3",
"F. c #D9DBB5",
"G. c #CED2BB",
"H. c #E0DCB7",
"J. c #C3E6BB",
"K. c #C8E6B8",
"L. c #D9E6B9",
"P. c #D0E0AF",
"I. c #E1EABE",
"U. c #9CA3C3",
"Y. c #9FA9C6",
"T. c #A4ABC5",
"R. c #A5ABCC",
"E. c #A6A9C6",
"W. c #A9B5C8",
"Q. c #B5B5C3",
"!. c #BEBEC2",
"~. c #B8B9CB",
"^. c #AAAED4",
"/. c #A7ABD5",
"(. c #ABB1D4",
"). c #ADB1DB",
"_. c #AFBAD7",
"`. c #B3B5D4",
"'. c #B2B5DC",
"]. c #B4B9DD",
"[. c #BBBCD7",
"{. c #B5BAE3",
"}. c #BBBEE9",
"|. c #B8BAE2",
" X c #C0BFC0",
".X c #AEC8C8",
"XX c #BAC4C6",
"oX c #B8D9C8",
"OX c #B8C6D8",
"+X c #BED5D7",
"@X c #BDE4C4",
"#X c #BFC1EC",
"$X c #BEC2E4",
"%X c #C3C3C4",
"&X c #C6C6CA",
"*X c #CBCBCC",
"=X c #C1C9C7",
"-X c #C6D8C5",
";X c #D2D9C6",
":X c #C4C4D4",
">X c #CECED2",
",X c #CCCCDB",
"<X c #C4C8DB",
"1X c #C3D8D9",
"2X c #D3D3D4",
"3X c #D5D5DA",
"4X c #DBDBDC",
"5X c #D3D8D0",
"6X c #D0CDC7",
"7X c #C3E3C3",
"8X c #C4EAC2",
"9X c #C6E8C7",
"0X c #D8E9C3",
"qX c #C5E3D1",
"wX c #E1EBC2",
"eX c #C3C4E4",
"rX c #C3C4EC",
"tX c #CBCCED",
"yX c #C6CBE5",
"uX c #C9D0E6",
"iX c #D2D2E3",
"pX c #DCDCE3",
"aX c #D3D4EB",
"sX c #DCDCEC",
"dX c #E2E2E4",
"fX c #E4E4EC",
"gX c #EBEBED",
"hX c #EFEFF0",
"jX c #F0F0F1",
"kX c None",
/* pixels */
"kXkXkXkXkXkXkXkXkXkXkXkXkXkXkXkXkXkXkXkXkXkXkXkXkXkXkXkXkXkXkXkXkXkXkXkXkXkXkXkXkXkXkXkXkXkXkXkXkXkXkXkXkXkXkXkXkXkXkXkXkXkXkXkX",
"kXkXkXkXkXkXkXkXkXkXkXkXkXkXkXkXkXkXkXkXkXkXkXkXkXkXkXkXkXkXkXkXkXkXkXkXkXkXkXkXkXkXkXkXkXkXkXkXkXkXkXkXkXkXkXkXkXkXkXkXkXkXkXkX",
"kXkXkXkXkXkXkXkXkXkXkXkXkXkXkXkXkXkXkXkXkXkXkXkX` ( ` ' O.@.$.%.e.e.e.e.r.5.e.A.6XkXkXkXkXkXkXkXkXkXkXkXkXkXkXkXkXkXkXkXkXkXkXkX",
"kXkXkXkXkXkXkXkXkXkXkXkXkXkXkXkXkXkXkXkXkXe q 9 w m ( ` ' O.@.$.e.e.e.r.0.0.q.S.S.e.6XkXkXkXkXkXkXkXkXkXkXkXkXkXkXkXkXkXkXkXkXkX",
"kXkXkXkXkXkXkXkXkXkXkXkXkXkXkXkXkXkXkXkX, , 6 8 q w ( ( ` X.O.&.&.e.8.r.7.0.0.S.S.H.D.S.kXkXkXkXkXkXkXkXkXkXkXkXkXkXkXkXkXkXkXkX",
"kXkXkXkXkXkXkXkXkXkXkXkXkXkXkXkXkXkX6 : : < , 5 9 w w ( ` ' O.@.&.e.5.6.6.6.0.q.M.H.H.wX0X;XkXkXkXkXkXkXkXkXkXkXkXkXkXkXkXkXkXkX",
"kXkXkXkXkXkXkXkXkXkXkXkXkXkXkXkXkX: X o : : 5 5 8 q w ( ( ` ' O.} 5.4.4.6.6.0.q.M.H.H.I.wXwX0XqXkXkXkXkXkXkXkXkXkXkXkXkXkXkXkXkX",
"kXkXkXkXkXkXkXkXkXkXkXkXkXkXkXq : . . X o : : 5 6 9 e w ( ` ' O.} } 4.4.4.6.0.q.D.Z.Z.I.I.wXwX0X;XkXkXkXkXkXkXkXkXkXkXkXkXkXkXkX",
"kXkXkXkXkXkXkXkXkXkXkXkXkXkX8 :       . X : : , , 8 q w l ( ' ' } { 5.;.4.6.9.q.M.V.Z.I.I.I.I.wX9X;XkXkXkXkXkXkXkXkXkXkXkXkXkXkX",
"kXkXkXkXkXkXkXkXkXkXkXkXkXkX< X         X X : , , 6 q q w ( ` ) [ { { ;.4.>.9.q.M.V.Z.Z.L.I.K.8XL.7XkXkXkXkXkXkXkXkXkXkXkXkXkXkX",
"kXkXkXkXkXkXkXkXkXkXkXkXkX5 : X .       X X : : , 6 8 0 w A ( ) [ { { ;.:.>.3.3.B.C.Z.Z.L.K.J.J.8X8X@X-XkXkXkXkXkXkXkXkXkXkXkXkX",
"kXkXkXkXkXkXkXkXkXkXkXkX8 < : X           X X : < , 6 8 0 w l ) Y { c ;.=.>.3.M.m.B.C.P.K.J.J.z.8X8XqX-XkXkXkXkXkXkXkXkXkXkXkXkX",
"kXkXkXkXkXkXkXkXkXkXkXq , < : : X .       . X : : , , 8 q q L l [ c c =.=.:.1.c.m.B.N.P.x.l.z.z.8X9XqX+X+XkXkXkXkXkXkXkXkXkXkXkX",
"kXkXkXkXkXkXkXkXkXkX( q 8 < : : X .         X o : < , 6 8 q w l Y v v =.=.>.1.c.v.B.N.N.x.l.j.z.@XqX1X1XyX~.kXkXkXkXkXkXkXkXkXkX",
"kXkXkXkXkXkXkXkXkX( w q 8 , , : : X         . X o : < 6 9 9 w j z v v x -.,.2.c.v.N.u.d.x.l.j.z.@X+XuX+XeX[.W.kXkXkXkXkXkXkXkXkX",
"kXkXkXkXkXkXkXkXO.( w 0 8 5 , < : X .         X X : < , , 9 9 g g v s x -.,.<.b.b.u.d.f.s.s.j.oX+X+X$XuXrX#X`.#.kXkXkXkXkXkXkXkX",
"kXkXkXkXkXkXkXkX` ( T e q 6 , < < : X .         X : : < , 8 9 9 g h a d *.<.<.b.y.u.a.p.p.h..X.XOXOX#X#X#X#X}.`.kXkXkXkXkXkXkXkX",
"kXkXkXkXkXkXkXkX` ( m l q 9 6 , : : o X         X o : : , 5 1 9 g h a d V Z G y.y.u.a.i.h.h..X.XOXOX#X#X#X#XrX|.kXkXkXkXkXkXkXkX",
"kXkXkXkXkXkXkX` ' ` ( l w 0 8 , < : : X         . X X : < , 8 9 g i a f V V G t.t.a.i.i.g.g.W.OX).{.{.#XrXrXtXeXkXkXkXkXkXkXkXkX",
"kXkXkXkXkXkXkX' O.' ( ( w w 8 1 5 < : X .         X X : : , , 4 u u a ; V Z G F t.t.i.g.^ W.W.(.{.{.{.#XrXtXtXaXiXkXkXkXkXkXkXkX",
"kXkXkXkXkXkXkX@.@.' ` ( Y w q 6 5 , : : X .         X @ : < 1 1 u u p f V C F F M i.W ^ W.W.^.).).{.}.rXtXaXaXsX3XkXkXkXkXkXkXkX",
"kXkXkXkXkXkX' @.@.' ' ` Y Y e 9 5 5 : : o X         . X < 1 9 e g k k B B C C M M W ^ ^ T.R.^.(.{.{.eXyXtXsXsXfXsXkXkXkXkXkXkXkX",
"kXkXkXkXkXkX' %.$.@.' ` ( Y w q 5 5 , : : X .       X , q w T A )  .D D C S M M W W ~ Y.E.R.^.).'.$XeXaXaXfXfXgXgX*XkXkXkXkXkXkX",
"kXkXkXkXkX' %.%.$.@.@.' ` ( m e q 6 , , : o X .   X , 0 q ( A ) A S D  .S | m m R R ~ Y.R.R.^.`.$XOX,XiXsXfXhXhXhX4XkXkXkXkXkXkX",
"kXkXkXkXkX` XX!.%.$.@.' ' ( ( w q 8 , , : : X X X < 8 0 q q w ) [ A S A  .| | / R R ! E.E.R.`.[.:X,X3XiXdXdXgXjXhXdX%.kXkXkXkXkX",
"kXkXkXkXkX` %XA.%.$.@.O.' ` ( w 0 9 8 , , : : X < 8 8 6 , kXkXkXkXkXkXS ] | | ] R Q U E.E.W.]. X:X,X3XpXpXdXgXjXjXgX%.kXkXkXkXkX",
"kXkXkXkXkX@.*X%X!.%.$.@.' ` ( A m q 8 6 , : : < q 0 5 < kXkXkXkXkXkXkXkXm T ....Q I o.o.#.Q.~.&X&X>X2X4XpXdXgXgXjXhX&XkXkXkXkXkX",
"kXkXkXkX%.$.*X%X%X!.$.@.O.' _ ( w e 9 6 , , : 8 q 8 < kXkXkXkXkXkXkXkXkXkXT ] X...Q o.o.#.Q. X X*X>X2X4X4XdXdXgXhXhX2XkXkXkXkXkX",
"kXkXkXkX%.%X*X*X%Xe.%.$.@.' ' ( Y w q 9 , , , 0 w 6 6 kXkXkXkXkXkXkXkXkXkXq T X.X.....X.#.#.!.%X&X*X2X2X4X4XdXgXgXhX3XA.kXkXkXkX",
"kXkXkXkXO.&X>X*X&XXX%.%.@.@.' ` ( Y w 9 8 , 8 w w , kXkXkXkXkXkXkXkXkXkXkXkXL X.X...' X.@.%.%.%X&X*X2X2X4X4XdXdXgXhXpX%.kXkXkXkX",
"kXkXkXkX' *X>X*X*X%XA.%.$.@.O.' ` ( w q q , q ( w , kXkXkXkXkXkXkXkXkXkXkXkXe ' @.' ` X.@.$.%.%X%X*X*X2X2X4X4XdXgXgXpX$.kXkXkXkX",
"kXkXkXkX@.2X5X>X*X&XXX%.%.@.O.' ` ( w w q 6 w ( w , kXkXkXkXkXkXkXkXkXkXkXkXq ] @.' ` ' @.@.#.%.A.&X*X2X5X4X4XdXdXgXpX@.kXkXkXkX",
"kXkXkXkX@.2X2X5X*X*X%X!.%.$.$.O.' ) Y L e 6 L _ L , kXkXkXkXkXkXkXkXkXkXkXkXq ` @.` ( ' O.@.$.%.XX%X*X*X2X2X4XpXdXgXpXO.kXkXkXkX",
"kXkXkXkXO.2X4X2X>X*X&XA. X$.$.O.' ' Y Y e 0 w Y L , kXkXkXkXkXkXkXkXkXkXkXkXq ` X.` ( ` ' @.@.%.%.%X&X6X>X5X3X4XpXdX4X$.kXkXkXkX",
"kXkXkXkX@.2X4X2X2X*X&X&X X%.$.O.X.' _ Y w 0 e _ ( 5 kXkXkXkXkXkXkXkXkXkXkXkXq ` ' ( Y ( ` ' @.$.%.!.%X*X*X2X2X4X4XdX5X%.kXkXkXkX",
"kXkXkXkX%.2X4X4X2X2X*X&X%X!.$.$.O.' _ Y L H H L T 0 5 kXkXkXkXkXkXkXkXkXkX0 w ` ` l w ( ` ' O.@.$.%.A.%X*X>X2X4X4XdX6Xe.kXkXkXkX",
"kXkXkXkX%X*X4X4X3X2X6X*X&X X X$.O...Y U J J 0 J Q L 5 kXkXkXkXkXkXkXkXkXkX8 ( ` S q w ( ( ` ' @.$.%.XX%X&X6X>X2X4XdX&XkXkXkXkXkX",
"kXkXkXkXkX%XdX4X4X2X*X*X:X XQ.#.#.o.Q U J J H H L T m 6 kXkXkXkXkXkXkXkX6 q T ( q q w L ( ` ' @.@.$.%.%X&X*X*X5X2X4Xg.kXkXkXkXkX",
"kXkXkXkXkX%.dXpX4X3X2X>X:X XQ.#.o.o.Q I J J H 7 K T m w kXkXkXkXkXkXkX, 9 m A 8 6 8 q w ( ( ` ' X.@.%.%.%X&X*X2X2X4X@.kXkXkXkXkX",
"kXkXkXkXkX$.4XdX4X2X,X>X X~.Q.Q.E.! U I J J H 7 r m S S S 9 4 9 9 1 , 6 e w 0 , , 6 q q w ( _ ' @.@.%.%.e.&X*X>X2X6X$.kXkXkXkXkX",
"kXkXkXkXkX%.2XdXpX3X,X<X X].^.E.E.U.U I J J H 7 b b N S S S g g 9 9 6 9 q 8 < : , , 5 0 w A ( ` X.O.$.%.e.&X&X>X2X%X%.kXkXkXkXkX",
"kXkXkXkXkXkX&XdXpXiX<X:X[.`./.R.U.U.U I I K / b b b n n j S k 9 9 9 8 1 : o o : < 5 6 q q T T ( ' O.O.$. X X X*X*Xe.kXkXkXkXkXkX",
"kXkXkXkXkXkX!.pXpXiXeX[.'.)./.U.U.U.U I / / N N n & & & * 2 y 4 3 > o .   X X : : < 6 8 q q l ( ` ' O.$.%. X X6X&X#.kXkXkXkXkXkX",
"kXkXkXkXkXkX!.,XaXyXeX{.).^./.R.U.U.U Q W / N N n & & & * % % # O o         X o : < , 6 q q w ( ` ' O.@.$.%.g.%Xe.kXkXkXkXkXkXkX",
"kXkXkXkXkXkXkX~.uXyX$X{.)./././.Y.^ ~ W W N M N C & ; - = + # + O X .       . X : : , 5 8 0 q Y ( ` ' @.@.%.%.%X$.kXkXkXkXkXkXkX",
"kXkXkXkXkXkXkX!.yX#X}.'.)././.Y.Y.Y.W M W M M M C B ; ; = $ $ + O o X           X : : , 6 8 q m ( ( ` O.@.%.%.%.@.kXkXkXkXkXkXkX",
"kXkXkXkXkXkXkX.._.#X#X).).)./.W.g.+.i.M M C F t.C ; f - - = $ # O O X           X : : < , 8 9 e A ( ` ' @.@.%.@.kXkXkXkXkXkXkXkX",
"kXkXkXkXkXkXkXkXW.$X#X#X$X_._.+.g.i.i.M t.t.t.C C V ; t t = $ # @ @ o X         X o : : , 6 8 q e ( ( ' ' @.@.@.kXkXkXkXkXkXkXkX",
"kXkXkXkXkXkXkXkXX.[.eX$X$XOX.X.Xg.i.i.i.t.t.G C ; Z ; V t + t $ : : : X         . X o : < , 6 q 0 Y ( ` ' @.@.%.kXkXkXkXkXkXkXkX",
"kXkXkXkXkXkXkXkXkX#.<XyXOXoX.Xg.p.p.i.a.t.t.y.G b.; d ; t y $ 3 > : : : X       . . X : < , 6 8 e m Y ( ` O.@.kXkXkXkXkXkXkXkXkX",
"kXkXkXkXkXkXkXkXkXkXXX<X+XoXh.h.p.a.a.u.u.y.y.G <.V d ; t y y 3 3 < : : X .       . X : : , , 6 9 w Y ( ' @.kXkXkXkXkXkXkXkXkXkX",
"kXkXkXkXkXkXkXkXkXkX&X&X1XoXz.l.s.a.s.u.u.u.b.b.<.-.d s y y y 2 1 , : : X X         . X : : , 5 8 q w ( ' kXkXkXkXkXkXkXkXkXkXkX",
"kXkXkXkXkXkXkXkXkXkXkXXXoX7Xz.l.s.s.d.u.u.n.b.1.<.V d s = s y u 1 1 < : : X .         . o : , , 6 9 w ` kXkXkXkXkXkXkXkXkXkXkXkX",
"kXkXkXkXkXkXkXkXkXkXkXkX=X-Xz.z.l.x.d.N.N.v.c.b.<.,.d s *.= u u 4 6 , < : X X .       . X : : , , 8 Y kXkXkXkXkXkXkXkXkXkXkXkXkX",
"kXkXkXkXkXkXkXkXkXkXkXkXkX6X7XJ.K.K.N.N.B.v.v.1.<.-.d s s *.t u 9 6 6 , : : X .       . X o : , 5 q kXkXkXkXkXkXkXkXkXkXkXkXkXkX",
"kXkXkXkXkXkXkXkXkXkXkXkXkXkX-X-XK.K.P.C.B.B.m.1.,.,.*.d s = a g 9 9 8 , , : : .         . X : < 9 w kXkXkXkXkXkXkXkXkXkXkXkXkXkX",
"kXkXkXkXkXkXkXkXkXkXkXkXkXkXkX6X;XK.L.Z.C.B.c.3.>.=.*.*.s s k j 9 9 8 , , : : X X         . : , w kXkXkXkXkXkXkXkXkXkXkXkXkXkXkX",
"kXkXkXkXkXkXkXkXkXkXkXkXkXkXkXkX5X;XF.F.Z.V.m.m.3.=.*.*.x v z z l e q 5 , < : : X         X : kXkXkXkXkXkXkXkXkXkXkXkXkXkXkXkXkX",
"kXkXkXkXkXkXkXkXkXkXkXkXkXkXkXkXkXkXG.G.D.V.M.w.>.>.=.=.x v z z l w q 9 5 < < : X X     X , kXkXkXkXkXkXkXkXkXkXkXkXkXkXkXkXkXkX",
"kXkXkXkXkXkXkXkXkXkXkXkXkXkXkXkXkXkXkXkXA.S.S.8.6.4.;.=.c { [ ) Y l w 9 8 , , : : : X : kXkXkXkXkXkXkXkXkXkXkXkXkXkXkXkXkXkXkXkX",
"kXkXkXkXkXkXkXkXkXkXkXkXkXkXkXkXkXkXkXkXkXA.&.8.9.5.;.=.5.c [ ) ( L w w q 8 6 < < , kXkXkXkXkXkXkXkXkXkXkXkXkXkXkXkXkXkXkXkXkXkX",
"kXkXkXkXkXkXkXkXkXkXkXkXkXkXkXkXkXkXkXkXkXkXkXkX&.D v { { { [ ) ` T A w w w L kXkXkXkXkXkXkXkXkXkXkXkXkXkXkXkXkXkXkXkXkXkXkXkXkX",
"kXkXkXkXkXkXkXkXkXkXkXkXkXkXkXkXkXkXkXkXkXkXkXkXkXkXkXkXkXkXkXkXkXkXkXkXkXkXkXkXkXkXkXkXkXkXkXkXkXkXkXkXkXkXkXkXkXkXkXkXkXkXkXkX",
"kXkXkXkXkXkXkXkXkXkXkXkXkXkXkXkXkXkXkXkXkXkXkXkXkXkXkXkXkXkXkXkXkXkXkXkXkXkXkXkXkXkXkXkXkXkXkXkXkXkXkXkXkXkXkXkXkXkXkXkXkXkXkXkX"
};
