/* XPM */
static char *result[] = {
/* columns rows colors chars-per-pixel */
"64 64 228 2 ",
"   c #747373",
".  c #7B7B7B",
"X  c #7A7776",
"o  c #807E7E",
"O  c #897D78",
"+  c #937E79",
"@  c #8A837E",
"#  c #9C847C",
"$  c #98857B",
"%  c #9D987B",
"&  c #A28B7D",
"*  c #A6977C",
"=  c #9AA17D",
"-  c #A6A17F",
";  c #848484",
":  c #8C8B8B",
">  c #898888",
",  c #9D8A85",
"<  c #928E8D",
"1  c #9D8D8B",
"2  c #978783",
"3  c #979789",
"4  c #868F9D",
"5  c #8A959A",
"6  c #949394",
"7  c #9A9696",
"8  c #95969A",
"9  c #989798",
"0  c #9C9B9C",
"q  c #979A97",
"w  c #8A9D89",
"e  c #A68D87",
"r  c #AC9283",
"t  c #A4918E",
"y  c #AD9886",
"u  c #B3948B",
"i  c #BA968E",
"p  c #BC9D8D",
"a  c #B39888",
"s  c #AA9592",
"d  c #A39A96",
"f  c #AB9B95",
"g  c #A29E9D",
"h  c #AB9D9A",
"j  c #A39594",
"k  c #BD9B93",
"l  c #BB9F9C",
"z  c #B69995",
"x  c #8DA289",
"c  c #96A987",
"v  c #8EA29B",
"b  c #98A896",
"n  c #9CBB9B",
"m  c #9AB597",
"M  c #99B18E",
"N  c #A8AA87",
"B  c #BCAB8C",
"V  c #B5A588",
"C  c #A9B58C",
"Z  c #B8B78E",
"A  c #ABA29B",
"S  c #A6A999",
"D  c #B8A69E",
"F  c #A6BA94",
"G  c #BABE90",
"H  c #8A93A6",
"J  c #8D97A9",
"K  c #969AA6",
"L  c #949BB3",
"P  c #959BB5",
"I  c #A09FA0",
"U  c #92A3AC",
"Y  c #99A5A8",
"T  c #9EBCA3",
"R  c #9AB4A7",
"E  c #9BA1B6",
"W  c #9BA2BD",
"Q  c #9AAAB7",
"!  c #9EB1BA",
"~  c #8FA3A4",
"^  c #A4A3A3",
"/  c #ACA5A4",
"(  c #AAA9A7",
")  c #A3A5AC",
"_  c #ABABAB",
"`  c #A3AAA7",
"'  c #B3A4A2",
"]  c #BBA4A3",
"[  c #B3ACA2",
"{  c #B8ABAB",
"}  c #A7B5A9",
"|  c #B6B5A6",
" . c #ACADB2",
".. c #ACADBC",
"X. c #A4A6B5",
"o. c #B0AFB0",
"O. c #B8AFB0",
"+. c #A6B7B6",
"@. c #B4B3B4",
"#. c #B8B7B8",
"$. c #BCBBBC",
"%. c #B5B3B9",
"&. c #C39E94",
"*. c #C09F9B",
"=. c #C4A593",
"-. c #C5A19B",
";. c #CAA39D",
":. c #CCAD9B",
">. c #C7AE95",
",. c #CCBC9A",
"<. c #C5B794",
"1. c #D1B89F",
"2. c #CDA5A1",
"3. c #C7A9A6",
"4. c #D3ABA5",
"5. c #D5AEA9",
"6. c #D5B1AA",
"7. c #DABBAB",
"8. c #D5B9A5",
"9. c #C7B7B6",
"0. c #CBB2AE",
"q. c #ACC194",
"w. c #A7C79C",
"e. c #B7C896",
"r. c #BAD19E",
"t. c #A6CCA4",
"y. c #A5C9A7",
"u. c #ACD3A7",
"i. c #B3D3A3",
"p. c #B4DCAD",
"a. c #BBDCAB",
"s. c #BAD7A3",
"d. c #A8C9B9",
"f. c #ADD4B4",
"g. c #ADD1BC",
"h. c #B5DEB4",
"j. c #B6D6BB",
"k. c #BBE3B4",
"l. c #BCE5BA",
"z. c #BEE8BF",
"x. c #BBE0AF",
"c. c #C5C296",
"v. c #CCC49B",
"b. c #C8CC9C",
"n. c #C7D19F",
"m. c #D1C19F",
"M. c #CCCAA8",
"N. c #D8C8AA",
"B. c #C8D8A5",
"V. c #D3D4A4",
"C. c #DBD5AB",
"Z. c #DBDBAE",
"A. c #D5D8A9",
"S. c #C1C6BC",
"D. c #DCC8B2",
"F. c #C9D5BC",
"G. c #DCD8B3",
"H. c #E2D7B8",
"J. c #E0CBB4",
"K. c #D0E0AF",
"L. c #C6E7B8",
"P. c #DDE3B5",
"I. c #DDE9BB",
"U. c #D7E5BA",
"Y. c #C7E0AE",
"T. c #E2E5BC",
"R. c #9CA3C4",
"E. c #9FABC4",
"W. c #A6ABCC",
"Q. c #A6AAC7",
"!. c #A7B5C7",
"~. c #BEBEC2",
"^. c #BBBBCE",
"/. c #B3B4C8",
"(. c #A6AAD3",
"). c #AAAED4",
"_. c #ABAED9",
"`. c #AEB1DC",
"'. c #ADB8D5",
"]. c #B4BBDD",
"[. c #B7B9D8",
"{. c #B2B6E0",
"}. c #B5B9E3",
"|. c #BABCE4",
" X c #BCBDEB",
".X c #C0BFC0",
"XX c #ADC6C8",
"oX c #B7CAC7",
"OX c #B9D8C5",
"+X c #B7C7D8",
"@X c #BCD4D5",
"#X c #BCE3C2",
"$X c #BFC1EC",
"%X c #BCC4E5",
"&X c #C3C3C4",
"*X c #C5C5CA",
"=X c #CBCBCC",
"-X c #C6C9C3",
";X c #C5D8C7",
":X c #D2D6C8",
">X c #CECED2",
",X c #C4C4DB",
"<X c #C7C8D7",
"1X c #C4D9DB",
"2X c #D3D3D3",
"3X c #D5D5DA",
"4X c #DBDBDC",
"5X c #D0CFD2",
"6X c #C4EAC3",
"7X c #C8E8C6",
"8X c #D8EEC3",
"9X c #C5E1D4",
"0X c #E3EDC2",
"qX c #E4F0C6",
"wX c #C3C4EC",
"eX c #CBCCED",
"rX c #C7CBE5",
"tX c #C6D3E2",
"yX c #DDDDE3",
"uX c #D3D3EB",
"iX c #DBDBEB",
"pX c #D4D4E3",
"aX c #E2E2E4",
"sX c #E5E5EB",
"dX c #EAEAED",
"fX c #EEEEF0",
"gX c #F0F0F1",
"hX c None",
/* pixels */
"hXhXhXhXhXhXhXhXhXhXhXhXhXhXhXhXhXhXhXhXhXhXhXhXhXhXhXhXhXhXhXhXhXhXhXhXhXhXhXhXhXhXhXhXhXhXhXhXhXhXhXhXhXhXhXhXhXhXhXhXhXhXhXhX",
"hXhXhXhXhXhXhXhXhXhXhXhXhXhXhXhXhXhXhXhXhXhXhXhXhXhXhXhXhXhXhXhXhXhXhXhXhXhXhXhXhXhXhXhXhXhXhXhXhXhXhXhXhXhXhXhXhXhXhXhXhXhXhXhX",
"hXhXhXhXhXhXhXhXhXhXhXhXhXhXhXhXhXhXhXhXhXhXhX@.^ ^ _ _ o.O.#.$.9.&X9.9.0.0.3.| &X2XhXhXhXhXhXhXhXhXhXhXhXhXhXhXhXhXhXhXhXhXhXhX",
"hXhXhXhXhXhXhXhXhXhXhXhXhXhXhXhXhXhXhXhX^ 6 6 0 0 ^ ^ _ o.@.@.#.9.9.9.0.6.6.6.7.D.N.0.S.hXhXhXhXhXhXhXhXhXhXhXhXhXhXhXhXhXhXhXhX",
"hXhXhXhXhXhXhXhXhXhXhXhXhXhXhXhXhXhX< ; : 6 6 9 0 ^ ^ ^ _ @.@.@.#.9.0.0.5.4.5.6.7.J.H.H.G.S.hXhXhXhXhXhXhXhXhXhXhXhXhXhXhXhXhXhX",
"hXhXhXhXhXhXhXhXhXhXhXhXhXhXhXhX8 ; ; ; > : 6 6 9 0 ^ ^ _ _ o.@.O.O.3.5.5.5.4.6.7.J.H.H.0XqXI.F.hXhXhXhXhXhXhXhXhXhXhXhXhXhXhXhX",
"hXhXhXhXhXhXhXhXhXhXhXhXhXhXhX; . . o ; > : 5 6 9 0 ^ ^ ^ _ _ @.O.3.3.2.2.4.4.6.7.D.C.H.H.0XqXqX:X:XhXhXhXhXhXhXhXhXhXhXhXhXhXhX",
"hXhXhXhXhXhXhXhXhXhXhXhXhX0 X     . o ; ; > : 6 6 9 0 ^ ^ ( _ o.O.{ 3.2.2.2.4.6.7.D.C.Z.P.I.I.I.qX8X:XhXhXhXhXhXhXhXhXhXhXhXhXhX",
"hXhXhXhXhXhXhXhXhXhXhXhX9           . o ; ; : : 6 9 0 0 I ( ( _ { ] 3.] 4.2.4.6.7.N.C.Z.P.P.I.I.8X8X8X7XhXhXhXhXhXhXhXhXhXhXhXhX",
"hXhXhXhXhXhXhXhXhXhXhX6 . X         . . ; ; > : < 6 9 0 I I ( / ' ] ] -.&.2.2.8.8.N.C.Z.Z.P.P.I.I.8XL.8XF.hXhXhXhXhXhXhXhXhXhXhX",
"hXhXhXhXhXhXhXhXhXhX9 ; . .         X . o ; ; : : 6 6 0 0 I / ( ' ' l -.&.2.:.1.m.N.C.C.K.K.I.L.6X6X6X6X6XOX5XhXhXhXhXhXhXhXhXhX",
"hXhXhXhXhXhXhXhXhX0 > ; ; .             . ; ; > : < 6 9 0 I I / ' ' ] *.*.&.:.1.m.V.A.V.K.K.L.L.z.z.#X6X7X7XOXhXhXhXhXhXhXhXhXhX",
"hXhXhXhXhXhXhXhXY : : ; ; o .           . . ; ; > : < 8 9 0 g I I l l *.*.*.>.1.m.v.A.B.K.Y.x.k.k.l.z.6X7X9X1X+XhXhXhXhXhXhXhXhX",
"hXhXhXhXhXhXhX^ 6 6 : > ; o . .           . . ; > : : 6 9 9 g g I h z k &.&.>.,.v.V.n.n.B.a.x.k.k.l.#X#X9X1X@XtX/.hXhXhXhXhXhXhX",
"hXhXhXhXhXhX( 0 6 6 : : ; ; o .           . . ; ; > : 6 8 9 0 d s h z k &.=.>.,.v.b.n.n.a.a.x.p.h.l.#X@X1XtXtXwX%X .hXhXhXhXhXhX",
"hXhXhXhXhXo.I 0 9 6 6 : : ; ; o X         X . o ; ; : : < 7 7 j s z z z &.=.>.,.c.b.n.r.s.p.p.p.f.OXOX@X+XtXwXwX$X}.@.hXhXhXhXhX",
"hXhXhXhXhX^ ^ 0 0 9 6 6 > > ; o o X           . o ; ; : 6 6 7 7 j s u z k B >.G e.e.r.r.u.u.f.f.OXXXOX+X|. X$X$X$X$X/.hXhXhXhXhX",
"hXhXhXhXI _ ^ ^ 0 9 6 6 < > ; ; o . .         . . ; ; : : : 6 7 j s u z p B Z G e.e.i.r.u.y.f.d.XXXX+X+X|. X X$X$X$XwXI hXhXhXhX",
"hXhXhXhX( _ ( ^ g 0 9 6 6 : > ; o . .           . o ; > : : 6 1 t t u u p B Z G q.e.t.t.t.f.d.XX'.XX`.{. X X$XwXwXeXeX[.hXhXhXhX",
"hXhXhX9 @._ _ ) ^ g 0 9 6 : : > ; o .           . . o ; : : : 6 t t r a V V Z Z q.C n y.y.+.! !.'._.`.{.}. X$XwXeXeXeXuXhXhXhXhX",
"hXhXhX_ @._ _ _ ^ ^ 0 9 6 < : > ; ; o .         X   o ; ; > < < 1 t e y V N C C F F T T +.! +.!.(._.`.{.|. XwXeXuXiXiXuX^.hXhXhX",
"hXhX7 #.#.@._ _ ` ^ 0 0 9 6 6 : > ; ; .           X . o > < 9 d f f N y y N C F F n R R ! ! E.).(._.`.].|.wXwXuXuXiXsXsXaXhXhXhX",
"hXhXb .X#.@.@._ _ ^ ^ 0 9 q 6 : : ; ; . .           ; 6 S I / / / [ [ [ S C M m m T R Q Q E.Q.).)._.`.|..XrXuXiXiXfXfXfXdX_ hXhX",
"hX@.@.$.$.#.@.@._ ^ ^ ^ 0 9 6 6 : : ; ; .         > 9 g K I ^ g h ' [ [ | | S m v ~ U Q W R.W.W.'.'.+X+XeXuXpXiXsXdXfXfXfX=XhXhX",
"hX6 &X~.9.$.%.@._ ( ) ^ 0 0 6 6 5 : > ; o . X   : 9 9 0 6 6 g _ _ A S S S | } ` v U U E W Q.Q.W./.[.<X<X<XpXyXaXsXsXgXgXgXsX^ hX",
"hX6 *X&XoX$.#.@.@._ ( ^ ^ 0 0 6 5 > > ; ; . . > 9 6 6 > hXhXhXhXhXhXhX( b ( } } Q K P E W Q.../.^.^.*X<X5X4XpXyXsXdXdXgXgXgX6 hX",
"hX^ =X&X.X9.$.%.@. ._ ` ^ 0 0 9 6 6 : > ; ; ; 0 9 < ; hXhXhXhXhXhXhXhXhXhXq _ +...Y L E X...Q./.^..X=X<X5X4X4XyXaXsXdXgXgXgX@.hX",
"$.#.=X-X&XoX$.#.#.o._ _ ^ ^ ^ 9 6 6 < : > ; 9 0 9 ; hXhXhXhXhXhXhXhXhXhXhXhX9 X...o.Y E  ...%./.~.*X*X>X5X2X4X4XyXsXdXdXgXgX&XhX",
"$.$.=X=X*X&X9.~.#.@.o._ ^ ^ ^ 9 9 6 < : > : K g : 6 hXhXhXhXhXhXhXhXhXhXhXhX9 Y ..@.) X.X.@.%.#.~..X*X=X5X:X3X4XaXaXaXdXfXgX2X$.",
"_ *X2X=X-X*X.XoX$.@.@._ _ ( ^ 0 9 8 6 < : 9 I S ; hXhXhXhXhXhXhXhXhXhXhXhXhXhX8 ..o. .) _  .#.$.~..X&X=X5X5X2X4X4XaXaXsXdXgX4Xo.",
"S =X2X>X=X*X*X9.$.#.#.o._ _ ^ I b 7 9 6 : K ^ 0 > hXhXhXhXhXhXhXhXhXhXhXhXhXhX6  .@.@.( _ o.@.#.$..X&X*X=X5X2X3X4X4XaXsXdXfXyX_ ",
"^ 3X2X2X=X=X&X&X$.$.#.@._ _ ( ^ I K 7 6 < ^ ^ g > hXhXhXhXhXhXhXhXhXhXhXhXhXhX6 ) @.o.^ _ _ o.#.$.$..X*X*X>X:X:X4X4XaXaXsXdX4XS ",
"( 2X4X2X2X=X-X&X&X$.$.#.o. ._ ^ I 0 9 8 6 ^ ^ 0 > hXhXhXhXhXhXhXhXhXhXhXhXhXhX6 (  .@.^ ^ _ o.o.%.$..X.X&X=X5X5X2X4X4XyXaXsX4XA ",
"^ 2X4X2X2X=X=X*X&X$.$.%.@.o._ ( ^ I 0 7 6 ^ ) ^ > hXhXhXhXhXhXhXhXhXhXhXhXhXhX6 ( @._ ^ ^ _ o.o.@.$.$..X&X=X=X5X2X2X4XaXaXdX4X_ ",
"_ 2X4X2X2X2X=X=X&X&X~.$.@.o. .( ^ ^ 0 0 5 K X.) : hXhXhXhXhXhXhXhXhXhXhXhXhXhX6 _ _ ) g ^ ^  .o.@.@.$..XoX&X=X5X2X2X4X4XyXaX2Xo.",
"$.=XaX4X3X2X2X=X*X&X9.$.$.%. ._ X.I K K 4 8 Y ) 5 6 hXhXhXhXhXhXhXhXhXhXhXhX9 9 _ _ g 0 b ^ ( _ o.@.#.$.9.&X&X=X5X2X2X4X4XaX*X$.",
"&X&XyX4X4X2X2X=X=X&XS.$.$.o.o._ X.I L K H 4 K X.Y : hXhXhXhXhXhXhXhXhXhXhXhX< ^ _ ^ 9 0 g ^ ^ ( _ @.@.#.$.&X&X*X=X5X2X4X4XaX$.hX",
"hX@.aXaX4X3X2X2X=X*X&X~./.%... .E P K J H 4 4 Y ^ b : hXhXhXhXhXhXhXhXhXhX: 0 ) ` q 6 9 0 K ^ ( _ o.@.#.$.$.&X&X=X=X2X2X4X4X_ hX",
"hX0 aXaX4X4X2X2X>X*X&X~.#...Q.P P P L H H H 4 8 ` S b < hXhXhXhXhXhXhXhX> 7 ^ ^ 0 : < 9 7 0 ^ ^ ( _ o.@.#.$.9.&X-X=X5X2X3X4X6 hX",
"hXq aXaXyX4X3X>X<X*X,X/./.Q.Q.W P P P H H 4 5 5 b ` S S 7 2 3 9 0 < o : 0 I b 9 > : < 6 9 0 0 ^ ) _ o.@.#.$.~.oX&X=X=X2X2X2X^ hX",
"hX$.=XaXyXyXpX<X<X+X^././.Q.R.R.W P L J J 5 w w x x S S A g d t 7 7 6 7 8 0 6 o ; : : 6 6 9 0 g ^ _ _ @.@.#.$.$.&X*X=X5X5X$.S.hX",
"hXhX_ sXaXyXpX<X,X[.[.W.(.R.R.W P P J U J v v x x = c N A A f f d 9 7 8 : o . o ; ; > 5 6 6 9 Y S ^ _ _ @.@.$.$.j.&X*X>X5X^ hXhX",
"hXhX6 aXiXpXpX,X}.]._._.(.(.R.W P P J ~ v v x x = = % % % & t 1 1 > o       . . ; ; > > 6 6 9 0 K ^ ^ _ _ @.#.$..X~..X=X*X^ hXhX",
"hXhXS.^.iXpXrX|.}.`._.(.(.R.R.R.R.P U ~ m M c M = = - * # $ + O O X X         X . ; ; > : 6 6 9 0 g ^ _ _ @.@.#.9.~..X=X@.hXhXhX",
"hXhXhX6 iXeXwX|.{.`._.(.(.E.E.E.Q R n m m m M M N - - * , # + + O X X X         . ; ; ; : 5 6 6 0 g ^ ^ _ _ @.#.$.$.&X&X^ hXhXhX",
"hXhXhX#.^.eXwX X{.`._._.(.E.!.! R T n n m M M C - - * * # # + + O o X X         X . ; ; > > 6 6 9 0 I ^ ^ _ @.@.#.$.$.@.hXhXhXhX",
"hXhXhXhX7 eX$X X{.`._._.'.!.E.R T T n n q.= q.- V - a * e + # + O O . .         X . o ; > > : 6 6 9 0 ^ ^ _ _ @.@.#.$.( hXhXhXhX",
"hXhXhXhX=X/.wX X%X{.{.XX!.!.d.y.y.y.n w.q.q.q.q.- &.* * e + # # > o o .         X X o o ; > : 6 6 9 0 I ^ ( _ _ @.#.@.hXhXhXhXhX",
"hXhXhXhXhX_ rXwXwX+X+XXXXXd.f.y.t.t.t.w.q.q.G - - >.* * e # # # > ; ; . .         . . o ; ; : : 6 6 9 K I ^ _ _ o.@.$.hXhXhXhXhX",
"hXhXhXhXhXhXK eXtX,X+XoXXXf.u.t.t.t.w.e.e.e.G c.c.- &.* e # # , 2 ; ; o .             . o ; > : < 6 9 0 0 ^ ^ _ _ #.hXhXhXhXhXhX",
"hXhXhXhXhXhX2X%.tX1X@XOXf.f.u.u.u.i.r.r.e.e.c.c.V &.a * e e , , < > ; ; ; .           . o o ; : < < 7 9 0 ^ ^ ( #.hXhXhXhXhXhXhX",
"hXhXhXhXhXhXhX*XoX3XOX#Xk.p.f.u.i.i.r.r.c.c.c.- B &.* &.e e , 1 < > : ; ; . .           . o ; ; : : 6 6 9 d Y #.hXhXhXhXhXhXhXhX",
"hXhXhXhXhXhXhXhX$.oX9X#Xl.h.p.p.a.r.r.n.b.v.c.<.=.a i r & &.t 1 1 < : > ; o . .         . . ; ; > : < 6 q 0 _ hXhXhXhXhXhXhXhXhX",
"hXhXhXhXhXhXhXhXhX$.F.7Xz.k.k.p.a.B.n.n.b.v.,.>.=.p &.* r e t 1 6 < : > ; ; o .           . . ; ; > : < 6 ( hXhXhXhXhXhXhXhXhXhX",
"hXhXhXhXhXhXhXhXhXhX=Xj.6XL.l.Y.Y.B.V.V.V.c.v.>.=.p i i i e e j 7 6 < : > ; o .             . o ; > : < ^ hXhXhXhXhXhXhXhXhXhXhX",
"hXhXhXhXhXhXhXhXhXhXhX:X;X7XL.L.K.A.V.V.V.v.,.>.=.&.&.a i u u s 9 6 6 < : > ; .             . o ; ; > Y hXhXhXhXhXhXhXhXhXhXhXhX",
"hXhXhXhXhXhXhXhXhXhXhXhXhX-X7XI.P.K.Z.A.V.v.,.>.&.&.i i i i f f 7 9 6 < : > > ; . . X         . . > ^ hXhXhXhXhXhXhXhXhXhXhXhXhX",
"hXhXhXhXhXhXhXhXhXhXhXhXhXhX4XF.P.H.Z.C.N.N.M.:.;.&.&.&.z z h h d 0 9 6 < : > ; ; .           . > hXhXhXhXhXhXhXhXhXhXhXhXhXhXhX",
"hXhXhXhXhXhXhXhXhXhXhXhXhXhXhXhX-XF.H.G.C.N.8.:.2.&.&.&.z z A I g 0 9 9 6 : > ; ; o .       X 6 hXhXhXhXhXhXhXhXhXhXhXhXhXhXhXhX",
"hXhXhXhXhXhXhXhXhXhXhXhXhXhXhXhXhXhX$.M.N.D.6.4.4.&.*.*.l ' h / ^ g 0 9 6 6 : > ; ; . .   : hXhXhXhXhXhXhXhXhXhXhXhXhXhXhXhXhXhX",
"hXhXhXhXhXhXhXhXhXhXhXhXhXhXhXhXhXhXhXhX*X[ O.6.4.2.-.-.] ] ' / ^ ^ 0 0 6 6 < : > : : hXhXhXhXhXhXhXhXhXhXhXhXhXhXhXhXhXhXhXhXhX",
"hXhXhXhXhXhXhXhXhXhXhXhXhXhXhXhXhXhXhXhXhXhXhX%.I z l ] ] ] ' _ ( ^ ^ 0 Y g ^ ^ hXhXhXhXhXhXhXhXhXhXhXhXhXhXhXhXhXhXhXhXhXhXhXhX",
"hXhXhXhXhXhXhXhXhXhXhXhXhXhXhXhXhXhXhXhXhXhXhXhXhXhXhXhXhXhXhXhXhXhXhXhXhXhXhXhXhXhXhXhXhXhXhXhXhXhXhXhXhXhXhXhXhXhXhXhXhXhXhXhX",
"hXhXhXhXhXhXhXhXhXhXhXhXhXhXhXhXhXhXhXhXhXhXhXhXhXhXhXhXhXhXhXhXhXhXhXhXhXhXhXhXhXhXhXhXhXhXhXhXhXhXhXhXhXhXhXhXhXhXhXhXhXhXhXhX"
};
