/* XPM */
static char *result[] = {
/* columns rows colors chars-per-pixel */
"64 64 228 2 ",
"   c #747474",
".  c #787777",
"X  c #7C7B7B",
"o  c #817E7D",
"O  c #897F7C",
"+  c #907F7A",
"@  c #86817E",
"#  c #93827C",
"$  c #9A847C",
"%  c #9E8B7B",
"&  c #9D9B7D",
"*  c #A28A7D",
"=  c #A5987D",
"-  c #848383",
";  c #898786",
":  c #8C8B8B",
">  c #918E8E",
",  c #9C8E8A",
"<  c #978884",
"1  c #9B928F",
"2  c #9E9A81",
"3  c #908F90",
"4  c #8B999A",
"5  c #949393",
"6  c #999595",
"7  c #95979B",
"8  c #989798",
"9  c #9C9B9B",
"0  c #989B9A",
"q  c #8D9690",
"w  c #A48B84",
"e  c #AA8E87",
"r  c #AD9283",
"t  c #A1918E",
"y  c #AA938D",
"u  c #AB9B86",
"i  c #B3938B",
"p  c #B3998B",
"a  c #BA9A8C",
"s  c #B6998A",
"d  c #A39593",
"f  c #AE9692",
"g  c #A49A94",
"h  c #A29D9D",
"j  c #A99C98",
"k  c #B39994",
"l  c #BD9B93",
"z  c #BA9E9B",
"x  c #B49C98",
"c  c #97A688",
"v  c #97A798",
"b  c #9BB79A",
"n  c #91A78F",
"m  c #A9A788",
"M  c #BCA38E",
"N  c #BAAB8C",
"B  c #B4A789",
"V  c #A9B58C",
"C  c #B7B78E",
"Z  c #ACA49E",
"A  c #A6A799",
"S  c #B3A29E",
"D  c #B5A79C",
"F  c #A5B798",
"G  c #BBBD91",
"H  c #B2BD90",
"J  c #8B93A3",
"K  c #8E95AA",
"L  c #8D9AA5",
"P  c #9C9DA4",
"I  c #9398A7",
"U  c #949BB5",
"Y  c #959BB3",
"T  c #A09FA0",
"R  c #9DA2A4",
"E  c #96A6A9",
"W  c #9BB6A5",
"Q  c #97A4B3",
"!  c #9CA2B3",
"~  c #9CA3BD",
"^  c #9BACB7",
"/  c #9EB3B6",
"(  c #A4A3A4",
")  c #ABA5A3",
"_  c #A4A5AA",
"`  c #A8A7A8",
"'  c #ABABAC",
"]  c #A6ACA5",
"[  c #B4A4A4",
"{  c #BBA3A2",
"}  c #B4ABAC",
"|  c #B9AEAF",
" . c #A4B5A8",
".. c #A5A9B3",
"X. c #ACADB2",
"o. c #ACADBB",
"O. c #A3A6B5",
"+. c #B0AFB0",
"@. c #A2B8B9",
"#. c #B4B3B4",
"$. c #B5B5BC",
"%. c #B8B7B8",
"&. c #BCBBBC",
"*. c #BCB4B5",
"=. c #BEB0AD",
"-. c #C29E94",
";. c #C09F9B",
":. c #C3A394",
">. c #C4AA94",
",. c #C4A19C",
"<. c #CAA59D",
"1. c #CDA89F",
"2. c #C4B493",
"3. c #CDB39B",
"4. c #CDBF9B",
"5. c #C5B895",
"6. c #D0B39F",
"7. c #CDA8A4",
"8. c #C6A9A6",
"9. c #D2AAA6",
"0. c #D4AEA9",
"q. c #CAB0AB",
"w. c #CBB2A7",
"e. c #D4B1A5",
"r. c #D3B3AB",
"t. c #DABDAB",
"y. c #D3BDA6",
"u. c #C8B7B5",
"i. c #ABC599",
"p. c #A8C59B",
"a. c #B4CB9B",
"s. c #B9C696",
"d. c #B6D19F",
"f. c #A7CAA7",
"g. c #ADD2AA",
"h. c #BBD5A2",
"j. c #B4DAAC",
"k. c #B8D9A9",
"l. c #A9C8B9",
"z. c #AED3B9",
"x. c #B5DDB3",
"c. c #B3DAB9",
"v. c #BAE1B4",
"b. c #BDE5BB",
"n. c #C3C396",
"m. c #CCC29B",
"M. c #CBCC9E",
"N. c #C5CA9B",
"B. c #D3CCA4",
"V. c #DCCCAC",
"C. c #D4C3A5",
"Z. c #CCD4A3",
"A. c #C5D9A7",
"S. c #D4DCAC",
"D. c #D7D7AA",
"F. c #CEC7B9",
"G. c #D6C7B3",
"H. c #DDD9B1",
"J. c #D6D8B8",
"K. c #E0D7B6",
"L. c #C6E5B8",
"P. c #D9E5B8",
"I. c #C6E0AE",
"U. c #E0E6BB",
"Y. c #9EA6C5",
"T. c #A4A9C3",
"R. c #A4ACCB",
"E. c #A6AAC9",
"W. c #A7B6C6",
"Q. c #B2B3C3",
"!. c #BDBDC2",
"~. c #B3B5CC",
"^. c #BCBDCE",
"/. c #A9AED2",
"(. c #AAADD7",
"). c #ABB2D3",
"_. c #AEB2D9",
"`. c #ADBBD2",
"'. c #B5B7D4",
"]. c #BCBDD5",
"[. c #B2B5DE",
"{. c #BBBCDA",
"}. c #B3BADB",
"|. c #B6BAE4",
" X c #BBBDE4",
".X c #B9BCE7",
"XX c #C0BFC0",
"oX c #AEC6C9",
"OX c #B8C7C9",
"+X c #B7DAC4",
"@X c #B8C7D8",
"#X c #BBD5D1",
"$X c #BEE3C3",
"%X c #BEC1EB",
"&X c #BCC3E3",
"*X c #C3C3C4",
"=X c #C5C6C9",
"-X c #CACACB",
";X c #C0CBC4",
":X c #C4DDC4",
">X c #C5D6C8",
",X c #D4DDC7",
"<X c #C4C5D3",
"1X c #CECED2",
"2X c #C3C4DE",
"3X c #C7CBDB",
"4X c #C2D6D8",
"5X c #D3D3D4",
"6X c #D5D5DA",
"7X c #DBDBDC",
"8X c #C3E5C2",
"9X c #C6E8C5",
"0X c #D8E9C3",
"qX c #C2E0D1",
"wX c #E1ECC0",
"eX c #C2C4E6",
"rX c #CCCCE3",
"tX c #C2C4EB",
"yX c #C7CCEA",
"uX c #CFD0EB",
"iX c #D3D3E4",
"pX c #DCDCE2",
"aX c #D8D8EC",
"sX c #E2E2E4",
"dX c #E4E4EA",
"fX c #EBEBED",
"gX c #EFEFF0",
"hX c None",
/* pixels */
"hXhXhXhXhXhXhXhXhXhXhXhXhXhXhXhXhXhXhXhXhXhXhXhXhXhXhXhXhXhXhXhXhXhXhXhXhXhXhXhXhXhXhXhXhXhXhXhXhXhXhXhXhXhXhXhXhXhXhXhXhXhXhXhX",
"hXhXhXhXhXhXhXhXhXhXhXhXhXhXhXhXhXhXhXhXhXhXhXhXhXhXhXhXhXhXhXhXhXhXhXhXhXhXhXhXhXhXhXhXhXhXhXhXhXhXhXhXhXhXhXhXhXhXhXhXhXhXhXhX",
"hXhXhXhXhXhXhXhXhXhXhXhXhXhXhXhXhXhXhXhXhXhXhXhX-XF.q.q.u.u.u.!.u.$.#.' ( ( ( hXhXhXhXhXhXhXhXhXhXhXhXhXhXhXhXhXhXhXhXhXhXhXhXhX",
"hXhXhXhXhXhXhXhXhXhXhXhXhXhXhXhXhXhXhXhXhXhXhXF.G.G.r.r.0.u.u.u.$.#.' ' ( ( 9 6 7 hXhXhXhXhXhXhXhXhXhXhXhXhXhXhXhXhXhXhXhXhXhXhX",
"hXhXhXhXhXhXhXhXhXhXhXhXhXhXhXhXhXhXhXhXhXJ.H.H.G.t.t.9.0.0.u.| #.+.' ` ( 9 9 5 5 : : hXhXhXhXhXhXhXhXhXhXhXhXhXhXhXhXhXhXhXhXhX",
"hXhXhXhXhXhXhXhXhXhXhXhXhXhXhXhXhXhXhXhX,XU.U.H.V.t.0.0.9.0.u.| #.+.' ( T 9 5 5 : - - - hXhXhXhXhXhXhXhXhXhXhXhXhXhXhXhXhXhXhXhX",
"hXhXhXhXhXhXhXhXhXhXhXhXhXhXhXhXhXhX,X0XU.U.U.H.V.t.0.9.9.7.8.| +.' ` ( 9 9 5 : ; - o o o hXhXhXhXhXhXhXhXhXhXhXhXhXhXhXhXhXhXhX",
"hXhXhXhXhXhXhXhXhXhXhXhXhXhXhXhXhX,X0XwXwXU.U.H.V.t.0.9.7.8.{ | } ' ( h 9 8 5 : : - X . . - 5 hXhXhXhXhXhXhXhXhXhXhXhXhXhXhXhXhX",
"hXhXhXhXhXhXhXhXhXhXhXhXhXhXhXhXhX0X0XwXU.P.U.D.V.t.e.7.,.8.{ [ ' ` ( 9 8 5 : : - o X     X - hXhXhXhXhXhXhXhXhXhXhXhXhXhXhXhXhX",
"hXhXhXhXhXhXhXhXhXhXhXhXhXhXhXhX9XL.9XP.P.P.S.D.B.t.6.1.,.8.{ [ ) ( ( 9 7 5 : : - X .       X : hXhXhXhXhXhXhXhXhXhXhXhXhXhXhXhX",
"hXhXhXhXhXhXhXhXhXhXhXhXhXhXhX:X9X9X9XL.L.P.I.S.V.C.6.1.,.;.{ [ ` T 9 9 7 : : - o X .       X - : hXhXhXhXhXhXhXhXhXhXhXhXhXhXhX",
"hXhXhXhXhXhXhXhXhXhXhXhXhXhX>XqX9X9XL.b.L.P.S.S.B.4.6.1.,.;.z ) T A 9 6 5 : ; - X .       X X - : 8 hXhXhXhXhXhXhXhXhXhXhXhXhXhX",
"hXhXhXhXhXhXhXhXhXhXhXhXhXhX4X>XqX9X$Xb.v.I.A.Z.B.m.3.1.-.z S [ T h 8 5 3 : ; o X .       X - - : 5 hXhXhXhXhXhXhXhXhXhXhXhXhXhX",
"hXhXhXhXhXhXhXhXhXhXhXhXhX@X4X4X#X$X$Xb.v.I.A.A.M.m.3.>.z l x j h h 6 5 3 ; - X X       . X - - : 8 9 hXhXhXhXhXhXhXhXhXhXhXhXhX",
"hXhXhXhXhXhXhXhXhXhXhXhX`.&XyXyX#X$Xc.v.v.k.A.A.M.m.5.>.-.l x j d 8 6 3 : - - X         X - - : : 5 9 ( hXhXhXhXhXhXhXhXhXhXhXhX",
"hXhXhXhXhXhXhXhXhXhXhXQ.{.%XyX@X@X#X+Xv.j.k.h.d.N.m.5.>.-.k k d h 6 3 > ; - X X         X - - q 5 8 9 ( ' hXhXhXhXhXhXhXhXhXhXhX",
"hXhXhXhXhXhXhXhXhXhXhX|..X%X%XtX%X@XoXc.z.g.g.h.s.n.5.>.M p f f 8 5 3 : - - X         X o - : : 5 8 9 ( ( hXhXhXhXhXhXhXhXhXhXhX",
"hXhXhXhXhXhXhXhXhXhXhXXXtX%X%X.X|.@XoXoXz.f.g.d.a.G G N M p y d 6 5 : : - X X       X X - ; : 5 8 9 R ( ` hXhXhXhXhXhXhXhXhXhXhX",
"hXhXhXhXhXhXhXhXhXhXhXeXtXtXtX%X|.}.`.W.l.l.f.p.i.i.C N s p y d 1 3 : - - X         X o - ; 3 5 8 9 ( ( ' ` hXhXhXhXhXhXhXhXhXhX",
"hXhXhXhXhXhXhXhXhXhXrXuXuXtXtX%X|.[._.`.W./ f.f.p.H H C B p y , , > : - X X         X o ; : : 8 9 A ( ' ' ' hXhXhXhXhXhXhXhXhXhX",
"hXhXhXhXhXhXhXhXhXhXpXaXaXuXtXtX|._._.).W./ @.W F F V m B u y 1 1 > ; - X X       X X - ; : 5 6 9 ( ` ' +.} hXhXhXhXhXhXhXhXhXhX",
"hXhXhXhXhXhXhXhXhXhXpXdXaXaXuXeX X[._./.Y./ / W b b F V m p A j 8 6 3 - X .       X - - : 5 7 9 P ( ' ' #.#.' hXhXhXhXhXhXhXhXhX",
"hXhXhXhXhXhXhXhXhX5XdXfXdXaXiXrX2X}._.).R.Y./ ^ E b F V Z D D Z ) T 8 3 -       X X - : : 5 8 9 ( ( ' #.$.%.+.hXhXhXhXhXhXhXhXhX",
"hXhXhXhXhXhXhXhXhXiXdXgXfXdXiXiX3X{.`.).R.Y.^ Q E W A ] F D Z Z ) T 9 8 q X   X X - - : : 8 9 T ( ` +.#.%.&.#.+.hXhXhXhXhXhXhXhX",
"hXhXhXhXhXhXhXhXl.pXgXgXfXsXpXiX3X2X].~.E.T.~ Q Q R  .] ] Z A [ ( 9 6 8 5 : X X X - : : 5 7 9 P ( ' #.#.u.XX&.' hXhXhXhXhXhXhXhX",
"hXhXhXhXhXhXhXhXXXsXgXgXfXsX7X6X5X<XXX~.Q.T.O.Q Q E  .] ] A hXhXhXhXhX5 5 5 : X o ; : q 5 9 A ( ' ' #.%.!.XXl.' hXhXhXhXhXhXhXhX",
"hXhXhXhXhXhXhXhX-XsXgXfXfXsX7X7X5X<XXX].Q.o.O.! ! ..' ] hXhXhXhXhXhXhXhX: 5 5 ; - ; : 5 7 9 ( ( ' } #.&.XX*X*X#.hXhXhXhXhXhXhXhX",
"hXhXhXhXhXhXhXhX1XdXfXfXsX7X7X5X1X-XXX^.Q.o.O.O....._ v hXhXhXhXhXhXhXhX: 5 7 3 ; : : 5 8 9 ( ` ' #.%.&.*X=X*X&.hXhXhXhXhXhXhXhX",
"hXhXhXhXhXhXhXhX5XfXfXfXsX7X7X5X1X-X*X!.$.#.....X.X.R hXhXhXhXhXhXhXhXhXhX3 9 8 : : 5 8 9 v ` ' +.#.&.!.*X-X-X!.hXhXhXhXhXhXhXhX",
"hXhXhXhXhXhXhXhX5XsXfXfXsX7X5X5X-X=X*X!.$.#.' ..X...P hXhXhXhXhXhXhXhXhXhX3 8 9 5 > 8 8 T ( ` ' #.%.&.*X=X-X-XF.hXhXhXhXhXhXhXhX",
"hXhXhXhXhXhXhXhX5XfXsXsX7X7X5X-X-X*XXX&.#.#.' X.X.' P hXhXhXhXhXhXhXhXhXhX: 9 9 8 3 8 9 T ( ' } #.&.&.*X=X-X1X*XhXhXhXhXhXhXhXhX",
"hXhXhXhXhXhXhXhX5XsXsXsX7X7X5X-X-XXXu.$.#.' ` ' +.` 9 hXhXhXhXhXhXhXhXhXhX: 9 R 9 5 8 9 ( ` ' #.#.&.*X=X-X1X5X=XhXhXhXhXhXhXhXhX",
"hXhXhXhXhXhXhXhX-XsXsXsX7X5X1X-X=X*X&.#.#.' ` ' X.( 9 hXhXhXhXhXhXhXhXhXhX3 9 T 9 6 9 T T ' +.#.$.XX*X-X-X5X5X-XhXhXhXhXhXhXhXhX",
"hXhXhXhXhXhXhXhX-XsXsX7X5X5X-X=X*X&.&.#.' ' ( ( ' ( 9 hXhXhXhXhXhXhXhXhXhXq P P 8 7 9 T ` +.+.%.&.*X*X-X5X5X5X-XhXhXhXhXhXhXhXhX",
"hXhXhXhXhXhXhXhX-XsX7X7X5X5X-X=X&.&.%.#.' ' ( ( ' ( 9 hXhXhXhXhXhXhXhXhXhX5 P P P 7 T T ` X.+.*.u.*X=X-X1X5X5X-XhXhXhXhXhXhXhXhX",
"hXhXhXhXhXhXhXhX-X7X7X7X5X-X=XOX&.&.#.' ' ( ( 9 ( ` 9 hXhXhXhXhXhXhXhXhXhXI P P J I P O.' +.$.&.OX*X-X1X5X7X7X-XhXhXhXhXhXhXhXhX",
"hXhXhXhXhXhXhXhX*X6X7X5X1X-X*X!.&.%.#.' ' ( 9 9 ( ( 9 8 hXhXhXhXhXhXhXhX5 0 E I J J I T ..#.$.&.*X=X-X1X6X7X7X=XhXhXhXhXhXhXhXhX",
"hXhXhXhXhXhXhXhXu.5X6X5X1X=X*XF.&.#.' ' ( 9 9 8 9 h R 8 hXhXhXhXhXhXhXhX8 R P J J K Y ! O.X.$.!.*X=X1X5X7X7X6X*XhXhXhXhXhXhXhXhX",
"hXhXhXhXhXhXhXhX#.-X5X,X-X=XOX&.#.#.' ' ( P 8 5 5 9 9 9 5 hXhXhXhXhXhX9 v v 0 J J K Y U O.o.W.Q.*X<X1X5X7X7X7X&.hXhXhXhXhXhXhXhX",
"hXhXhXhXhXhXhXhX%.-X5X-X-X*Xu.&.#.#.' ( A 9 8 5 : : 8 9 6 > > 6 6 t 6 A A v 4 4 J K Y U ~ T.W.`.XX3X1X6X7XsX5X&.hXhXhXhXhXhXhXhX",
"hXhXhXhXhXhXhXhX&.*X-X-X=X*X&.%.#.' ' ( 9 9 5 > : - : q 7 5 5 6 g g g A b n n 4 4 L Q U Y.Y.Y.(.{.2X3X6XpXpX1X&.hXhXhXhXhXhXhXhX",
"hXhXhXhXhXhXhXhXhX&.-X=X*XF.&.#.#.' ( ( 9 8 5 > ; - - - : : 5 6 g g g m n & & n 4 L L U U Y.Y.(.[.XX3X6XpXpX=XhXhXhXhXhXhXhXhXhX",
"hXhXhXhXhXhXhXhXhX%.*X=XOX&.&.#.' ` ( 9 0 5 3 : - - X . X o ; < , 1 2 2 & n n n n L Q U Y.Y.Y.(._.{.2XrXiX6X!.hXhXhXhXhXhXhXhXhX",
"hXhXhXhXhXhXhXhXhXhX&.*Xu.$.#.#.' ` ( 9 8 5 : ; - X X       o O # $ % % & & & n b E Q ^ Y.Y.Y.(.(.[. XrXiX3X&.hXhXhXhXhXhXhXhXhX",
"hXhXhXhXhXhXhXhXhXhX&.&.&.&.#.' ' ( v 0 5 3 : - o X .       . O # $ * * = & & V b b W W Y.Y.R.(.(.[.|.eXrX^.hXhXhXhXhXhXhXhXhXhX",
"hXhXhXhXhXhXhXhXhXhX#.&.&.#.#.' ` T T 0 5 > : - @ .         O O + $ * = = & i.& b b b W / @.Y.(.(.|.|.tXeX!.hXhXhXhXhXhXhXhXhXhX",
"hXhXhXhXhXhXhXhXhXhXhX#.%.#.+.' ( T 0 5 3 : - - X .       . X @ # $ * = = = s.i.b b b b l.@.W.`._.[..X%X{.$.hXhXhXhXhXhXhXhXhXhX",
"hXhXhXhXhXhXhXhXhXhXhX#.#.#.' ` T 9 8 5 : : - o .       . o o # # $ * = N C & s.b p.f.f.f.@.W.`.[. X X X^.hXhXhXhXhXhXhXhXhXhXhX",
"hXhXhXhXhXhXhXhXhXhXhX#.#.#.' ( 9 9 8 5 : - - X         X o - ; + + * * = N = C i.i.p.p.f.l.l.oX@X@XeX{.Q.hXhXhXhXhXhXhXhXhXhXhX",
"hXhXhXhXhXhXhXhXhXhXhXhX#.' ` ( 9 8 5 : : - X X       . X o - < e i * = N C n.G s.a.g.f.g.z.z.oX@X3X2X^.hXhXhXhXhXhXhXhXhXhXhXhX",
"hXhXhXhXhXhXhXhXhXhXhXhXhX+.` v 9 8 5 : - - X X       X o - - < w w * -.a N C G s.s.d.g.g.g.z.+X#X3X@XXXhXhXhXhXhXhXhXhXhXhXhXhX",
"hXhXhXhXhXhXhXhXhXhXhXhXhXhX` T 9 5 : : - - X         X - - : > w e * = a N 2.n.n.a.d.h.g.g.x.+X+X4X=XhXhXhXhXhXhXhXhXhXhXhXhXhX",
"hXhXhXhXhXhXhXhXhXhXhXhXhXhX' T 8 5 : - - X         X X - ; : , t e e i s M 2.5.N.N.h.h.k.x.v.b.:X;XhXhXhXhXhXhXhXhXhXhXhXhXhXhX",
"hXhXhXhXhXhXhXhXhXhXhXhXhXhXhXT 9 : : - o .         X - - : > 6 t e i i s :.2.m.M.M.A.A.x.x.L.$X>X;XhXhXhXhXhXhXhXhXhXhXhXhXhXhX",
"hXhXhXhXhXhXhXhXhXhXhXhXhXhXhXhX7 5 ; - X X       X X - : : 5 6 t f i i -.:.5.m.M.Z.A.I.I.L.L.:X>XhXhXhXhXhXhXhXhXhXhXhXhXhXhXhX",
"hXhXhXhXhXhXhXhXhXhXhXhXhXhXhXhXhX5 ; - X         X o - : : 5 6 d f i -.-.:.5.m.B.Z.Z.S.P.L.:X>XhXhXhXhXhXhXhXhXhXhXhXhXhXhXhXhX",
"hXhXhXhXhXhXhXhXhXhXhXhXhXhXhXhXhXhX: - .       . X - : : 5 6 6 d k i -.-.-.1.y.B.Z.S.P.P.:X>XhXhXhXhXhXhXhXhXhXhXhXhXhXhXhXhXhX",
"hXhXhXhXhXhXhXhXhXhXhXhXhXhXhXhXhXhXhX- X       X @ - : > 5 8 h T x k l -.-.3.y.C.D.H.J.J.,XhXhXhXhXhXhXhXhXhXhXhXhXhXhXhXhXhXhX",
"hXhXhXhXhXhXhXhXhXhXhXhXhXhXhXhXhXhXhXhX- X   X X - - : 5 8 9 h T x x ;.-.<.1.y.B.J.J.J.hXhXhXhXhXhXhXhXhXhXhXhXhXhXhXhXhXhXhXhX",
"hXhXhXhXhXhXhXhXhXhXhXhXhXhXhXhXhXhXhXhXhX- X - - ; : : 8 6 h h x [ z ;.,.<.9.y.G.G.F.hXhXhXhXhXhXhXhXhXhXhXhXhXhXhXhXhXhXhXhXhX",
"hXhXhXhXhXhXhXhXhXhXhXhXhXhXhXhXhXhXhXhXhXhXhX: ; : q 5 9 9 ( ( ) [ { ,.,.8.q.q.u.hXhXhXhXhXhXhXhXhXhXhXhXhXhXhXhXhXhXhXhXhXhXhX",
"hXhXhXhXhXhXhXhXhXhXhXhXhXhXhXhXhXhXhXhXhXhXhXhXhXhX9 9 9 9 ( ( [ [ { { z { =.hXhXhXhXhXhXhXhXhXhXhXhXhXhXhXhXhXhXhXhXhXhXhXhXhX",
"hXhXhXhXhXhXhXhXhXhXhXhXhXhXhXhXhXhXhXhXhXhXhXhXhXhXhXhXhXhXhXhXhXhXhXhXhXhXhXhXhXhXhXhXhXhXhXhXhXhXhXhXhXhXhXhXhXhXhXhXhXhXhXhX",
"hXhXhXhXhXhXhXhXhXhXhXhXhXhXhXhXhXhXhXhXhXhXhXhXhXhXhXhXhXhXhXhXhXhXhXhXhXhXhXhXhXhXhXhXhXhXhXhXhXhXhXhXhXhXhXhXhXhXhXhXhXhXhXhX"
};
