/* XPM */
static char *result[] = {
/* columns rows colors chars-per-pixel */
"64 64 225 2 ",
"   c #757474",
".  c #787777",
"X  c #7C7B7B",
"o  c #817E7E",
"O  c #887E7A",
"+  c #8A817D",
"@  c #93827C",
"#  c #9B867C",
"$  c #9D8C7D",
"%  c #9F967D",
"&  c #A38E7D",
"*  c #A6997D",
"=  c #848484",
"-  c #8A8685",
";  c #8C8B8B",
":  c #888788",
">  c #918F8E",
",  c #9C8D8B",
"<  c #978884",
"1  c #9A948A",
"2  c #918F90",
"3  c #8C9B99",
"4  c #949393",
"5  c #9A9595",
"6  c #989798",
"7  c #949D9C",
"8  c #9C9B9C",
"9  c #989997",
"0  c #A48B84",
"q  c #A98E86",
"w  c #A2928D",
"e  c #AC938C",
"r  c #AA9887",
"t  c #B4958B",
"y  c #B6998B",
"u  c #A39593",
"i  c #A49994",
"p  c #A29D9C",
"a  c #AA9C9A",
"s  c #AC9993",
"d  c #BC9B93",
"f  c #B59E9A",
"g  c #B59A95",
"h  c #95A285",
"j  c #9BA788",
"k  c #97A798",
"l  c #9AB499",
"z  c #92A68E",
"x  c #AAA687",
"c  c #BBA38D",
"v  c #B5A68A",
"b  c #ACB18B",
"n  c #A7B78E",
"m  c #BCB38E",
"M  c #B4B48D",
"N  c #ADA49D",
"B  c #AEAA9D",
"V  c #A4A598",
"C  c #BCA19F",
"Z  c #B9A397",
"A  c #A4B294",
"S  c #A6B998",
"D  c #B8BC91",
"F  c #8C94A4",
"G  c #8E98A9",
"H  c #9297A3",
"J  c #9699A2",
"K  c #9B9EA4",
"L  c #969AAC",
"P  c #949AB3",
"I  c #999EBA",
"U  c #A09FA0",
"Y  c #97A7A9",
"T  c #9BB4A3",
"R  c #9CB6A7",
"E  c #9BA4B4",
"W  c #9BA5BC",
"Q  c #99A8B6",
"!  c #9EB4B4",
"~  c #A4A3A3",
"^  c #ACA4A2",
"/  c #A5A6AB",
"(  c #A4ABAC",
")  c #ABABAB",
"_  c #A6A9A5",
"`  c #B4A4A2",
"'  c #BCA3A1",
"]  c #B1AEAE",
"[  c #BBACAB",
"{  c #B7A8A7",
"}  c #A4B6A6",
"|  c #A5A9B2",
" . c #ACACB2",
".. c #A2A6BC",
"X. c #A6A8B8",
"o. c #B0AFB0",
"O. c #A2B8BA",
"+. c #B4B3B4",
"@. c #BCB3B4",
"#. c #B4B4B9",
"$. c #B9B7B8",
"%. c #BBBBBC",
"&. c #C19E97",
"*. c #C3A294",
"=. c #C4A29C",
"-. c #C9A59D",
";. c #CDAE9C",
":. c #C7AF96",
">. c #C4B293",
",. c #CBB09A",
"<. c #CCBE9B",
"1. c #C3BF95",
"2. c #CCABA4",
"3. c #C8A9A6",
"4. c #D2ADA5",
"5. c #D3AEA9",
"6. c #CCB5AC",
"7. c #D3BDA4",
"8. c #D3B2AA",
"9. c #D9BBAB",
"0. c #CCB4B3",
"q. c #C7B9B5",
"w. c #D4BEB0",
"e. c #ABC49A",
"r. c #AAC297",
"t. c #B8C898",
"y. c #AACCA2",
"u. c #A6C8A7",
"i. c #AED3AA",
"p. c #B4D3A4",
"a. c #B3DAAD",
"s. c #BBDCAB",
"d. c #BDD4A2",
"f. c #A9C9B7",
"g. c #AFD4B7",
"h. c #B5DDB6",
"j. c #B0CEA0",
"k. c #BDE2B4",
"l. c #BCE3BB",
"z. c #C7C79A",
"x. c #C2D09E",
"c. c #D3CCA3",
"v. c #DBCBAC",
"b. c #D5C9AC",
"n. c #CBD4A3",
"m. c #C6DAA8",
"M. c #D6D6AA",
"N. c #D3DCAD",
"B. c #D7D7AA",
"V. c #D5C8B3",
"C. c #DDDAB2",
"Z. c #D7D7B7",
"A. c #CFC5BB",
"S. c #C9E4B8",
"D. c #DCE3B6",
"F. c #DEE5BC",
"G. c #D6E6B9",
"H. c #E0E9BD",
"J. c #9DA4C3",
"K. c #9EABC1",
"L. c #A4ABC7",
"P. c #A5ACCB",
"I. c #A6ABC9",
"U. c #A9B6C8",
"Y. c #BCBCC1",
"T. c #B2B4C9",
"R. c #BCBCCC",
"E. c #B5B6C5",
"W. c #A9AED2",
"Q. c #A9ACD5",
"!. c #ACB2D4",
"~. c #ADB1DA",
"^. c #B6B8D4",
"/. c #B1B5DC",
"(. c #B4BADB",
"). c #BCBDDC",
"_. c #B9BAD2",
"`. c #B6BAE3",
"'. c #BCBEE4",
"]. c #BCBFE9",
"[. c #B2B6E0",
"{. c #C0BFC0",
"}. c #ACC4C8",
"|. c #B1CFC5",
" X c #B8D9C6",
".X c #BDC4DC",
"XX c #B6C6D5",
"oX c #BDD4D5",
"OX c #BDE2C4",
"+X c #BDC2E4",
"@X c #BEC1EA",
"#X c #B7C0E1",
"$X c #C3C3C4",
"%X c #C5C6CA",
"&X c #CBCBCC",
"*X c #C1CECB",
"=X c #C4DCC4",
"-X c #C4D8C7",
";X c #D5DDC4",
":X c #C3C4D4",
">X c #CECED2",
",X c #C3C4DD",
"<X c #CCCCDB",
"1X c #C1CDDA",
"2X c #C2D8D6",
"3X c #D3D3D4",
"4X c #D6D6DB",
"5X c #DBDBDC",
"6X c #C3E5C3",
"7X c #C7E8C3",
"8X c #DBE3C3",
"9X c #D6E9C3",
"0X c #C2CAE4",
"qX c #C3C5EB",
"wX c #CBCCEC",
"eX c #C8C9E4",
"rX c #D3D3E3",
"tX c #DDDDE2",
"yX c #D4D5EB",
"uX c #DEDEEC",
"iX c #CFD0EB",
"pX c #E3E3E5",
"aX c #E5E5EA",
"sX c #EAEAEC",
"dX c None",
/* pixels */
"dXdXdXdXdXdXdXdXdXdXdXdXdXdXdXdXdXdXdXdXdXdXdXdXdXdXdXdXdXdXdXdXdXdXdXdXdXdXdXdXdXdXdXdXdXdXdXdXdXdXdXdXdXdXdXdXdXdXdXdXdXdXdXdX",
"dXdXdXdXdXdXdXdXdXdXdXdXdXdXdXdXdXdXdXdXdXdXdXdXdXdXdXdXdXdXdXdXdXdXdXdXdXdXdXdXdXdXdXdXdXdXdXdXdXdXdXdXdXdXdXdXdXdXdXdXdXdXdXdX",
"dXdXdXdXdXdXdXdXdXdXdXdXdXdXdXdXdXdXdXdXdXdXdXdXdXA.w.0.0.0.{.q.$.+.o.) ~ ~ dXdXdXdXdXdXdXdXdXdXdXdXdXdXdXdXdXdXdXdXdXdXdXdXdXdX",
"dXdXdXdXdXdXdXdXdXdXdXdXdXdXdXdXdXdXdXdXdXdXdXdXA.V.V.8.5.5.0.{.$.#.) / ~ 8 6 4 dXdXdXdXdXdXdXdXdXdXdXdXdXdXdXdXdXdXdXdXdXdXdXdX",
"dXdXdXdXdXdXdXdXdXdXdXdXdXdXdXdXdXdXdXdXdXdXdXD.Z.V.9.5.5.5.0.@.+.+.) ~ p 9 4 4 ; dXdXdXdXdXdXdXdXdXdXdXdXdXdXdXdXdXdXdXdXdXdXdX",
"dXdXdXdXdXdXdXdXdXdXdXdXdXdXdXdXdXdXdXdXdX8XF.D.C.v.9.5.5.5.3.@.+.) / ~ 8 6 4 ; : = dXdXdXdXdXdXdXdXdXdXdXdXdXdXdXdXdXdXdXdXdXdX",
"dXdXdXdXdXdXdXdXdXdXdXdXdXdXdXdXdXdXdXdX8X8XH.D.C.v.9.5.4.3.3.[ ] ) ~ ~ 8 4 ; ; = o o = dXdXdXdXdXdXdXdXdXdXdXdXdXdXdXdXdXdXdXdX",
"dXdXdXdXdXdXdXdXdXdXdXdXdXdXdXdXdXdXdX9X9X9XH.D.C.v.9.5.4.-.3.{ ] ^ ~ 8 6 4 ; = o X X X : dXdXdXdXdXdXdXdXdXdXdXdXdXdXdXdXdXdXdX",
"dXdXdXdXdXdXdXdXdXdXdXdXdXdXdXdXdXdXdX9X9X9XH.D.C.v.7.4.-.3.' { ) ^ ~ 8 4 2 ; = X X   . = dXdXdXdXdXdXdXdXdXdXdXdXdXdXdXdXdXdXdX",
"dXdXdXdXdXdXdXdXdXdXdXdXdXdXdXdXdXdX7X7X9X9XG.N.B.v.7.4.-.3.' { ^ ~ K 6 4 ; : = X .     X : dXdXdXdXdXdXdXdXdXdXdXdXdXdXdXdXdXdX",
"dXdXdXdXdXdXdXdXdXdXdXdXdXdXdXdXdX7X7X7XG.G.G.N.B.c.7.;.-.&.' ` ^ ~ 8 6 4 ; : o X     . X = ; dXdXdXdXdXdXdXdXdXdXdXdXdXdXdXdXdX",
"dXdXdXdXdXdXdXdXdXdXdXdXdXdXdXdXoX7XOX7XOXS.S.S.B.c.7.;.2.&.f ` V p 8 4 ; : = X .       o = ; dXdXdXdXdXdXdXdXdXdXdXdXdXdXdXdXdX",
"dXdXdXdXdXdXdXdXdXdXdXdXdXdXdXdXoX2X7X7Xl.k.m.m.c.c.<.,.-.&.f N U p 6 4 ; : = X       X o = 2 4 dXdXdXdXdXdXdXdXdXdXdXdXdXdXdXdX",
"dXdXdXdXdXdXdXdXdXdXdXdXdXdXdXXXoXoXoXOXl.k.k.m.n.n.z.:.=.d f a p 6 4 2 : = o .       X = : 2 4 8 dXdXdXdXdXdXdXdXdXdXdXdXdXdXdX",
"dXdXdXdXdXdXdXdXdXdXdXdXdXdXdX).oXwXoX Xl.k.a.s.x.z.<.:.*.d g a p 6 4 ; : = X .       X = ; 2 4 K dXdXdXdXdXdXdXdXdXdXdXdXdXdXdX",
"dXdXdXdXdXdXdXdXdXdXdXdXdXdX^.'.@X@XoX Xg.h.a.s.d.z.z.>.c d g s u 5 2 ; = o X       X o = ; 2 7 p ~ dXdXdXdXdXdXdXdXdXdXdXdXdXdX",
"dXdXdXdXdXdXdXdXdXdXdXdXdXdX).].@X@X.XXX|.g.g.i.p.t.z.>.c d g u 5 3 2 : = X       . X = : > 4 8 ~ ~ dXdXdXdXdXdXdXdXdXdXdXdXdXdX",
"dXdXdXdXdXdXdXdXdXdXdXdXdXdX+XqXqX].`.XX}.g.f.i.e.t.t.m c y e u 5 2 ; : = X       X + = ; > 6 8 ~ ~ ~ dXdXdXdXdXdXdXdXdXdXdXdXdX",
"dXdXdXdXdXdXdXdXdXdXdXdXdX,XeXqX@X].`.(.}.}.f.u.y.r.t.M v y e u , > : = X .       X = = ; 4 9 K ~ ) / dXdXdXdXdXdXdXdXdXdXdXdXdX",
"dXdXdXdXdXdXdXdXdXdXdXdXdXiXwXwXqX].`.[.!.U.! u.u.e.n M v v e w , ; : = o       . X = ; > 4 9 ~ _ ) ) dXdXdXdXdXdXdXdXdXdXdXdXdX",
"dXdXdXdXdXdXdXdXdXdXdXdXdXyXyXyXwX@X`./.!.P.U.R } e.S b b y e w 5 > : + X       X o : ; 4 6 8 ~ / ] ] dXdXdXdXdXdXdXdXdXdXdXdXdX",
"dXdXdXdXdXdXdXdXdXdXdXdX4XuXuXuXwXeX'./.~.P.U.! R l l A x x s a 5 5 ; o .       o = : 2 4 8 U ~ ) +.+.] dXdXdXdXdXdXdXdXdXdXdXdX",
"dXdXdXdXdXdXdXdXdXdXdXdX5XaXsXuXyXeX.X(.~.P.K.K.R Y l A B B N N U 8 4 ; o     X o : ; 2 9 8 ~ / ) +.$.+.dXdXdXdXdXdXdXdXdXdXdXdX",
"dXdXdXdXdXdXdXdXdXdXdXdXtXsXsXaXtXrX,X.X!.W.K.K.Q Y Y S B B B N ^ V 7 2 = X . X o : ; 3 9 p _ ) ] $.%.+.o.dXdXdXdXdXdXdXdXdXdXdX",
"dXdXdXdXdXdXdXdXdXdXdX&XpXsXsXpXtXrX,X{.^.I.I...E Y Y _ } B V ^ ~ 8 6 4 ; = X X = ; 2 4 9 ~ _ ) o.$.{.q.o.dXdXdXdXdXdXdXdXdXdXdX",
"dXdXdXdXdXdXdXdXdXdXdX&XpXsXsXsXtX4X<X,XR.E.L...E Y ( ( _ B dXdXdXdXdX4 2 ; = = : ; 4 6 8 ~ / ) $.%.{.f.+.dXdXdXdXdXdXdXdXdXdXdX",
"dXdXdXdXdXdXdXdXdXdXdX3XpXsXsXpXtX4X3X%XR.E.#...E E ( ( _ dXdXdXdXdXdX> 4 4 ; = ; ; 4 9 ~ ~ ) +.$.%.$X$X%.dXdXdXdXdXdXdXdXdXdXdX",
"dXdXdXdXdXdXdXdXdXdXdX3XsXsXpXpX5X4X>X&XR.E.#.X.| | ) Y dXdXdXdXdXdXdXdX; 6 ; ; ; 4 9 8 ~ ~ o.+.$.{.$X%X%.dXdXdXdXdXdXdXdXdXdXdX",
"dXdXdXdXdXdXdXdXdXdXdX4XsXsXpXpX4X3X&X%X$X%.#. .|  .| Y dXdXdXdXdXdXdXdX4 6 6 ; ; 4 9 U ~ ) o.+.%.{.%X&X$XdXdXdXdXdXdXdXdXdXdXdX",
"dXdXdXdXdXdXdXdXdXdXdX4XpXsXpX5X4X3X&X%X{.$.#. . . .) dXdXdXdXdXdXdXdXdX; 9 8 4 4 4 8 ~ _ ) +.%.{.{.&X&X$XdXdXdXdXdXdXdXdXdXdXdX",
"dXdXdXdXdXdXdXdXdXdXdX4XpXsXpX5X3X>X&X$XY.$.+.) )  ./ dXdXdXdXdXdXdXdXdXdX6 8 4 4 9 p ~ / +.+.%.q.%X&X>X$XdXdXdXdXdXdXdXdXdXdXdX",
"dXdXdXdXdXdXdXdXdXdXdX3XpXpX5X4X3X&X%XA.%.$. .) ) ) / dXdXdXdXdXdXdXdXdXdX6 K 8 4 9 ~ ~ ) +.$.Y.$X&X&X>X&XdXdXdXdXdXdXdXdXdXdXdX",
"dXdXdXdXdXdXdXdXdXdXdX3XpXpX5X4X>X>X%X{.%.+.] / ) ) ~ dXdXdXdXdXdXdXdXdXdX6 Y 6 6 J U ^ o.#.$.q.%X&X>X3X&XdXdXdXdXdXdXdXdXdXdXdX",
"dXdXdXdXdXdXdXdXdXdXdX3X5XtX5X3X>X%X{.{.$.+.) ^ / ) ~ dXdXdXdXdXdXdXdXdXdX8 U 8 6 U U ] o.$.%.$X&X&X3X3X&XdXdXdXdXdXdXdXdXdXdXdX",
"dXdXdXdXdXdXdXdXdXdXdX3X5X5X4X;X&X%X{.q.+.o./ ~ ~ / ~ 8 dXdXdXdXdXdXdXdX4 J K J J U U ] o.$.Y.$X&X&X3X4X&XdXdXdXdXdXdXdXdXdXdXdX",
"dXdXdXdXdXdXdXdXdXdXdX&X5X5X4X&X&X$Xf.$.+.) / ~ V _ ~ 8 dXdXdXdXdXdXdXdX6 K K H L U / ] #.$.{.%X&X3X4X4X>XdXdXdXdXdXdXdXdXdXdXdX",
"dXdXdXdXdXdXdXdXdXdXdX&X4X4X3X&X%X$X%.+.+./ _ U 8 U ~ 8 dXdXdXdXdXdXdXdX7 K J F H L |  .#.$.{.&X>X3X5X3X&XdXdXdXdXdXdXdXdXdXdXdX",
"dXdXdXdXdXdXdXdXdXdXdX$X3X3X3X&X$Xq.%.+.) / V 8 6 8 U 8 4 dXdXdXdXdXdX9 J K H F G L X.X.#.Y.$X&X3X3X5X5X&XdXdXdXdXdXdXdXdXdXdXdX",
"dXdXdXdXdXdXdXdXdXdXdX%.&X3X&X&X$X%.$.+.) ^ U 9 5 4 8 8 4 dXdXdXdXdXdXk k 7 F F G P ..X.T.E.$X%X3X4X5X4X$XdXdXdXdXdXdXdXdXdXdXdX",
"dXdXdXdXdXdXdXdXdXdXdX%.&X>X&X$X$X%.+.) / ~ K 6 4 2 2 6 6 4 2 1 5 i p V k 3 3 F G P I ..I.E.XX&X>X4XtX5X$XdXdXdXdXdXdXdXdXdXdXdX",
"dXdXdXdXdXdXdXdXdXdXdX%.&X&X&X$X%.$.+.) ^ U K 5 2 ; : 2 2 3 4 5 u i V V z z 3 3 G G J.K.P.!.XX.X<X5XtX3X$XdXdXdXdXdXdXdXdXdXdXdX",
"dXdXdXdXdXdXdXdXdXdXdXdXA.&X%X$X%.+.+.) ~ k 6 4 ; : = = = ; > 4 w i r j % z z 3 G Q P J.K.Q.!..X<XrXrX>XdXdXdXdXdXdXdXdXdXdXdXdX",
"dXdXdXdXdXdXdXdXdXdXdXdX#.$X$XY.%.+.) / ~ 8 6 2 ; : o X X X - < , 1 1 % % z z z G G J.J.P.Q.~.#XeXrX4X%XdXdXdXdXdXdXdXdXdXdXdXdX",
"dXdXdXdXdXdXdXdXdXdXdXdX$.}.A.%.+.+.) ~ U 6 4 > : = X X . . o + @ $ % * % z l z R Q Q J.K.Q.~.[.0XeX<X%XdXdXdXdXdXdXdXdXdXdXdXdX",
"dXdXdXdXdXdXdXdXdXdXdXdXdX%.%.%.+.] _ ~ 8 6 4 ; : o X       . O + # & * * n z l T Y ! K.K.Q.~.[.'.eX:XE.dXdXdXdXdXdXdXdXdXdXdXdX",
"dXdXdXdXdXdXdXdXdXdXdXdXdX$.%.$.+.) / ~ 8 4 > ; = X .       o O @ # & * * x n n l R R O.P.Q.~.[.'.eX{.dXdXdXdXdXdXdXdXdXdXdXdXdX",
"dXdXdXdXdXdXdXdXdXdXdXdXdX+.%.+. .) ~ 8 6 4 ; - = X         o + @ # & * x b n n l l R ! U.Q.~.[.].{.^.dXdXdXdXdXdXdXdXdXdXdXdXdX",
"dXdXdXdXdXdXdXdXdXdXdXdXdXdX+.+.) _ ~ 8 4 4 ; = + .     . . o + @ # & * x b r.r.u.u.u.f.}.}.~.#X].'.dXdXdXdXdXdXdXdXdXdXdXdXdXdX",
"dXdXdXdXdXdXdXdXdXdXdXdXdXdX$.+.) ^ ~ 9 4 ; : = X       X X = @ O & & t * t.M b e.e.u.f.}.}.XX.XqX^.dXdXdXdXdXdXdXdXdXdXdXdXdXdX",
"dXdXdXdXdXdXdXdXdXdXdXdXdXdXdX] / ~ 8 6 4 ; : o X     . X X = - q & & * m * t.t.y.y.y.i.g.|.XX1X,XR.dXdXdXdXdXdXdXdXdXdXdXdXdXdX",
"dXdXdXdXdXdXdXdXdXdXdXdXdXdXdX) / V 9 4 ; ; = X .       X = - > 0 0 t t c m 1.t.j.j.i.i.g. XoX1X:XdXdXdXdXdXdXdXdXdXdXdXdXdXdXdX",
"dXdXdXdXdXdXdXdXdXdXdXdXdXdXdXdX/ ~ 9 4 ; ; = X         o = - < 0 q * * c >.z.z.t.p.p.i.h.h.-X*XXXdXdXdXdXdXdXdXdXdXdXdXdXdXdXdX",
"dXdXdXdXdXdXdXdXdXdXdXdXdXdXdXdXdXU 6 4 ; = o .       X = : ; > 0 q e t y >.1.z.x.d.s.s.k.OX X*XdXdXdXdXdXdXdXdXdXdXdXdXdXdXdXdX",
"dXdXdXdXdXdXdXdXdXdXdXdXdXdXdXdXdX~ 4 2 : = X .       X = : ; , w e t t *.>.1.z.n.m.s.s.k. X-XdXdXdXdXdXdXdXdXdXdXdXdXdXdXdXdXdX",
"dXdXdXdXdXdXdXdXdXdXdXdXdXdXdXdXdXdX7 2 : o X     . X o : ; 2 5 w e t g *.>.z.z.n.m.m.S.S.-X-XdXdXdXdXdXdXdXdXdXdXdXdXdXdXdXdXdX",
"dXdXdXdXdXdXdXdXdXdXdXdXdXdXdXdXdXdXdX2 = o         X = : ; 4 6 u e t &.*.:.<.c.B.N.S.S.S.-XdXdXdXdXdXdXdXdXdXdXdXdXdXdXdXdXdXdX",
"dXdXdXdXdXdXdXdXdXdXdXdXdXdXdXdXdXdXdX4 = X .     . = = ; > 6 6 s g &.&.&.-.7.c.M.N.Z.7X=XdXdXdXdXdXdXdXdXdXdXdXdXdXdXdXdXdXdXdX",
"dXdXdXdXdXdXdXdXdXdXdXdXdXdXdXdXdXdXdXdXdX= .   . X = = ; 4 6 i u g g &.&.-.7.c.M.N.Z.;XdXdXdXdXdXdXdXdXdXdXdXdXdXdXdXdXdXdXdXdX",
"dXdXdXdXdXdXdXdXdXdXdXdXdXdXdXdXdXdXdXdXdX= X X . X = - > 4 8 p U f g &.-.;.4.v.Z.Z.Z.dXdXdXdXdXdXdXdXdXdXdXdXdXdXdXdXdXdXdXdXdX",
"dXdXdXdXdXdXdXdXdXdXdXdXdXdXdXdXdXdXdXdXdXdXdXo o = - ; 4 6 8 p ` f C =.-.2.6.b.V.dXdXdXdXdXdXdXdXdXdXdXdXdXdXdXdXdXdXdXdXdXdXdX",
"dXdXdXdXdXdXdXdXdXdXdXdXdXdXdXdXdXdXdXdXdXdXdXdX= ; ; 4 6 8 p ~ ` ` ' =.=.3.6.A.dXdXdXdXdXdXdXdXdXdXdXdXdXdXdXdXdXdXdXdXdXdXdXdX",
"dXdXdXdXdXdXdXdXdXdXdXdXdXdXdXdXdXdXdXdXdXdXdXdXdXdXdX9 8 8 ~ ~ ^ ` ' C C 3.dXdXdXdXdXdXdXdXdXdXdXdXdXdXdXdXdXdXdXdXdXdXdXdXdXdX",
"dXdXdXdXdXdXdXdXdXdXdXdXdXdXdXdXdXdXdXdXdXdXdXdXdXdXdXdXdXdXdXdXdXdXdXdXdXdXdXdXdXdXdXdXdXdXdXdXdXdXdXdXdXdXdXdXdXdXdXdXdXdXdXdX",
"dXdXdXdXdXdXdXdXdXdXdXdXdXdXdXdXdXdXdXdXdXdXdXdXdXdXdXdXdXdXdXdXdXdXdXdXdXdXdXdXdXdXdXdXdXdXdXdXdXdXdXdXdXdXdXdXdXdXdXdXdXdXdXdX"
};
