/* XPM */
static char *result[] = {
/* columns rows colors chars-per-pixel */
"64 64 216 2 ",
"   c #757575",
".  c #787777",
"X  c #7C7B7B",
"o  c #827E7D",
"O  c #887F7C",
"+  c #8A817E",
"@  c #95837C",
"#  c #9E8B7C",
"$  c #9F997E",
"%  c #A18A7E",
"&  c #A5977D",
"*  c #848383",
"=  c #8A8685",
"-  c #8C8B8B",
";  c #918886",
":  c #928E8E",
">  c #9B8A85",
",  c #9A948B",
"<  c #908F90",
"1  c #8D9D99",
"2  c #949393",
"3  c #9A9594",
"4  c #9C9897",
"5  c #989798",
"6  c #9C9B9C",
"7  c #94989C",
"8  c #A58C83",
"9  c #A78E8A",
"0  c #AD9683",
"q  c #A4938E",
"w  c #A9978B",
"e  c #B3968C",
"r  c #B2988E",
"t  c #BA998F",
"y  c #B19687",
"u  c #A49591",
"i  c #A99995",
"p  c #A29D9C",
"a  c #AC9D9A",
"s  c #A49B93",
"d  c #B69A93",
"f  c #BC9B94",
"g  c #BA9E9B",
"h  c #B69A96",
"j  c #8FA18F",
"k  c #99A589",
"l  c #9EA397",
"z  c #96A597",
"x  c #9DB49E",
"c  c #9BB698",
"v  c #ADA785",
"b  c #A9A687",
"n  c #B5A78A",
"m  c #BBA68D",
"M  c #A8B38B",
"N  c #B3B68E",
"B  c #B8B88E",
"V  c #A5A19F",
"C  c #ACA49D",
"Z  c #ABAA9D",
"A  c #A8A593",
"S  c #BEA491",
"D  c #BEA19E",
"F  c #A6B896",
"G  c #BCB891",
"H  c #8C95A3",
"J  c #8E99A8",
"K  c #969AA4",
"L  c #9A9CA1",
"P  c #9198AA",
"I  c #969DB6",
"U  c #999EB4",
"Y  c #A09FA0",
"T  c #9BAAAC",
"R  c #98A7A7",
"E  c #9BB4A7",
"W  c #97A4B4",
"Q  c #9CA3B3",
"!  c #99ACB1",
"~  c #9EABBE",
"^  c #9FB2B9",
"/  c #A4A3A4",
"(  c #ACA4A3",
")  c #A4ACA3",
"_  c #A3A5A9",
"`  c #ABABAC",
"'  c #A6ABA7",
"]  c #B3A3A2",
"[  c #BAA4A3",
"{  c #B8ACAC",
"}  c #A1BDA7",
"|  c #A5A9B1",
" . c #ABABB3",
".. c #A1A6BE",
"X. c #A6A9B8",
"o. c #B1AFB0",
"O. c #A1B7B8",
"+. c #B4B3B4",
"@. c #BBB3B4",
"#. c #B5B5BB",
"$. c #B8B7B8",
"%. c #BCBBBC",
"&. c #C19E98",
"*. c #C3A495",
"=. c #C4A39B",
"-. c #C9A69D",
";. c #C4B695",
":. c #C3B894",
">. c #CCB49C",
",. c #C8B797",
"<. c #C4A6A2",
"1. c #CBAAA6",
"2. c #D1ACA8",
"3. c #CBB3AD",
"4. c #CAB3A6",
"5. c #D4B2A5",
"6. c #D4B4AB",
"7. c #C6B7B4",
"8. c #ABC599",
"9. c #B4CD9E",
"0. c #B8C697",
"q. c #AACCAC",
"w. c #A8C8A5",
"e. c #BCD4A3",
"r. c #B3D6A9",
"t. c #B6D7A7",
"y. c #A8C6B7",
"u. c #AFD3B4",
"i. c #B5DBB3",
"p. c #BCDFB4",
"a. c #B2D6BC",
"s. c #B7DEBB",
"d. c #ADD3AB",
"f. c #BDE3BA",
"g. c #BCE0B1",
"h. c #C4C799",
"j. c #CCC69D",
"k. c #CCC99D",
"l. c #C0C597",
"z. c #C1D19F",
"x. c #D5C5A4",
"c. c #DAC3AC",
"v. c #D3C7A8",
"b. c #CCD4A4",
"n. c #CCDDAC",
"m. c #C3D6A5",
"M. c #D6D5AA",
"N. c #D6D7AB",
"B. c #CFC1B6",
"V. c #D5C8B4",
"C. c #DED5B3",
"Z. c #D6D9B6",
"A. c #CDE1BA",
"S. c #C6E4B9",
"D. c #DFE3B9",
"F. c #DEE9BE",
"G. c #D6E5B8",
"H. c #9DA4C1",
"J. c #A4ABCB",
"K. c #AAADC7",
"L. c #A6B3C8",
"P. c #A9B9C6",
"I. c #BEBEC2",
"U. c #BABBCC",
"Y. c #B2B4C6",
"T. c #AAAED6",
"R. c #ACB2D4",
"E. c #AFBBD4",
"W. c #B2B5D2",
"Q. c #B3B6DD",
"!. c #BBBCDA",
"~. c #B5BADA",
"^. c #B6BAE0",
"/. c #BCBEE4",
"(. c #ADC7C4",
"). c #B7C9C9",
"_. c #BBD8C9",
"`. c #BCC1DC",
"'. c #B9C6D7",
"]. c #BEE1C7",
"[. c #BCC5E4",
"{. c #BFC2EA",
"}. c #C3C3C4",
"|. c #C7C7C9",
" X c #CBCBCC",
".X c #C7C8CD",
"XX c #C4DBC2",
"oX c #C0D1CB",
"OX c #C4D6C7",
"+X c #D1DCC0",
"@X c #C3C5D3",
"#X c #CECED1",
"$X c #C4C4DD",
"%X c #CDCDDD",
"&X c #C0CFD4",
"*X c #C0D3DA",
"=X c #C2D9D4",
"-X c #D3D3D4",
";X c #D6D6D8",
":X c #DADADC",
">X c #C4E4C4",
",X c #C6E6C5",
"<X c #DBE3C2",
"1X c #D5E7C4",
"2X c #C3C4E3",
"3X c #C2C3EC",
"4X c #CDCEEA",
"5X c #C7CBE3",
"6X c #D5D5E2",
"7X c #DBDBE2",
"8X c #D4D4EA",
"9X c #DCDDEC",
"0X c #E3E3E4",
"qX c #E5E5EA",
"wX c #EAEAEC",
"eX c None",
/* pixels */
"eXeXeXeXeXeXeXeXeXeXeXeXeXeXeXeXeXeXeXeXeXeXeXeXeXeXeXeXeXeXeXeXeXeXeXeXeXeXeXeXeXeXeXeXeXeXeXeXeXeXeXeXeXeXeXeXeXeXeXeXeXeXeXeX",
"eXeXeXeXeXeXeXeXeXeXeXeXeXeXeXeXeXeXeXeXeXeXeXeXeXeXeXeXeXeXeXeXeXeXeXeXeXeXeXeXeXeXeXeXeXeXeXeXeXeXeXeXeXeXeXeXeXeXeXeXeXeXeXeX",
"eXeXeXeXeXeXeXeXeXeXeXeXeXeXeXeXeXeXeXeXeXeXeXeXeXeXeXV.3.3.7.#.I.o.| Y eXeXeXeXeXeXeXeXeXeXeXeXeXeXeXeXeXeXeXeXeXeXeXeXeXeXeXeX",
"eXeXeXeXeXeXeXeXeXeXeXeXeXeXeXeXeXeXeXeXeXeXeXeXeXeXV.V.6.6.3.7.@.o.` Y 6 5 eXeXeXeXeXeXeXeXeXeXeXeXeXeXeXeXeXeXeXeXeXeXeXeXeXeX",
"eXeXeXeXeXeXeXeXeXeXeXeXeXeXeXeXeXeXeXeXeXeXeXeXeXZ.C.6.6.6.3.7.+.` _ l 5 2 - eXeXeXeXeXeXeXeXeXeXeXeXeXeXeXeXeXeXeXeXeXeXeXeXeX",
"eXeXeXeXeXeXeXeXeXeXeXeXeXeXeXeXeXeXeXeXeXeXeXeX<X+XC.c.6.6.3.@.o.` / 6 2 - = * eXeXeXeXeXeXeXeXeXeXeXeXeXeXeXeXeXeXeXeXeXeXeXeX",
"eXeXeXeXeXeXeXeXeXeXeXeXeXeXeXeXeXeXeXeXeXeXeX1X<XD.C.c.6.2.1.<.o.` / 4 < - * X * eXeXeXeXeXeXeXeXeXeXeXeXeXeXeXeXeXeXeXeXeXeXeX",
"eXeXeXeXeXeXeXeXeXeXeXeXeXeXeXeXeXeXeXeXeXeX1X1XF.D.C.c.5.2.1.[ ` ( L 5 < = * X X eXeXeXeXeXeXeXeXeXeXeXeXeXeXeXeXeXeXeXeXeXeXeX",
"eXeXeXeXeXeXeXeXeXeXeXeXeXeXeXeXeXeXeXeXeXeX1X1XD.D.C.6.5.1.<.{ ` / p 2 - * X . . * eXeXeXeXeXeXeXeXeXeXeXeXeXeXeXeXeXeXeXeXeXeX",
"eXeXeXeXeXeXeXeXeXeXeXeXeXeXeXeXeXeXeXeXeX,X,XF.G.D.N.x.5.-.<.[ ( Y 6 < - * X . . X - eXeXeXeXeXeXeXeXeXeXeXeXeXeXeXeXeXeXeXeXeX",
"eXeXeXeXeXeXeXeXeXeXeXeXeXeXeXeXeXeXeXeXeX,X,X,XG.n.M.x.>.&.&.] ( p 5 < - * .   . X - eXeXeXeXeXeXeXeXeXeXeXeXeXeXeXeXeXeXeXeXeX",
"eXeXeXeXeXeXeXeXeXeXeXeXeXeXeXeXeXeXeXeX>X,X,XS.G.n.M.x.>.-.[ ] / 6 2 : * X .   . X = < eXeXeXeXeXeXeXeXeXeXeXeXeXeXeXeXeXeXeXeX",
"eXeXeXeXeXeXeXeXeXeXeXeXeXeXeXeXeXeXeXeX_.].].f.S.n.z.k.>.&.g a p 6 2 - * X     X * - < eXeXeXeXeXeXeXeXeXeXeXeXeXeXeXeXeXeXeXeX",
"eXeXeXeXeXeXeXeXeXeXeXeXeXeXeXeXeXeXeX'.5X].].s.g.m.z.k.>.*.f a p 5 < - * .     . * - 2 eXeXeXeXeXeXeXeXeXeXeXeXeXeXeXeXeXeXeXeX",
"eXeXeXeXeXeXeXeXeXeXeXeXeXeXeXeXeXeXeX[.[.*X_.s.g.m.z.k.,.*.h a u 3 < = X .   . X * - 7 6 eXeXeXeXeXeXeXeXeXeXeXeXeXeXeXeXeXeXeX",
"eXeXeXeXeXeXeXeXeXeXeXeXeXeXeXeXeXeXeX[.[.[._._.g.t.z.h.;.*.h i 4 2 - * X .   . * * < 7 / eXeXeXeXeXeXeXeXeXeXeXeXeXeXeXeXeXeXeX",
"eXeXeXeXeXeXeXeXeXeXeXeXeXeXeXeXeXeX~./.3X[.'.(.u.r.9.0.:.S t u 5 < - * X   . X o - 2 4 R / eXeXeXeXeXeXeXeXeXeXeXeXeXeXeXeXeXeX",
"eXeXeXeXeXeXeXeXeXeXeXeXeXeXeXeXeXeX2X3X{./.'.(.y.d.9.0.G m t q 2 < * * .     X * - 2 6 / ( eXeXeXeXeXeXeXeXeXeXeXeXeXeXeXeXeXeX",
"eXeXeXeXeXeXeXeXeXeXeXeXeXeXeXeXeXeX2X3X{.{.'.P.y.y.8.8.N n r u : : * X .   . X * < 3 6 / ( eXeXeXeXeXeXeXeXeXeXeXeXeXeXeXeXeXeX",
"eXeXeXeXeXeXeXeXeXeXeXeXeXeXeXeXeXeX4X4X{.^.Q.E.O.O.w.8.N n w q : - * .     X * = 2 5 R ( ` eXeXeXeXeXeXeXeXeXeXeXeXeXeXeXeXeXeX",
"eXeXeXeXeXeXeXeXeXeXeXeXeXeXeXeXeXeX8X8X3X[.Q.R.L.^ F 8.F n w q , - * .   . X * - 2 6 R `  .o.eXeXeXeXeXeXeXeXeXeXeXeXeXeXeXeXeX",
"eXeXeXeXeXeXeXeXeXeXeXeXeXeXeXeXeX7X9X9X4X{.Q.R.L.^ E x M n A i u 2 * .   . X * - 5 6 / ` o.o.eXeXeXeXeXeXeXeXeXeXeXeXeXeXeXeXeX",
"eXeXeXeXeXeXeXeXeXeXeXeXeXeXeXeXeX7XqX9X8X5X~.R.J.~ T x F A C C p 5 - X . . X = < 5 p ( o.@.@.eXeXeXeXeXeXeXeXeXeXeXeXeXeXeXeXeX",
"eXeXeXeXeXeXeXeXeXeXeXeXeXeXeXeXeX0XwXqX6X5X`.R.J.~ ! E Z ) Z Z / 6 2 = X X * - 2 5 / ` +.$.$.eXeXeXeXeXeXeXeXeXeXeXeXeXeXeXeXeX",
"eXeXeXeXeXeXeXeXeXeXeXeXeXeXeXeXeX0XwXqX7X%X$XW.K...Q R ) ) Z ( V 4 2 - X X = - 2 6 / ` +.%.I.eXeXeXeXeXeXeXeXeXeXeXeXeXeXeXeXeX",
"eXeXeXeXeXeXeXeXeXeXeXeXeXeXeXeX#XqXwXqX7X-X@XU.Y...Q T ' ' Z eXeXeX2 - = * - < 5 p ( ` +.%.y.+.eXeXeXeXeXeXeXeXeXeXeXeXeXeXeXeX",
"eXeXeXeXeXeXeXeXeXeXeXeXeXeXeXeX-X0XwXqX:X%X.XU.Y...X.| ' ) eXeXeXeX< 2 - = - < 4 R ` o.%.%.}.%.eXeXeXeXeXeXeXeXeXeXeXeXeXeXeXeX",
"eXeXeXeXeXeXeXeXeXeXeXeXeXeXeXeX;XwXwX0X7X-X X}.#.X.| | _ eXeXeXeXeXeX2 2 - - 7 4 / ` +.%.}.}.%.eXeXeXeXeXeXeXeXeXeXeXeXeXeXeXeX",
"eXeXeXeXeXeXeXeXeXeXeXeXeXeXeXeX;XwXwX:X:X-X X7.#. .| | _ eXeXeXeXeXeX2 7 < < 5 6 / o.+.%.}.|.}.eXeXeXeXeXeXeXeXeXeXeXeXeXeXeXeX",
"eXeXeXeXeXeXeXeXeXeXeXeXeXeXeXeX;X0XwX:X;X X|.}.#. . .| / eXeXeXeXeXeX2 5 2 2 5 / _ o.$.B.|.|.}.eXeXeXeXeXeXeXeXeXeXeXeXeXeXeXeX",
"eXeXeXeXeXeXeXeXeXeXeXeXeXeXeXeX;X0X0X:X-X XB.y.+.o. .` eXeXeXeXeXeXeX2 6 5 5 6 / ` +.$.).|. X|.eXeXeXeXeXeXeXeXeXeXeXeXeXeXeXeX",
"eXeXeXeXeXeXeXeXeXeXeXeXeXeXeXeX-X0X0X:X-X X}.%.o.` ` ` eXeXeXeXeXeXeXeX6 5 5 6 ( ` +.%.}.|. X|.eXeXeXeXeXeXeXeXeXeXeXeXeXeXeXeX",
"eXeXeXeXeXeXeXeXeXeXeXeXeXeXeXeX-X0X7X;X#X|.I.$.o.` ` ` eXeXeXeXeXeXeXeX6 6 4 R (  .$.%.|. X-X|.eXeXeXeXeXeXeXeXeXeXeXeXeXeXeXeX",
"eXeXeXeXeXeXeXeXeXeXeXeXeXeXeXeX#X7X:X-X X|.%.$.` ` / ` 6 eXeXeXeXeXeX5 L L 4 Y ' +.%.%.|.-X-X|.eXeXeXeXeXeXeXeXeXeXeXeXeXeXeXeX",
"eXeXeXeXeXeXeXeXeXeXeXeXeXeXeXeX#X:X:X-X X|.%.+.` / / / / eXeXeXeXeXeX7 L K L / ` +.%.}. X-X;X XeXeXeXeXeXeXeXeXeXeXeXeXeXeXeXeX",
"eXeXeXeXeXeXeXeXeXeXeXeXeXeXeXeX#X:X;X#X.XB.$.+.` / / / 6 eXeXeXeXeXeX7 L K P Y  .+.%.}. X;X;X XeXeXeXeXeXeXeXeXeXeXeXeXeXeXeXeX",
"eXeXeXeXeXeXeXeXeXeXeXeXeXeXeXeX X;X;X X|.I.+.o.` / 6 / 6 eXeXeXeXeXeXL L H K Q | #.I.|.-X;X;X XeXeXeXeXeXeXeXeXeXeXeXeXeXeXeXeX",
"eXeXeXeXeXeXeXeXeXeXeXeXeXeXeXeX}.-X-X X}.%.+.` / 6 4 6 6 5 eXeXeXeXeXL K P P Q X.#.I.|.-X;X;X XeXeXeXeXeXeXeXeXeXeXeXeXeXeXeXeX",
"eXeXeXeXeXeXeXeXeXeXeXeXeXeXeXeX}.#X#X X).$.+.` / 6 2 5 4 5 eXeXeXeXl z K H P U X.Y.I.@X-X;X;X|.eXeXeXeXeXeXeXeXeXeXeXeXeXeXeXeX",
"eXeXeXeXeXeXeXeXeXeXeXeXeXeXeXeXy.oX#XB.B.+.o.( R 5 2 < 5 3 < 3 4 s l 5 7 H P I ..Y.U..X-X;X;X|.eXeXeXeXeXeXeXeXeXeXeXeXeXeXeXeX",
"eXeXeXeXeXeXeXeXeXeXeXeXeXeXeXeXeX X X}.%.+.` ( l 5 < - - < < 2 u A l k j H J W H.H.E.'.%X:X;XeXeXeXeXeXeXeXeXeXeXeXeXeXeXeXeXeX",
"eXeXeXeXeXeXeXeXeXeXeXeXeXeXeXeXeX}.|.}.%.+.` / 6 2 - * * - : 2 , s k , j 1 J W H.J.W.`.%X6X-XeXeXeXeXeXeXeXeXeXeXeXeXeXeXeXeXeX",
"eXeXeXeXeXeXeXeXeXeXeXeXeXeXeXeXeX}.}.I.$.o._ / 5 2 - * X X = ; > , , k j c J W H.J.R.!.%X%X%XeXeXeXeXeXeXeXeXeXeXeXeXeXeXeXeXeX",
"eXeXeXeXeXeXeXeXeXeXeXeXeXeXeXeXeX7.}.%.+.o._ l 5 < = * . . X * # $ $ $ j z E ! H.J.T.Q.2X5X.XeXeXeXeXeXeXeXeXeXeXeXeXeXeXeXeXeX",
"eXeXeXeXeXeXeXeXeXeXeXeXeXeXeXeXeXeX%.%.+.` / 6 2 - * X     . O @ # & $ M c E ! H.J.T.Q.[.2X}.eXeXeXeXeXeXeXeXeXeXeXeXeXeXeXeXeX",
"eXeXeXeXeXeXeXeXeXeXeXeXeXeXeXeXeXeX%.$.+.` / 4 2 - * X     . O @ # & v k c c E L.L.R.Q./.`.eXeXeXeXeXeXeXeXeXeXeXeXeXeXeXeXeXeX",
"eXeXeXeXeXeXeXeXeXeXeXeXeXeXeXeXeXeX%.+.` ` 6 4 2 = * .     X O @ # & v M M 8.} ^ L.R.^./.!.eXeXeXeXeXeXeXeXeXeXeXeXeXeXeXeXeXeX",
"eXeXeXeXeXeXeXeXeXeXeXeXeXeXeXeXeXeX+.+.` / L 2 - = X     . X + @ # & v M 8.8.} y.(.E.~./.!.eXeXeXeXeXeXeXeXeXeXeXeXeXeXeXeXeXeX",
"eXeXeXeXeXeXeXeXeXeXeXeXeXeXeXeXeXeXeX .` V 6 2 - * . .   . X = % % & n M 8.8.w.y.(.'.`.[.U.eXeXeXeXeXeXeXeXeXeXeXeXeXeXeXeXeXeX",
"eXeXeXeXeXeXeXeXeXeXeXeXeXeXeXeXeXeXeX+.` l 5 2 = * .     X * ; > 0 & n B 0.9.w.q.u.).*X`.eXeXeXeXeXeXeXeXeXeXeXeXeXeXeXeXeXeXeX",
"eXeXeXeXeXeXeXeXeXeXeXeXeXeXeXeXeXeXeXo._ R 3 - - X . . . X = ; 8 8 y m B 0.9.9.d.u._.'..XeXeXeXeXeXeXeXeXeXeXeXeXeXeXeXeXeXeXeX",
"eXeXeXeXeXeXeXeXeXeXeXeXeXeXeXeXeXeXeXeX( 6 2 - * . .   . o = ; 8 9 y m :.l.e.t.d.i._.oXeXeXeXeXeXeXeXeXeXeXeXeXeXeXeXeXeXeXeXeX",
"eXeXeXeXeXeXeXeXeXeXeXeXeXeXeXeXeXeXeXeX_ 6 < - * .     . * = : > e e f :.h.z.m.i.g._.OXeXeXeXeXeXeXeXeXeXeXeXeXeXeXeXeXeXeXeXeX",
"eXeXeXeXeXeXeXeXeXeXeXeXeXeXeXeXeXeXeXeXeX6 < * * .     X * - : q 9 e *.:.j.z.m.g.f.S._.eXeXeXeXeXeXeXeXeXeXeXeXeXeXeXeXeXeXeXeX",
"eXeXeXeXeXeXeXeXeXeXeXeXeXeXeXeXeXeXeXeXeX6 < = X .   . X = - 3 u e t *.,.k.b.n.S.S.OXeXeXeXeXeXeXeXeXeXeXeXeXeXeXeXeXeXeXeXeXeX",
"eXeXeXeXeXeXeXeXeXeXeXeXeXeXeXeXeXeXeXeXeXeX< = X .   . * - < 5 u e t *.>.k.b.n.A.XXeXeXeXeXeXeXeXeXeXeXeXeXeXeXeXeXeXeXeXeXeXeX",
"eXeXeXeXeXeXeXeXeXeXeXeXeXeXeXeXeXeXeXeXeXeXeX* . . . X * - 2 4 i d &.*.>.x.M.N.A.+XeXeXeXeXeXeXeXeXeXeXeXeXeXeXeXeXeXeXeXeXeXeX",
"eXeXeXeXeXeXeXeXeXeXeXeXeXeXeXeXeXeXeXeXeXeXeX= X . . X * - 3 4 i h &.&.>.x.M.G.+XeXeXeXeXeXeXeXeXeXeXeXeXeXeXeXeXeXeXeXeXeXeXeX",
"eXeXeXeXeXeXeXeXeXeXeXeXeXeXeXeXeXeXeXeXeXeXeXeXo . . * - : 5 p a g &.-.4.v.M.Z.eXeXeXeXeXeXeXeXeXeXeXeXeXeXeXeXeXeXeXeXeXeXeXeX",
"eXeXeXeXeXeXeXeXeXeXeXeXeXeXeXeXeXeXeXeXeXeXeXeXeXX * * - 2 4 V Y g &.1.4.B.V.eXeXeXeXeXeXeXeXeXeXeXeXeXeXeXeXeXeXeXeXeXeXeXeXeX",
"eXeXeXeXeXeXeXeXeXeXeXeXeXeXeXeXeXeXeXeXeXeXeXeXeXeX= - 2 5 6 / ( D =.1.4.7.eXeXeXeXeXeXeXeXeXeXeXeXeXeXeXeXeXeXeXeXeXeXeXeXeXeX",
"eXeXeXeXeXeXeXeXeXeXeXeXeXeXeXeXeXeXeXeXeXeXeXeXeXeXeXeX4 6 6 / ( [ D [ 4.eXeXeXeXeXeXeXeXeXeXeXeXeXeXeXeXeXeXeXeXeXeXeXeXeXeXeX",
"eXeXeXeXeXeXeXeXeXeXeXeXeXeXeXeXeXeXeXeXeXeXeXeXeXeXeXeXeXeXeXeXeXeXeXeXeXeXeXeXeXeXeXeXeXeXeXeXeXeXeXeXeXeXeXeXeXeXeXeXeXeXeXeX",
"eXeXeXeXeXeXeXeXeXeXeXeXeXeXeXeXeXeXeXeXeXeXeXeXeXeXeXeXeXeXeXeXeXeXeXeXeXeXeXeXeXeXeXeXeXeXeXeXeXeXeXeXeXeXeXeXeXeXeXeXeXeXeXeX"
};
