/* XPM */
static char *result[] = {
/* columns rows colors chars-per-pixel */
"64 64 207 2 ",
"   c #767676",
".  c #787777",
"X  c #7C7B7B",
"o  c #7A7877",
"O  c #847E7C",
"+  c #89807E",
"@  c #96847B",
"#  c #98857E",
"$  c #9F937E",
"%  c #A2917D",
"&  c #848383",
"*  c #8A8686",
"=  c #8C8B8B",
"-  c #898887",
";  c #938E8D",
":  c #9B8A83",
">  c #9C938F",
",  c #9F9885",
"<  c #918F90",
"1  c #8F9C9A",
"2  c #949393",
"3  c #9A9494",
"4  c #9E9A95",
"5  c #979A9E",
"6  c #9B9B9B",
"7  c #97979A",
"8  c #A18D8A",
"9  c #AA9184",
"0  c #A6948E",
"q  c #A79587",
"w  c #B4958D",
"e  c #B59F8E",
"r  c #AA9692",
"t  c #AB9A96",
"y  c #A29D9C",
"u  c #A79B97",
"i  c #B99C93",
"p  c #B19E9C",
"a  c #BC9E99",
"s  c #9BA184",
"d  c #97A88D",
"f  c #8FA192",
"g  c #99A294",
"h  c #97A69D",
"j  c #9CB49C",
"k  c #A9A385",
"l  c #B4A38A",
"z  c #B7A48B",
"x  c #A5B38D",
"c  c #ADB68D",
"v  c #B3B38F",
"b  c #B5B98F",
"n  c #A1A093",
"m  c #ACA39D",
"M  c #A5AF9B",
"N  c #AAA79A",
"B  c #BDA193",
"V  c #BDA19C",
"C  c #B4A19F",
"Z  c #A7B796",
"A  c #BDB792",
"S  c #8E9CA5",
"D  c #8E97A8",
"F  c #9297A6",
"G  c #949AA2",
"H  c #999BA2",
"J  c #959DB4",
"K  c #9A9EB2",
"L  c #A09FA0",
"P  c #9EA3AB",
"I  c #9BACAD",
"U  c #96A9A4",
"Y  c #9DB3A6",
"T  c #9EA6B9",
"R  c #99A8B4",
"E  c #9EB4B1",
"W  c #A4A3A4",
"Q  c #AAA5A5",
"!  c #A5ACA3",
"~  c #A2A6AA",
"^  c #ABABAC",
"/  c #A3AAA9",
"(  c #B3A3A1",
")  c #BBA5A3",
"_  c #B1ADAE",
"`  c #BDABAA",
"'  c #A1BCAA",
"]  c #A2A7B4",
"[  c #A6A9B3",
"{  c #ABACB3",
"}  c #A5A9BD",
"|  c #B0AFB0",
" . c #A5BBBC",
".. c #A1B2BE",
"X. c #B4B3B4",
"o. c #B5B5BA",
"O. c #B8B7B8",
"+. c #BBBBBC",
"@. c #B8B4B5",
"#. c #C2A393",
"$. c #C4A49C",
"%. c #CBB19C",
"&. c #CBBA9A",
"*. c #C4B796",
"=. c #C5A6A0",
"-. c #CBA9A6",
";. c #C7ABA9",
":. c #CFB9A2",
">. c #CCB3AD",
",. c #CDB6A7",
"<. c #D3B1A4",
"1. c #D4B5AB",
"2. c #C3B5B5",
"3. c #CCB4B1",
"4. c #ABC298",
"5. c #B3C498",
"6. c #BBC99A",
"7. c #BCC699",
"8. c #ACCBA3",
"9. c #A6C4A7",
"0. c #AED3AE",
"q. c #B4D1A3",
"w. c #B8D8AA",
"e. c #AACBB3",
"r. c #A8C3B8",
"t. c #BCDEB1",
"y. c #BBDDBE",
"u. c #B2D5B2",
"i. c #BCE1BD",
"p. c #CACB9E",
"a. c #C4C99C",
"s. c #CDCBA1",
"d. c #D3CCA4",
"f. c #DAC7AD",
"g. c #D5CBAA",
"h. c #C3D7A6",
"j. c #CCDAAA",
"k. c #C2D8A7",
"l. c #D6DAAC",
"z. c #D2C3B2",
"x. c #D6C9B5",
"c. c #C9DEBE",
"v. c #DDDCB4",
"b. c #D6D8B7",
"n. c #C3E6BD",
"m. c #C8E3B7",
"M. c #DDE5BE",
"N. c #D3E7BA",
"B. c #9DA5C3",
"V. c #9FACC1",
"C. c #AAAEC6",
"Z. c #A5ABC8",
"A. c #ADB4CD",
"S. c #ADBECE",
"D. c #A8B3C3",
"F. c #BDBDC0",
"G. c #BDBECC",
"H. c #B5B6C6",
"J. c #A7ADD1",
"K. c #A8ADD0",
"L. c #ACB3D4",
"P. c #ACB8D2",
"I. c #BDBED6",
"U. c #B3B6DC",
"Y. c #B4BADE",
"T. c #BABDDB",
"R. c #B5B8D2",
"E. c #B6BCE1",
"W. c #BCBEE1",
"Q. c #C0BFC1",
"!. c #AFC6CA",
"~. c #B2CEC6",
"^. c #BAD5C6",
"/. c #BEC4D4",
"(. c #BBC1DC",
"). c #B9C7DA",
"_. c #BDD0D4",
"`. c #BDD8D2",
"'. c #BFC2EA",
"]. c #BFC6E5",
"[. c #C3C3C4",
"{. c #C6C7C9",
"}. c #CBCBCC",
"|. c #C2DDCE",
" X c #C4D8C3",
".X c #C2C3D2",
"XX c #CECED2",
"oX c #CBCCDB",
"OX c #C3C7DC",
"+X c #C1D6D5",
"@X c #D3D3D4",
"#X c #D4D4D9",
"$X c #DADADB",
"%X c #C6E6C5",
"&X c #CCE7C3",
"*X c #C2E3C9",
"=X c #D8E6C3",
"-X c #C4C5E2",
";X c #C3C4EA",
":X c #CCCDE9",
">X c #D4D4E6",
",X c #DCDCE2",
"<X c #D6D7EC",
"1X c #E3E3E5",
"2X c #E5E5EA",
"3X c #E8E8E9",
"4X c None",
/* pixels */
"4X4X4X4X4X4X4X4X4X4X4X4X4X4X4X4X4X4X4X4X4X4X4X4X4X4X4X4X4X4X4X4X4X4X4X4X4X4X4X4X4X4X4X4X4X4X4X4X4X4X4X4X4X4X4X4X4X4X4X4X4X4X4X4X",
"4X4X4X4X4X4X4X4X4X4X4X4X4X4X4X4X4X4X4X4X4X4X4X4X4X4X4X4X4X4X4X4X4X4X4X4X4X4X4X4X4X4X4X4X4X4X4X4X4X4X4X4X4X4X4X4X4X4X4X4X4X4X4X4X",
"4X4X4X4X4X4X4X4X4X4X4X4X4X4X4X4X4X4X4X4X4X4X4X4X4X4X4X4X3.3.3.2.F.^ Q 4X4X4X4X4X4X4X4X4X4X4X4X4X4X4X4X4X4X4X4X4X4X4X4X4X4X4X4X4X",
"4X4X4X4X4X4X4X4X4X4X4X4X4X4X4X4X4X4X4X4X4X4X4X4X4X4X4Xx.1.1.3.2.O._ W 7 4X4X4X4X4X4X4X4X4X4X4X4X4X4X4X4X4X4X4X4X4X4X4X4X4X4X4X4X",
"4X4X4X4X4X4X4X4X4X4X4X4X4X4X4X4X4X4X4X4X4X4X4X4X4X4X4Xb.x.1.3.2._ ^ 6 7 = 4X4X4X4X4X4X4X4X4X4X4X4X4X4X4X4X4X4X4X4X4X4X4X4X4X4X4X",
"4X4X4X4X4X4X4X4X4X4X4X4X4X4X4X4X4X4X4X4X4X4X4X4X4X4XM.v.f.1.;.` _ ^ y 2 = & 4X4X4X4X4X4X4X4X4X4X4X4X4X4X4X4X4X4X4X4X4X4X4X4X4X4X",
"4X4X4X4X4X4X4X4X4X4X4X4X4X4X4X4X4X4X4X4X4X4X4X4X4X=X=Xv.f.1.-.;.^ Q 6 < & & 4X4X4X4X4X4X4X4X4X4X4X4X4X4X4X4X4X4X4X4X4X4X4X4X4X4X",
"4X4X4X4X4X4X4X4X4X4X4X4X4X4X4X4X4X4X4X4X4X4X4X4X4X=XM.v.f.<.-.;.^ W 6 = & & X 4X4X4X4X4X4X4X4X4X4X4X4X4X4X4X4X4X4X4X4X4X4X4X4X4X",
"4X4X4X4X4X4X4X4X4X4X4X4X4X4X4X4X4X4X4X4X4X4X4X4X&XM.M.v.f.<.-.) Q m 2 = & . . & 4X4X4X4X4X4X4X4X4X4X4X4X4X4X4X4X4X4X4X4X4X4X4X4X",
"4X4X4X4X4X4X4X4X4X4X4X4X4X4X4X4X4X4X4X4X4X4X4X4X&XN.N.l.d.<.=.) Q y 2 - & . . & 4X4X4X4X4X4X4X4X4X4X4X4X4X4X4X4X4X4X4X4X4X4X4X4X",
"4X4X4X4X4X4X4X4X4X4X4X4X4X4X4X4X4X4X4X4X4X4X4X4X%XN.N.l.d.%.$.( W 6 < - X . . & 4X4X4X4X4X4X4X4X4X4X4X4X4X4X4X4X4X4X4X4X4X4X4X4X",
"4X4X4X4X4X4X4X4X4X4X4X4X4X4X4X4X4X4X4X4X4X4X4X|.%Xn.m.g.d.%.$.C L 5 < & X   . & < 4X4X4X4X4X4X4X4X4X4X4X4X4X4X4X4X4X4X4X4X4X4X4X",
"4X4X4X4X4X4X4X4X4X4X4X4X4X4X4X4X4X4X4X4X4X4X4X|.*Xn.i.j.p.%.a p y 3 = & .   X & < 4X4X4X4X4X4X4X4X4X4X4X4X4X4X4X4X4X4X4X4X4X4X4X",
"4X4X4X4X4X4X4X4X4X4X4X4X4X4X4X4X4X4X4X4X4X4X4X+X*Xi.t.h.p.%.a p u 7 = X .   X & 2 4X4X4X4X4X4X4X4X4X4X4X4X4X4X4X4X4X4X4X4X4X4X4X",
"4X4X4X4X4X4X4X4X4X4X4X4X4X4X4X4X4X4X4X4X4X4X(.].`.i.t.w.a.%.B p 4 < - &   . X = 2 y 4X4X4X4X4X4X4X4X4X4X4X4X4X4X4X4X4X4X4X4X4X4X",
"4X4X4X4X4X4X4X4X4X4X4X4X4X4X4X4X4X4X4X4X4X4X(.]._.^.w.q.7.*.B r 3 < - X   . & = 2 H 4X4X4X4X4X4X4X4X4X4X4X4X4X4X4X4X4X4X4X4X4X4X",
"4X4X4X4X4X4X4X4X4X4X4X4X4X4X4X4X4X4X4X4X4X4XW.'.).~.e.q.6.A i r 3 = & X   X & = 6 6 4X4X4X4X4X4X4X4X4X4X4X4X4X4X4X4X4X4X4X4X4X4X",
"4X4X4X4X4X4X4X4X4X4X4X4X4X4X4X4X4X4X4X4X4X4X;X'.].!.e.8.5.A i r > = & o   X & = 6 W 4X4X4X4X4X4X4X4X4X4X4X4X4X4X4X4X4X4X4X4X4X4X",
"4X4X4X4X4X4X4X4X4X4X4X4X4X4X4X4X4X4X4X4X4X-X;X'.].S.r.9.5.v l 0 ; - X o   X - 2 6 Q ^ 4X4X4X4X4X4X4X4X4X4X4X4X4X4X4X4X4X4X4X4X4X",
"4X4X4X4X4X4X4X4X4X4X4X4X4X4X4X4X4X4X4X4X4X:X:X;XE.S.D.9.Z v l 0 ; - X   . & = 2 H Q ^ 4X4X4X4X4X4X4X4X4X4X4X4X4X4X4X4X4X4X4X4X4X",
"4X4X4X4X4X4X4X4X4X4X4X4X4X4X4X4X4X4X4X4X4X<X<X;XW.L.D.' Z c l r > * X   X & = 7 W ^ | 4X4X4X4X4X4X4X4X4X4X4X4X4X4X4X4X4X4X4X4X4X",
"4X4X4X4X4X4X4X4X4X4X4X4X4X4X4X4X4X4X4X4X4X,X<X:XW.L.Z.E Y x N t 4 = X   X & < 5 W ^ X.4X4X4X4X4X4X4X4X4X4X4X4X4X4X4X4X4X4X4X4X4X",
"4X4X4X4X4X4X4X4X4X4X4X4X4X4X4X4X4X4X4X4X4X,X2X>XW.L.Z.E Y M N N 6 2 & . X - 2 6 Q | X.4X4X4X4X4X4X4X4X4X4X4X4X4X4X4X4X4X4X4X4X4X",
"4X4X4X4X4X4X4X4X4X4X4X4X4X4X4X4X4X4X4X4X4X2X2X>XOXR.Z.R U M N m y 2 - X X = 2 6 / X.O.X.4X4X4X4X4X4X4X4X4X4X4X4X4X4X4X4X4X4X4X4X",
"4X4X4X4X4X4X4X4X4X4X4X4X4X4X4X4X4X4X4X4X$X3X2X,XOXR.Z.T I ! ! Q y 3 = & & = 2 P ^ X.+.X.4X4X4X4X4X4X4X4X4X4X4X4X4X4X4X4X4X4X4X4X",
"4X4X4X4X4X4X4X4X4X4X4X4X4X4X4X4X4X4X4X4X$X3X2X$XXXG.C.T I / N 4X4X2 = - & < 2 m ^ O.+.+.4X4X4X4X4X4X4X4X4X4X4X4X4X4X4X4X4X4X4X4X",
"4X4X4X4X4X4X4X4X4X4X4X4X4X4X4X4X4X4X4X4X$X3X2X$XXXG.H.] ~ / 4X4X4X4X< = = 2 5 W { +.~.H.4X4X4X4X4X4X4X4X4X4X4X4X4X4X4X4X4X4X4X4X",
"4X4X4X4X4X4X4X4X4X4X4X4X4X4X4X4X4X4X4X4X$X3X1X$X}.G.o.[ [ ~ 4X4X4X4X2 < = 2 6 / X.2.Q.z.4X4X4X4X4X4X4X4X4X4X4X4X4X4X4X4X4X4X4X4X",
"4X4X4X4X4X4X4X4X4X4X4X4X4X4X4X4X4X4X4X4X,X3X1X@X}.Q.o.[ [ ~ 4X4X4X4X< 2 < 2 h ^ X.+.{.[.4X4X4X4X4X4X4X4X4X4X4X4X4X4X4X4X4X4X4X4X",
"4X4X4X4X4X4X4X4X4X4X4X4X4X4X4X4X4X4X4X4X$X2X1X@XXXQ.@.{ { 4X4X4X4X4X2 7 2 7 y _ O.F.}.[.4X4X4X4X4X4X4X4X4X4X4X4X4X4X4X4X4X4X4X4X",
"4X4X4X4X4X4X4X4X4X4X4X4X4X4X4X4X4X4X4X4X$X1X$X@X{.+.@.{ ^ 4X4X4X4X4X4X6 7 6 W _ O.[.}.{.4X4X4X4X4X4X4X4X4X4X4X4X4X4X4X4X4X4X4X4X",
"4X4X4X4X4X4X4X4X4X4X4X4X4X4X4X4X4X4X4X4X$X1X$X@X{.+.X.^ ^ 4X4X4X4X4X4X6 6 6 Q | +.[.}.}.4X4X4X4X4X4X4X4X4X4X4X4X4X4X4X4X4X4X4X4X",
"4X4X4X4X4X4X4X4X4X4X4X4X4X4X4X4X4X4X4X4X@X1X$X}.[.+.| ^ ^ 4X4X4X4X4X4X6 6 W / X.2.}.@X}.4X4X4X4X4X4X4X4X4X4X4X4X4X4X4X4X4X4X4X4X",
"4X4X4X4X4X4X4X4X4X4X4X4X4X4X4X4X4X4X4X4X@X$X@X}.[.+.^ Q Q 4X4X4X4X4X4XH 6 H ^ @.r.{.@X}.4X4X4X4X4X4X4X4X4X4X4X4X4X4X4X4X4X4X4X4X",
"4X4X4X4X4X4X4X4X4X4X4X4X4X4X4X4X4X4X4X4X@X$X@X}.+.X.^ W Q P 4X4X4X4X7 H 6 P ^ o./.}.@XXX4X4X4X4X4X4X4X4X4X4X4X4X4X4X4X4X4X4X4X4X",
"4X4X4X4X4X4X4X4X4X4X4X4X4X4X4X4X4X4X4X4X@X$XXX}.+.X.! P m 6 4X4X4X4X5 H F W { O.z.XX@XXX4X4X4X4X4X4X4X4X4X4X4X4X4X4X4X4X4X4X4X4X",
"4X4X4X4X4X4X4X4X4X4X4X4X4X4X4X4X4X4X4X4X}.$X}.{.+.X.Q h y 6 4X4X4X4X5 G F K { +.[.@X#X@X4X4X4X4X4X4X4X4X4X4X4X4X4X4X4X4X4X4X4X4X",
"4X4X4X4X4X4X4X4X4X4X4X4X4X4X4X4X4X4X4X4X}.@X}.[.+.^ W 6 6 7 4X4X4X4X5 G F K { +.{.@X#XXX4X4X4X4X4X4X4X4X4X4X4X4X4X4X4X4X4X4X4X4X",
"4X4X4X4X4X4X4X4X4X4X4X4X4X4X4X4X4X4X4X4X{.}.}.Q.X.^ W 7 7 7 2 4X4Xg h G D K } H.{.@X$XXX4X4X4X4X4X4X4X4X4X4X4X4X4X4X4X4X4X4X4X4X",
"4X4X4X4X4X4X4X4X4X4X4X4X4X4X4X4X4X4X4X4X[.}.{.F.@.^ y 3 2 2 2 2 u n 6 1 D J } H..X@X$X}.4X4X4X4X4X4X4X4X4X4X4X4X4X4X4X4X4X4X4X4X",
"4X4X4X4X4X4X4X4X4X4X4X4X4X4X4X4X4X4X4X4X[.}.[.+.X.Q 6 2 = < 2 > 3 n g f S J R A./.#X#X}.4X4X4X4X4X4X4X4X4X4X4X4X4X4X4X4X4X4X4X4X",
"4X4X4X4X4X4X4X4X4X4X4X4X4X4X4X4X4X4X4X4X4X{.[.O.^ W 6 < - & = ; 0 , d f S J B.J.(.oX#X4X4X4X4X4X4X4X4X4X4X4X4X4X4X4X4X4X4X4X4X4X",
"4X4X4X4X4X4X4X4X4X4X4X4X4X4X4X4X4X4X4X4X4X~.z.o.^ W 7 = & X & * > , , f S R B.J.Y.oXoX4X4X4X4X4X4X4X4X4X4X4X4X4X4X4X4X4X4X4X4X4X",
"4X4X4X4X4X4X4X4X4X4X4X4X4X4X4X4X4X4X4X4X4XF.+.o./ m 7 = & X o + # $ s d U R B.J.U.-XoX4X4X4X4X4X4X4X4X4X4X4X4X4X4X4X4X4X4X4X4X4X",
"4X4X4X4X4X4X4X4X4X4X4X4X4X4X4X4X4X4X4X4X4X+.+.X.Q 6 7 = O     O @ $ x x j U V.J.U.-XOX4X4X4X4X4X4X4X4X4X4X4X4X4X4X4X4X4X4X4X4X4X",
"4X4X4X4X4X4X4X4X4X4X4X4X4X4X4X4X4X4X4X4X4X+.O._ Q 6 2 & O     O @ $ $ x j Y E J.U.W.I.4X4X4X4X4X4X4X4X4X4X4X4X4X4X4X4X4X4X4X4X4X",
"4X4X4X4X4X4X4X4X4X4X4X4X4X4X4X4X4X4X4X4X4X4X@.^ W 7 = & X     O @ % k x 4.' E P.U.W.I.4X4X4X4X4X4X4X4X4X4X4X4X4X4X4X4X4X4X4X4X4X",
"4X4X4X4X4X4X4X4X4X4X4X4X4X4X4X4X4X4X4X4X4X4XX.^ W 7 = & .   O O @ % l c 4.9.r.!.Y.T.4X4X4X4X4X4X4X4X4X4X4X4X4X4X4X4X4X4X4X4X4X4X",
"4X4X4X4X4X4X4X4X4X4X4X4X4X4X4X4X4X4X4X4X4X4XX.^ 6 2 = O o   X * $ 9 l b 4.8.e.!.(.T.4X4X4X4X4X4X4X4X4X4X4X4X4X4X4X4X4X4X4X4X4X4X",
"4X4X4X4X4X4X4X4X4X4X4X4X4X4X4X4X4X4X4X4X4X4X^ / 6 2 - &   o X * : % l b 5.4.e.~._..X4X4X4X4X4X4X4X4X4X4X4X4X4X4X4X4X4X4X4X4X4X4X",
"4X4X4X4X4X4X4X4X4X4X4X4X4X4X4X4X4X4X4X4X4X4X4XQ 6 < & X   o O * : 9 l A 6.q.0.^._./.4X4X4X4X4X4X4X4X4X4X4X4X4X4X4X4X4X4X4X4X4X4X",
"4X4X4X4X4X4X4X4X4X4X4X4X4X4X4X4X4X4X4X4X4X4X4XW 7 = & .   X & = : w z 7.6.q.0.y.+X4X4X4X4X4X4X4X4X4X4X4X4X4X4X4X4X4X4X4X4X4X4X4X",
"4X4X4X4X4X4X4X4X4X4X4X4X4X4X4X4X4X4X4X4X4X4X4XW 7 = &     o * ; 8 w i *.a.w.t.t.^.4X4X4X4X4X4X4X4X4X4X4X4X4X4X4X4X4X4X4X4X4X4X4X",
"4X4X4X4X4X4X4X4X4X4X4X4X4X4X4X4X4X4X4X4X4X4X4X4X2 = &     & - ; 0 w B *.p.k.i.i. X4X4X4X4X4X4X4X4X4X4X4X4X4X4X4X4X4X4X4X4X4X4X4X",
"4X4X4X4X4X4X4X4X4X4X4X4X4X4X4X4X4X4X4X4X4X4X4X4X2 * X     & - < q w #.&.s.j.m.c.4X4X4X4X4X4X4X4X4X4X4X4X4X4X4X4X4X4X4X4X4X4X4X4X",
"4X4X4X4X4X4X4X4X4X4X4X4X4X4X4X4X4X4X4X4X4X4X4X4X2 & o   o & = 3 r e #.&.d.j.m. X4X4X4X4X4X4X4X4X4X4X4X4X4X4X4X4X4X4X4X4X4X4X4X4X",
"4X4X4X4X4X4X4X4X4X4X4X4X4X4X4X4X4X4X4X4X4X4X4X4X4X& X . X & = 3 t i #.:.d.N.c.4X4X4X4X4X4X4X4X4X4X4X4X4X4X4X4X4X4X4X4X4X4X4X4X4X",
"4X4X4X4X4X4X4X4X4X4X4X4X4X4X4X4X4X4X4X4X4X4X4X4X4X4XX o O & 2 u t i $.:.g.l.b.4X4X4X4X4X4X4X4X4X4X4X4X4X4X4X4X4X4X4X4X4X4X4X4X4X",
"4X4X4X4X4X4X4X4X4X4X4X4X4X4X4X4X4X4X4X4X4X4X4X4X4X4XX o & = 2 6 p a $.:.g.b.4X4X4X4X4X4X4X4X4X4X4X4X4X4X4X4X4X4X4X4X4X4X4X4X4X4X",
"4X4X4X4X4X4X4X4X4X4X4X4X4X4X4X4X4X4X4X4X4X4X4X4X4X4X4X& & = 7 6 p a =.,.z.4X4X4X4X4X4X4X4X4X4X4X4X4X4X4X4X4X4X4X4X4X4X4X4X4X4X4X",
"4X4X4X4X4X4X4X4X4X4X4X4X4X4X4X4X4X4X4X4X4X4X4X4X4X4X4X4X= 2 3 m ( V =.>.4X4X4X4X4X4X4X4X4X4X4X4X4X4X4X4X4X4X4X4X4X4X4X4X4X4X4X4X",
"4X4X4X4X4X4X4X4X4X4X4X4X4X4X4X4X4X4X4X4X4X4X4X4X4X4X4X4X4X6 6 W ( ) ) 4X4X4X4X4X4X4X4X4X4X4X4X4X4X4X4X4X4X4X4X4X4X4X4X4X4X4X4X4X",
"4X4X4X4X4X4X4X4X4X4X4X4X4X4X4X4X4X4X4X4X4X4X4X4X4X4X4X4X4X4X4X4X4X4X4X4X4X4X4X4X4X4X4X4X4X4X4X4X4X4X4X4X4X4X4X4X4X4X4X4X4X4X4X4X",
"4X4X4X4X4X4X4X4X4X4X4X4X4X4X4X4X4X4X4X4X4X4X4X4X4X4X4X4X4X4X4X4X4X4X4X4X4X4X4X4X4X4X4X4X4X4X4X4X4X4X4X4X4X4X4X4X4X4X4X4X4X4X4X4X"
};
