/* XPM */
static char *result[] = {
/* columns rows colors chars-per-pixel */
"64 64 187 2 ",
"   c #777777",
".  c #787777",
"X  c #787877",
"o  c #7C7B7B",
"O  c #827E7C",
"+  c #84807F",
"@  c #9A897D",
"#  c #848383",
"$  c #8B8584",
"%  c #8C8B8C",
"&  c #9C8C81",
"*  c #928E8D",
"=  c #9B9F85",
"-  c #9F978E",
";  c #9C9287",
":  c #8E9C9F",
">  c #949393",
",  c #999594",
"<  c #9E9A95",
"1  c #989798",
"2  c #979B9E",
"3  c #9C9B9B",
"4  c #A18D85",
"5  c #A48E89",
"6  c #A7908B",
"7  c #AA948E",
"8  c #A9998E",
"9  c #A09A91",
"0  c #AE9992",
"q  c #A29E9E",
"w  c #AD9691",
"e  c #B19B96",
"r  c #B39E9A",
"t  c #99A08C",
"y  c #8FA09B",
"u  c #99A195",
"i  c #96AA97",
"p  c #97AA97",
"a  c #A2A182",
"s  c #ACA285",
"d  c #B4A38A",
"f  c #B9A38D",
"g  c #A9A094",
"h  c #AAAF93",
"j  c #ABA69B",
"k  c #A6AE9C",
"l  c #AAA89E",
"z  c #BEA391",
"x  c #B5A09D",
"c  c #B8A29E",
"v  c #A3B693",
"b  c #ADBC93",
"n  c #B2B190",
"m  c #BBB293",
"M  c #B4BF94",
"N  c #8E99A2",
"B  c #9399A4",
"V  c #999BA1",
"C  c #979EB5",
"Z  c #999FB4",
"A  c #9FA2AD",
"S  c #9DAFAC",
"D  c #9FB5AB",
"F  c #97A2B5",
"G  c #9EA4B2",
"H  c #9BABB1",
"J  c #A4A3A4",
"K  c #AAA6A6",
"L  c #A4ACA5",
"P  c #A2A5AA",
"I  c #A8A7A8",
"U  c #ACABAC",
"Y  c #A3A9A9",
"T  c #B4A2A1",
"R  c #BDA5A2",
"E  c #B1AEAF",
"W  c #A8BFA2",
"Q  c #A3BBA8",
"!  c #ABACB1",
"~  c #A4A8B4",
"^  c #B0AFB0",
"/  c #B4B3B4",
"(  c #B5B5BC",
")  c #B8B7B8",
"_  c #BCBBBC",
"`  c #C2A494",
"'  c #C4A69B",
"]  c #C2B296",
"[  c #C6B199",
"{  c #CAB19D",
"}  c #C0A9A7",
"|  c #C3ADAC",
" . c #C2A6A1",
".. c #CEB1A1",
"X. c #CEB7AF",
"o. c #CDBCAC",
"O. c #D2B2A5",
"+. c #D3B5AB",
"@. c #C6B3B2",
"#. c #BCC296",
"$. c #B3C89F",
"%. c #B8CB9F",
"&. c #A5C2A7",
"*. c #ABC6A3",
"=. c #ADCCA4",
"-. c #BECDA0",
";. c #B4D2A5",
":. c #BCD6A6",
">. c #ACC7BB",
",. c #B0CDBF",
"<. c #B3D4B5",
"1. c #BDDDB2",
"2. c #B7D9BA",
"3. c #BDDDBA",
"4. c #B3D4BC",
"5. c #C5C49A",
"6. c #CCC59E",
"7. c #C3CFA1",
"8. c #C8CFA3",
"9. c #D1C4A4",
"0. c #D1C1A8",
"q. c #C2D8A9",
"w. c #CBDAAD",
"e. c #CCD0A4",
"r. c #D1D1A7",
"t. c #D9D2AD",
"y. c #D5D1A9",
"u. c #D5C7B4",
"i. c #DACDB4",
"p. c #CADEBE",
"a. c #C3DEBB",
"s. c #DCD1B1",
"d. c #D3D9B2",
"f. c #DBDFBF",
"g. c #D4D4B5",
"h. c #C7E2B4",
"j. c #D0E4B7",
"k. c #D6E5B9",
"l. c #DCE5BD",
"z. c #AAAFC7",
"x. c #A6ADCB",
"c. c #AAAEC9",
"v. c #A6B4C5",
"b. c #AFB1C5",
"n. c #AABEC3",
"m. c #A8B7C9",
"M. c #A6B1CB",
"N. c #B2B3C2",
"B. c #B5BBDD",
"V. c #BCBEDA",
"C. c #ADC6C3",
"Z. c #BFD3C7",
"A. c #BFD1CB",
"S. c #BEDCCB",
"D. c #B7CBD5",
"F. c #BCCBD3",
"G. c #BCC2D9",
"H. c #BAC8DB",
"J. c #BCD1D4",
"K. c #BEC5E3",
"L. c #BEC2E8",
"P. c #C3C3C4",
"I. c #C7C7C8",
"U. c #CACACB",
"Y. c #C5C6D5",
"T. c #CCCCD1",
"R. c #C2C3D9",
"E. c #CBCBDB",
"W. c #C0D6D2",
"Q. c #D3D3D5",
"!. c #D4D4DA",
"~. c #DADADC",
"^. c #C3E4C4",
"/. c #C8E7C1",
"(. c #CDE8C1",
"). c #D1E7C2",
"_. c #C6C7E5",
"`. c #CDCEE7",
"'. c #C3C5EA",
"]. c #CACBEA",
"[. c #CFD0E9",
"{. c #DCDCE3",
"}. c #D5D5E8",
"|. c #DBDBE8",
" X c #E4E4E5",
".X c #E4E4E8",
"XX c None",
/* pixels */
"XXXXXXXXXXXXXXXXXXXXXXXXXXXXXXXXXXXXXXXXXXXXXXXXXXXXXXXXXXXXXXXXXXXXXXXXXXXXXXXXXXXXXXXXXXXXXXXXXXXXXXXXXXXXXXXXXXXXXXXXXXXXXXXX",
"XXXXXXXXXXXXXXXXXXXXXXXXXXXXXXXXXXXXXXXXXXXXXXXXXXXXXXXXXXXXXXXXXXXXXXXXXXXXXXXXXXXXXXXXXXXXXXXXXXXXXXXXXXXXXXXXXXXXXXXXXXXXXXXX",
"XXXXXXXXXXXXXXXXXXXXXXXXXXXXXXXXXXXXXXXXXXXXXXXXXXXXXXXXXXXXXXX.@./ K XXXXXXXXXXXXXXXXXXXXXXXXXXXXXXXXXXXXXXXXXXXXXXXXXXXXXXXXXX",
"XXXXXXXXXXXXXXXXXXXXXXXXXXXXXXXXXXXXXXXXXXXXXXXXXXXXXXXXXXXXu.+.@./ J > XXXXXXXXXXXXXXXXXXXXXXXXXXXXXXXXXXXXXXXXXXXXXXXXXXXXXXXX",
"XXXXXXXXXXXXXXXXXXXXXXXXXXXXXXXXXXXXXXXXXXXXXXXXXXXXXXXXXXXXi.+.@.E A > XXXXXXXXXXXXXXXXXXXXXXXXXXXXXXXXXXXXXXXXXXXXXXXXXXXXXXXX",
"XXXXXXXXXXXXXXXXXXXXXXXXXXXXXXXXXXXXXXXXXXXXXXXXXXXXXXXXXXl.s.+.| U 3 * # XXXXXXXXXXXXXXXXXXXXXXXXXXXXXXXXXXXXXXXXXXXXXXXXXXXXXX",
"XXXXXXXXXXXXXXXXXXXXXXXXXXXXXXXXXXXXXXXXXXXXXXXXXXXXXXXXXXl.s.+.} U 3 % # XXXXXXXXXXXXXXXXXXXXXXXXXXXXXXXXXXXXXXXXXXXXXXXXXXXXXX",
"XXXXXXXXXXXXXXXXXXXXXXXXXXXXXXXXXXXXXXXXXXXXXXXXXXXXXXXXXXl.s.+.} K 3 % o XXXXXXXXXXXXXXXXXXXXXXXXXXXXXXXXXXXXXXXXXXXXXXXXXXXXXX",
"XXXXXXXXXXXXXXXXXXXXXXXXXXXXXXXXXXXXXXXXXXXXXXXXXXXXXXXX).l.t.O. .K , # o O XXXXXXXXXXXXXXXXXXXXXXXXXXXXXXXXXXXXXXXXXXXXXXXXXXXX",
"XXXXXXXXXXXXXXXXXXXXXXXXXXXXXXXXXXXXXXXXXXXXXXXXXXXXXXXX(.k.t...R K , # X O XXXXXXXXXXXXXXXXXXXXXXXXXXXXXXXXXXXXXXXXXXXXXXXXXXXX",
"XXXXXXXXXXXXXXXXXXXXXXXXXXXXXXXXXXXXXXXXXXXXXXXXXXXXXXXX/.j.y...R J > # . o XXXXXXXXXXXXXXXXXXXXXXXXXXXXXXXXXXXXXXXXXXXXXXXXXXXX",
"XXXXXXXXXXXXXXXXXXXXXXXXXXXXXXXXXXXXXXXXXXXXXXXXXXXXXXXX/.h.r.{ c u * + . # XXXXXXXXXXXXXXXXXXXXXXXXXXXXXXXXXXXXXXXXXXXXXXXXXXXX",
"XXXXXXXXXXXXXXXXXXXXXXXXXXXXXXXXXXXXXXXXXXXXXXXXXXXXXXW.^.1.e.[ r q % O . # * XXXXXXXXXXXXXXXXXXXXXXXXXXXXXXXXXXXXXXXXXXXXXXXXXX",
"XXXXXXXXXXXXXXXXXXXXXXXXXXXXXXXXXXXXXXXXXXXXXXXXXXXXXXJ.S.1.7.[ r < % o . # > XXXXXXXXXXXXXXXXXXXXXXXXXXXXXXXXXXXXXXXXXXXXXXXXXX",
"XXXXXXXXXXXXXXXXXXXXXXXXXXXXXXXXXXXXXXXXXXXXXXXXXXXXXX_.S.1.7.] e , % o . # 1 XXXXXXXXXXXXXXXXXXXXXXXXXXXXXXXXXXXXXXXXXXXXXXXXXX",
"XXXXXXXXXXXXXXXXXXXXXXXXXXXXXXXXXXXXXXXXXXXXXXXXXXXXXXK.J.1.5.] e , $ . o $ 2 XXXXXXXXXXXXXXXXXXXXXXXXXXXXXXXXXXXXXXXXXXXXXXXXXX",
"XXXXXXXXXXXXXXXXXXXXXXXXXXXXXXXXXXXXXXXXXXXXXXXXXXXXXXK.D.<.%.m 0 > #   o % 3 XXXXXXXXXXXXXXXXXXXXXXXXXXXXXXXXXXXXXXXXXXXXXXXXXX",
"XXXXXXXXXXXXXXXXXXXXXXXXXXXXXXXXXXXXXXXXXXXXXXXXXXXXXXL.H.>.$.n 8 > #   o % 3 K XXXXXXXXXXXXXXXXXXXXXXXXXXXXXXXXXXXXXXXXXXXXXXXX",
"XXXXXXXXXXXXXXXXXXXXXXXXXXXXXXXXXXXXXXXXXXXXXXXXXXXX_.'.B.>.&.n 8 * +   + * 3 I XXXXXXXXXXXXXXXXXXXXXXXXXXXXXXXXXXXXXXXXXXXXXXXX",
"XXXXXXXXXXXXXXXXXXXXXXXXXXXXXXXXXXXXXXXXXXXXXXXXXXXX`.'.B.( &.h 8 * o   + > J U XXXXXXXXXXXXXXXXXXXXXXXXXXXXXXXXXXXXXXXXXXXXXXXX",
"XXXXXXXXXXXXXXXXXXXXXXXXXXXXXXXXXXXXXXXXXXXXXXXXXXXX}.].B.v.Q h 8 * +   # > P U XXXXXXXXXXXXXXXXXXXXXXXXXXXXXXXXXXXXXXXXXXXXXXXX",
"XXXXXXXXXXXXXXXXXXXXXXXXXXXXXXXXXXXXXXXXXXXXXXXXXXXX|.[.B.v.D h 0 , + X $ > Y ! XXXXXXXXXXXXXXXXXXXXXXXXXXXXXXXXXXXXXXXXXXXXXXXX",
"XXXXXXXXXXXXXXXXXXXXXXXXXXXXXXXXXXXXXXXXXXXXXXXXXXXX X}.V.z.S k j 1 # o $ 2 I / XXXXXXXXXXXXXXXXXXXXXXXXXXXXXXXXXXXXXXXXXXXXXXXX",
"XXXXXXXXXXXXXXXXXXXXXXXXXXXXXXXXXXXXXXXXXXXXXXXXXXXX.X}.V.z.S L l 3 % o % 3 U ) XXXXXXXXXXXXXXXXXXXXXXXXXXXXXXXXXXXXXXXXXXXXXXXX",
"XXXXXXXXXXXXXXXXXXXXXXXXXXXXXXXXXXXXXXXXXXXXXXXXXXXX.X{.R.z.G L l < % # % 3 U ) XXXXXXXXXXXXXXXXXXXXXXXXXXXXXXXXXXXXXXXXXXXXXXXX",
"XXXXXXXXXXXXXXXXXXXXXXXXXXXXXXXXXXXXXXXXXXXXXXXXXXXX.X{.Y.b.~ L XXXX% # > A ^ _ XXXXXXXXXXXXXXXXXXXXXXXXXXXXXXXXXXXXXXXXXXXXXXXX",
"XXXXXXXXXXXXXXXXXXXXXXXXXXXXXXXXXXXXXXXXXXXXXXXXXXXX X{.T.N.~ Y XXXX* % > J ^ ,.XXXXXXXXXXXXXXXXXXXXXXXXXXXXXXXXXXXXXXXXXXXXXXXX",
"XXXXXXXXXXXXXXXXXXXXXXXXXXXXXXXXXXXXXXXXXXXXXXXXXXXX X~.U.N.~ Y XXXX> * > I ) @.XXXXXXXXXXXXXXXXXXXXXXXXXXXXXXXXXXXXXXXXXXXXXXXX",
"XXXXXXXXXXXXXXXXXXXXXXXXXXXXXXXXXXXXXXXXXXXXXXXXXXXX X~.I.) ~ P XXXX> > 1 I ) P.XXXXXXXXXXXXXXXXXXXXXXXXXXXXXXXXXXXXXXXXXXXXXXXX",
"XXXXXXXXXXXXXXXXXXXXXXXXXXXXXXXXXXXXXXXXXXXXXXXXXXXX X~.I.) ! XXXXXXXX> 1 I ) I.XXXXXXXXXXXXXXXXXXXXXXXXXXXXXXXXXXXXXXXXXXXXXXXX",
"XXXXXXXXXXXXXXXXXXXXXXXXXXXXXXXXXXXXXXXXXXXXXXXXXXXX X~.P.) U XXXXXXXX1 3 U _ I.I.XXXXXXXXXXXXXXXXXXXXXXXXXXXXXXXXXXXXXXXXXXXXXX",
"XXXXXXXXXXXXXXXXXXXXXXXXXXXXXXXXXXXXXXXXXXXXXXXXXX~.~.Q.P./ U XXXXXXXXV u ^ _ U.I.XXXXXXXXXXXXXXXXXXXXXXXXXXXXXXXXXXXXXXXXXXXXXX",
"XXXXXXXXXXXXXXXXXXXXXXXXXXXXXXXXXXXXXXXXXXXXXXXXXXQ.~.Q.A./ U XXXXXXXX3 q ! P.U.U.XXXXXXXXXXXXXXXXXXXXXXXXXXXXXXXXXXXXXXXXXXXXXX",
"XXXXXXXXXXXXXXXXXXXXXXXXXXXXXXXXXXXXXXXXXXXXXXXXXXXX~.T.) ! K XXXXXXXXV J / I.T.U.XXXXXXXXXXXXXXXXXXXXXXXXXXXXXXXXXXXXXXXXXXXXXX",
"XXXXXXXXXXXXXXXXXXXXXXXXXXXXXXXXXXXXXXXXXXXXXXXXXXXX~.U._ E K XXXXXXXXV J / P.Q.XXXXXXXXXXXXXXXXXXXXXXXXXXXXXXXXXXXXXXXXXXXXXXXX",
"XXXXXXXXXXXXXXXXXXXXXXXXXXXXXXXXXXXXXXXXXXXXXXXXXXXXQ.U._ K J 3 XXXX2 B P / I.Q.XXXXXXXXXXXXXXXXXXXXXXXXXXXXXXXXXXXXXXXXXXXXXXXX",
"XXXXXXXXXXXXXXXXXXXXXXXXXXXXXXXXXXXXXXXXXXXXXXXXXXXXQ.U.) L J 3 XXXXB B A ) I.Q.XXXXXXXXXXXXXXXXXXXXXXXXXXXXXXXXXXXXXXXXXXXXXXXX",
"XXXXXXXXXXXXXXXXXXXXXXXXXXXXXXXXXXXXXXXXXXXXXXXXXXXXT.I./ J 3 3 XXXX2 B Z ( U.!.XXXXXXXXXXXXXXXXXXXXXXXXXXXXXXXXXXXXXXXXXXXXXXXX",
"XXXXXXXXXXXXXXXXXXXXXXXXXXXXXXXXXXXXXXXXXXXXXXXXXXXXT.P./ J 1 1 XXXXu N Z N.U.!.XXXXXXXXXXXXXXXXXXXXXXXXXXXXXXXXXXXXXXXXXXXXXXXX",
"XXXXXXXXXXXXXXXXXXXXXXXXXXXXXXXXXXXXXXXXXXXXXXXXXXXXU.u.U A > > , < 3 N Z b.T.!.XXXXXXXXXXXXXXXXXXXXXXXXXXXXXXXXXXXXXXXXXXXXXXXX",
"XXXXXXXXXXXXXXXXXXXXXXXXXXXXXXXXXXXXXXXXXXXXXXXXXXXXI._ U l > % > 9 t : Z c.Y.!.XXXXXXXXXXXXXXXXXXXXXXXXXXXXXXXXXXXXXXXXXXXXXXXX",
"XXXXXXXXXXXXXXXXXXXXXXXXXXXXXXXXXXXXXXXXXXXXXXXXXXXXI._ U 3 % $ * - t y F x.R.!.XXXXXXXXXXXXXXXXXXXXXXXXXXXXXXXXXXXXXXXXXXXXXXXX",
"XXXXXXXXXXXXXXXXXXXXXXXXXXXXXXXXXXXXXXXXXXXXXXXXXXXXP.) P 3 % O $ ; t i F x.V.E.XXXXXXXXXXXXXXXXXXXXXXXXXXXXXXXXXXXXXXXXXXXXXXXX",
"XXXXXXXXXXXXXXXXXXXXXXXXXXXXXXXXXXXXXXXXXXXXXXXXXXXX_ ) I 1 # o O @ = i F x.V._.XXXXXXXXXXXXXXXXXXXXXXXXXXXXXXXXXXXXXXXXXXXXXXXX",
"XXXXXXXXXXXXXXXXXXXXXXXXXXXXXXXXXXXXXXXXXXXXXXXXXXXX_ / K > # . O @ @ *.Q v.B.R.XXXXXXXXXXXXXXXXXXXXXXXXXXXXXXXXXXXXXXXXXXXXXXXX",
"XXXXXXXXXXXXXXXXXXXXXXXXXXXXXXXXXXXXXXXXXXXXXXXXXXXX) / A > #   O @ @ v D v.B.G.XXXXXXXXXXXXXXXXXXXXXXXXXXXXXXXXXXXXXXXXXXXXXXXX",
"XXXXXXXXXXXXXXXXXXXXXXXXXXXXXXXXXXXXXXXXXXXXXXXXXXXX) ^ 3 * #   O @ @ v &.M.B.B.XXXXXXXXXXXXXXXXXXXXXXXXXXXXXXXXXXXXXXXXXXXXXXXX",
"XXXXXXXXXXXXXXXXXXXXXXXXXXXXXXXXXXXXXXXXXXXXXXXXXXXXXX! u * o   O @ d #.&.C.H.XXXXXXXXXXXXXXXXXXXXXXXXXXXXXXXXXXXXXXXXXXXXXXXXXX",
"XXXXXXXXXXXXXXXXXXXXXXXXXXXXXXXXXXXXXXXXXXXXXXXXXXXXXXU 3 % o   + & s b =.C.G.XXXXXXXXXXXXXXXXXXXXXXXXXXXXXXXXXXXXXXXXXXXXXXXXXX",
"XXXXXXXXXXXXXXXXXXXXXXXXXXXXXXXXXXXXXXXXXXXXXXXXXXXXXXU 3 % o . $ & d #.=.C.F.XXXXXXXXXXXXXXXXXXXXXXXXXXXXXXXXXXXXXXXXXXXXXXXXXX",
"XXXXXXXXXXXXXXXXXXXXXXXXXXXXXXXXXXXXXXXXXXXXXXXXXXXXXXK 3 # . o $ 4 d #.;.4.F.XXXXXXXXXXXXXXXXXXXXXXXXXXXXXXXXXXXXXXXXXXXXXXXXXX",
"XXXXXXXXXXXXXXXXXXXXXXXXXXXXXXXXXXXXXXXXXXXXXXXXXXXXXXY > # . o $ 5 f #.;.2.A.XXXXXXXXXXXXXXXXXXXXXXXXXXXXXXXXXXXXXXXXXXXXXXXXXX",
"XXXXXXXXXXXXXXXXXXXXXXXXXXXXXXXXXXXXXXXXXXXXXXXXXXXXXXXX> # . o * 6 f 5.:.3.Z.XXXXXXXXXXXXXXXXXXXXXXXXXXXXXXXXXXXXXXXXXXXXXXXXXX",
"XXXXXXXXXXXXXXXXXXXXXXXXXXXXXXXXXXXXXXXXXXXXXXXXXXXXXXXX> o . o * 6 ` 5.q.3.XXXXXXXXXXXXXXXXXXXXXXXXXXXXXXXXXXXXXXXXXXXXXXXXXXXX",
"XXXXXXXXXXXXXXXXXXXXXXXXXXXXXXXXXXXXXXXXXXXXXXXXXXXXXXXX% #   # * 7 ` 5.w.a.XXXXXXXXXXXXXXXXXXXXXXXXXXXXXXXXXXXXXXXXXXXXXXXXXXXX",
"XXXXXXXXXXXXXXXXXXXXXXXXXXXXXXXXXXXXXXXXXXXXXXXXXXXXXXXX% o . # ; w ` 6.w.p.XXXXXXXXXXXXXXXXXXXXXXXXXXXXXXXXXXXXXXXXXXXXXXXXXXXX",
"XXXXXXXXXXXXXXXXXXXXXXXXXXXXXXXXXXXXXXXXXXXXXXXXXXXXXXXXXXo o # , 0 ` 9.d.p.XXXXXXXXXXXXXXXXXXXXXXXXXXXXXXXXXXXXXXXXXXXXXXXXXXXX",
"XXXXXXXXXXXXXXXXXXXXXXXXXXXXXXXXXXXXXXXXXXXXXXXXXXXXXXXXXXo o % 1 e ' 0.d.XXXXXXXXXXXXXXXXXXXXXXXXXXXXXXXXXXXXXXXXXXXXXXXXXXXXXX",
"XXXXXXXXXXXXXXXXXXXXXXXXXXXXXXXXXXXXXXXXXXXXXXXXXXXXXXXXXXo o % < r  .0.g.XXXXXXXXXXXXXXXXXXXXXXXXXXXXXXXXXXXXXXXXXXXXXXXXXXXXXX",
"XXXXXXXXXXXXXXXXXXXXXXXXXXXXXXXXXXXXXXXXXXXXXXXXXXXXXXXXXXXX# % q r ' X.XXXXXXXXXXXXXXXXXXXXXXXXXXXXXXXXXXXXXXXXXXXXXXXXXXXXXXXX",
"XXXXXXXXXXXXXXXXXXXXXXXXXXXXXXXXXXXXXXXXXXXXXXXXXXXXXXXXXXXX$ > q T  .o.XXXXXXXXXXXXXXXXXXXXXXXXXXXXXXXXXXXXXXXXXXXXXXXXXXXXXXXX",
"XXXXXXXXXXXXXXXXXXXXXXXXXXXXXXXXXXXXXXXXXXXXXXXXXXXXXXXXXXXXXX3 q T  .XXXXXXXXXXXXXXXXXXXXXXXXXXXXXXXXXXXXXXXXXXXXXXXXXXXXXXXXXX",
"XXXXXXXXXXXXXXXXXXXXXXXXXXXXXXXXXXXXXXXXXXXXXXXXXXXXXXXXXXXXXXXXXXXXXXXXXXXXXXXXXXXXXXXXXXXXXXXXXXXXXXXXXXXXXXXXXXXXXXXXXXXXXXXX",
"XXXXXXXXXXXXXXXXXXXXXXXXXXXXXXXXXXXXXXXXXXXXXXXXXXXXXXXXXXXXXXXXXXXXXXXXXXXXXXXXXXXXXXXXXXXXXXXXXXXXXXXXXXXXXXXXXXXXXXXXXXXXXXXX"
};
