/* XPM */
static char *result[] = {
/* columns rows colors chars-per-pixel */
"64 64 14 1 ",
"  c #5B5B6B",
". c #5D5D6E",
"X c #636376",
"o c #686878",
"O c #70707F",
"+ c #6F6F85",
"@ c #707081",
"# c #79798D",
"$ c #7D7D8F",
"% c #8A8A9E",
"& c #9090A2",
"* c #9494A7",
"= c #9393AA",
"- c #C1C1DF",
/* pixels */
"####++++++++++++++++++++++++++++++++++++++++XXXXXXXXXXXXXXXX....",
"####++++++++++++++++++++++++++++++++++++++++XXXXXXXXXXXXXXXX....",
"####++++++++++++++++++++++++++++++++++++++++XXXXXXXXXXXXXXXX....",
"####++++++++++++++++++++++++++++++++++++++++XXXXXXXXXXXXXXXX....",
"OOOO========================================$$$$$$$$$$$$$$$$    ",
"OOOO========================================$$$$$$$$$$$$$$$$    ",
"OOOO========================================$$$$$$$$$$$$$$$$    ",
"OOOO========================================$$$$$$$$$$$$$$$$    ",
"OOOO========================================$$$$$$$$$$$$$$$$    ",
"OOOO========================================$$$$$$$$$$$$$$$$    ",
"OOOO========================================$$$$$$$$$$$$$$$$    ",
"OOOO========================================$$$$$$$$$$$$$$$$    ",
"OOOO========================================$$$$$$$$$$$$$$$$    ",
"OOOO========================================$$$$$$$$$$$$$$$$    ",
"OOOO========================================$$$$$$$$$$$$$$$$    ",
"OOOO========================================$$$$$$$$$$$$$$$$    ",
"OOOO========================================$$$$$$$$$$$$$$$$    ",
"OOOO========================================$$$$$$$$$$$$$$$$    ",
"OOOO========================================$$$$$$$$$$$$$$$$    ",
"OOOO========================================$$$$$$$$$$$$$$$$    ",
"****----------------------------------------================++++",
"****----------------------------------------================++++",
"****----------------------------------------================++++",
"****----------------------------------------================++++",
"****----------------------------------------================++++",
"****----------------------------------------================++++",
"****----------------------------------------================++++",
"****----------------------------------------================++++",
"****----------------------------------------================++++",
"****----------------------------------------================++++",
"****----------------------------------------================++++",
"****----------------------------------------================++++",
"****----------------------------------------================++++",
"****----------------------------------------================++++",
"****----------------------------------------================++++",
"****----------------------------------------================++++",
"****----------------------------------------================++++",
"****----------------------------------------================++++",
"****----------------------------------------================++++",
"****----------------------------------------================++++",
"****----------------------------------------================++++",
"****----------------------------------------================++++",
"****----------------------------------------================++++",
"****----------------------------------------================++++",
"****----------------------------------------================++++",
"****----------------------------------------================++++",
"****----------------------------------------================++++",
"****----------------------------------------================++++",
"****----------------------------------------================++++",
"****----------------------------------------================++++",
"****----------------------------------------================++++",
"****----------------------------------------================++++",
"****----------------------------------------================++++",
"****----------------------------------------================++++",
"****----------------------------------------================++++",
"****----------------------------------------================++++",
"****----------------------------------------================++++",
"****----------------------------------------================++++",
"****----------------------------------------================++++",
"****----------------------------------------================++++",
"&&&&%%%%%%%%%%%%%%%%%%%%%%%%%%%%%%%%%%%%%%%%oooooooooooooooo@@@@",
"&&&&%%%%%%%%%%%%%%%%%%%%%%%%%%%%%%%%%%%%%%%%oooooooooooooooo@@@@",
"&&&&%%%%%%%%%%%%%%%%%%%%%%%%%%%%%%%%%%%%%%%%oooooooooooooooo@@@@",
"&&&&%%%%%%%%%%%%%%%%%%%%%%%%%%%%%%%%%%%%%%%%oooooooooooooooo@@@@"
};
