/* XPM */
static char *_1dc44a2b879449d8907781b7d8d01c3rxcFbFI7idMoj9jg[] = {
/* columns rows colors chars-per-pixel */
"64 64 9 1 ",
"  c None",
". c #0C0A0A",
"X c #15151B",
"o c #202024",
"O c #5F2626",
"+ c #444459",
"@ c #665E5E",
"# c #930A13",
"$ c #00FF36",
/* pixels */
"                                                                ",
"                                                                ",
"                                                                ",
"                                                                ",
"                                                                ",
"                                                                ",
"                                                                ",
"                                                                ",
"        oooooooooooooooooooooooooooooooooooooooooooooooo        ",
"        oooooooooooooooooooooooooooooooooooooooooooooooo        ",
"        oooooooooooooooooooooooooooooooooooooooooooooooo        ",
"        oooooooooooooooooooooooooooooooooooooooooooooooo        ",
"        oooo........................................oooo        ",
"        oooo........................................oooo        ",
"        oooo....$$$$$$$$$$..........................oooo        ",
"        oooo....$$$$$$$$$$..........................oooo        ",
"        oooo........................................oooo        ",
"        oooo........................................oooo        ",
"        oooo....$$$$$$$$$$$$$$$$$$$$$...............oooo        ",
"        oooo....$$$$$$$$$$$$$$$$$$$$$...............oooo        ",
"        oooo........................................oooo        ",
"        oooo........................................oooo        ",
"        oooo....$$$$$$$$$$$$$.......................oooo        ",
"        oooo....$$$$$$$$$$$$$.......................oooo        ",
"        oooo........................................oooo        ",
"        oooo........................................oooo        ",
"        oooo....$$$$$$$$$$$$$$$$$...................oooo        ",
"        oooo....$$$$$$$$$$$$$$$$$...................oooo        ",
"        oooo........................................oooo        ",
"        oooo........................................oooo        ",
"        oooo........................................oooo        ",
"        oooo.................................@@@....oooo        ",
"        oooo....####################.........@@@....oooo        ",
"        oooo....####################.........@@@....oooo        ",
"        oooo....####################.........@@@....oooo        ",
"        oooo.................................@@@....oooo        ",
"        oooo.................................@@@....oooo        ",
"        oooo.................................@@@....oooo        ",
"        oooo.................................@@@....oooo        ",
"        oooo...........@@@@@@@@@@@@@@@@@@@@@@@@@....oooo        ",
"        oooo...........@@@@@@@@@@@@@@@@@@@@@@@@@....oooo        ",
"        oooo...........@@@@@@@@@@@@@@@@@@@@@@@@@....oooo        ",
"        oooo........................................oooo        ",
"        oooo........................................oooo        ",
"        oooooooooooooooooooooooooooooooooooooooooooooooo        ",
"          oooooooooooooooooooooooooooooooooooooooooooo          ",
"          XXXXXXXXXXXXXXXXXXXXXXXXXXXXXXXXXXXXXXXXXXXX          ",
"          XXXXXXXXXXXXXXXXXXXXXXXXXXXXXXXXXXXXXXXXXXXX          ",
"        XXX++++XX++++XX++++XXX++++XXX++++XX++++XX++++XXX        ",
"        XXXXXXXXXXXXXXXXXXXXXXXXXXXXXXXXXXXXXXXXXXXXXXXX        ",
"      XXX+++++X+++++X+++++X+++++X+++++X++++++XX++++++++XXX      ",
"      XXX+++++X+++++X+++++X+++++X+++++X++++++XX++++++++XXX      ",
"    XXXXXXXXXXXXXXXXXXXXXXXXXXXXXXXXXXXXXXXXXXXXXXXXXXXXXXXX    ",
"    XXOOOOOOOOOOX+++X++++++++++++++++++++++X+++X+++X++++++XX    ",
"  XXXXOOOOOOOOOOX+++X++++++++++++++++++++++X+++X+++X++++++XXXX  ",
"  XXXXOOOOOOOOOOX+++X++++++++++++++++++++++X+++X+++X++++++XXXX  ",
"XXXXXXXXXXXXXXXXXXXXXXXXXXXXXXXXXXXXXXXXXXXXXXXXXXXXXXXXXXXXXXXX",
"XXXXXXXXXXXXXXXXXXXXXXXXXXXXXXXXXXXXXXXXXXXXXXXXXXXXXXXXXXXXXXXX",
"XXXXXXXXXXXXXXXXXXXXXXXXXXXXXXXXXXXXXXXXXXXXXXXXXXXXXXXXXXXXXXXX",
"XXXXXXXXXXXXXXXXXXXXXXXXXXXXXXXXXXXXXXXXXXXXXXXXXXXXXXXXXXXXXXXX",
"                                                                ",
"                                                                ",
"                                                                ",
"                                                                "
};
