/* XPM */
static char *_962961bedc5499889ae0ab2923f942esbJTczLtRJPBZikW[] = {
/* columns rows colors chars-per-pixel */
"64 64 114 2 ",
"   c None",
".  c black",
"X  c #030000",
"o  c #050000",
"O  c #070000",
"+  c #070008",
"@  c #00000E",
"#  c #090009",
"$  c #0A000A",
"%  c #150000",
"&  c #160000",
"*  c #140002",
"=  c #190000",
"-  c #1A0000",
";  c #000012",
":  c #000014",
">  c #000015",
",  c #000016",
"<  c #000018",
"1  c #000019",
"2  c #00001A",
"3  c #00001B",
"4  c #00001C",
"5  c #00001D",
"6  c #00001F",
"7  c #200000",
"8  c #3F0000",
"9  c #400000",
"0  c #410000",
"q  c #420000",
"w  c #430000",
"e  c #440000",
"r  c #450000",
"t  c #460000",
"y  c #5F0000",
"u  c #600000",
"i  c #610000",
"p  c #620000",
"a  c #630000",
"s  c #640000",
"d  c #650000",
"f  c #660000",
"g  c #670000",
"h  c #920014",
"j  c #930015",
"k  c #920016",
"l  c #920017",
"z  c #930017",
"x  c #940018",
"c  c #950019",
"v  c #94001A",
"b  c #95001A",
"n  c #94001B",
"m  c #96001B",
"M  c #95001C",
"N  c #96001C",
"B  c #97001C",
"V  c #96001D",
"C  c #97001E",
"Z  c #97001F",
"A  c #990020",
"S  c #980021",
"D  c #990021",
"F  c #980022",
"G  c #990023",
"H  c #9A0023",
"J  c #CD003F",
"K  c #CF0042",
"L  c #CF0044",
"P  c #CF0045",
"I  c #CF0046",
"U  c #D00043",
"Y  c #D00044",
"T  c #D00046",
"R  c #D10046",
"E  c #D00047",
"W  c #D10047",
"Q  c #D20046",
"!  c #D10048",
"~  c #D20048",
"^  c #D30048",
"/  c #D20049",
"(  c #D1004A",
")  c #D2004A",
"_  c #D3004A",
"`  c #D3004C",
"'  c #D2004D",
"]  c #F93F68",
"[  c #F83F69",
"{  c #F93F69",
"}  c #FA3E69",
"|  c #F93D6A",
" . c #FA3D6A",
".. c #F83E6A",
"X. c #F93F6B",
"o. c #FA3E6B",
"O. c #FA3F6B",
"+. c #FA3D6C",
"@. c #F93F6C",
"#. c #FA3E6C",
"$. c #FB3E6D",
"%. c #FB3F6D",
"&. c #F74266",
"*. c #F84166",
"=. c #F94068",
"-. c #F84168",
";. c #F94168",
":. c #F84069",
">. c #F94069",
",. c #FA4169",
"<. c #F9406A",
"1. c #F9406B",
"2. c #FB406A",
"3. c #FC426B",
/* pixels */
"                                                              4                                                                 ",
"                                                            & 4 4                                                               ",
"                                                          3 3 v = 4                                                             ",
"                                                        & 4 v . B 4 4                                                           ",
"                                                      4 3 B . . . A . 4                                                         ",
"                                                    4 3 p . . =.. . p 4 4                                                       ",
"                                                  4 3 p . . =.& =.. . g . 4                                                     ",
"                                                & 3 p . . { . . . =.. . g 4 4                                                   ",
"                                              4 3 p . . $.4 . . . & =.. . g . 4                                                 ",
"                                            4 3 p . . ' . . . . . . . E . . g 4 4                                               ",
"                                          4 3 p . . E . . . . . . . . . E . . g . 4                                             ",
"                                        & 3 p . . P . . . . . . . . . . . E . . g 4 4                                           ",
"                                      4 3 p . . E . . . . . . . . . . . . . E . . g . 4                                         ",
"                                    & 3 p . . P . . . . . . . . . . . . . . . E . . g 4 4                                       ",
"                                  + 7 p . . E . . . . . . . . . . . . . . . . . E . . g . 4                                     ",
"                                4 + 0 . . P . . . . . . . . . . . . . . . . . . . B . . r 4 4                                   ",
"                              + 7 0 . . ) 4 . . . . . . . . . . . . . . . . . . . : E . . r . 4                                 ",
"                            & + 0 . . $.. . . . . . . . . 3 E $.) 4 . . . . . . . . . =.. . r 4 4                               ",
"                          + 7 0 . . { E 3 . . . . . . . . : ) ) ) 4 . . . . . . . . 4 ) =.. . r . 4                             ",
"                        4 + 0 . . { U ) v 3 . . . . . . . 4 j B B 4 . . . . . . . @ v ) ) =.. . r 4 4                           ",
"                      + 7 0 . . ) 4 4 v g p 4 . . . . . . ) v p A P 3 . . . . . 7 p g B . : E . . r . 4                         ",
"                    & + 0 . . P & . . . p r 0 3 . . . $ =.g g g p g &.3 . . . + 0 0 g . . . . E . . r 4 4                       ",
"                  4 3 p . . E . . . . . 4 0 E ) ) ) =.=.g 0 0 0 0 0 g { { P E P ) 0 $ . . . . . E . . g . 4                     ",
"                & 3 p . . P . . . . . . . : E g g 0 0 0 0 0 0 0 0 0 0 0 0 0 g p ) & . . . . . . . E . . g 4 4                   ",
"              4 3 p . . E . . . . . . . . . E g 0 r p ) ) E E E ) ) ) E g 0 0 g E . . . . . . . . . E . . g . 4                 ",
"            4 3 p . . P . . . . . . . . . . E 0 0 p ) ) ) ) E E ) ) ) ) U g 0 0 E . . . . . . . . . . E . . g 4 4               ",
"          4 3 p . . E . . . . . . . . . . . =.0 g ) ) ) ) ) E E ) ) ) ) E E g 0 =.. . . . . . . . . . . E . . g . 4             ",
"        & 3 p . . P . . . . . . . . . . . 3 3.r E ) ) ) ) ) ) E ) ) ) ) E ) U 0 =.3 . . . . . . . . . . . E . . g 4 4           ",
"      3 3 p . . =.4 . . . . . . . . . . : { g 0 E ) ) E E E ) ) ) P P P E ) ) 0 g { $ . . . . . . . . . . & =.. . p 7 4         ",
"    4 4 v . . { . . . . . . . . . 4 4 3 E g 0 0 E B y r r 0 E ) ) r 0 0 g j ) 0 0 g J 4 4 4 . . . . . . . . . =.. . A 4 4       ",
"  3 3 B . . =.4 . . . . . . . . . ) P B B g 0 0 E B g g g g E ) ) p g g g B ) 0 0 p A B ) ' . . . . . . . . . & =.. . v = 4     ",
"4 4 v . . { . . . . . . . . . . . =.E A y g 0 0 E B g g g 0 E E ) 0 g g g B ) 0 0 g p B ) =.. . . . . . . . . . . =.. . B 4 4   ",
"  3 & v . . *.3 . . . . . . . . . ) ) B v g 0 0 E ) j g 0 ) E B E E 0 p B ) ) 0 0 g v v ) E . . . . . . . . . 4 { . . B . 3     ",
"    & = v . . { 4 . . . . . . . . . . 4 ) g 0 0 E ) ) E E E g B g E U ) E ) ) 0 0 g ) 3 4 3 . . . . . . . . & { . . v . .       ",
"      3 & g . . *.4 o . . . . . . . . . 4 { g 0 ) ) ) ) ) E 0 B 8 ) ) ) ) ) E 0 g { 4 . . . . . . . . . . . $.. . p 4 4         ",
"        & . g . . E . . . . . . . . . . . 4 { p j ) ) ) ) E U ) ) ) ) ) ) ) j g *.3 . . . . . . . . . . . ) . . p 3 .           ",
"          3 & g . . ) . o . . . . . . . . . =.g 0 B E 0 E E ) E ) E ) 0 ) A 0 p =.. . . . . . . . . . o E . . p 4 4             ",
"            & . g . . E . . . . . . . . . . ) p g 0 B g E 0 E 0 E 0 E p j 0 p p ) . . . . . . . . . . E . . p 3 .               ",
"              3 & g . . ) . o . . . . . . . E A y g 0 p A g ) g ) p A g 0 g p B ) . . . . . . . . o E . . p 4 3                 ",
"                & . g . . E . . . . . . . ; E B B p g g 0 g v g v g 0 p g p A B ) 3 . . . . . . . E . . p 3 .                   ",
"                  3 & g . . ) . . . . . 4 r E ) ) ) =.{ g g 0 g 0 p g =.=.) ) ) E 0 4 . . . . . ) . . p 4 4                     ",
"                    & . r . . E : . . : p 0 r . . . . 4 { p g p g g =.7 . . . 4 0 r p 3 . . & v . . 0 3 .                       ",
"                      3 & 0 . . ) 4 . B p p 4 . . . . . 4 ) B y A E @ . . . . . 4 g g v 3 . ) . . 0 . 3                         ",
"                        & . r . . { E E B : . . . . . . . 4 v A v 3 . . . . . . . 4 j ) E $.. . 0 = 4                           ",
"                          3 & 0 . . *.' . . . . . . . . . ; E ) P 4 . . . . . . . . 4 K $.. . 0 . 4                             ",
"                            & . r . . { . . . . . . . . . ; E =.E 4 . . . . . . . . 4 { . . 0 = 4                               ",
"                              3 & 0 . . ) 4 o . . . . . . . . . . . . . . . . . . . E . . 0 . 4                                 ",
"                                & . r . . E . . . . . . . . . . . . . . . . . . . E . . 0 = 4                                   ",
"                                  3 & g . . ) . o . . . . . . . . . . . . . . o E . . p 4 3                                     ",
"                                    & . g . . E . . . . . . . . . . . . . . . E . . p 3 .                                       ",
"                                      3 & g . . ) . o . . . . . . . . . . o E . . p 4 4                                         ",
"                                        & . g . . E . . . . . . . . . . . E . . p 3 .                                           ",
"                                          3 & g . . ) . . . . . . . . o E . . p 4 3                                             ",
"                                            & . g . . E : . . . . . & E . . p 3 .                                               ",
"                                              3 & g . . *.3 . . . 4 { . . p 4 4                                                 ",
"                                                & . g . . { 4 . & { . . p 3 .                                                   ",
"                                                  3 & g . . *.4 { . . p 4 4                                                     ",
"                                                    & . g . . { . . p 3 .                                                       ",
"                                                      3 & v . . . B . 3                                                         ",
"                                                        & = v . v . .                                                           ",
"                                                          3 & B . 4                                                             ",
"                                                            & . .                                                               ",
"                                                              3                                                                 ",
"                                                                                                                                "
};
