/* XPM */
static char *_e24583b874b474bc0f42053e180ef2dSazM0o0RDkmoxOCv[] = {
/* columns rows colors chars-per-pixel */
"64 64 139 2 ",
"   c None",
".  c #020400",
"X  c #0D0100",
"o  c #000D00",
"O  c #000E0E",
"+  c #150100",
"@  c #1D0004",
"#  c #1D000F",
"$  c #001D03",
"%  c #00100A",
"&  c #001C0D",
"*  c #181900",
"=  c #000E17",
"-  c #00041E",
";  c #160016",
":  c #1E0014",
">  c #13001A",
",  c #1A001B",
"<  c #001D14",
"1  c #001E1B",
"2  c #210000",
"3  c #261300",
"4  c #300C1E",
"5  c #321014",
"6  c #30101C",
"7  c #00200B",
"8  c #00201A",
"9  c #3E2A16",
"0  c #2B3A1B",
"q  c #333113",
"w  c #323917",
"e  c #30381A",
"r  c #000E25",
"t  c #001C24",
"y  c #07162E",
"u  c #0C1A2E",
"i  c #001F37",
"p  c #0D1B35",
"a  c #001C3D",
"s  c #191231",
"d  c #101E32",
"f  c #1B1934",
"g  c #141C3C",
"h  c #1D183C",
"j  c #271020",
"k  c #2B1323",
"l  c #24162E",
"z  c #2B1028",
"x  c #37112B",
"c  c #271931",
"v  c #002327",
"b  c #002428",
"n  c #013A2F",
"m  c #1C3B21",
"M  c #153A2B",
"N  c #003E32",
"B  c #003D3E",
"V  c #153B34",
"C  c #49251F",
"Z  c #442B1A",
"A  c #422536",
"S  c #4F273A",
"D  c #462C3D",
"F  c #492B3C",
"G  c #005700",
"H  c #005C00",
"J  c #005E0A",
"K  c #005C10",
"L  c #006600",
"P  c #006D03",
"I  c #00600A",
"U  c #006E0C",
"Y  c #007102",
"T  c #00720A",
"R  c #006F11",
"E  c #007112",
"W  c #013C46",
"Q  c #0A3C49",
"!  c #3F2E48",
"~  c #26334A",
"^  c #31334D",
"/  c #293550",
"(  c #21365E",
")  c #2B315B",
"_  c #383259",
"`  c #452A42",
"'  c #4B2A47",
"]  c #422C48",
"[  c #482E4B",
"{  c #432C55",
"}  c #00852F",
"|  c #008A2C",
" . c #008634",
".. c #008936",
"X. c #008739",
"o. c #008B3A",
"O. c #009237",
"+. c #008640",
"@. c #008A42",
"#. c #009F45",
"$. c #009E4D",
"%. c #009E55",
"&. c #009E5A",
"*. c #00A24A",
"=. c #00A254",
"-. c #00A25A",
";. c #00BE5A",
":. c #00A060",
">. c #00A360",
",. c #00A460",
"<. c #00A562",
"1. c #00A461",
"2. c #00BD60",
"3. c #00BE60",
"4. c #00BF62",
"5. c #00BA67",
"6. c #00BE65",
"7. c #00BF66",
"8. c #00BE62",
"9. c #00BB6A",
"0. c #00BB6B",
"q. c #00BC69",
"w. c #00BC6B",
"e. c #00BE6A",
"r. c #00BE6B",
"t. c #00BB6D",
"y. c #00BE6D",
"u. c #00BF6D",
"i. c #00BD6E",
"p. c #00BE6E",
"a. c #00BE6F",
"s. c #00BE6D",
"d. c #00B970",
"f. c #00BE70",
"g. c #00BD73",
"h. c #00BC72",
"j. c #00BE79",
"k. c #00C066",
"l. c #00C06B",
/* pixels */
"                                                              ~                                                                 ",
"                                                            V ~ ~                                                               ",
"                                                          B B ..W ~                                                             ",
"                                                        V / ...  .~ ~                                                           ",
"                                                      ! ] @.O . o | M ~                                                         ",
"                                                    V W P O % p.r X P ~ ~                                                       ",
"                                                  ! ] L , + 3.%.q.. o P Q ~                                                     ",
"                                                V W P o : 7.=.&.-.p.r O Y ~ ~                                                   ",
"                                              ! ] L , - l.-.-.-.-.&.p.o O P Q ~                                                 ",
"                                            V W P o : %.P ........X.T -.; O Y ~ ~                                               ",
"                                          ! ] L , ; =.P } P  . .X.T ..P =.o O P Q ~                                             ",
"                                        V W P o : -.Y X.E U H  .I P P  .T -.; O Y ~ ~                                           ",
"                                      ! ] L , 2 *.Y ..T T T T H P T T P ..P -.o O P Q ~                                         ",
"                                    V W P o : :.-.-.-.................X.-.%.-.-.; O Y ~ ~                                       ",
"                                  ` [ L , o =.8 8 8 8 8 8 8 8 8 8 8 8 8 8 8 8 x *.o O P e ~                                     ",
"                                V Q H o : :.8 8 8 8 8 8 8 8 8 8 8 8 8 8 8 8 8 l * -.; X L ~ ~                                   ",
"                              ` [ H , o =.8 8 j o o o o u 1 b ..h 8 8 o o o o < k x *.o O G m ~                                 ",
"                            V Q H o - :.8 8 8 o o o o 8 8 y O.H +.8 8 8 o o o o d l * -.; @ L ~ ~                               ",
"                          ` [ H , o =.8 8 j o o o o u 1 b ..J H H ..h 8 8 o o o o < k x *.o O G m ~                             ",
"                        V Q H o - :.8 8 8 o o o o 8 8 y O.H H H H H +.8 8 8 o o o o d l * -.; @ L ~ ~                           ",
"                      ` [ H , o =.8 8 j o o o o u 1 b ..J H H G H H H ..h 8 8 o o o o < k x *.o O G m ~                         ",
"                    V Q H o - :.8 8 8 o o o o 8 8 y O.H H H H X.J H H H +.8 8 8 o o o o d l * -.; @ L ~ ~                       ",
"                  ! ] L , o =.8 8 j o o o o u & 8 ..J H H H o.P } G H H H ..h 8 8 o o o o < k x *.o O P Q ~                     ",
"                V W P o : :.8 8 8 o o o o 8 8 4 -.H H H H o.R X.E X.J H H H +.8 8 8 o o o o d l * -.; O Y ~ ~                   ",
"              ! ] L , ; =.-.u 8 o o o o u & 8 -.G H H H X.P ......Y ..G H H H -.i 8 8 o o o o 8 8 -.-.o O P Q ~                 ",
"            V W P o : -.Y -.u 8 o o o 8 8 4 -.J H H H ..: o.......| : X.J H H K &.8 8 8 o o o 8 8 =.P -.; O Y ~ ~               ",
"          ! ] L , ; =.P ..-.u 8 o o u & 8 -.G H H H X.o o -.-.-.-.-.o , ..G H H H -.i 8 8 o o 8 8 -...P =.o O P Q ~             ",
"        V W P o : -.Y o...-.u 8 o 8 8 4 -.J H H H ..: 8 o -.-.-.-.-.o 6 + X.J H H K &.8 8 8 o 8 8 -... .T -.; O Y ~ ~           ",
"      B B L , + 3.H o.....=.< 8 8 & 8 -.G H H H %.o u 8 o -.-.-.-.-.o 8 8 , =.J H H H -.i 8 8 8 8 %. .....H 5.. o P 0 ~         ",
"    V / ..o : 7.=.o.R ....q.4 8 8 4 -.J H H H $.; 8 8 8 o -.-.-.-.-.o 8 8 j o -.H H H K &.8 8 8 8 9. ...E ..=.p.r o } ~ ~       ",
"  B B @.O + 3.-.-.....P } p.8 t N 9.G H H H %.o u < < z : X.X.X.X...r z 6 8 $ : #.J H H H p.^ 8 u q. .P ....-.%.q.. o ..W ~     ",
"V / ..O % 7.=.-.-.....X.E p.8 A ;.J H H H $.; o D p.p.=.=.-.-.-.-.<.<.-.p.f.{ # . -.H H H H j.D k p.U o.....-.&.-.p.r .  .~ ~   ",
"  ~ D ..= : ;.-.-.....P ..p.8 8 V p.H H H H -.+ 7 F ;.-.-.-.-.-.-.-.-.$.d.~ u + *.H H G H t.( 8 8 q. .P } ..-.=.f.O : o.) ~     ",
"    V w  .; o q.=...E o...p.8 8 d ~ 7.H H H H <.g c q q.=.-.-.-.-.-.-.3.' 8 8 %.H H H H k.9 v 8 8 q. .X.E ..-.3., O ..m n       ",
"      ~ D P = : ;.J X.....-.u 8 u 8 8 <.H H H H -.5 $ F ;.-.-.-.-.$.d.~ u 3 $.H H H H &.a 8 u 8 8 -.......H f.; > T _ ~         ",
"        V ~ Y ; o &.U ....-.u 8 o 8 8 p %.H H H H -.s c q p.p.p.p.3.' 8 8 =.H H H H -.3 8 8 o 8 8 -.....E *.- O T m F           ",
"          ~ D P = : #.E o.-.u 8 o o d 8 8 <.H H H H <.5 $ F ;.q.q.~ u 3 $.H H H H &.a 8 u o o 8 8 -...P :.; > T _ ~             ",
"            V ~ Y # . &.T -.u 8 o o o 8 8 p %.H H P H -.s c q p.{ 8 8 =.H T H H -.3 8 8 o o o 8 8 -.U $.2 O T m F               ",
"              ~ D P = : #.-.u < o o o o d 8 8 <.H P P H <.5 $ ~ u 3 $.H U P H &.a 8 u o o o o 8 8 =.-.; > T _ ~                 ",
"                V ~ Y # . -.u < j o o o o 8 8 p %.P P P H -.s 8 8 =.H T T P =.3 8 8 o o o o k 8 8 -., O T m F                   ",
"                  ~ D P . : #.5 $ < o o o o d 8 8 -.Y P P H <.3 $.H U P P &.a 8 u o o o o 8 8 7 =.@ ; T _ ~                     ",
"                    V Z L # . -.s < j o o o o 8 8 < =.P P P H =.H T T U -.3 8 8 o o o o k 8 8 :.o O H m F                       ",
"                      ~ D G o : #.5 $ < o o o o d 8 8 &.Y P P H U P T &.a 8 u o o o o 8 8 7 =.@ ; G { ~                         ",
"                        V C L # . -.s < j o o o o 8 8 f q.P P T T P q.3 8 8 o o o o k 8 8 :.o O H n M                           ",
"                          ~ D G o : #.5 $ < o o o o d 8 V p.Y P T t.( 8 u o o o o 8 8 7 =.@ ; G { ~                             ",
"                            V C L # . -.s < j o o o o 8 d S 7.P q.9 v 8 o o o o k 8 8 :.o O H n M                               ",
"                              ~ D G o : #.5 $ < o o o o u 8 V t.( 8 8 o o o o 8 8 7 =.@ ; G { ~                                 ",
"                                V C L # . -.s < j k k 8 8 8 d 9 v 8 8 k k k k 8 8 :.o O H n M                                   ",
"                                  ~ D P = : #.z z z z z 6 < < < < < < z z z z 7 =.; > T _ ~                                     ",
"                                    V ~ Y # . =.=.=.=.-.p.f.p.p.p.p.p.=.=.=.=.:.o O T m F                                       ",
"                                      ~ D P = : #.o...X.X.o...o...X.X.o...o.-.; > T _ ~                                         ",
"                                        V ~ Y # . -.o.-.-.-.o.-.o.-.-.-.o.-., O T m F                                           ",
"                                          ~ D P = : #. .-.P -.-.-.Y %.o.-.; > T _ ~                                             ",
"                                            V ~ Y # . %.U %.-.-.-.-.P -., O T m F                                               ",
"                                              ~ D P = : ;.-.-.-.-.=.f.; > T _ ~                                                 ",
"                                                V ~ Y ; o q.=.-.-.3., O T m F                                                   ",
"                                                  ~ D P = : ;.=.f.; > T _ ~                                                     ",
"                                                    V ~ Y ; o 3., O T m F                                                       ",
"                                                      ~ D P = ; > T _ ~                                                         ",
"                                                        V ~ Y O T m F                                                           ",
"                                                          ~ D T _ ~                                                             ",
"                                                            V m F                                                               ",
"                                                              ~                                                                 ",
"                                                                                                                                "
};
