/* XPM */
static char *result[] = {
/* columns rows colors chars-per-pixel */
"64 64 12 1 ",
"  c #686878",
". c #707081",
"X c #79798D",
"o c #7C7C92",
"O c #83839C",
"+ c #8A8A9E",
"@ c #9090A2",
"# c #9494A7",
"$ c #9393AA",
"% c #9F9FB9",
"& c #ADADCD",
"* c #C1C1DF",
/* pixels */
"%%%%&&&&&&&&&&&&&&&&&&&&&&&&&&&&&&&&&&&&&&&&OOOOOOOOOOOOOOOOoooo",
"%%%%&&&&&&&&&&&&&&&&&&&&&&&&&&&&&&&&&&&&&&&&OOOOOOOOOOOOOOOOoooo",
"%%%%&&&&&&&&&&&&&&&&&&&&&&&&&&&&&&&&&&&&&&&&OOOOOOOOOOOOOOOOoooo",
"%%%%&&&&&&&&&&&&&&&&&&&&&&&&&&&&&&&&&&&&&&&&OOOOOOOOOOOOOOOOoooo",
"####****************************************$$$$$$$$$$$$$$$$XXXX",
"####****************************************$$$$$$$$$$$$$$$$XXXX",
"####****************************************$$$$$$$$$$$$$$$$XXXX",
"####****************************************$$$$$$$$$$$$$$$$XXXX",
"####****************************************$$$$$$$$$$$$$$$$XXXX",
"####****************************************$$$$$$$$$$$$$$$$XXXX",
"####****************************************$$$$$$$$$$$$$$$$XXXX",
"####****************************************$$$$$$$$$$$$$$$$XXXX",
"####****************************************$$$$$$$$$$$$$$$$XXXX",
"####****************************************$$$$$$$$$$$$$$$$XXXX",
"####****************************************$$$$$$$$$$$$$$$$XXXX",
"####****************************************$$$$$$$$$$$$$$$$XXXX",
"####****************************************$$$$$$$$$$$$$$$$XXXX",
"####****************************************$$$$$$$$$$$$$$$$XXXX",
"####****************************************$$$$$$$$$$$$$$$$XXXX",
"####****************************************$$$$$$$$$$$$$$$$XXXX",
"####****************************************$$$$$$$$$$$$$$$$XXXX",
"####****************************************$$$$$$$$$$$$$$$$XXXX",
"####****************************************$$$$$$$$$$$$$$$$XXXX",
"####****************************************$$$$$$$$$$$$$$$$XXXX",
"####****************************************$$$$$$$$$$$$$$$$XXXX",
"####****************************************$$$$$$$$$$$$$$$$XXXX",
"####****************************************$$$$$$$$$$$$$$$$XXXX",
"####****************************************$$$$$$$$$$$$$$$$XXXX",
"####****************************************$$$$$$$$$$$$$$$$XXXX",
"####****************************************$$$$$$$$$$$$$$$$XXXX",
"####****************************************$$$$$$$$$$$$$$$$XXXX",
"####****************************************$$$$$$$$$$$$$$$$XXXX",
"####****************************************$$$$$$$$$$$$$$$$XXXX",
"####****************************************$$$$$$$$$$$$$$$$XXXX",
"####****************************************$$$$$$$$$$$$$$$$XXXX",
"####****************************************$$$$$$$$$$$$$$$$XXXX",
"####****************************************$$$$$$$$$$$$$$$$XXXX",
"####****************************************$$$$$$$$$$$$$$$$XXXX",
"####****************************************$$$$$$$$$$$$$$$$XXXX",
"####****************************************$$$$$$$$$$$$$$$$XXXX",
"####****************************************$$$$$$$$$$$$$$$$XXXX",
"####****************************************$$$$$$$$$$$$$$$$XXXX",
"####****************************************$$$$$$$$$$$$$$$$XXXX",
"####****************************************$$$$$$$$$$$$$$$$XXXX",
"####****************************************$$$$$$$$$$$$$$$$XXXX",
"####****************************************$$$$$$$$$$$$$$$$XXXX",
"####****************************************$$$$$$$$$$$$$$$$XXXX",
"####****************************************$$$$$$$$$$$$$$$$XXXX",
"####****************************************$$$$$$$$$$$$$$$$XXXX",
"####****************************************$$$$$$$$$$$$$$$$XXXX",
"####****************************************$$$$$$$$$$$$$$$$XXXX",
"####****************************************$$$$$$$$$$$$$$$$XXXX",
"####****************************************$$$$$$$$$$$$$$$$XXXX",
"####****************************************$$$$$$$$$$$$$$$$XXXX",
"####****************************************$$$$$$$$$$$$$$$$XXXX",
"####****************************************$$$$$$$$$$$$$$$$XXXX",
"####****************************************$$$$$$$$$$$$$$$$XXXX",
"####****************************************$$$$$$$$$$$$$$$$XXXX",
"####****************************************$$$$$$$$$$$$$$$$XXXX",
"####****************************************$$$$$$$$$$$$$$$$XXXX",
"@@@@++++++++++++++++++++++++++++++++++++++++                ....",
"@@@@++++++++++++++++++++++++++++++++++++++++                ....",
"@@@@++++++++++++++++++++++++++++++++++++++++                ....",
"@@@@++++++++++++++++++++++++++++++++++++++++                ...."
};
