/* XPM */
static char *result[] = {
/* columns rows colors chars-per-pixel */
"64 64 8 1 ",
"  c #1E1E29",
". c #20202B",
"X c #242430",
"o c #292936",
"O c #333343",
"+ c #383849",
"@ c #404052",
"# c #4C4C61",
/* pixels */
"XXXX++++++++++++++++++++++++++++++++++++++++++++++++++++++++++++",
"XXXX++++++++++++++++++++++++++++++++++++++++++++++++++++++++++++",
"XXXX++++++++++++++++++++++++++++++++++++++++++++++++++++++++++++",
"XXXX++++++++++++++++++++++++++++++++++++++++++++++++++++++++++++",
"XXXX@@@@@@@@@@@@@@@@@@@@@@@@@@@@@@@@@@@@@@@@@@@@@@@@@@@@@@@@OOOO",
"XXXX@@@@@@@@@@@@@@@@@@@@@@@@@@@@@@@@@@@@@@@@@@@@@@@@@@@@@@@@OOOO",
"XXXX@@@@@@@@@@@@@@@@@@@@@@@@@@@@@@@@@@@@@@@@@@@@@@@@@@@@@@@@OOOO",
"XXXX@@@@@@@@@@@@@@@@@@@@@@@@@@@@@@@@@@@@@@@@@@@@@@@@@@@@@@@@OOOO",
"XXXX@@@@####oooo@@@@@@@@@@@@@@@@@@@@@@@@@@@@@@@@####oooo@@@@OOOO",
"XXXX@@@@####oooo@@@@@@@@@@@@@@@@@@@@@@@@@@@@@@@@####oooo@@@@OOOO",
"XXXX@@@@####oooo@@@@@@@@@@@@@@@@@@@@@@@@@@@@@@@@####oooo@@@@OOOO",
"XXXX@@@@####oooo@@@@@@@@@@@@@@@@@@@@@@@@@@@@@@@@####oooo@@@@OOOO",
"XXXX@@@@oooooooo@@@@@@@@@@@@@@@@@@@@@@@@@@@@@@@@oooooooo@@@@OOOO",
"XXXX@@@@oooooooo@@@@@@@@@@@@@@@@@@@@@@@@@@@@@@@@oooooooo@@@@OOOO",
"XXXX@@@@oooooooo@@@@@@@@@@@@@@@@@@@@@@@@@@@@@@@@oooooooo@@@@OOOO",
"XXXX@@@@oooooooo@@@@@@@@@@@@@@@@@@@@@@@@@@@@@@@@oooooooo@@@@OOOO",
"XXXX@@@@@@@@@@@@@@@@@@@@@@@@@@@@@@@@@@@@@@@@@@@@@@@@@@@@@@@@OOOO",
"XXXX@@@@@@@@@@@@@@@@@@@@@@@@@@@@@@@@@@@@@@@@@@@@@@@@@@@@@@@@OOOO",
"XXXX@@@@@@@@@@@@@@@@@@@@@@@@@@@@@@@@@@@@@@@@@@@@@@@@@@@@@@@@OOOO",
"XXXX@@@@@@@@@@@@@@@@@@@@@@@@@@@@@@@@@@@@@@@@@@@@@@@@@@@@@@@@OOOO",
"XXXX@@@@@@@@@@@@@@@@@@@@@@@@@@@@@@@@@@@@@@@@@@@@@@@@@@@@@@@@OOOO",
"XXXX@@@@@@@@@@@@@@@@@@@@@@@@@@@@@@@@@@@@@@@@@@@@@@@@@@@@@@@@OOOO",
"XXXX@@@@@@@@@@@@@@@@@@@@@@@@@@@@@@@@@@@@@@@@@@@@@@@@@@@@@@@@OOOO",
"XXXX@@@@@@@@@@@@@@@@@@@@@@@@@@@@@@@@@@@@@@@@@@@@@@@@@@@@@@@@OOOO",
"XXXX@@@@@@@@@@@@@@@@@@@@@@@@@@@@@@@@@@@@@@@@@@@@@@@@@@@@@@@@OOOO",
"XXXX@@@@@@@@@@@@@@@@@@@@@@@@@@@@@@@@@@@@@@@@@@@@@@@@@@@@@@@@OOOO",
"XXXX@@@@@@@@@@@@@@@@@@@@@@@@@@@@@@@@@@@@@@@@@@@@@@@@@@@@@@@@OOOO",
"XXXX@@@@@@@@@@@@@@@@@@@@@@@@@@@@@@@@@@@@@@@@@@@@@@@@@@@@@@@@OOOO",
"XXXX@@@@@@@@@@@@@@@@@@@@@@@@@@@@@@@@@@@@@@@@@@@@@@@@@@@@@@@@OOOO",
"XXXX@@@@@@@@@@@@@@@@@@@@@@@@@@@@@@@@@@@@@@@@@@@@@@@@@@@@@@@@OOOO",
"XXXX@@@@@@@@@@@@@@@@@@@@@@@@@@@@@@@@@@@@@@@@@@@@@@@@@@@@@@@@OOOO",
"XXXX@@@@@@@@@@@@@@@@@@@@@@@@@@@@@@@@@@@@@@@@@@@@@@@@@@@@@@@@OOOO",
"XXXX@@@@@@@@@@@@@@@@@@@@@@@@@@@@@@@@@@@@@@@@@@@@@@@@@@@@@@@@OOOO",
"XXXX@@@@@@@@@@@@@@@@@@@@@@@@@@@@@@@@@@@@@@@@@@@@@@@@@@@@@@@@OOOO",
"XXXX@@@@@@@@@@@@@@@@@@@@@@@@@@@@@@@@@@@@@@@@@@@@@@@@@@@@@@@@OOOO",
"XXXX@@@@@@@@@@@@@@@@@@@@@@@@@@@@@@@@@@@@@@@@@@@@@@@@@@@@@@@@OOOO",
"XXXX@@@@@@@@@@@@@@@@@@@@@@@@@@@@@@@@@@@@@@@@@@@@@@@@@@@@@@@@OOOO",
"XXXX@@@@@@@@@@@@@@@@@@@@@@@@@@@@@@@@@@@@@@@@@@@@@@@@@@@@@@@@OOOO",
"XXXX@@@@@@@@@@@@@@@@@@@@@@@@@@@@@@@@@@@@@@@@@@@@@@@@@@@@@@@@OOOO",
"XXXX@@@@@@@@@@@@@@@@@@@@@@@@@@@@@@@@@@@@@@@@@@@@@@@@@@@@@@@@OOOO",
"XXXX@@@@@@@@@@@@@@@@@@@@@@@@@@@@@@@@@@@@@@@@@@@@@@@@@@@@@@@@OOOO",
"XXXX@@@@@@@@@@@@@@@@@@@@@@@@@@@@@@@@@@@@@@@@@@@@@@@@@@@@@@@@OOOO",
"XXXX@@@@@@@@@@@@@@@@@@@@@@@@@@@@@@@@@@@@@@@@@@@@@@@@@@@@@@@@OOOO",
"XXXX@@@@@@@@@@@@@@@@@@@@@@@@@@@@@@@@@@@@@@@@@@@@@@@@@@@@@@@@OOOO",
"XXXX@@@@@@@@@@@@@@@@@@@@@@@@@@@@@@@@@@@@@@@@@@@@@@@@@@@@@@@@OOOO",
"XXXX@@@@@@@@@@@@@@@@@@@@@@@@@@@@@@@@@@@@@@@@@@@@@@@@@@@@@@@@OOOO",
"XXXX@@@@@@@@@@@@@@@@@@@@@@@@@@@@@@@@@@@@@@@@@@@@@@@@@@@@@@@@OOOO",
"XXXX@@@@@@@@@@@@@@@@@@@@@@@@@@@@@@@@@@@@@@@@@@@@@@@@@@@@@@@@OOOO",
"XXXX@@@@####oooo@@@@@@@@@@@@@@@@@@@@@@@@@@@@@@@@####oooo@@@@OOOO",
"XXXX@@@@####oooo@@@@@@@@@@@@@@@@@@@@@@@@@@@@@@@@####oooo@@@@OOOO",
"XXXX@@@@####oooo@@@@@@@@@@@@@@@@@@@@@@@@@@@@@@@@####oooo@@@@OOOO",
"XXXX@@@@####oooo@@@@@@@@@@@@@@@@@@@@@@@@@@@@@@@@####oooo@@@@OOOO",
"XXXX@@@@oooooooo@@@@@@@@@@@@@@@@@@@@@@@@@@@@@@@@oooooooo@@@@OOOO",
"XXXX@@@@oooooooo@@@@@@@@@@@@@@@@@@@@@@@@@@@@@@@@oooooooo@@@@OOOO",
"XXXX@@@@oooooooo@@@@@@@@@@@@@@@@@@@@@@@@@@@@@@@@oooooooo@@@@OOOO",
"XXXX@@@@oooooooo@@@@@@@@@@@@@@@@@@@@@@@@@@@@@@@@oooooooo@@@@OOOO",
"XXXX@@@@@@@@@@@@@@@@@@@@@@@@@@@@@@@@@@@@@@@@@@@@@@@@@@@@@@@@OOOO",
"XXXX@@@@@@@@@@@@@@@@@@@@@@@@@@@@@@@@@@@@@@@@@@@@@@@@@@@@@@@@OOOO",
"XXXX@@@@@@@@@@@@@@@@@@@@@@@@@@@@@@@@@@@@@@@@@@@@@@@@@@@@@@@@OOOO",
"XXXX@@@@@@@@@@@@@@@@@@@@@@@@@@@@@@@@@@@@@@@@@@@@@@@@@@@@@@@@OOOO",
"    ............................................................",
"    ............................................................",
"    ............................................................",
"    ............................................................"
};
