/* XPM */
static char *result[] = {
/* columns rows colors chars-per-pixel */
"64 64 9 1 ",
"  c black",
". c #150D10",
"X c gray9",
"o c #1A1416",
"O c #252525",
"+ c #00FF1F",
"@ c #CEAF66",
"# c #4629AB",
"$ c None",
/* pixels */
"$$$$$$$$$$$$$$$$$$$$$$$$$$$$$$$$$$$$$$$$$$$$$$$$$$$$$$$$$$$$$$$$",
"$$$$$$$$$$$$$$$$$$$$$$$$$$          $$$$$$$$$$$$$$$$$$$$$$$$$$$$",
"$$$$$$$$$$$$$$$$$$$$$$$$$$          $$$$$$$$$$$$$$$$$$$$$$$$$$$$",
"$$$$$$$$$$$$$$$$$$$$$$$$        ##++    $$$$$$$$$$$$$$$$$$$$$$$$",
"$$$$$$$$$$$$$$$$$$$$$$$$        ##++    $$$$$$$$$$$$$$$$$$$$$$$$",
"$$$$$$$$$$$$$$$$$$$$$$  OOOOXXXX  ##++    $$$$$$$$$$$$$$$$$$$$$$",
"$$$$$$$$$$$$$$$$$$$$$$  OOOOXXXX  ##++    $$$$$$$$$$$$$$$$$$$$$$",
"$$$$$$$$$$$$$$$$$$$$$$  OOOOOOXX    ##++  $$$$$$$$$$$$$$$$$$$$$$",
"$$$$$$$$$$$$$$$$$$$$$$  OOOOOOXX    ##++  $$$$$$$$$$$$$$$$$$$$$$",
"$$$$$$$$$$$$$$$$$$$$                ##++##  $$$$$$$$$$$$$$$$$$$$",
"$$$$$$$$$$$$$$$$$$$$                ##++##  $$$$$$$$$$$$$$$$$$$$",
"$$$$$$$$$$$$$$$$$$$$                ##++##  $$$$$$$$$$$$$$$$$$$$",
"$$$$$$$$$$$$$$$$$$$$                ##++##  $$$$$$$$$$$$$$$$$$$$",
"$$$$$$$$$$$$$$$$$$$$      OO        ##++##  $$$$$$$$$$$$$$$$$$$$",
"$$$$$$$$$$$$$$$$$$$$      OO        ##++##  $$$$$$$$$$$$$$$$$$$$",
"$$$$$$$$$$$$$$$$$$$$$$  OOOOOOXXXX  ##++##  $$$$$$$$$$$$$$$$$$$$",
"$$$$$$$$$$$$$$$$$$$$$$  OOOOOOXXXX  ##++##  $$$$$$$$$$$$$$$$$$$$",
"$$$$$$$$$$$$$$$$$$$$$$  OOOOOOXXXX  ##++##  $$$$$$$$$$$$$$$$$$$$",
"$$$$$$$$$$$$$$$$$$$$$$  OOOOOOXXXX  ##++##  $$$$$$$$$$$$$$$$$$$$",
"$$$$$$$$$$$$$$$$$$$$$$  OOOOOOXXXX  ##++  $$$$$$$$$$$$$$$$$$$$$$",
"$$$$$$$$$$$$$$$$$$$$$$  OOOOOOXXXX  ##++  $$$$$$$$$$$$$$$$$$$$$$",
"$$$$$$$$$$$$$$$$$$$$$$    OOXXXX  ##++##  $$$$$$$$$$$$$$$$$$$$$$",
"$$$$$$$$$$$$$$$$$$$$$$    OOXXXX  ##++##  $$$$$$$$$$$$$$$$$$$$$$",
"$$$$$$$$$$$$$$$$$$$$$$$$          ##++  $$$$$$$$$$$$$$$$$$$$$$$$",
"$$$$$$$$$$$$$$$$$$$$$$$$          ##++  $$$$$$$$$$$$$$$$$$$$$$$$",
"$$$$$$$$$$$$$$$$$$$$$$$$  ########++  ##  $$$$$$$$$$$$$$$$$$$$$$",
"$$$$$$$$$$$$$$$$$$$$$$$$  ########++  ##  $$$$$$$$$$$$$$$$$$$$$$",
"$$$$$$$$$$$$$$$$$$$$$$  ##++##++##++  ####  $$$$$$$$$$$$$$$$$$$$",
"$$$$$$$$$$$$$$$$$$$$$$  ##++##++##++  ####  $$$$$$$$$$$$$$$$$$$$",
"$$$$$$$$$$$$$$$$$$$$    ##++##++##++  ####  $$$$$$$$$$$$$$$$$$$$",
"$$$$$$$$$$$$$$$$$$$$    ##++##++##++  ####  $$$$$$$$$$$$$$$$$$$$",
"$$$$$$$$$$$$$$$$$$$$    ##++++++##++  ####  $$$$$$$$$$$$$$$$$$$$",
"$$$$$$$$$$$$$$$$$$$$    ##++++++##++  ####  $$$$$$$$$$$$$$$$$$$$",
"$$$$$$$$$$$$$$$$$$  ##  ##++##++##++  ######  $$$$$$$$$$$$$$$$$$",
"$$$$$$$$$$$$$$$$$$  ##  ##++##++##++  ######  $$$$$$$$$$$$$$$$$$",
"$$$$$$$$$$$$$$$$$$  ##  ##++##++##++##  ####  $$$$$$$$$$$$$$$$$$",
"$$$$$$$$$$$$$$$$$$  ##  ##++##++##++##  ####  $$$$$$$$$$$$$$$$$$",
"$$$$$$$$$$$$$$$$  ####  ##########++##  ####  $$$$$$$$$$$$$$$$$$",
"$$$$$$$$$$$$$$$$  ####  ##########++##  ####  $$$$$$$$$$$$$$$$$$",
"$$$$$$$$$$$$$$$$        ##########++          $$$$$$$$$$$$$$$$$$",
"$$$$$$$$$$$$$$$$        ##########++          $$$$$$$$$$$$$$$$$$",
"$$$$$$$$$$$$$$$$  @@@@                @@@@@@  $$$$$$$$$$$$$$$$$$",
"$$$$$$$$$$$$$$$$  @@@@                @@@@@@  $$$$$$$$$$$$$$$$$$",
"$$$$$$$$$$$$$$$$  @@@@                  @@@@  $$$$$$$$$$$$$$$$$$",
"$$$$$$$$$$$$$$$$  @@@@                  @@@@  $$$$$$$$$$$$$$$$$$",
"$$$$$$$$$$$$$$$$$$      oooooooooooo        $$$$$$$$$$$$$$$$$$$$",
"$$$$$$$$$$$$$$$$$$      oooooooooooo        $$$$$$$$$$$$$$$$$$$$",
"$$$$$$$$$$$$$$$$$$$$$$  oooooooooooooo  $$$$$$$$$$$$$$$$$$$$$$$$",
"$$$$$$$$$$$$$$$$$$$$$$  oooooooooooooo  $$$$$$$$$$$$$$$$$$$$$$$$",
"$$$$$$$$$$$$$$$$$$$$$$  oooo      oooo  $$$$$$$$$$$$$$$$$$$$$$$$",
"$$$$$$$$$$$$$$$$$$$$$$  oooo      oooo  $$$$$$$$$$$$$$$$$$$$$$$$",
"$$$$$$$$$$$$$$$$$$$$$$  oooo  $$  oooo  $$$$$$$$$$$$$$$$$$$$$$$$",
"$$$$$$$$$$$$$$$$$$$$$$  oooo  $$  oooo  $$$$$$$$$$$$$$$$$$$$$$$$",
"$$$$$$$$$$$$$$$$$$$$$$  oooo  $$    oooo  $$$$$$$$$$$$$$$$$$$$$$",
"$$$$$$$$$$$$$$$$$$$$$$  oooo  $$    oooo  $$$$$$$$$$$$$$$$$$$$$$",
"$$$$$$$$$$$$$$$$$$$$$$  oooo  $$    oooo  $$$$$$$$$$$$$$$$$$$$$$",
"$$$$$$$$$$$$$$$$$$$$        $$$$$$        $$$$$$$$$$$$$$$$$$$$$$",
"$$$$$$$$$$$$$$$$$$$$        $$$$$$        $$$$$$$$$$$$$$$$$$$$$$",
"$$$$$$$$$$$$$$$$$$  ......  $$$$$$  ......  $$$$$$$$$$$$$$$$$$$$",
"$$$$$$$$$$$$$$$$$$  ......  $$$$$$  ......  $$$$$$$$$$$$$$$$$$$$",
"$$$$$$$$$$$$$$$$  ........  $$$$$$  ........  $$$$$$$$$$$$$$$$$$",
"$$$$$$$$$$$$$$$$  ........  $$$$$$  ........  $$$$$$$$$$$$$$$$$$",
"$$$$$$$$$$$$$$$$            $$$$$$            $$$$$$$$$$$$$$$$$$",
"$$$$$$$$$$$$$$$$            $$$$$$            $$$$$$$$$$$$$$$$$$"
};
