/* XPM */
static char *result[] = {
/* columns rows colors chars-per-pixel */
"64 64 69 1 ",
"  c black",
". c #000001",
"X c #010102",
"o c #020104",
"O c #020204",
"+ c #030306",
"@ c #030307",
"# c #050409",
"$ c #05040A",
"% c #05040B",
"& c #07060D",
"* c #07060E",
"= c #07060F",
"- c #090811",
"; c #090812",
": c #0A0813",
"> c #0A0913",
", c #0C0A15",
"< c #0C0A16",
"1 c #0C0B16",
"2 c #0D0B17",
"3 c #0D0B18",
"4 c #0E0C18",
"5 c #0F0D19",
"6 c #0F0D1A",
"7 c #100E1A",
"8 c #100E1B",
"9 c #100E1C",
"0 c #110E1C",
"q c #12101D",
"w c #12101E",
"e c #13101E",
"r c #13101F",
"t c #13111F",
"y c #131120",
"u c #141120",
"i c #141121",
"p c #151221",
"a c #151222",
"s c #151322",
"d c #151323",
"f c #161322",
"g c #161323",
"h c #151325",
"j c #171326",
"k c #161426",
"l c #171427",
"z c #181528",
"x c #181529",
"c c #19162A",
"v c #1A162B",
"b c #1A172B",
"n c #1A172C",
"m c #1C1930",
"M c #201D38",
"N c #211E3A",
"B c #221F3C",
"V c #23203E",
"C c #24203E",
"Z c #242140",
"A c #252140",
"S c #252241",
"D c #262242",
"F c #272343",
"G c #272443",
"H c #282444",
"J c #292546",
"K c #292547",
"L c #2A2648",
/* pixels */
"LLLKFDDClrre08874221>;;-=**&%$$#@+++OOOOXXXX....                ",
"LLLKFDDClrre08874221>;;-=**&%$$#@+++OOOOXXXX....                ",
"LLLKFDDClrre08874221>;;-=**&%$$#@+++OOOOXXXX....                ",
"LLLJACCNjrre0887322<:;;-=**&%$$#@+++OOOOXXXX....                ",
"LLLHmcczirre08862<<<:;;-=**&%$$#@+++OOOOXXXX....                ",
"LLLGnddsyrre08862<<,:;;-=**&%$$#@+++OOOOXXXX....                ",
"LLLGnddsyrre08862<<,:;;-=**&%$$#@+++OOOOXXXX....                ",
"LLLGnddsyrre08862<<,:;;-=**&%$$#@+++OOOOXXXX....                ",
"LLLGnddsyrre08862<<,:;;-=**&%$$#@+++OOOOXXXX....                ",
"LLLGnddsyrre08862<<,:;;-=**&%$$#@+++OOOOXXXX....                ",
"LLLGnddsyrre08862<<,:;;-=**&%$$#@+++OOOOXXXX....                ",
"LLLGnddsyrre08862<<,:;;-=**&%$$#@+++OOOOXXXX....                ",
"LLLGnddsyrre08862<<,:;;-=**&%$$#@+++OOOOXXXX....                ",
"LLLGnddsyrre08862<<,:;;-=**&%$$#@+++OOOOXXXX....                ",
"LLLGnddsyrre08862<<,:;;-=**&%$$#@+++OOOOXXXX....                ",
"LLLGnddsyrre08862<<,:;;-=**&%$$#@+++OOOOXXXX....                ",
"LLLGnddsyrre08862<<,:;;-=**&%$$#@+++OOOOXXXX....                ",
"LLLGnddsyrre08862<<,:;;-=**&%$$#@+++OOOOXXXX....                ",
"LLLGnddsyrre08862<<,:;;-=**&%$$#@+++OOOOXXXX....                ",
"LLLGnddsyrre98862<<,:;;-=**&%$$#@+++OOOOXXXX....                ",
"LLLGnddsyrrw86662<<,:;;-=**&%$$#@+++OOOOXXXX....                ",
"LLLGnddsyrrw86652<<,:;;-=**&%$$#@+++OOOOXXXX....                ",
"LLLGnddsyrrw86652<<,:;;-=**&%$$#@+++OOOOXXXX....                ",
"LLLGnddsyrrw86652<<,:;;-=**&%$$#@+++OOOOXXXX....                ",
"LLLGnggsyrrw86652<<,:;;-=**&%$$#@+++OOOOXXXX....                ",
"LLLGnggfurrw86652<<,:;;-=**&%$$#@+++OOOOXXXX....                ",
"LLLGnggfurrw86652<<,:;;-=**&%$$#@+++OOOOXXXX....                ",
"LLLGnggsyrrw86652<<,:;;-=**&%$$#@+++OOOOXXXX....                ",
"LLLGnddsyrrw86652<<,:;;-=**&%$$#@+++OOOOXXXX....                ",
"LLLGnddsyrrw86652<<,:;;-=**&%$$#@+++OOOOXXXX....                ",
"LLLGnddsyrrw86652<<,:;;-=**&%$$#@+++OOOOXXXX....                ",
"LLLGnddsyrrw86652<<,:;;-=**&%$$#@+++OOOOXXXX....                ",
"LLLGnddsyrrw86652<<,:;;-=**&%$$#@+++OOOOXXXX....                ",
"LLLGnddsyrrw86652<<,:;;-=**&%$$#@+++OOOOXXXX....                ",
"LLLGnddsyrrw86652<<,:;;-=**&%$$#@+++OOOOXXXX....                ",
"LLLGnddsyrrw86652<<,:;;-=**&%$$#@+++OOOOXXXX....                ",
"LLLGnddstwww86652<<,:;;-=**&%$$#@+++OOOOXXXX....                ",
"LLLGnddstwwq86652<<,:;;-=**&%$$#@+++OOOOXXXX....                ",
"LLLGnddstwwq86652<<,:;;-=**&%$$#@+++OOOOXXXX....                ",
"LLLGnddstwwq86652<<,:;;-=**&%$$#@+++OOOOXXXX....                ",
"LLLGnddstwwq86652<<,:;;-=**&%$$#@+++OOOOXXXX....                ",
"LLLGnddstwwq86652<<,:;;-=**&%$$#@+++OOOOXXXX....                ",
"LLLGnddstwwq86652<<,:;;-=**&%$$#@+++OOOOXXXX....                ",
"LLLGnddstwwq86652<<,:;;-=**&%$$#@+++OOOOXXXX....                ",
"LLLGnddstwwq86652<<,:;;-=**&%$$#@+++OOOOXXXX....                ",
"LLLGnddstwwq86652<<,:;;-=**&%$$#@+++OOOOXXXX....                ",
"LLLGnddstwwq86652<<,:;;-=**&%$$#@+++OOOOXXXX....                ",
"LLLGnddstwwq86652<<,:;;-=**&%$$#@+++OOOOXXXX....                ",
"LLLGnddstwwq86652<<,:;;-=**&%$$#@+++OOOOXXXX....                ",
"LLLGnddstwwq86652<<,:;;-=**&%$$#@+++OOOOXXXX....                ",
"LLLGnddstwwq86652<<,:;;-=**&%$$#@+++OOOOXXXX....                ",
"LLLGnddstwwq86652<<,:;;-=**&%$$#@+++OOOOXXXX....                ",
"LLLGnddstwwq86652<<,:;;-=**&%$$#@+++OOOOXXXX....                ",
"LLLGnddstwwq86652<<,:;;-=**&%$$#@+++OOOOXXXX....                ",
"LLLGnddstwwq86652<<,:;;-=**&%$$#@+++OOOOXXXX....                ",
"LLLGnddarwwq86652<<,:;;-=**&%$$#@+++OOOOXXXX....                ",
"LLLFbaaarwwq86652<<,:;;-=**&%$$#@+++OOOOXXXX....                ",
"LLLFvaaprwwq86652<<,:;;-=**&%$$#@+++OOOOXXXX....                ",
"LLLFvaaprwwq86652<<,:;;-=**&%$$#@+++OOOOXXXX....                ",
"LLLHmxxlywwq86652<<,:;;-=**&%$$#@+++OOOOXXXX....                ",
"LLLJVBBMhwwq86652<<,:;;-=**&%$$#@+++ooooXXXX....                ",
"LLLKSZZBkwwq86652<<,:;;-=**&%$$#@+++ooooXXXX....                ",
"LLLKSZZBkwwq86652<<,:;;-=**&%$$#@+++ooooXXXX....                ",
"LLLKSZZBkwwq86652<<,:;;-=**&%$$#@+++ooooXXXX....                "
};
