/* XPM */
static char *_2697358d3b54ebd80188cfa438c4d9cCDDPkt0vvi5a15uO[] = {
/* columns rows colors chars-per-pixel */
"64 64 12 1 ",
"  c black",
". c #020104",
"X c #030306",
"o c #05040A",
"O c #07060E",
"+ c #090812",
"@ c #0D0B17",
"# c #100E1B",
"$ c #13101F",
"% c #151323",
"& c #262242",
"* c #2A2648",
/* pixels */
"                                                                ",
"                                                                ",
"                                                                ",
"                                                                ",
"                                                                ",
"                                                                ",
"                                                                ",
"                                                                ",
"                                                                ",
"                                                                ",
"                                                                ",
"                                                                ",
"                                                                ",
"                                                                ",
"                                                                ",
"                                                                ",
"                                                                ",
"                                                                ",
"                                                                ",
"                                                                ",
"                                                                ",
"                                                                ",
"                                                                ",
"                                                                ",
".......                                                        .",
"                                                               .",
"                                                               .",
"                                                               .",
"                                                               .",
"                                                               .",
"                                                               .",
"                                                               .",
"                                                               o",
"                                                               o",
"                                                               o",
"                                                               o",
"                                                               O",
"                                                               O",
"                                                               O",
"                                                               O",
"                                                               +",
"       ........................................................+",
"       ........................................................+",
"       ........................................................+",
"       ........................................................@",
"       ........................................................@",
"       ........................................................@",
"       ........................................................@",
"       ........................................................#",
".......oooooooooooooooooooooooooooooooooooooooooooooooooooooooo#",
".......oooooooooooooooooooooooooooooooooooooooooooooooooooooooo#",
".......oooooooooooooooooooooooooooooooooooooooooooooooooooooooo#",
".......oooooooooooooooooooooooooooooooooooooooooooooooooooooooo$",
".......OOOOOOOOOOOOOOOOOOOOOOOOOOOOOOOOOOOOOOOOOOOOOOOOOOOOOOOO$",
".......OOOOOOOOOOOOOOOOOOOOOOOOOOOOOOOOOOOOOOOOOOOOOOOOOOOOOOOO$",
".......OOOOOOOOOOOOOOOOOOOOOOOOOOOOOOOOOOOOOOOOOOOOOOOOOOOOOOOO$",
"........................................................%%%%&&&&",
"oooooooooooooooooooooooooooooooooooooooooooooooooooooooo%%%%&&&&",
"oooooooooooooooooooooooooooooooooooooooooooooooooooooooo%%%%&&&&",
"oooooooooooooooooooooooooooooooooooooooooooooooooooooooo%%%%&&&&",
"oooooooooooooooooooooooooooooooooooooooooooooooooooooooo********",
"OOOOOOOOOOOOOOOOOOOOOOOOOOOOOOOOOOOOOOOOOOOOOOOOOOOOOOOO********",
"OOOOOOOOOOOOOOOOOOOOOOOOOOOOOOOOOOOOOOOOOOOOOOOOOOOOOOOO********",
"OOOOOOOOOOOOOOOOOOOOOOOOOOOOOOOOOOOOOOOOOOOOOOOOOOOOOOOO********"
};
