/* XPM */
static char *_26c8fa46d9a47e4a4bcf7ead6ff6529aJ5jVeOWsvtmzpmc[] = {
/* columns rows colors chars-per-pixel */
"64 64 11 1 ",
"  c #010102",
". c #030306",
"X c #05040A",
"o c #07060E",
"O c #090812",
"+ c #0D0B17",
"@ c #100E1B",
"# c #13101F",
"$ c #151323",
"% c #262242",
"& c #2A2648",
/* pixels */
"oooXXXX.......                                                  ",
"oooXXXX.......                                                  ",
"oooXXXX........                                                 ",
"oooXXXX........                                                 ",
"oooXXXX........                                                 ",
"oooXXXX........                                                 ",
"oooXXXX........                                                 ",
"oooXXXX.oooXXXX........                                         ",
"oooXXXX.oooXXXX......                                           ",
"oooXXXX.oooXXXX......                                           ",
"oooXXXX.oooXXXX.......                                          ",
"oooXXXX.oooXXXX.......                                          ",
"oooXXXX.oooXXXX........                                         ",
"oooXXXX.oooXXXX........                                         ",
"oooXXXX.oooXXXX........                                         ",
"oooXXXX.oooXXXX........                                         ",
"oooXXXX.oooXXXX........                                         ",
"oooXXXX.oooXXXX........                                         ",
"oooXXXX.oooXXXX.......                                          ",
"oooXXXX.oooXXXX......                                           ",
"oooXXXX.oooXXXX.......                                          ",
"oooXXXX.oooXXXX........                                         ",
"oooXXXX.oooXXXX........                                         ",
"oooXXXX.oooXXXX.......                                          ",
"oooXXXX.oooXXXX......                                           ",
"oooXXXX.oooXXXX......                                           ",
"oooXXXX.oooXXXX.......                                          ",
"oooXXXX.oooXXXX.......                                          ",
"oooXXXX.oooXXXX........                                         ",
"oooXXXX.oooXXXX........                                         ",
"oooXXXX.oooXXXX........                                         ",
"oooXXXX.oooXXXX........                                         ",
"oooXXXX.oooXXXX.......                                          ",
"oooXXXX.oooXXXX.......                                          ",
"oooXXXX.oooXXXX........                                         ",
"oooXXXX.oooXXXX........                                         ",
"oooXXXX.oooXXXX........                                         ",
"oooXXXX.oooXXXX.... ...                                         ",
"oooXXXX.oooXXXX.......                                          ",
"oooXXXX.oooXXXX.......                                          ",
"oooXXXX.oooXXXX.......                                          ",
"oooXXXX.oooXXXX.......                                          ",
"oooXXXX.oooXXXX........                                         ",
"oooXXXX.oooXXXX........                                         ",
"oooXXXX.oooXXXX........                                         ",
"oooXXXX.oooXXXX........                                         ",
"oooXXXX.oooXXXX.... ...                                         ",
"oooXXXX.oooXXXX........                                         ",
"oooXXXX.oooXXXX........                                         ",
"oooXXXX.oooXXXX........                                         ",
"oooXXXX.oooXXXX..... ..                                         ",
"oooXXXX.oooXXXX..... .                                          ",
"oooXXXX.oooXXXX..... ..                                         ",
"oooXXXX.oooXXXX..... ..                                         ",
"oooXXXX.oooXXXX.... ...                                         ",
"oooXXXX.oooXXXX........                                         ",
"&&&&$$$$oooXXXX........                                         ",
"&&&&$$$$oooXXXX........                                         ",
"&&&&$$$$oooXXXX.......                                          ",
"&&&&$$$$oooXXXX........                                         ",
"&&&&%%%%oooXXXX.......                                          ",
"&&&&%%%%oooXXXX........                                         ",
"&&&&%%%%oooXXXX........                                         ",
"&&&&%%%%####@@@@++++OOOOooooXXXX.....                           "
};
